G04*
G04 #@! TF.GenerationSoftware,Altium Limited,Altium Designer,26.5.0 (11)*
G04*
G04 Layer_Color=16711935*
G04 Board_Origin=52480313|90551176*
%FSLAX44Y44*%
%MOMM*%
G71*
G04*
G04 #@! TF.SameCoordinates,ECD78B5F-1B61-4D3A-833B-BB89D8050CE2*
G04*
G04*
G04 #@! TF.FilePolarity,Negative*
G04*
G01*
G75*
%ADD96C,0.2000*%
%ADD147R,0.7000X0.8250*%
%ADD150R,1.0000X1.1000*%
G04:AMPARAMS|DCode=151|XSize=0.7mm|YSize=0.7mm|CornerRadius=0.125mm|HoleSize=0mm|Usage=FLASHONLY|Rotation=0.000|XOffset=0mm|YOffset=0mm|HoleType=Round|Shape=RoundedRectangle|*
%AMROUNDEDRECTD151*
21,1,0.7000,0.4500,0,0,0.0*
21,1,0.4500,0.7000,0,0,0.0*
1,1,0.2500,0.2250,-0.2250*
1,1,0.2500,-0.2250,-0.2250*
1,1,0.2500,-0.2250,0.2250*
1,1,0.2500,0.2250,0.2250*
%
%ADD151ROUNDEDRECTD151*%
G04:AMPARAMS|DCode=152|XSize=0.7mm|YSize=0.7mm|CornerRadius=0.125mm|HoleSize=0mm|Usage=FLASHONLY|Rotation=90.000|XOffset=0mm|YOffset=0mm|HoleType=Round|Shape=RoundedRectangle|*
%AMROUNDEDRECTD152*
21,1,0.7000,0.4500,0,0,90.0*
21,1,0.4500,0.7000,0,0,90.0*
1,1,0.2500,0.2250,0.2250*
1,1,0.2500,0.2250,-0.2250*
1,1,0.2500,-0.2250,-0.2250*
1,1,0.2500,-0.2250,0.2250*
%
%ADD152ROUNDEDRECTD152*%
G04:AMPARAMS|DCode=153|XSize=2.9mm|YSize=2.3mm|CornerRadius=0.6mm|HoleSize=0mm|Usage=FLASHONLY|Rotation=180.000|XOffset=0mm|YOffset=0mm|HoleType=Round|Shape=RoundedRectangle|*
%AMROUNDEDRECTD153*
21,1,2.9000,1.1000,0,0,180.0*
21,1,1.7000,2.3000,0,0,180.0*
1,1,1.2000,-0.8500,0.5500*
1,1,1.2000,0.8500,0.5500*
1,1,1.2000,0.8500,-0.5500*
1,1,1.2000,-0.8500,-0.5500*
%
%ADD153ROUNDEDRECTD153*%
G04:AMPARAMS|DCode=154|XSize=1.4mm|YSize=1mm|CornerRadius=0.125mm|HoleSize=0mm|Usage=FLASHONLY|Rotation=90.000|XOffset=0mm|YOffset=0mm|HoleType=Round|Shape=RoundedRectangle|*
%AMROUNDEDRECTD154*
21,1,1.4000,0.7500,0,0,90.0*
21,1,1.1500,1.0000,0,0,90.0*
1,1,0.2500,0.3750,0.5750*
1,1,0.2500,0.3750,-0.5750*
1,1,0.2500,-0.3750,-0.5750*
1,1,0.2500,-0.3750,0.5750*
%
%ADD154ROUNDEDRECTD154*%
G04:AMPARAMS|DCode=156|XSize=1.4mm|YSize=1mm|CornerRadius=0.125mm|HoleSize=0mm|Usage=FLASHONLY|Rotation=180.000|XOffset=0mm|YOffset=0mm|HoleType=Round|Shape=RoundedRectangle|*
%AMROUNDEDRECTD156*
21,1,1.4000,0.7500,0,0,180.0*
21,1,1.1500,1.0000,0,0,180.0*
1,1,0.2500,-0.5750,0.3750*
1,1,0.2500,0.5750,0.3750*
1,1,0.2500,0.5750,-0.3750*
1,1,0.2500,-0.5750,-0.3750*
%
%ADD156ROUNDEDRECTD156*%
G04:AMPARAMS|DCode=159|XSize=0.4mm|YSize=0.4mm|CornerRadius=0.125mm|HoleSize=0mm|Usage=FLASHONLY|Rotation=180.000|XOffset=0mm|YOffset=0mm|HoleType=Round|Shape=RoundedRectangle|*
%AMROUNDEDRECTD159*
21,1,0.4000,0.1500,0,0,180.0*
21,1,0.1500,0.4000,0,0,180.0*
1,1,0.2500,-0.0750,0.0750*
1,1,0.2500,0.0750,0.0750*
1,1,0.2500,0.0750,-0.0750*
1,1,0.2500,-0.0750,-0.0750*
%
%ADD159ROUNDEDRECTD159*%
G04:AMPARAMS|DCode=160|XSize=0.4mm|YSize=0.4mm|CornerRadius=0.125mm|HoleSize=0mm|Usage=FLASHONLY|Rotation=270.000|XOffset=0mm|YOffset=0mm|HoleType=Round|Shape=RoundedRectangle|*
%AMROUNDEDRECTD160*
21,1,0.4000,0.1500,0,0,270.0*
21,1,0.1500,0.4000,0,0,270.0*
1,1,0.2500,-0.0750,-0.0750*
1,1,0.2500,-0.0750,0.0750*
1,1,0.2500,0.0750,0.0750*
1,1,0.2500,0.0750,-0.0750*
%
%ADD160ROUNDEDRECTD160*%
%ADD161R,0.4516X0.8516*%
%ADD162R,2.7016X2.3016*%
%ADD163R,0.8516X0.4516*%
G04:AMPARAMS|DCode=164|XSize=1mm|YSize=0.9mm|CornerRadius=0.15mm|HoleSize=0mm|Usage=FLASHONLY|Rotation=180.000|XOffset=0mm|YOffset=0mm|HoleType=Round|Shape=RoundedRectangle|*
%AMROUNDEDRECTD164*
21,1,1.0000,0.6000,0,0,180.0*
21,1,0.7000,0.9000,0,0,180.0*
1,1,0.3000,-0.3500,0.3000*
1,1,0.3000,0.3500,0.3000*
1,1,0.3000,0.3500,-0.3000*
1,1,0.3000,-0.3500,-0.3000*
%
%ADD164ROUNDEDRECTD164*%
G04:AMPARAMS|DCode=169|XSize=1.8mm|YSize=1.2mm|CornerRadius=0.125mm|HoleSize=0mm|Usage=FLASHONLY|Rotation=180.000|XOffset=0mm|YOffset=0mm|HoleType=Round|Shape=RoundedRectangle|*
%AMROUNDEDRECTD169*
21,1,1.8000,0.9500,0,0,180.0*
21,1,1.5500,1.2000,0,0,180.0*
1,1,0.2500,-0.7750,0.4750*
1,1,0.2500,0.7750,0.4750*
1,1,0.2500,0.7750,-0.4750*
1,1,0.2500,-0.7750,-0.4750*
%
%ADD169ROUNDEDRECTD169*%
G04:AMPARAMS|DCode=172|XSize=1.7mm|YSize=2.5mm|CornerRadius=0.17mm|HoleSize=0mm|Usage=FLASHONLY|Rotation=180.000|XOffset=0mm|YOffset=0mm|HoleType=Round|Shape=RoundedRectangle|*
%AMROUNDEDRECTD172*
21,1,1.7000,2.1600,0,0,180.0*
21,1,1.3600,2.5000,0,0,180.0*
1,1,0.3400,-0.6800,1.0800*
1,1,0.3400,0.6800,1.0800*
1,1,0.3400,0.6800,-1.0800*
1,1,0.3400,-0.6800,-1.0800*
%
%ADD172ROUNDEDRECTD172*%
G04:AMPARAMS|DCode=174|XSize=1mm|YSize=0.8mm|CornerRadius=0.125mm|HoleSize=0mm|Usage=FLASHONLY|Rotation=270.000|XOffset=0mm|YOffset=0mm|HoleType=Round|Shape=RoundedRectangle|*
%AMROUNDEDRECTD174*
21,1,1.0000,0.5500,0,0,270.0*
21,1,0.7500,0.8000,0,0,270.0*
1,1,0.2500,-0.2750,-0.3750*
1,1,0.2500,-0.2750,0.3750*
1,1,0.2500,0.2750,0.3750*
1,1,0.2500,0.2750,-0.3750*
%
%ADD174ROUNDEDRECTD174*%
G04:AMPARAMS|DCode=178|XSize=1mm|YSize=0.8mm|CornerRadius=0.125mm|HoleSize=0mm|Usage=FLASHONLY|Rotation=0.000|XOffset=0mm|YOffset=0mm|HoleType=Round|Shape=RoundedRectangle|*
%AMROUNDEDRECTD178*
21,1,1.0000,0.5500,0,0,0.0*
21,1,0.7500,0.8000,0,0,0.0*
1,1,0.2500,0.3750,-0.2750*
1,1,0.2500,-0.3750,-0.2750*
1,1,0.2500,-0.3750,0.2750*
1,1,0.2500,0.3750,0.2750*
%
%ADD178ROUNDEDRECTD178*%
%ADD182R,0.7666X0.3816*%
%ADD183R,3.7000X0.8000*%
G04:AMPARAMS|DCode=187|XSize=1.5mm|YSize=1.3mm|CornerRadius=0.125mm|HoleSize=0mm|Usage=FLASHONLY|Rotation=270.000|XOffset=0mm|YOffset=0mm|HoleType=Round|Shape=RoundedRectangle|*
%AMROUNDEDRECTD187*
21,1,1.5000,1.0500,0,0,270.0*
21,1,1.2500,1.3000,0,0,270.0*
1,1,0.2500,-0.5250,-0.6250*
1,1,0.2500,-0.5250,0.6250*
1,1,0.2500,0.5250,0.6250*
1,1,0.2500,0.5250,-0.6250*
%
%ADD187ROUNDEDRECTD187*%
%ADD190R,0.7000X2.1000*%
%ADD192R,2.4000X3.3000*%
%ADD194C,1.6000*%
G04:AMPARAMS|DCode=197|XSize=0.6mm|YSize=0.7mm|CornerRadius=0.08mm|HoleSize=0mm|Usage=FLASHONLY|Rotation=90.000|XOffset=0mm|YOffset=0mm|HoleType=Round|Shape=RoundedRectangle|*
%AMROUNDEDRECTD197*
21,1,0.6000,0.5400,0,0,90.0*
21,1,0.4400,0.7000,0,0,90.0*
1,1,0.1600,0.2700,0.2200*
1,1,0.1600,0.2700,-0.2200*
1,1,0.1600,-0.2700,-0.2200*
1,1,0.1600,-0.2700,0.2200*
%
%ADD197ROUNDEDRECTD197*%
G04:AMPARAMS|DCode=198|XSize=1.2mm|YSize=0.7mm|CornerRadius=0.2mm|HoleSize=0mm|Usage=FLASHONLY|Rotation=180.000|XOffset=0mm|YOffset=0mm|HoleType=Round|Shape=RoundedRectangle|*
%AMROUNDEDRECTD198*
21,1,1.2000,0.3000,0,0,180.0*
21,1,0.8000,0.7000,0,0,180.0*
1,1,0.4000,-0.4000,0.1500*
1,1,0.4000,0.4000,0.1500*
1,1,0.4000,0.4000,-0.1500*
1,1,0.4000,-0.4000,-0.1500*
%
%ADD198ROUNDEDRECTD198*%
G04:AMPARAMS|DCode=200|XSize=1mm|YSize=0.9mm|CornerRadius=0.15mm|HoleSize=0mm|Usage=FLASHONLY|Rotation=90.000|XOffset=0mm|YOffset=0mm|HoleType=Round|Shape=RoundedRectangle|*
%AMROUNDEDRECTD200*
21,1,1.0000,0.6000,0,0,90.0*
21,1,0.7000,0.9000,0,0,90.0*
1,1,0.3000,0.3000,0.3500*
1,1,0.3000,0.3000,-0.3500*
1,1,0.3000,-0.3000,-0.3500*
1,1,0.3000,-0.3000,0.3500*
%
%ADD200ROUNDEDRECTD200*%
G04:AMPARAMS|DCode=213|XSize=1.5mm|YSize=1.3mm|CornerRadius=0.125mm|HoleSize=0mm|Usage=FLASHONLY|Rotation=0.000|XOffset=0mm|YOffset=0mm|HoleType=Round|Shape=RoundedRectangle|*
%AMROUNDEDRECTD213*
21,1,1.5000,1.0500,0,0,0.0*
21,1,1.2500,1.3000,0,0,0.0*
1,1,0.2500,0.6250,-0.5250*
1,1,0.2500,-0.6250,-0.5250*
1,1,0.2500,-0.6250,0.5250*
1,1,0.2500,0.6250,0.5250*
%
%ADD213ROUNDEDRECTD213*%
G04:AMPARAMS|DCode=218|XSize=1.4mm|YSize=1mm|CornerRadius=0.275mm|HoleSize=0mm|Usage=FLASHONLY|Rotation=270.000|XOffset=0mm|YOffset=0mm|HoleType=Round|Shape=RoundedRectangle|*
%AMROUNDEDRECTD218*
21,1,1.4000,0.4500,0,0,270.0*
21,1,0.8500,1.0000,0,0,270.0*
1,1,0.5500,-0.2250,-0.4250*
1,1,0.5500,-0.2250,0.4250*
1,1,0.5500,0.2250,0.4250*
1,1,0.5500,0.2250,-0.4250*
%
%ADD218ROUNDEDRECTD218*%
G04:AMPARAMS|DCode=220|XSize=3.4mm|YSize=1.5mm|CornerRadius=0.125mm|HoleSize=0mm|Usage=FLASHONLY|Rotation=180.000|XOffset=0mm|YOffset=0mm|HoleType=Round|Shape=RoundedRectangle|*
%AMROUNDEDRECTD220*
21,1,3.4000,1.2500,0,0,180.0*
21,1,3.1500,1.5000,0,0,180.0*
1,1,0.2500,-1.5750,0.6250*
1,1,0.2500,1.5750,0.6250*
1,1,0.2500,1.5750,-0.6250*
1,1,0.2500,-1.5750,-0.6250*
%
%ADD220ROUNDEDRECTD220*%
G04:AMPARAMS|DCode=224|XSize=1mm|YSize=0.9mm|CornerRadius=0.125mm|HoleSize=0mm|Usage=FLASHONLY|Rotation=0.000|XOffset=0mm|YOffset=0mm|HoleType=Round|Shape=RoundedRectangle|*
%AMROUNDEDRECTD224*
21,1,1.0000,0.6500,0,0,0.0*
21,1,0.7500,0.9000,0,0,0.0*
1,1,0.2500,0.3750,-0.3250*
1,1,0.2500,-0.3750,-0.3250*
1,1,0.2500,-0.3750,0.3250*
1,1,0.2500,0.3750,0.3250*
%
%ADD224ROUNDEDRECTD224*%
G04:AMPARAMS|DCode=227|XSize=2.7mm|YSize=1.2mm|CornerRadius=0.125mm|HoleSize=0mm|Usage=FLASHONLY|Rotation=180.000|XOffset=0mm|YOffset=0mm|HoleType=Round|Shape=RoundedRectangle|*
%AMROUNDEDRECTD227*
21,1,2.7000,0.9500,0,0,180.0*
21,1,2.4500,1.2000,0,0,180.0*
1,1,0.2500,-1.2250,0.4750*
1,1,0.2500,1.2250,0.4750*
1,1,0.2500,1.2250,-0.4750*
1,1,0.2500,-1.2250,-0.4750*
%
%ADD227ROUNDEDRECTD227*%
G04:AMPARAMS|DCode=228|XSize=1.8mm|YSize=1.2mm|CornerRadius=0.125mm|HoleSize=0mm|Usage=FLASHONLY|Rotation=90.000|XOffset=0mm|YOffset=0mm|HoleType=Round|Shape=RoundedRectangle|*
%AMROUNDEDRECTD228*
21,1,1.8000,0.9500,0,0,90.0*
21,1,1.5500,1.2000,0,0,90.0*
1,1,0.2500,0.4750,0.7750*
1,1,0.2500,0.4750,-0.7750*
1,1,0.2500,-0.4750,-0.7750*
1,1,0.2500,-0.4750,0.7750*
%
%ADD228ROUNDEDRECTD228*%
%ADD241R,0.3816X0.7666*%
%ADD242C,1.1000*%
G04:AMPARAMS|DCode=248|XSize=1.05mm|YSize=1mm|CornerRadius=0.275mm|HoleSize=0mm|Usage=FLASHONLY|Rotation=0.000|XOffset=0mm|YOffset=0mm|HoleType=Round|Shape=RoundedRectangle|*
%AMROUNDEDRECTD248*
21,1,1.0500,0.4500,0,0,0.0*
21,1,0.5000,1.0000,0,0,0.0*
1,1,0.5500,0.2500,-0.2250*
1,1,0.5500,-0.2500,-0.2250*
1,1,0.5500,-0.2500,0.2250*
1,1,0.5500,0.2500,0.2250*
%
%ADD248ROUNDEDRECTD248*%
%ADD258R,0.4500X0.6000*%
%ADD259R,0.4800X0.5300*%
%ADD260R,2.5500X2.0800*%
%ADD261R,0.5000X0.4000*%
G04:AMPARAMS|DCode=265|XSize=1mm|YSize=0.9mm|CornerRadius=0.125mm|HoleSize=0mm|Usage=FLASHONLY|Rotation=270.000|XOffset=0mm|YOffset=0mm|HoleType=Round|Shape=RoundedRectangle|*
%AMROUNDEDRECTD265*
21,1,1.0000,0.6500,0,0,270.0*
21,1,0.7500,0.9000,0,0,270.0*
1,1,0.2500,-0.3250,-0.3750*
1,1,0.2500,-0.3250,0.3750*
1,1,0.2500,0.3250,0.3750*
1,1,0.2500,0.3250,-0.3750*
%
%ADD265ROUNDEDRECTD265*%
%ADD267R,0.9000X1.9000*%
G04:AMPARAMS|DCode=268|XSize=0.45mm|YSize=0.45mm|CornerRadius=0.0938mm|HoleSize=0mm|Usage=FLASHONLY|Rotation=180.000|XOffset=0mm|YOffset=0mm|HoleType=Round|Shape=RoundedRectangle|*
%AMROUNDEDRECTD268*
21,1,0.4500,0.2625,0,0,180.0*
21,1,0.2625,0.4500,0,0,180.0*
1,1,0.1875,-0.1313,0.1313*
1,1,0.1875,0.1313,0.1313*
1,1,0.1875,0.1313,-0.1313*
1,1,0.1875,-0.1313,-0.1313*
%
%ADD268ROUNDEDRECTD268*%
%ADD273C,1.8000*%
%ADD274R,1.8000X1.8000*%
%ADD276C,4.5000*%
%ADD277C,5.7000*%
%ADD279C,1.8000*%
%ADD280C,1.1016*%
%ADD281C,1.3000*%
%ADD282C,1.5080*%
%ADD283C,2.0000*%
%ADD284C,0.7500*%
%ADD285C,1.7011*%
%ADD286O,1.9000X1.1000*%
G04:AMPARAMS|DCode=287|XSize=1.8mm|YSize=1.8mm|CornerRadius=0.5mm|HoleSize=0mm|Usage=FLASHONLY|Rotation=90.000|XOffset=0mm|YOffset=0mm|HoleType=Round|Shape=RoundedRectangle|*
%AMROUNDEDRECTD287*
21,1,1.8000,0.8000,0,0,90.0*
21,1,0.8000,1.8000,0,0,90.0*
1,1,1.0000,0.4000,0.4000*
1,1,1.0000,0.4000,-0.4000*
1,1,1.0000,-0.4000,-0.4000*
1,1,1.0000,-0.4000,0.4000*
%
%ADD287ROUNDEDRECTD287*%
%ADD288C,0.7001*%
%ADD289R,1.7000X1.7000*%
%ADD290C,1.7000*%
%ADD291C,2.2000*%
%ADD292C,1.7080*%
G04:AMPARAMS|DCode=293|XSize=1.3mm|YSize=1.3mm|CornerRadius=0.35mm|HoleSize=0mm|Usage=FLASHONLY|Rotation=0.000|XOffset=0mm|YOffset=0mm|HoleType=Round|Shape=RoundedRectangle|*
%AMROUNDEDRECTD293*
21,1,1.3000,0.6000,0,0,0.0*
21,1,0.6000,1.3000,0,0,0.0*
1,1,0.7000,0.3000,-0.3000*
1,1,0.7000,-0.3000,-0.3000*
1,1,0.7000,-0.3000,0.3000*
1,1,0.7000,0.3000,0.3000*
%
%ADD293ROUNDEDRECTD293*%
G04:AMPARAMS|DCode=294|XSize=1.8mm|YSize=1.8mm|CornerRadius=0.5mm|HoleSize=0mm|Usage=FLASHONLY|Rotation=180.000|XOffset=0mm|YOffset=0mm|HoleType=Round|Shape=RoundedRectangle|*
%AMROUNDEDRECTD294*
21,1,1.8000,0.8000,0,0,180.0*
21,1,0.8000,1.8000,0,0,180.0*
1,1,1.0000,-0.4000,0.4000*
1,1,1.0000,0.4000,0.4000*
1,1,1.0000,0.4000,-0.4000*
1,1,1.0000,-0.4000,-0.4000*
%
%ADD294ROUNDEDRECTD294*%
%ADD295R,1.7080X1.7080*%
%ADD296C,2.2000*%
%ADD297C,1.4000*%
%ADD298O,1.6000X3.2000*%
%ADD299O,1.7000X3.5000*%
%ADD300O,1.7000X2.3000*%
%ADD301O,1.5500X3.2000*%
%ADD302C,2.6000*%
%ADD303C,1.4500*%
%ADD304R,1.3000X1.3000*%
%ADD305C,3.4160*%
%ADD306C,3.4000*%
%ADD307R,1.5080X1.5080*%
%ADD308R,2.0000X2.0000*%
%ADD309R,2.2000X2.2000*%
%ADD310C,0.1000*%
%ADD311C,2.3000*%
%ADD312C,7.2000*%
G04:AMPARAMS|DCode=509|XSize=2.7mm|YSize=1.3mm|CornerRadius=0.125mm|HoleSize=0mm|Usage=FLASHONLY|Rotation=180.000|XOffset=0mm|YOffset=0mm|HoleType=Round|Shape=RoundedRectangle|*
%AMROUNDEDRECTD509*
21,1,2.7000,1.0500,0,0,180.0*
21,1,2.4500,1.3000,0,0,180.0*
1,1,0.2500,-1.2250,0.5250*
1,1,0.2500,1.2250,0.5250*
1,1,0.2500,1.2250,-0.5250*
1,1,0.2500,-1.2250,-0.5250*
%
%ADD509ROUNDEDRECTD509*%
G04:AMPARAMS|DCode=510|XSize=1.29mm|YSize=0.5mm|CornerRadius=0.1mm|HoleSize=0mm|Usage=FLASHONLY|Rotation=180.000|XOffset=0mm|YOffset=0mm|HoleType=Round|Shape=RoundedRectangle|*
%AMROUNDEDRECTD510*
21,1,1.2900,0.3000,0,0,180.0*
21,1,1.0900,0.5000,0,0,180.0*
1,1,0.2000,-0.5450,0.1500*
1,1,0.2000,0.5450,0.1500*
1,1,0.2000,0.5450,-0.1500*
1,1,0.2000,-0.5450,-0.1500*
%
%ADD510ROUNDEDRECTD510*%
%ADD511R,2.3016X2.7016*%
G04:AMPARAMS|DCode=512|XSize=1.5016mm|YSize=1.3016mm|CornerRadius=0.3508mm|HoleSize=0mm|Usage=FLASHONLY|Rotation=270.000|XOffset=0mm|YOffset=0mm|HoleType=Round|Shape=RoundedRectangle|*
%AMROUNDEDRECTD512*
21,1,1.5016,0.6000,0,0,270.0*
21,1,0.8000,1.3016,0,0,270.0*
1,1,0.7016,-0.3000,-0.4000*
1,1,0.7016,-0.3000,0.4000*
1,1,0.7016,0.3000,0.4000*
1,1,0.7016,0.3000,-0.4000*
%
%ADD512ROUNDEDRECTD512*%
G04:AMPARAMS|DCode=513|XSize=0.45mm|YSize=0.45mm|CornerRadius=0.0938mm|HoleSize=0mm|Usage=FLASHONLY|Rotation=270.000|XOffset=0mm|YOffset=0mm|HoleType=Round|Shape=RoundedRectangle|*
%AMROUNDEDRECTD513*
21,1,0.4500,0.2625,0,0,270.0*
21,1,0.2625,0.4500,0,0,270.0*
1,1,0.1875,-0.1313,-0.1313*
1,1,0.1875,-0.1313,0.1313*
1,1,0.1875,0.1313,0.1313*
1,1,0.1875,0.1313,-0.1313*
%
%ADD513ROUNDEDRECTD513*%
%ADD514R,1.3000X2.3000*%
%ADD515R,3.6000X2.3000*%
G04:AMPARAMS|DCode=516|XSize=1.05mm|YSize=1mm|CornerRadius=0.275mm|HoleSize=0mm|Usage=FLASHONLY|Rotation=270.000|XOffset=0mm|YOffset=0mm|HoleType=Round|Shape=RoundedRectangle|*
%AMROUNDEDRECTD516*
21,1,1.0500,0.4500,0,0,270.0*
21,1,0.5000,1.0000,0,0,270.0*
1,1,0.5500,-0.2250,-0.2500*
1,1,0.5500,-0.2250,0.2500*
1,1,0.5500,0.2250,0.2500*
1,1,0.5500,0.2250,-0.2500*
%
%ADD516ROUNDEDRECTD516*%
%ADD517O,2.0215X0.4500*%
%ADD518R,1.3000X1.5000*%
G04:AMPARAMS|DCode=519|XSize=0.5mm|YSize=0.8mm|CornerRadius=0.07mm|HoleSize=0mm|Usage=FLASHONLY|Rotation=0.000|XOffset=0mm|YOffset=0mm|HoleType=Round|Shape=RoundedRectangle|*
%AMROUNDEDRECTD519*
21,1,0.5000,0.6600,0,0,0.0*
21,1,0.3600,0.8000,0,0,0.0*
1,1,0.1400,0.1800,-0.3300*
1,1,0.1400,-0.1800,-0.3300*
1,1,0.1400,-0.1800,0.3300*
1,1,0.1400,0.1800,0.3300*
%
%ADD519ROUNDEDRECTD519*%
G04:AMPARAMS|DCode=520|XSize=0.6mm|YSize=1.1mm|CornerRadius=0.15mm|HoleSize=0mm|Usage=FLASHONLY|Rotation=0.000|XOffset=0mm|YOffset=0mm|HoleType=Round|Shape=RoundedRectangle|*
%AMROUNDEDRECTD520*
21,1,0.6000,0.8000,0,0,0.0*
21,1,0.3000,1.1000,0,0,0.0*
1,1,0.3000,0.1500,-0.4000*
1,1,0.3000,-0.1500,-0.4000*
1,1,0.3000,-0.1500,0.4000*
1,1,0.3000,0.1500,0.4000*
%
%ADD520ROUNDEDRECTD520*%
%ADD521R,4.4500X3.5500*%
%ADD522R,0.5916X1.2586*%
%ADD523R,0.5916X1.2766*%
%ADD524C,0.3400*%
G04:AMPARAMS|DCode=525|XSize=0.96mm|YSize=0.37mm|CornerRadius=0.0838mm|HoleSize=0mm|Usage=FLASHONLY|Rotation=0.000|XOffset=0mm|YOffset=0mm|HoleType=Round|Shape=RoundedRectangle|*
%AMROUNDEDRECTD525*
21,1,0.9600,0.2025,0,0,0.0*
21,1,0.7925,0.3700,0,0,0.0*
1,1,0.1675,0.3963,-0.1013*
1,1,0.1675,-0.3963,-0.1013*
1,1,0.1675,-0.3963,0.1013*
1,1,0.1675,0.3963,0.1013*
%
%ADD525ROUNDEDRECTD525*%
G04:AMPARAMS|DCode=526|XSize=0.96mm|YSize=0.37mm|CornerRadius=0.0838mm|HoleSize=0mm|Usage=FLASHONLY|Rotation=270.000|XOffset=0mm|YOffset=0mm|HoleType=Round|Shape=RoundedRectangle|*
%AMROUNDEDRECTD526*
21,1,0.9600,0.2025,0,0,270.0*
21,1,0.7925,0.3700,0,0,270.0*
1,1,0.1675,-0.1013,-0.3963*
1,1,0.1675,-0.1013,0.3963*
1,1,0.1675,0.1013,0.3963*
1,1,0.1675,0.1013,-0.3963*
%
%ADD526ROUNDEDRECTD526*%
%ADD527R,2.1500X7.6500*%
%ADD528O,0.4500X1.3000*%
G04:AMPARAMS|DCode=529|XSize=2.45mm|YSize=3.6mm|CornerRadius=0.125mm|HoleSize=0mm|Usage=FLASHONLY|Rotation=0.000|XOffset=0mm|YOffset=0mm|HoleType=Round|Shape=RoundedRectangle|*
%AMROUNDEDRECTD529*
21,1,2.4500,3.3500,0,0,0.0*
21,1,2.2000,3.6000,0,0,0.0*
1,1,0.2500,1.1000,-1.6750*
1,1,0.2500,-1.1000,-1.6750*
1,1,0.2500,-1.1000,1.6750*
1,1,0.2500,1.1000,1.6750*
%
%ADD529ROUNDEDRECTD529*%
G04:AMPARAMS|DCode=530|XSize=2.45mm|YSize=3.6mm|CornerRadius=0.125mm|HoleSize=0mm|Usage=FLASHONLY|Rotation=270.000|XOffset=0mm|YOffset=0mm|HoleType=Round|Shape=RoundedRectangle|*
%AMROUNDEDRECTD530*
21,1,2.4500,3.3500,0,0,270.0*
21,1,2.2000,3.6000,0,0,270.0*
1,1,0.2500,-1.6750,-1.1000*
1,1,0.2500,-1.6750,1.1000*
1,1,0.2500,1.6750,1.1000*
1,1,0.2500,1.6750,-1.1000*
%
%ADD530ROUNDEDRECTD530*%
%ADD531R,2.7000X1.6011*%
G04:AMPARAMS|DCode=532|XSize=2.9mm|YSize=2.3mm|CornerRadius=0.6mm|HoleSize=0mm|Usage=FLASHONLY|Rotation=90.000|XOffset=0mm|YOffset=0mm|HoleType=Round|Shape=RoundedRectangle|*
%AMROUNDEDRECTD532*
21,1,2.9000,1.1000,0,0,90.0*
21,1,1.7000,2.3000,0,0,90.0*
1,1,1.2000,0.5500,0.8500*
1,1,1.2000,0.5500,-0.8500*
1,1,1.2000,-0.5500,-0.8500*
1,1,1.2000,-0.5500,0.8500*
%
%ADD532ROUNDEDRECTD532*%
%ADD533R,0.8000X2.1000*%
%ADD534R,2.9016X2.9016*%
%ADD535O,0.5000X1.5500*%
G04:AMPARAMS|DCode=536|XSize=2.7mm|YSize=1.3mm|CornerRadius=0.125mm|HoleSize=0mm|Usage=FLASHONLY|Rotation=270.000|XOffset=0mm|YOffset=0mm|HoleType=Round|Shape=RoundedRectangle|*
%AMROUNDEDRECTD536*
21,1,2.7000,1.0500,0,0,270.0*
21,1,2.4500,1.3000,0,0,270.0*
1,1,0.2500,-0.5250,-1.2250*
1,1,0.2500,-0.5250,1.2250*
1,1,0.2500,0.5250,1.2250*
1,1,0.2500,0.5250,-1.2250*
%
%ADD536ROUNDEDRECTD536*%
%ADD537R,0.4100X0.3300*%
G04:AMPARAMS|DCode=538|XSize=1.325mm|YSize=1mm|CornerRadius=0.125mm|HoleSize=0mm|Usage=FLASHONLY|Rotation=0.000|XOffset=0mm|YOffset=0mm|HoleType=Round|Shape=RoundedRectangle|*
%AMROUNDEDRECTD538*
21,1,1.3250,0.7500,0,0,0.0*
21,1,1.0750,1.0000,0,0,0.0*
1,1,0.2500,0.5375,-0.3750*
1,1,0.2500,-0.5375,-0.3750*
1,1,0.2500,-0.5375,0.3750*
1,1,0.2500,0.5375,0.3750*
%
%ADD538ROUNDEDRECTD538*%
%ADD539R,0.8000X1.5000*%
%ADD540R,11.0500X5.2500*%
G04:AMPARAMS|DCode=541|XSize=1.1mm|YSize=1.9mm|CornerRadius=0.11mm|HoleSize=0mm|Usage=FLASHONLY|Rotation=180.000|XOffset=0mm|YOffset=0mm|HoleType=Round|Shape=RoundedRectangle|*
%AMROUNDEDRECTD541*
21,1,1.1000,1.6800,0,0,180.0*
21,1,0.8800,1.9000,0,0,180.0*
1,1,0.2200,-0.4400,0.8400*
1,1,0.2200,0.4400,0.8400*
1,1,0.2200,0.4400,-0.8400*
1,1,0.2200,-0.4400,-0.8400*
%
%ADD541ROUNDEDRECTD541*%
G04:AMPARAMS|DCode=542|XSize=3.4mm|YSize=1.5mm|CornerRadius=0.125mm|HoleSize=0mm|Usage=FLASHONLY|Rotation=270.000|XOffset=0mm|YOffset=0mm|HoleType=Round|Shape=RoundedRectangle|*
%AMROUNDEDRECTD542*
21,1,3.4000,1.2500,0,0,270.0*
21,1,3.1500,1.5000,0,0,270.0*
1,1,0.2500,-0.6250,-1.5750*
1,1,0.2500,-0.6250,1.5750*
1,1,0.2500,0.6250,1.5750*
1,1,0.2500,0.6250,-1.5750*
%
%ADD542ROUNDEDRECTD542*%
%ADD543R,3.1000X5.1000*%
%ADD544O,2.2000X3.7000*%
%ADD545O,3.7000X2.2000*%
G36*
X189826Y334949D02*
Y344949D01*
X189148Y344990D01*
X188471Y345051D01*
X187797Y345134D01*
X187126Y345237D01*
X186458Y345361D01*
X185795Y345505D01*
X185136Y345670D01*
X184482Y345855D01*
X183835Y346060D01*
X183194Y346286D01*
X182561Y346530D01*
X181935Y346794D01*
X181318Y347078D01*
X180710Y347380D01*
X180111Y347701D01*
X179523Y348040D01*
X178945Y348397D01*
X178379Y348772D01*
X177824Y349164D01*
X177282Y349574D01*
X176753Y349999D01*
X176237Y350441D01*
X175736Y350898D01*
X175248Y351371D01*
X174775Y351859D01*
X174317Y352361D01*
X173876Y352877D01*
X173450Y353406D01*
X173041Y353948D01*
X172649Y354502D01*
X172274Y355069D01*
X171917Y355646D01*
X171577Y356234D01*
X171257Y356833D01*
X170954Y357441D01*
X170671Y358058D01*
X170407Y358684D01*
X170162Y359318D01*
X169937Y359958D01*
X169732Y360606D01*
X169547Y361259D01*
X169382Y361918D01*
X169237Y362582D01*
X169114Y363249D01*
X169011Y363921D01*
X168928Y364595D01*
X168866Y365271D01*
X168826Y365949D01*
X158826D01*
X158861Y365131D01*
X158918Y364315D01*
X158996Y363500D01*
X159094Y362687D01*
X159213Y361878D01*
X159352Y361071D01*
X159513Y360268D01*
X159693Y359470D01*
X159894Y358676D01*
X160116Y357888D01*
X160357Y357106D01*
X160619Y356330D01*
X160900Y355562D01*
X161200Y354800D01*
X161520Y354047D01*
X161860Y353302D01*
X162218Y352566D01*
X162594Y351839D01*
X162990Y351123D01*
X163403Y350416D01*
X163835Y349721D01*
X164284Y349036D01*
X164750Y348364D01*
X165234Y347703D01*
X165734Y347055D01*
X166251Y346420D01*
X166783Y345799D01*
X167332Y345191D01*
X167896Y344598D01*
X168475Y344019D01*
X169068Y343455D01*
X169675Y342907D01*
X170297Y342374D01*
X170932Y341857D01*
X171580Y341357D01*
X172240Y340874D01*
X172913Y340407D01*
X173597Y339958D01*
X174293Y339527D01*
X174999Y339113D01*
X175716Y338718D01*
X176443Y338341D01*
X177178Y337983D01*
X177924Y337644D01*
X178677Y337324D01*
X179438Y337023D01*
X180207Y336742D01*
X180983Y336481D01*
X181765Y336239D01*
X182553Y336018D01*
X183347Y335817D01*
X184145Y335636D01*
X184947Y335476D01*
X185754Y335336D01*
X186564Y335217D01*
X187376Y335119D01*
X188192Y335041D01*
X189008Y334985D01*
X189826Y334949D01*
D02*
G37*
G36*
X158826Y369293D02*
X168826D01*
X168866Y369971D01*
X168928Y370647D01*
X169011Y371321D01*
X169114Y371993D01*
X169237Y372660D01*
X169382Y373324D01*
X169547Y373983D01*
X169732Y374636D01*
X169937Y375284D01*
X170162Y375924D01*
X170407Y376558D01*
X170671Y377184D01*
X170954Y377801D01*
X171257Y378409D01*
X171577Y379008D01*
X171917Y379596D01*
X172274Y380174D01*
X172649Y380740D01*
X173041Y381295D01*
X173450Y381837D01*
X173876Y382366D01*
X174317Y382882D01*
X174775Y383383D01*
X175248Y383871D01*
X175735Y384344D01*
X176237Y384801D01*
X176753Y385243D01*
X177282Y385669D01*
X177824Y386078D01*
X178379Y386470D01*
X178945Y386845D01*
X179523Y387202D01*
X180111Y387541D01*
X180710Y387862D01*
X181318Y388164D01*
X181935Y388448D01*
X182561Y388712D01*
X183194Y388957D01*
X183835Y389182D01*
X184482Y389387D01*
X185136Y389572D01*
X185795Y389737D01*
X186458Y389881D01*
X187126Y390005D01*
X187797Y390108D01*
X188471Y390191D01*
X189148Y390252D01*
X189826Y390293D01*
Y400293D01*
X189008Y400257D01*
X188192Y400201D01*
X187376Y400123D01*
X186564Y400025D01*
X185754Y399906D01*
X184947Y399766D01*
X184145Y399606D01*
X183347Y399426D01*
X182553Y399224D01*
X181765Y399003D01*
X180983Y398762D01*
X180207Y398500D01*
X179438Y398219D01*
X178677Y397919D01*
X177924Y397598D01*
X177179Y397259D01*
X176443Y396901D01*
X175716Y396524D01*
X174999Y396129D01*
X174293Y395715D01*
X173597Y395284D01*
X172913Y394835D01*
X172240Y394368D01*
X171580Y393885D01*
X170932Y393385D01*
X170297Y392868D01*
X169675Y392335D01*
X169068Y391787D01*
X168475Y391223D01*
X167896Y390644D01*
X167332Y390051D01*
X166783Y389443D01*
X166251Y388822D01*
X165734Y388187D01*
X165234Y387539D01*
X164750Y386878D01*
X164284Y386206D01*
X163835Y385522D01*
X163403Y384826D01*
X162990Y384119D01*
X162594Y383403D01*
X162218Y382676D01*
X161860Y381940D01*
X161520Y381195D01*
X161200Y380442D01*
X160900Y379680D01*
X160619Y378912D01*
X160357Y378136D01*
X160116Y377354D01*
X159894Y376566D01*
X159693Y375772D01*
X159513Y374974D01*
X159352Y374171D01*
X159213Y373365D01*
X159094Y372555D01*
X158996Y371742D01*
X158918Y370927D01*
X158861Y370111D01*
X158826Y369293D01*
D02*
G37*
G36*
X224197Y365961D02*
X214197D01*
X214156Y365283D01*
X214095Y364607D01*
X214012Y363933D01*
X213909Y363261D01*
X213785Y362594D01*
X213641Y361930D01*
X213476Y361272D01*
X213291Y360618D01*
X213086Y359970D01*
X212861Y359330D01*
X212616Y358696D01*
X212352Y358070D01*
X212068Y357453D01*
X211766Y356845D01*
X211445Y356246D01*
X211106Y355658D01*
X210749Y355081D01*
X210374Y354514D01*
X209982Y353960D01*
X209573Y353418D01*
X209147Y352889D01*
X208705Y352373D01*
X208248Y351871D01*
X207775Y351383D01*
X207287Y350910D01*
X206785Y350453D01*
X206269Y350011D01*
X205741Y349586D01*
X205198Y349176D01*
X204644Y348784D01*
X204077Y348409D01*
X203500Y348052D01*
X202912Y347713D01*
X202313Y347392D01*
X201705Y347090D01*
X201088Y346806D01*
X200462Y346542D01*
X199828Y346297D01*
X199188Y346073D01*
X198540Y345867D01*
X197887Y345682D01*
X197228Y345517D01*
X196565Y345373D01*
X195897Y345249D01*
X195225Y345146D01*
X194551Y345064D01*
X193875Y345002D01*
X193197Y344961D01*
Y334961D01*
X194015Y334997D01*
X194831Y335053D01*
X195646Y335131D01*
X196459Y335229D01*
X197269Y335348D01*
X198075Y335488D01*
X198878Y335648D01*
X199676Y335829D01*
X200470Y336030D01*
X201258Y336251D01*
X202040Y336493D01*
X202816Y336754D01*
X203584Y337035D01*
X204346Y337336D01*
X205099Y337656D01*
X205844Y337995D01*
X206580Y338353D01*
X207307Y338730D01*
X208023Y339125D01*
X208730Y339539D01*
X209426Y339970D01*
X210110Y340419D01*
X210782Y340886D01*
X211443Y341369D01*
X212091Y341870D01*
X212726Y342386D01*
X213347Y342919D01*
X213955Y343467D01*
X214548Y344031D01*
X215127Y344610D01*
X215691Y345203D01*
X216239Y345811D01*
X216772Y346432D01*
X217289Y347067D01*
X217789Y347715D01*
X218272Y348376D01*
X218739Y349048D01*
X219188Y349733D01*
X219619Y350428D01*
X220033Y351135D01*
X220428Y351852D01*
X220805Y352578D01*
X221163Y353314D01*
X221502Y354059D01*
X221822Y354812D01*
X222123Y355574D01*
X222404Y356343D01*
X222666Y357118D01*
X222907Y357901D01*
X223128Y358688D01*
X223329Y359482D01*
X223510Y360280D01*
X223670Y361083D01*
X223810Y361890D01*
X223929Y362699D01*
X224027Y363512D01*
X224105Y364327D01*
X224161Y365143D01*
X224197Y365961D01*
D02*
G37*
G36*
X193157Y400320D02*
Y390320D01*
X193835Y390280D01*
X194512Y390218D01*
X195186Y390136D01*
X195857Y390033D01*
X196525Y389908D01*
X197188Y389764D01*
X197847Y389599D01*
X198501Y389414D01*
X199148Y389209D01*
X199789Y388984D01*
X200422Y388739D01*
X201048Y388475D01*
X201665Y388192D01*
X202273Y387890D01*
X202872Y387569D01*
X203460Y387229D01*
X204038Y386872D01*
X204604Y386497D01*
X205159Y386105D01*
X205701Y385696D01*
X206230Y385271D01*
X206746Y384828D01*
X207248Y384371D01*
X207735Y383898D01*
X208208Y383411D01*
X208666Y382909D01*
X209107Y382393D01*
X209533Y381864D01*
X209942Y381322D01*
X210334Y380767D01*
X210709Y380201D01*
X211066Y379623D01*
X211406Y379035D01*
X211726Y378436D01*
X212029Y377828D01*
X212312Y377211D01*
X212576Y376585D01*
X212821Y375952D01*
X213046Y375311D01*
X213251Y374664D01*
X213436Y374010D01*
X213601Y373351D01*
X213745Y372688D01*
X213869Y372020D01*
X213973Y371349D01*
X214055Y370675D01*
X214117Y369998D01*
X214157Y369320D01*
X224157D01*
X224122Y370138D01*
X224065Y370955D01*
X223988Y371770D01*
X223889Y372582D01*
X223770Y373392D01*
X223631Y374199D01*
X223470Y375001D01*
X223290Y375800D01*
X223089Y376593D01*
X222867Y377381D01*
X222626Y378163D01*
X222365Y378939D01*
X222084Y379708D01*
X221783Y380469D01*
X221463Y381222D01*
X221124Y381968D01*
X220765Y382703D01*
X220389Y383430D01*
X219993Y384147D01*
X219580Y384853D01*
X219148Y385549D01*
X218699Y386233D01*
X218233Y386906D01*
X217749Y387566D01*
X217249Y388214D01*
X216732Y388849D01*
X216200Y389471D01*
X215651Y390078D01*
X215087Y390672D01*
X214508Y391250D01*
X213915Y391814D01*
X213308Y392363D01*
X212686Y392895D01*
X212051Y393412D01*
X211403Y393912D01*
X210743Y394396D01*
X210070Y394862D01*
X209386Y395311D01*
X208690Y395743D01*
X207984Y396156D01*
X207267Y396552D01*
X206540Y396928D01*
X205805Y397286D01*
X205060Y397626D01*
X204306Y397946D01*
X203545Y398247D01*
X202776Y398527D01*
X202000Y398789D01*
X201218Y399030D01*
X200430Y399252D01*
X199637Y399453D01*
X198838Y399633D01*
X198036Y399794D01*
X197229Y399933D01*
X196419Y400052D01*
X195607Y400151D01*
X194792Y400228D01*
X193975Y400285D01*
X193157Y400320D01*
D02*
G37*
G36*
X584076Y860372D02*
X571507D01*
Y839590D01*
X583984Y839590D01*
X583984Y824750D01*
X554000D01*
Y874736D01*
X584007D01*
X584076Y860372D01*
D02*
G37*
G36*
X1170675Y369293D02*
X1180675D01*
X1180715Y369971D01*
X1180777Y370647D01*
X1180860Y371321D01*
X1180963Y371993D01*
X1181087Y372660D01*
X1181231Y373324D01*
X1181396Y373983D01*
X1181581Y374636D01*
X1181786Y375284D01*
X1182011Y375924D01*
X1182256Y376558D01*
X1182520Y377184D01*
X1182803Y377801D01*
X1183106Y378409D01*
X1183426Y379008D01*
X1183766Y379596D01*
X1184123Y380174D01*
X1184498Y380740D01*
X1184890Y381295D01*
X1185299Y381837D01*
X1185725Y382366D01*
X1186167Y382882D01*
X1186624Y383383D01*
X1187097Y383871D01*
X1187584Y384344D01*
X1188086Y384801D01*
X1188602Y385243D01*
X1189131Y385669D01*
X1189673Y386078D01*
X1190228Y386470D01*
X1190794Y386845D01*
X1191372Y387202D01*
X1191960Y387541D01*
X1192559Y387862D01*
X1193167Y388164D01*
X1193784Y388448D01*
X1194410Y388712D01*
X1195043Y388957D01*
X1195684Y389182D01*
X1196331Y389387D01*
X1196985Y389572D01*
X1197644Y389737D01*
X1198307Y389881D01*
X1198975Y390005D01*
X1199646Y390108D01*
X1200320Y390191D01*
X1200997Y390252D01*
X1201675Y390293D01*
Y400293D01*
X1200857Y400257D01*
X1200041Y400201D01*
X1199225Y400123D01*
X1198413Y400025D01*
X1197603Y399906D01*
X1196796Y399766D01*
X1195994Y399606D01*
X1195195Y399426D01*
X1194402Y399224D01*
X1193614Y399003D01*
X1192832Y398762D01*
X1192056Y398500D01*
X1191287Y398219D01*
X1190526Y397919D01*
X1189773Y397598D01*
X1189028Y397259D01*
X1188292Y396901D01*
X1187565Y396524D01*
X1186848Y396129D01*
X1186142Y395715D01*
X1185446Y395284D01*
X1184762Y394835D01*
X1184089Y394368D01*
X1183429Y393885D01*
X1182781Y393385D01*
X1182146Y392868D01*
X1181524Y392335D01*
X1180917Y391787D01*
X1180323Y391223D01*
X1179745Y390644D01*
X1179181Y390051D01*
X1178632Y389443D01*
X1178100Y388822D01*
X1177583Y388187D01*
X1177083Y387539D01*
X1176599Y386878D01*
X1176133Y386206D01*
X1175684Y385522D01*
X1175252Y384826D01*
X1174839Y384119D01*
X1174443Y383403D01*
X1174067Y382676D01*
X1173709Y381940D01*
X1173369Y381195D01*
X1173049Y380442D01*
X1172748Y379680D01*
X1172468Y378912D01*
X1172206Y378136D01*
X1171965Y377354D01*
X1171743Y376566D01*
X1171542Y375772D01*
X1171362Y374974D01*
X1171201Y374171D01*
X1171062Y373365D01*
X1170943Y372555D01*
X1170844Y371742D01*
X1170767Y370927D01*
X1170710Y370111D01*
X1170675Y369293D01*
D02*
G37*
G36*
X1201675Y334949D02*
Y344949D01*
X1200997Y344990D01*
X1200320Y345052D01*
X1199646Y345134D01*
X1198975Y345237D01*
X1198307Y345361D01*
X1197644Y345505D01*
X1196985Y345670D01*
X1196331Y345855D01*
X1195684Y346060D01*
X1195043Y346286D01*
X1194410Y346530D01*
X1193784Y346794D01*
X1193167Y347078D01*
X1192559Y347380D01*
X1191960Y347701D01*
X1191372Y348040D01*
X1190794Y348397D01*
X1190228Y348772D01*
X1189673Y349164D01*
X1189131Y349574D01*
X1188602Y349999D01*
X1188086Y350441D01*
X1187585Y350898D01*
X1187097Y351371D01*
X1186624Y351859D01*
X1186167Y352361D01*
X1185725Y352877D01*
X1185299Y353406D01*
X1184890Y353948D01*
X1184498Y354502D01*
X1184123Y355069D01*
X1183766Y355646D01*
X1183426Y356234D01*
X1183106Y356833D01*
X1182803Y357441D01*
X1182520Y358058D01*
X1182256Y358684D01*
X1182011Y359318D01*
X1181786Y359958D01*
X1181581Y360606D01*
X1181396Y361260D01*
X1181231Y361918D01*
X1181087Y362582D01*
X1180963Y363249D01*
X1180860Y363921D01*
X1180777Y364595D01*
X1180715Y365271D01*
X1180675Y365949D01*
X1170675D01*
X1170710Y365131D01*
X1170767Y364315D01*
X1170844Y363500D01*
X1170943Y362687D01*
X1171062Y361878D01*
X1171201Y361071D01*
X1171362Y360268D01*
X1171542Y359470D01*
X1171743Y358676D01*
X1171965Y357888D01*
X1172206Y357106D01*
X1172468Y356330D01*
X1172748Y355562D01*
X1173049Y354800D01*
X1173369Y354047D01*
X1173709Y353302D01*
X1174067Y352566D01*
X1174443Y351839D01*
X1174839Y351123D01*
X1175252Y350416D01*
X1175684Y349721D01*
X1176133Y349036D01*
X1176599Y348364D01*
X1177083Y347703D01*
X1177583Y347055D01*
X1178100Y346420D01*
X1178632Y345799D01*
X1179181Y345191D01*
X1179745Y344598D01*
X1180323Y344019D01*
X1180917Y343455D01*
X1181524Y342907D01*
X1182146Y342374D01*
X1182781Y341857D01*
X1183429Y341357D01*
X1184089Y340874D01*
X1184762Y340407D01*
X1185446Y339958D01*
X1186142Y339527D01*
X1186848Y339113D01*
X1187565Y338718D01*
X1188292Y338341D01*
X1189027Y337983D01*
X1189773Y337644D01*
X1190526Y337324D01*
X1191287Y337023D01*
X1192056Y336742D01*
X1192832Y336481D01*
X1193614Y336239D01*
X1194402Y336018D01*
X1195195Y335817D01*
X1195994Y335636D01*
X1196796Y335476D01*
X1197603Y335336D01*
X1198413Y335217D01*
X1199225Y335119D01*
X1200041Y335041D01*
X1200857Y334985D01*
X1201675Y334949D01*
D02*
G37*
G36*
X1236046Y365961D02*
X1226046D01*
X1226005Y365283D01*
X1225944Y364607D01*
X1225861Y363933D01*
X1225758Y363261D01*
X1225634Y362594D01*
X1225490Y361930D01*
X1225325Y361272D01*
X1225140Y360618D01*
X1224935Y359970D01*
X1224710Y359330D01*
X1224465Y358696D01*
X1224201Y358070D01*
X1223917Y357453D01*
X1223615Y356845D01*
X1223294Y356246D01*
X1222955Y355658D01*
X1222598Y355081D01*
X1222223Y354514D01*
X1221831Y353960D01*
X1221422Y353418D01*
X1220996Y352889D01*
X1220554Y352373D01*
X1220097Y351871D01*
X1219624Y351383D01*
X1219136Y350910D01*
X1218634Y350453D01*
X1218119Y350011D01*
X1217589Y349586D01*
X1217047Y349176D01*
X1216493Y348784D01*
X1215927Y348409D01*
X1215349Y348052D01*
X1214761Y347713D01*
X1214162Y347392D01*
X1213554Y347090D01*
X1212937Y346806D01*
X1212311Y346542D01*
X1211677Y346298D01*
X1211037Y346073D01*
X1210389Y345867D01*
X1209735Y345682D01*
X1209077Y345517D01*
X1208413Y345373D01*
X1207746Y345249D01*
X1207074Y345146D01*
X1206400Y345064D01*
X1205724Y345002D01*
X1205046Y344961D01*
Y334961D01*
X1205864Y334997D01*
X1206680Y335053D01*
X1207495Y335131D01*
X1208308Y335229D01*
X1209118Y335348D01*
X1209924Y335488D01*
X1210727Y335648D01*
X1211525Y335829D01*
X1212319Y336030D01*
X1213107Y336251D01*
X1213889Y336493D01*
X1214665Y336754D01*
X1215433Y337035D01*
X1216195Y337336D01*
X1216948Y337656D01*
X1217693Y337995D01*
X1218429Y338353D01*
X1219156Y338730D01*
X1219872Y339125D01*
X1220579Y339539D01*
X1221274Y339970D01*
X1221959Y340419D01*
X1222631Y340886D01*
X1223292Y341369D01*
X1223940Y341870D01*
X1224575Y342386D01*
X1225196Y342919D01*
X1225804Y343467D01*
X1226397Y344031D01*
X1226976Y344610D01*
X1227540Y345203D01*
X1228088Y345811D01*
X1228621Y346432D01*
X1229138Y347067D01*
X1229638Y347715D01*
X1230121Y348376D01*
X1230588Y349048D01*
X1231037Y349733D01*
X1231468Y350428D01*
X1231882Y351135D01*
X1232277Y351852D01*
X1232654Y352578D01*
X1233012Y353314D01*
X1233351Y354059D01*
X1233671Y354812D01*
X1233972Y355574D01*
X1234253Y356343D01*
X1234514Y357118D01*
X1234756Y357901D01*
X1234977Y358688D01*
X1235179Y359482D01*
X1235359Y360280D01*
X1235519Y361083D01*
X1235659Y361890D01*
X1235778Y362699D01*
X1235876Y363512D01*
X1235954Y364327D01*
X1236010Y365143D01*
X1236046Y365961D01*
D02*
G37*
G36*
X1205006Y400320D02*
Y390320D01*
X1205684Y390280D01*
X1206361Y390218D01*
X1207035Y390136D01*
X1207706Y390033D01*
X1208374Y389908D01*
X1209037Y389764D01*
X1209696Y389599D01*
X1210350Y389414D01*
X1210997Y389209D01*
X1211638Y388984D01*
X1212271Y388739D01*
X1212897Y388475D01*
X1213514Y388192D01*
X1214122Y387890D01*
X1214721Y387569D01*
X1215309Y387229D01*
X1215887Y386872D01*
X1216453Y386497D01*
X1217008Y386105D01*
X1217550Y385696D01*
X1218079Y385271D01*
X1218595Y384828D01*
X1219097Y384371D01*
X1219584Y383898D01*
X1220057Y383411D01*
X1220515Y382909D01*
X1220956Y382393D01*
X1221382Y381864D01*
X1221791Y381322D01*
X1222183Y380767D01*
X1222558Y380201D01*
X1222915Y379623D01*
X1223255Y379035D01*
X1223576Y378436D01*
X1223878Y377828D01*
X1224161Y377211D01*
X1224425Y376585D01*
X1224670Y375952D01*
X1224895Y375311D01*
X1225100Y374664D01*
X1225285Y374010D01*
X1225450Y373351D01*
X1225594Y372688D01*
X1225719Y372020D01*
X1225822Y371349D01*
X1225904Y370675D01*
X1225966Y369998D01*
X1226006Y369320D01*
X1236006D01*
X1235971Y370138D01*
X1235914Y370955D01*
X1235837Y371770D01*
X1235738Y372582D01*
X1235619Y373392D01*
X1235480Y374199D01*
X1235319Y375001D01*
X1235139Y375800D01*
X1234938Y376593D01*
X1234716Y377381D01*
X1234475Y378163D01*
X1234213Y378939D01*
X1233933Y379708D01*
X1233632Y380469D01*
X1233312Y381222D01*
X1232972Y381968D01*
X1232614Y382703D01*
X1232238Y383430D01*
X1231842Y384147D01*
X1231429Y384853D01*
X1230997Y385549D01*
X1230548Y386233D01*
X1230082Y386906D01*
X1229598Y387566D01*
X1229098Y388214D01*
X1228581Y388849D01*
X1228049Y389471D01*
X1227500Y390078D01*
X1226936Y390672D01*
X1226357Y391250D01*
X1225764Y391814D01*
X1225157Y392363D01*
X1224535Y392895D01*
X1223900Y393412D01*
X1223252Y393912D01*
X1222592Y394396D01*
X1221919Y394862D01*
X1221235Y395311D01*
X1220539Y395743D01*
X1219833Y396156D01*
X1219116Y396552D01*
X1218389Y396928D01*
X1217654Y397286D01*
X1216908Y397626D01*
X1216155Y397946D01*
X1215394Y398247D01*
X1214625Y398527D01*
X1213849Y398789D01*
X1213067Y399030D01*
X1212279Y399252D01*
X1211486Y399453D01*
X1210687Y399633D01*
X1209885Y399794D01*
X1209078Y399933D01*
X1208268Y400052D01*
X1207456Y400151D01*
X1206640Y400228D01*
X1205824Y400285D01*
X1205006Y400320D01*
D02*
G37*
G54D96*
X66004Y32311D02*
D03*
G54D147*
X617001Y126304D02*
D03*
X606003Y126306D02*
D03*
X595002Y126309D02*
D03*
X573003Y126454D02*
D03*
X551003Y126308D02*
D03*
X540003Y126454D02*
D03*
X529004Y126454D02*
D03*
G54D150*
X1272836Y565318D02*
D03*
X1263336Y542318D02*
D03*
X1282336D02*
D03*
G54D151*
X798261Y786173D02*
D03*
Y796173D02*
D03*
X247399Y629236D02*
D03*
Y619236D02*
D03*
X237752Y629150D02*
D03*
Y619150D02*
D03*
X471914Y663822D02*
D03*
Y673822D02*
D03*
X385702Y730642D02*
D03*
Y740642D02*
D03*
X498198Y638160D02*
D03*
Y648160D02*
D03*
X509875Y638160D02*
D03*
Y648160D02*
D03*
X498176Y622016D02*
D03*
Y612016D02*
D03*
X520320Y638160D02*
D03*
Y648160D02*
D03*
X538080Y733512D02*
D03*
Y723512D02*
D03*
X617394Y730263D02*
D03*
Y720263D02*
D03*
X572208Y638160D02*
D03*
Y648160D02*
D03*
X562487D02*
D03*
Y638160D02*
D03*
X552328Y637834D02*
D03*
Y647834D02*
D03*
X542821Y638160D02*
D03*
Y648160D02*
D03*
X548640Y623094D02*
D03*
Y613094D02*
D03*
X558272D02*
D03*
Y623094D02*
D03*
X568107Y623056D02*
D03*
Y613056D02*
D03*
X603017Y641233D02*
D03*
Y651233D02*
D03*
X613056D02*
D03*
Y641233D02*
D03*
X630234Y730176D02*
D03*
Y720176D02*
D03*
X747259Y709664D02*
D03*
Y699664D02*
D03*
X818197Y723520D02*
D03*
Y713520D02*
D03*
X841241Y744906D02*
D03*
Y734906D02*
D03*
X863122Y806722D02*
D03*
Y816722D02*
D03*
X905498Y785162D02*
D03*
Y775162D02*
D03*
Y766207D02*
D03*
Y756207D02*
D03*
X889258Y744273D02*
D03*
Y734273D02*
D03*
X897035Y680890D02*
D03*
Y690890D02*
D03*
X900403Y717046D02*
D03*
Y727046D02*
D03*
X939507Y740152D02*
D03*
Y730152D02*
D03*
X991536Y741194D02*
D03*
Y731194D02*
D03*
X972274Y741047D02*
D03*
Y731047D02*
D03*
X981889Y741125D02*
D03*
Y731125D02*
D03*
X1036428Y702152D02*
D03*
Y712152D02*
D03*
X1077452Y740022D02*
D03*
Y730022D02*
D03*
X1086935Y740096D02*
D03*
Y730096D02*
D03*
X598416Y489806D02*
D03*
Y479806D02*
D03*
X567389Y478217D02*
D03*
Y468217D02*
D03*
X580621Y478716D02*
D03*
Y468716D02*
D03*
X542316Y453877D02*
D03*
Y443877D02*
D03*
X547742Y435968D02*
D03*
Y425968D02*
D03*
X557258Y435990D02*
D03*
Y425990D02*
D03*
X292752Y468154D02*
D03*
Y478154D02*
D03*
X142875Y607551D02*
D03*
Y597551D02*
D03*
X142875Y576969D02*
D03*
Y586969D02*
D03*
X92999Y545169D02*
D03*
Y555169D02*
D03*
X94739Y516619D02*
D03*
Y526619D02*
D03*
X134418Y475925D02*
D03*
Y485925D02*
D03*
X67710Y309785D02*
D03*
Y319785D02*
D03*
Y290818D02*
D03*
Y300818D02*
D03*
X101596Y314271D02*
D03*
Y324271D02*
D03*
X334250Y287633D02*
D03*
Y277633D02*
D03*
X324488Y287920D02*
D03*
Y277920D02*
D03*
X314084Y287621D02*
D03*
Y277621D02*
D03*
X305325Y287621D02*
D03*
Y277621D02*
D03*
X156269Y304219D02*
D03*
Y294219D02*
D03*
X281492Y271461D02*
D03*
Y281461D02*
D03*
X291884Y271461D02*
D03*
Y281461D02*
D03*
X301460Y258179D02*
D03*
Y248179D02*
D03*
X194842Y226832D02*
D03*
Y216832D02*
D03*
X89064Y203074D02*
D03*
Y213074D02*
D03*
X84844Y182178D02*
D03*
Y192178D02*
D03*
X75377Y182178D02*
D03*
Y192178D02*
D03*
X197438Y136337D02*
D03*
Y126337D02*
D03*
X352005Y196312D02*
D03*
Y206312D02*
D03*
X371912Y196548D02*
D03*
Y206548D02*
D03*
X411191Y196548D02*
D03*
Y206548D02*
D03*
X254319Y61365D02*
D03*
Y71365D02*
D03*
X266495Y71356D02*
D03*
Y61356D02*
D03*
X332081Y170898D02*
D03*
Y160898D02*
D03*
X351967Y170898D02*
D03*
Y160898D02*
D03*
X363698Y160898D02*
D03*
Y170898D02*
D03*
X380637Y165864D02*
D03*
Y155864D02*
D03*
X390169Y165864D02*
D03*
Y155864D02*
D03*
X440131Y93508D02*
D03*
Y103508D02*
D03*
Y73022D02*
D03*
Y83022D02*
D03*
X377766Y63638D02*
D03*
Y73638D02*
D03*
X388386Y62840D02*
D03*
Y72840D02*
D03*
X761295Y331915D02*
D03*
Y341915D02*
D03*
X750092Y331915D02*
D03*
Y341914D02*
D03*
X790917Y309870D02*
D03*
Y299870D02*
D03*
X780509Y310091D02*
D03*
Y300091D02*
D03*
X770054Y310091D02*
D03*
Y300091D02*
D03*
X759793Y309870D02*
D03*
Y299870D02*
D03*
X749174Y309945D02*
D03*
Y299945D02*
D03*
X794772Y390862D02*
D03*
Y400862D02*
D03*
X804972Y381494D02*
D03*
Y391494D02*
D03*
X784231Y390862D02*
D03*
Y400862D02*
D03*
X875000Y408427D02*
D03*
Y418427D02*
D03*
X865491Y408427D02*
D03*
Y418427D02*
D03*
X849818Y408554D02*
D03*
Y418554D02*
D03*
X840295Y408554D02*
D03*
Y418554D02*
D03*
X829223Y385497D02*
D03*
Y395496D02*
D03*
X821555Y368773D02*
D03*
Y378773D02*
D03*
X838059Y385238D02*
D03*
Y375238D02*
D03*
X862843Y393640D02*
D03*
Y383640D02*
D03*
X837752Y337461D02*
D03*
Y347461D02*
D03*
X851590Y336467D02*
D03*
Y346467D02*
D03*
X877006Y328320D02*
D03*
Y338320D02*
D03*
X874383Y301224D02*
D03*
Y311224D02*
D03*
X823070D02*
D03*
Y301224D02*
D03*
X848792Y627845D02*
D03*
Y617845D02*
D03*
X926356Y500470D02*
D03*
Y510470D02*
D03*
X898404Y508803D02*
D03*
Y518803D02*
D03*
X989221Y623747D02*
D03*
Y613747D02*
D03*
X993495Y584641D02*
D03*
Y594641D02*
D03*
X983280Y574903D02*
D03*
Y564903D02*
D03*
X993495Y564972D02*
D03*
Y574972D02*
D03*
X1027801Y562394D02*
D03*
Y572394D02*
D03*
X1018750Y562330D02*
D03*
Y572330D02*
D03*
X1037355Y572466D02*
D03*
Y562466D02*
D03*
X1024137Y540754D02*
D03*
Y550754D02*
D03*
X1013712Y540661D02*
D03*
Y550661D02*
D03*
X1058910Y510001D02*
D03*
Y500001D02*
D03*
X1047307Y509439D02*
D03*
Y499439D02*
D03*
X1073914Y509917D02*
D03*
Y499917D02*
D03*
X1093708Y518070D02*
D03*
Y528070D02*
D03*
X1074586Y543728D02*
D03*
Y553728D02*
D03*
X1121350Y626287D02*
D03*
Y636287D02*
D03*
X1273752Y648590D02*
D03*
Y638590D02*
D03*
X1216022Y586463D02*
D03*
Y596463D02*
D03*
X1215586Y617551D02*
D03*
Y607551D02*
D03*
X1160275Y468522D02*
D03*
Y478522D02*
D03*
X1156590Y427187D02*
D03*
Y417187D02*
D03*
X1248511Y402505D02*
D03*
Y392505D02*
D03*
X1042346Y328206D02*
D03*
Y318206D02*
D03*
X1033318Y318259D02*
D03*
Y328259D02*
D03*
X993574Y296588D02*
D03*
Y286588D02*
D03*
X983574Y296809D02*
D03*
Y286809D02*
D03*
X973805Y296807D02*
D03*
Y286807D02*
D03*
X690914Y126153D02*
D03*
Y116153D02*
D03*
X713314Y126596D02*
D03*
Y116596D02*
D03*
X726108Y116597D02*
D03*
Y126596D02*
D03*
X973805Y241083D02*
D03*
Y251083D02*
D03*
X984266Y241083D02*
D03*
Y251083D02*
D03*
X1056936Y424194D02*
D03*
Y434194D02*
D03*
X1038546Y193889D02*
D03*
Y183889D02*
D03*
X1027657Y193669D02*
D03*
Y183669D02*
D03*
X1017446Y195073D02*
D03*
Y185073D02*
D03*
X1003245Y123340D02*
D03*
Y133340D02*
D03*
X1013131D02*
D03*
Y123340D02*
D03*
X1018549Y104270D02*
D03*
Y94270D02*
D03*
X689376Y598501D02*
D03*
Y608501D02*
D03*
X912625Y844471D02*
D03*
X923557Y844336D02*
D03*
X1246932Y616994D02*
D03*
X1067655Y730096D02*
D03*
X1035361Y732634D02*
D03*
X912625Y854471D02*
D03*
X987974Y710891D02*
D03*
X925498Y681276D02*
D03*
X1152214Y638897D02*
D03*
X1161542Y628875D02*
D03*
X954294Y653873D02*
D03*
X1207328Y586325D02*
D03*
X1296062Y554129D02*
D03*
X1188919Y576325D02*
D03*
X1178377Y570596D02*
D03*
X1008975Y562247D02*
D03*
X941761Y654196D02*
D03*
X915085Y599993D02*
D03*
X695848Y551236D02*
D03*
X1283249Y530921D02*
D03*
X1157057Y487563D02*
D03*
X1114544Y468411D02*
D03*
X1162223Y390629D02*
D03*
X1116077Y390721D02*
D03*
X1084105Y517924D02*
D03*
X934772Y510440D02*
D03*
X915048Y482625D02*
D03*
X1087438Y432214D02*
D03*
X1084177Y390293D02*
D03*
X1053525Y446508D02*
D03*
X1175477Y206765D02*
D03*
X1157135Y206059D02*
D03*
X1184524Y204154D02*
D03*
X696010Y521312D02*
D03*
X865215Y346531D02*
D03*
X728197Y488245D02*
D03*
X644312Y600390D02*
D03*
X669685Y563728D02*
D03*
X547550Y510208D02*
D03*
X537550D02*
D03*
X552624Y489586D02*
D03*
X542445D02*
D03*
X326968Y513635D02*
D03*
X373958Y412485D02*
D03*
X365897Y409130D02*
D03*
X347286Y397156D02*
D03*
X934668Y490361D02*
D03*
X934772Y500440D02*
D03*
X1246932Y626994D02*
D03*
X331701Y196312D02*
D03*
Y206312D02*
D03*
X1296062Y564129D02*
D03*
X1286078Y565207D02*
D03*
Y575207D02*
D03*
X1295496Y521206D02*
D03*
Y531206D02*
D03*
X1283249Y520921D02*
D03*
X796278Y713461D02*
D03*
Y723461D02*
D03*
X780750Y713530D02*
D03*
Y723530D02*
D03*
X806184Y713520D02*
D03*
Y723520D02*
D03*
X1242182Y222164D02*
D03*
X198396Y657394D02*
D03*
Y647394D02*
D03*
X799181Y345075D02*
D03*
Y355075D02*
D03*
X865215Y336531D02*
D03*
X537550Y500208D02*
D03*
X547550D02*
D03*
X542445Y479586D02*
D03*
X552624D02*
D03*
X1047007Y424263D02*
D03*
Y434263D02*
D03*
X1087438Y442214D02*
D03*
X1116077Y400721D02*
D03*
X1106862Y400627D02*
D03*
Y390627D02*
D03*
X1103774Y478411D02*
D03*
Y468411D02*
D03*
X1114544Y478411D02*
D03*
X1128132Y478448D02*
D03*
Y468448D02*
D03*
X1141381Y478448D02*
D03*
Y468448D02*
D03*
X1150547Y478522D02*
D03*
Y468522D02*
D03*
X1157057Y497563D02*
D03*
X1144069Y390585D02*
D03*
Y400585D02*
D03*
X1162223Y400629D02*
D03*
X1152855Y400570D02*
D03*
Y390570D02*
D03*
X1166883Y489068D02*
D03*
Y499068D02*
D03*
X934668Y480361D02*
D03*
X1053486Y474755D02*
D03*
Y464755D02*
D03*
X1053525Y456508D02*
D03*
X1084105Y527924D02*
D03*
X1084177Y400293D02*
D03*
X1157135Y216059D02*
D03*
X1166749Y216655D02*
D03*
Y206655D02*
D03*
X1175477Y216765D02*
D03*
X1184524Y214153D02*
D03*
X1193546Y213947D02*
D03*
Y203947D02*
D03*
X1242182Y212164D02*
D03*
X941761Y664196D02*
D03*
X971272Y663666D02*
D03*
Y653666D02*
D03*
X962383Y674087D02*
D03*
Y664087D02*
D03*
X925498Y671276D02*
D03*
X954294Y663873D02*
D03*
X1008975Y572247D02*
D03*
X1178377Y580596D02*
D03*
X1160956Y570596D02*
D03*
Y580596D02*
D03*
X1207328Y576325D02*
D03*
X1169506Y580596D02*
D03*
Y570596D02*
D03*
X1197869Y586325D02*
D03*
Y576325D02*
D03*
X1161542Y638875D02*
D03*
X1152214Y628897D02*
D03*
X1188919Y586325D02*
D03*
X987974Y700891D02*
D03*
X1067655Y740096D02*
D03*
X1035361Y742634D02*
D03*
X923557Y854336D02*
D03*
X726691Y789572D02*
D03*
Y779572D02*
D03*
X730341Y427556D02*
D03*
Y417556D02*
D03*
X347286Y387157D02*
D03*
X365897Y399130D02*
D03*
X373958Y402485D02*
D03*
X336436Y503636D02*
D03*
Y513635D02*
D03*
X326968Y503636D02*
D03*
X915085Y589993D02*
D03*
X915048Y492625D02*
D03*
X696010Y531312D02*
D03*
X695848Y541236D02*
D03*
X644312Y590390D02*
D03*
X728197Y498245D02*
D03*
X669685Y553728D02*
D03*
G54D152*
X981826Y687105D02*
D03*
X1161939Y648413D02*
D03*
X1026774Y623880D02*
D03*
X472009Y656086D02*
D03*
X462009D02*
D03*
X452416Y659345D02*
D03*
X442416D02*
D03*
X451768Y704500D02*
D03*
X461768D02*
D03*
X475656Y713512D02*
D03*
X465656D02*
D03*
X430336Y746773D02*
D03*
X420336D02*
D03*
X439416Y746972D02*
D03*
X449416D02*
D03*
X371392Y664315D02*
D03*
X361392D02*
D03*
X371392Y655001D02*
D03*
X361392D02*
D03*
X371412Y645593D02*
D03*
X361412D02*
D03*
X371412Y636725D02*
D03*
X361412D02*
D03*
X371412Y626900D02*
D03*
X361412D02*
D03*
X371412Y618056D02*
D03*
X361412D02*
D03*
X371412Y608751D02*
D03*
X361412D02*
D03*
X371276Y599435D02*
D03*
X361276D02*
D03*
X413131Y672072D02*
D03*
X423131D02*
D03*
X413123Y663137D02*
D03*
X423123D02*
D03*
X405447Y658692D02*
D03*
X395447D02*
D03*
X487889Y656544D02*
D03*
X497889D02*
D03*
X489674Y675187D02*
D03*
X499674D02*
D03*
X489674Y683790D02*
D03*
X499674D02*
D03*
X489610Y692660D02*
D03*
X499610D02*
D03*
X489797Y704647D02*
D03*
X499797D02*
D03*
X499674Y713141D02*
D03*
X489674D02*
D03*
X489983Y722000D02*
D03*
X499983D02*
D03*
X489908Y733262D02*
D03*
X479908D02*
D03*
X594762Y731677D02*
D03*
X584762D02*
D03*
X582790Y721526D02*
D03*
X572790D02*
D03*
X582463Y657210D02*
D03*
X572463D02*
D03*
X582365Y666318D02*
D03*
X572365D02*
D03*
X582790Y675578D02*
D03*
X572790D02*
D03*
X603411Y673572D02*
D03*
X613411D02*
D03*
Y663780D02*
D03*
X603411D02*
D03*
X601535Y682572D02*
D03*
X611535D02*
D03*
X556050Y791290D02*
D03*
X566050D02*
D03*
X555846Y781689D02*
D03*
X565846D02*
D03*
X743011Y731539D02*
D03*
X733011D02*
D03*
X743250Y722000D02*
D03*
X733250D02*
D03*
X756198Y675334D02*
D03*
X766198D02*
D03*
X775798D02*
D03*
X785798D02*
D03*
X854407Y794967D02*
D03*
X844407D02*
D03*
X948326Y739902D02*
D03*
X958326D02*
D03*
X958265Y730302D02*
D03*
X948265D02*
D03*
X1045360Y742256D02*
D03*
X1055360D02*
D03*
X602244Y538501D02*
D03*
X612244D02*
D03*
X611946Y528508D02*
D03*
X601946D02*
D03*
X519253Y500610D02*
D03*
X529253D02*
D03*
X532517Y480056D02*
D03*
X522517D02*
D03*
X532423Y468523D02*
D03*
X542423D02*
D03*
X512021Y412149D02*
D03*
X502021D02*
D03*
X501972Y402083D02*
D03*
X511972D02*
D03*
X501972Y391734D02*
D03*
X511972D02*
D03*
X535634Y384304D02*
D03*
X545634D02*
D03*
X535750Y374750D02*
D03*
X545750D02*
D03*
X511972Y381488D02*
D03*
X501972D02*
D03*
X511972Y371416D02*
D03*
X501972D02*
D03*
Y361935D02*
D03*
X511972D02*
D03*
X512021Y341096D02*
D03*
X502021D02*
D03*
X472649Y408960D02*
D03*
X482649D02*
D03*
X472649Y399843D02*
D03*
X482649D02*
D03*
X472515Y390792D02*
D03*
X482515D02*
D03*
X472413Y381751D02*
D03*
X482413D02*
D03*
X472207Y371955D02*
D03*
X482207D02*
D03*
X472273Y362350D02*
D03*
X482273D02*
D03*
X472068Y352583D02*
D03*
X482068D02*
D03*
X472068Y342679D02*
D03*
X482068D02*
D03*
X524112Y434211D02*
D03*
X514112D02*
D03*
X524364Y446881D02*
D03*
X514364D02*
D03*
X506518Y473349D02*
D03*
X496518D02*
D03*
X506500Y464190D02*
D03*
X496500D02*
D03*
X424147Y480038D02*
D03*
X414147D02*
D03*
X424122Y471357D02*
D03*
X414122D02*
D03*
X414147Y488874D02*
D03*
X424147D02*
D03*
X313118Y458569D02*
D03*
X323118D02*
D03*
X311678Y449657D02*
D03*
X301678D02*
D03*
X307185Y420549D02*
D03*
X317185D02*
D03*
Y403073D02*
D03*
X307185D02*
D03*
X206696Y576544D02*
D03*
X196696D02*
D03*
X155722Y611149D02*
D03*
X165722D02*
D03*
X77547Y462212D02*
D03*
X67548D02*
D03*
X100655Y452743D02*
D03*
X110655D02*
D03*
X110964Y442993D02*
D03*
X100964D02*
D03*
X110847Y433354D02*
D03*
X100847D02*
D03*
X272355Y221695D02*
D03*
X282355D02*
D03*
X232619Y165693D02*
D03*
X242619D02*
D03*
X266554Y114218D02*
D03*
X256554D02*
D03*
X266907Y124590D02*
D03*
X256907D02*
D03*
X267078Y134487D02*
D03*
X257078D02*
D03*
X313734Y138373D02*
D03*
X323733D02*
D03*
X313834Y147195D02*
D03*
X323834D02*
D03*
X387960Y97025D02*
D03*
X377960D02*
D03*
X401500Y102250D02*
D03*
X411500D02*
D03*
X584028Y151766D02*
D03*
X574028D02*
D03*
X584102Y142163D02*
D03*
X574102D02*
D03*
X786916Y346239D02*
D03*
X776916D02*
D03*
X788126Y381399D02*
D03*
X778126D02*
D03*
X787042Y372609D02*
D03*
X777042D02*
D03*
X786603Y363990D02*
D03*
X776603D02*
D03*
X768015Y363954D02*
D03*
X758015D02*
D03*
X724807Y387680D02*
D03*
X734807D02*
D03*
X868491Y369136D02*
D03*
X858491D02*
D03*
X868861Y355122D02*
D03*
X858861D02*
D03*
X857554Y617403D02*
D03*
X867554D02*
D03*
X1003299Y637975D02*
D03*
X993299D02*
D03*
X1016774Y623880D02*
D03*
X1008719Y623747D02*
D03*
X998719D02*
D03*
X1171939Y648413D02*
D03*
Y657511D02*
D03*
X1161939D02*
D03*
X1339067Y463484D02*
D03*
X1329067D02*
D03*
X1339067Y472766D02*
D03*
X1329067D02*
D03*
X1224750Y498000D02*
D03*
X1234750D02*
D03*
X1224917Y489171D02*
D03*
X1234917D02*
D03*
X1212895Y445858D02*
D03*
X1202895D02*
D03*
X1212895Y436650D02*
D03*
X1202895D02*
D03*
X1191053Y429893D02*
D03*
X1181053D02*
D03*
X1190882Y421009D02*
D03*
X1180882D02*
D03*
X1180563Y412606D02*
D03*
X1190563D02*
D03*
X1224995Y430833D02*
D03*
X1234995D02*
D03*
X1224936Y421583D02*
D03*
X1234936D02*
D03*
X1234859Y412088D02*
D03*
X1224859D02*
D03*
X1073829Y339602D02*
D03*
X1083829D02*
D03*
X1073669Y330620D02*
D03*
X1083669D02*
D03*
X994534Y321681D02*
D03*
X984534D02*
D03*
X984099Y312811D02*
D03*
X974099D02*
D03*
X1078432Y444899D02*
D03*
X1068432D02*
D03*
X1005323Y442526D02*
D03*
X995323D02*
D03*
X1090396Y307865D02*
D03*
X1080396D02*
D03*
X1135981Y208431D02*
D03*
X1125982D02*
D03*
X1129644Y199069D02*
D03*
X1119644D02*
D03*
X1072431Y225973D02*
D03*
X1082431D02*
D03*
X1088500Y218000D02*
D03*
X1078500D02*
D03*
X1046131Y225103D02*
D03*
X1036131D02*
D03*
X1038360Y175756D02*
D03*
X1048360D02*
D03*
X1027426Y175750D02*
D03*
X1017426D02*
D03*
X1038264Y166638D02*
D03*
X1048264D02*
D03*
X1027378Y166727D02*
D03*
X1017378D02*
D03*
X427496Y397658D02*
D03*
X891037Y891556D02*
D03*
X1238424Y583237D02*
D03*
X1228427Y565457D02*
D03*
X1045360Y733155D02*
D03*
X844554Y785521D02*
D03*
X1296128Y597285D02*
D03*
X1247801Y581636D02*
D03*
X1228424Y583237D02*
D03*
X1249500Y548503D02*
D03*
X1249500Y538250D02*
D03*
X1227764Y550156D02*
D03*
X919118Y557413D02*
D03*
X828312Y733384D02*
D03*
X796210Y731520D02*
D03*
X770829Y731530D02*
D03*
X748382Y791937D02*
D03*
X731691Y596756D02*
D03*
Y587989D02*
D03*
X749658Y542834D02*
D03*
X692845Y560039D02*
D03*
X1243528Y517099D02*
D03*
X1212895Y520288D02*
D03*
X1156750Y532000D02*
D03*
X1156775Y523551D02*
D03*
X1224584Y507690D02*
D03*
X1190625Y461754D02*
D03*
X1027039Y491938D02*
D03*
X924580Y525013D02*
D03*
X1068299Y435036D02*
D03*
X1027040Y441964D02*
D03*
X702038Y502521D02*
D03*
X829732Y354775D02*
D03*
X823061Y345875D02*
D03*
X776957Y354832D02*
D03*
X660756Y601859D02*
D03*
X667115Y593449D02*
D03*
X663020Y524779D02*
D03*
X401883Y398937D02*
D03*
X312049Y440768D02*
D03*
X313452Y432842D02*
D03*
X382704Y387314D02*
D03*
X37167Y161171D02*
D03*
X1247358Y563600D02*
D03*
X1239500Y548503D02*
D03*
X1239500Y538250D02*
D03*
X881448Y110938D02*
D03*
X417496Y397658D02*
D03*
X502021Y351416D02*
D03*
X512021D02*
D03*
X47167Y161171D02*
D03*
X1218427Y565457D02*
D03*
X1202895Y520288D02*
D03*
Y511475D02*
D03*
X1212895D02*
D03*
X1257801Y581636D02*
D03*
X1257744Y573148D02*
D03*
X1247744D02*
D03*
X1226917Y574526D02*
D03*
X1216918D02*
D03*
X1217764Y550156D02*
D03*
X1217588Y540128D02*
D03*
X1227588D02*
D03*
X1227764Y530831D02*
D03*
X1217764D02*
D03*
X1286192Y607802D02*
D03*
X1296192D02*
D03*
X1286128Y597285D02*
D03*
X1286192Y585870D02*
D03*
X1296192D02*
D03*
X1257358Y563600D02*
D03*
X1262545Y530491D02*
D03*
X1272545D02*
D03*
X1202895Y463619D02*
D03*
X1212895D02*
D03*
X1202895Y472889D02*
D03*
X1212895D02*
D03*
X1202895Y481760D02*
D03*
X1212895D02*
D03*
X828080Y725160D02*
D03*
X838080D02*
D03*
X780829Y731530D02*
D03*
X806210Y731520D02*
D03*
X818312Y733384D02*
D03*
X1253528Y517099D02*
D03*
X1234584Y507690D02*
D03*
X1243528Y526180D02*
D03*
X1253528D02*
D03*
X1224917Y516788D02*
D03*
X1234917D02*
D03*
X1235053Y480605D02*
D03*
X1234968Y471605D02*
D03*
X1225053Y480605D02*
D03*
X1224968Y471605D02*
D03*
X818238Y320288D02*
D03*
X808238D02*
D03*
X797790Y372180D02*
D03*
X807790D02*
D03*
X786957Y354832D02*
D03*
X819732Y354775D02*
D03*
X813061Y345875D02*
D03*
X802889Y363890D02*
D03*
X812889D02*
D03*
X1078299Y435036D02*
D03*
X1166775Y523551D02*
D03*
X1156877Y507077D02*
D03*
X1166877D02*
D03*
X1156766Y514830D02*
D03*
X1166766D02*
D03*
X1166750Y532000D02*
D03*
X1180625Y461754D02*
D03*
X1037040Y441964D02*
D03*
X1037039Y491938D02*
D03*
X1221250Y214000D02*
D03*
X1231250D02*
D03*
X1201756Y214509D02*
D03*
X1211756D02*
D03*
X854554Y785521D02*
D03*
X971826Y687105D02*
D03*
X959126D02*
D03*
X949126D02*
D03*
X1055360Y733155D02*
D03*
X783065Y263920D02*
D03*
X773065D02*
D03*
X783030Y274000D02*
D03*
X773030D02*
D03*
X783065Y254189D02*
D03*
X773065D02*
D03*
X773176Y244115D02*
D03*
X783176D02*
D03*
X773176Y234725D02*
D03*
X783176D02*
D03*
X783000Y225750D02*
D03*
X773000D02*
D03*
X781204Y124427D02*
D03*
X791204D02*
D03*
X781167Y133582D02*
D03*
X791167D02*
D03*
X809456D02*
D03*
X799456D02*
D03*
X809456Y124388D02*
D03*
X799456D02*
D03*
X822440Y111117D02*
D03*
X832440D02*
D03*
X891448Y110938D02*
D03*
X901037Y891556D02*
D03*
X738382Y791937D02*
D03*
X372704Y387314D02*
D03*
X391883Y398937D02*
D03*
X303452Y432842D02*
D03*
X302049Y440768D02*
D03*
X424122Y419195D02*
D03*
X414122D02*
D03*
X317185Y411834D02*
D03*
X307185D02*
D03*
X914580Y525013D02*
D03*
X909118Y557413D02*
D03*
X710606Y490553D02*
D03*
X720606D02*
D03*
X670756Y601859D02*
D03*
X721691Y596756D02*
D03*
X677115Y593449D02*
D03*
X721691Y587989D02*
D03*
X739658Y542834D02*
D03*
X692038Y502521D02*
D03*
X673020Y524779D02*
D03*
X702845Y560039D02*
D03*
G54D153*
X821046Y753070D02*
D03*
X960945Y571457D02*
D03*
Y615457D02*
D03*
X859554Y834000D02*
D03*
Y878000D02*
D03*
X821046Y797070D02*
D03*
G54D154*
X827250Y334000D02*
D03*
X808250D02*
D03*
G54D156*
X1201109Y93667D02*
D03*
X1070905Y638440D02*
D03*
X1055360Y638440D02*
D03*
X1039009D02*
D03*
X211744Y135112D02*
D03*
Y119112D02*
D03*
X1039009Y654440D02*
D03*
X1055360D02*
D03*
X1070905Y654440D02*
D03*
X1201109Y109667D02*
D03*
X263103Y715562D02*
D03*
Y734562D02*
D03*
G54D159*
X421979Y695437D02*
D03*
Y701437D02*
D03*
X424192Y729382D02*
D03*
Y735382D02*
D03*
X429434Y729382D02*
D03*
Y735382D02*
D03*
X442716Y714478D02*
D03*
Y720478D02*
D03*
X424191Y717815D02*
D03*
Y723815D02*
D03*
X406160Y700714D02*
D03*
Y694715D02*
D03*
X417192Y697876D02*
D03*
Y703876D02*
D03*
X427056Y689524D02*
D03*
Y695524D02*
D03*
X416964Y714891D02*
D03*
Y708891D02*
D03*
X412420Y706610D02*
D03*
Y700610D02*
D03*
X440350Y689336D02*
D03*
Y683336D02*
D03*
X432293Y689660D02*
D03*
Y695660D02*
D03*
X440350Y694442D02*
D03*
Y700442D02*
D03*
X412546Y734863D02*
D03*
Y740863D02*
D03*
X375311Y581505D02*
D03*
Y587505D02*
D03*
X369791Y581500D02*
D03*
Y587500D02*
D03*
X360265Y581500D02*
D03*
Y587500D02*
D03*
X354791Y581567D02*
D03*
Y587567D02*
D03*
X340311Y581567D02*
D03*
Y587567D02*
D03*
X334791Y581567D02*
D03*
Y587567D02*
D03*
X325311Y581567D02*
D03*
Y587567D02*
D03*
X319791Y581567D02*
D03*
Y587567D02*
D03*
X310311Y581623D02*
D03*
Y587622D02*
D03*
X304791Y581623D02*
D03*
Y587622D02*
D03*
X547948Y746996D02*
D03*
Y752996D02*
D03*
X542617Y746996D02*
D03*
Y752996D02*
D03*
X407542Y480874D02*
D03*
Y486874D02*
D03*
X381191Y402554D02*
D03*
Y408554D02*
D03*
X359925Y391255D02*
D03*
Y397255D02*
D03*
X337253Y413353D02*
D03*
Y419352D02*
D03*
X315929Y253420D02*
D03*
Y247420D02*
D03*
X310598Y253420D02*
D03*
Y247420D02*
D03*
X859488Y563764D02*
D03*
Y557764D02*
D03*
X698170Y578119D02*
D03*
X720022Y511584D02*
D03*
X643166Y577633D02*
D03*
X883101Y623653D02*
D03*
X891784Y617794D02*
D03*
X863491Y610001D02*
D03*
X856054D02*
D03*
X863491Y595876D02*
D03*
X856054D02*
D03*
X913348Y583117D02*
D03*
X913348Y570078D02*
D03*
X836820Y623279D02*
D03*
X827656Y617793D02*
D03*
X805858Y583086D02*
D03*
X698170Y584118D02*
D03*
X805858Y570047D02*
D03*
Y557009D02*
D03*
X727164Y536742D02*
D03*
X720051Y546980D02*
D03*
X913348Y512578D02*
D03*
X913348Y499571D02*
D03*
X805858Y525329D02*
D03*
X805858Y512289D02*
D03*
X805859Y499521D02*
D03*
X724820Y532127D02*
D03*
X720279Y530433D02*
D03*
X720022Y523040D02*
D03*
X689376Y530679D02*
D03*
X724825Y515449D02*
D03*
X863519Y486449D02*
D03*
X855943Y486430D02*
D03*
X891784Y463759D02*
D03*
X883867Y463759D02*
D03*
X875318Y463759D02*
D03*
X843619Y463759D02*
D03*
X835691Y463759D02*
D03*
X827656Y463759D02*
D03*
X686936Y589128D02*
D03*
X687159Y575987D02*
D03*
X686194Y563597D02*
D03*
X648047Y583675D02*
D03*
X652616Y571691D02*
D03*
X643166Y583633D02*
D03*
X644673Y572691D02*
D03*
X663936Y549122D02*
D03*
X654822Y525988D02*
D03*
X679131Y524442D02*
D03*
X652705Y511356D02*
D03*
X648475Y551297D02*
D03*
X647728Y511422D02*
D03*
X642920Y505246D02*
D03*
X672256Y491949D02*
D03*
X666515Y492486D02*
D03*
X661805Y499175D02*
D03*
X644673Y464442D02*
D03*
X638080Y491532D02*
D03*
X373434Y493724D02*
D03*
X644673Y566692D02*
D03*
X666515Y498485D02*
D03*
X672256Y497949D02*
D03*
X373434Y499724D02*
D03*
X349383Y502699D02*
D03*
Y508699D02*
D03*
X913348Y564078D02*
D03*
Y518578D02*
D03*
X805858Y518289D02*
D03*
X805858Y531329D02*
D03*
X805858Y551009D02*
D03*
X883867Y469759D02*
D03*
X835691Y469759D02*
D03*
X883101Y617654D02*
D03*
X836820Y617279D02*
D03*
X805858Y564047D02*
D03*
X805859Y505521D02*
D03*
X913348Y577117D02*
D03*
X913348Y505571D02*
D03*
X805858Y577086D02*
D03*
X856054Y589876D02*
D03*
X863491D02*
D03*
X875318Y469759D02*
D03*
X843619Y469759D02*
D03*
X827656D02*
D03*
X855943Y492430D02*
D03*
X863519Y492449D02*
D03*
X856054Y604001D02*
D03*
X863491D02*
D03*
X827656Y611793D02*
D03*
X891784Y469759D02*
D03*
X891784Y611794D02*
D03*
X720022Y505584D02*
D03*
X679131Y518442D02*
D03*
X689376Y536679D02*
D03*
X686194Y557597D02*
D03*
X661805Y505175D02*
D03*
X652616Y577691D02*
D03*
X654822Y531988D02*
D03*
X687159Y569986D02*
D03*
X648047Y577675D02*
D03*
X686936Y583128D02*
D03*
X647728Y517422D02*
D03*
X652705Y517356D02*
D03*
X642920Y511246D02*
D03*
X648475Y545297D02*
D03*
X638080Y485532D02*
D03*
X644673Y470442D02*
D03*
X724825Y521449D02*
D03*
X720051Y540980D02*
D03*
X720279Y536433D02*
D03*
X724820Y526127D02*
D03*
X727164Y542742D02*
D03*
X720022Y517040D02*
D03*
X663936Y543122D02*
D03*
G54D160*
X408164Y689856D02*
D03*
X402164D02*
D03*
X459789Y667486D02*
D03*
X465789D02*
D03*
X456480Y685327D02*
D03*
X462480D02*
D03*
X448335Y694058D02*
D03*
X454335D02*
D03*
X416280Y681104D02*
D03*
X422280D02*
D03*
X393500Y498000D02*
D03*
X387500D02*
D03*
X375930Y508290D02*
D03*
X369930D02*
D03*
X296593Y456819D02*
D03*
X302593D02*
D03*
X406947Y418018D02*
D03*
X400947D02*
D03*
X424198Y412149D02*
D03*
X418198D02*
D03*
X295241Y422680D02*
D03*
X301241D02*
D03*
X61750Y361098D02*
D03*
X55750D02*
D03*
X61750Y355000D02*
D03*
X55750D02*
D03*
X888100Y573737D02*
D03*
X894100D02*
D03*
X1333982Y480022D02*
D03*
X1339982D02*
D03*
X1333982Y485675D02*
D03*
X1339982D02*
D03*
X698359Y588890D02*
D03*
X725462Y580972D02*
D03*
X673529Y582858D02*
D03*
X721002Y568670D02*
D03*
X721164Y564078D02*
D03*
X659255Y589172D02*
D03*
X659207Y584459D02*
D03*
X659207Y549504D02*
D03*
X644783Y530967D02*
D03*
X639466Y546135D02*
D03*
X644736Y526208D02*
D03*
X644712Y521521D02*
D03*
X642794Y516882D02*
D03*
X731462Y580972D02*
D03*
X692359Y588890D02*
D03*
X727002Y568670D02*
D03*
X727164Y564078D02*
D03*
X719576Y559391D02*
D03*
X710867Y575727D02*
D03*
X693719Y569692D02*
D03*
X719554Y554517D02*
D03*
X711485Y543607D02*
D03*
X689729Y524627D02*
D03*
X711052Y519937D02*
D03*
X718984Y500564D02*
D03*
X704912Y512863D02*
D03*
X689758Y519828D02*
D03*
X697089Y491086D02*
D03*
X676369Y587134D02*
D03*
X673579Y576260D02*
D03*
X667529Y582858D02*
D03*
X672681Y571484D02*
D03*
X681752Y562542D02*
D03*
X675814Y557009D02*
D03*
X666883Y570629D02*
D03*
X653255Y589172D02*
D03*
X653207Y584459D02*
D03*
X649607Y567299D02*
D03*
X646314Y561791D02*
D03*
X676652Y551124D02*
D03*
X674311Y545591D02*
D03*
X678696Y530258D02*
D03*
X653207Y549504D02*
D03*
X659789Y530903D02*
D03*
X654904Y536587D02*
D03*
X685122Y510910D02*
D03*
X668169Y510840D02*
D03*
X661519Y517812D02*
D03*
X646295Y556275D02*
D03*
X633466Y546135D02*
D03*
X640001Y541189D02*
D03*
X640062Y536199D02*
D03*
X609820Y552471D02*
D03*
X638783Y530967D02*
D03*
X638736Y526208D02*
D03*
X638712Y521521D02*
D03*
X636795Y516882D02*
D03*
X679583Y506019D02*
D03*
X673938Y506380D02*
D03*
X679859Y499798D02*
D03*
X649989Y494732D02*
D03*
X652501Y488172D02*
D03*
X565250Y381857D02*
D03*
X565219Y376452D02*
D03*
X420228Y426450D02*
D03*
X667937Y506380D02*
D03*
X615820Y552471D02*
D03*
X414228Y426450D02*
D03*
X299577Y471939D02*
D03*
X305577D02*
D03*
X320522Y497499D02*
D03*
X314522D02*
D03*
X413079Y442401D02*
D03*
X419079D02*
D03*
X699718Y569692D02*
D03*
X667519Y517812D02*
D03*
X679122Y510910D02*
D03*
X674169Y510840D02*
D03*
X680311Y545591D02*
D03*
X682652Y551124D02*
D03*
X681814Y557009D02*
D03*
X685859Y499798D02*
D03*
X703089Y491086D02*
D03*
X646062Y536199D02*
D03*
X682369Y587134D02*
D03*
X678681Y571484D02*
D03*
X655607Y567299D02*
D03*
X652314Y561791D02*
D03*
X679579Y576260D02*
D03*
X675752Y562542D02*
D03*
X652295Y556275D02*
D03*
X704867Y575727D02*
D03*
X660883Y570629D02*
D03*
X655989Y494732D02*
D03*
X571219Y376452D02*
D03*
X646501Y488172D02*
D03*
X571250Y381857D02*
D03*
X712984Y500564D02*
D03*
X712147Y508343D02*
D03*
X706147D02*
D03*
X646001Y541189D02*
D03*
X698912Y512863D02*
D03*
X685583Y506019D02*
D03*
X705052Y519937D02*
D03*
X683758Y519828D02*
D03*
X683729Y524627D02*
D03*
X672697Y530258D02*
D03*
X665789Y530903D02*
D03*
X660904Y536587D02*
D03*
X705485Y543607D02*
D03*
X713554Y554517D02*
D03*
X713576Y559391D02*
D03*
G54D161*
X771935Y747036D02*
D03*
X778435Y747036D02*
D03*
X784935D02*
D03*
X791435Y747036D02*
D03*
Y779035D02*
D03*
X771935D02*
D03*
X778435D02*
D03*
X784935D02*
D03*
X845949Y717861D02*
D03*
Y689921D02*
D03*
X87441Y504432D02*
D03*
X80941Y504432D02*
D03*
X74441D02*
D03*
X67941Y504432D02*
D03*
Y472434D02*
D03*
X74441D02*
D03*
X80941D02*
D03*
X87441D02*
D03*
X215715Y591002D02*
D03*
X209215D02*
D03*
X202715D02*
D03*
X196216D02*
D03*
Y623000D02*
D03*
X202715Y623000D02*
D03*
X209215D02*
D03*
X215715Y623000D02*
D03*
G54D162*
X781685Y759036D02*
D03*
X77691Y492433D02*
D03*
X205965Y611001D02*
D03*
G54D163*
X795655Y763035D02*
D03*
X767715D02*
D03*
X861947Y694141D02*
D03*
X861948Y700641D02*
D03*
Y707141D02*
D03*
X861947Y713641D02*
D03*
X829949D02*
D03*
Y707141D02*
D03*
Y700641D02*
D03*
Y694141D02*
D03*
X63721Y488434D02*
D03*
X91661D02*
D03*
X219935Y607002D02*
D03*
X191995D02*
D03*
G54D164*
X65531Y442993D02*
D03*
X88531Y452493D02*
D03*
Y433493D02*
D03*
X1108355Y617225D02*
D03*
X970873Y352309D02*
D03*
X1085355Y626725D02*
D03*
X1108355Y636225D02*
D03*
X970873Y333309D02*
D03*
X993873Y342809D02*
D03*
G54D169*
X1244750Y798500D02*
D03*
Y825500D02*
D03*
X583984Y775000D02*
D03*
Y748000D02*
D03*
X700168Y780622D02*
D03*
Y753622D02*
D03*
X403921Y25500D02*
D03*
Y52500D02*
D03*
X931942Y571613D02*
D03*
Y544613D02*
D03*
X754362Y62039D02*
D03*
Y35039D02*
D03*
X1053000Y45523D02*
D03*
Y18523D02*
D03*
X1271709Y771285D02*
D03*
X1295828Y738933D02*
D03*
X1107512Y18491D02*
D03*
X1084916Y18954D02*
D03*
Y45954D02*
D03*
X1107512Y45491D02*
D03*
X1271709Y798285D02*
D03*
X1295828Y765933D02*
D03*
G54D172*
X782602Y191020D02*
D03*
Y151020D02*
D03*
X935785Y191386D02*
D03*
Y151386D02*
D03*
G54D174*
X394807Y477605D02*
D03*
X379807D02*
D03*
X319061Y481065D02*
D03*
X334061D02*
D03*
X394914Y463163D02*
D03*
X379914D02*
D03*
X394914Y448716D02*
D03*
X379914D02*
D03*
X394807Y436467D02*
D03*
X379807D02*
D03*
X388137Y84750D02*
D03*
X373137D02*
D03*
X1089944Y320111D02*
D03*
X1074944D02*
D03*
X1125777Y320534D02*
D03*
X1140777D02*
D03*
X1165134Y319055D02*
D03*
X1180134D02*
D03*
X1204238Y319247D02*
D03*
X1189238D02*
D03*
X1376780Y186800D02*
D03*
X1391780D02*
D03*
X1351250Y199739D02*
D03*
X1366250D02*
D03*
X1334369Y199738D02*
D03*
X1319369D02*
D03*
X1307190Y187137D02*
D03*
X1292190D02*
D03*
X1081657Y208891D02*
D03*
X1066657D02*
D03*
X1045967Y215590D02*
D03*
X1030967D02*
D03*
X1022328Y480522D02*
D03*
X1022378Y467791D02*
D03*
X1022326Y455305D02*
D03*
X1024213Y411357D02*
D03*
X334061Y468213D02*
D03*
X1037328Y480522D02*
D03*
X1037378Y467791D02*
D03*
X1037326Y455305D02*
D03*
X1039213Y411357D02*
D03*
X770892Y215543D02*
D03*
X785892D02*
D03*
X319061Y468213D02*
D03*
G54D178*
X1216883Y93750D02*
D03*
X349507Y416382D02*
D03*
Y431382D02*
D03*
X328715Y416382D02*
D03*
Y431382D02*
D03*
X115578Y315231D02*
D03*
Y330231D02*
D03*
X144056Y303719D02*
D03*
Y288719D02*
D03*
X269654Y278469D02*
D03*
Y293469D02*
D03*
X1141564Y346345D02*
D03*
Y361345D02*
D03*
X1130051Y346218D02*
D03*
Y361218D02*
D03*
X1154619Y320443D02*
D03*
Y335443D02*
D03*
X1257278Y100828D02*
D03*
Y115828D02*
D03*
X1269894Y73957D02*
D03*
Y88957D02*
D03*
Y59133D02*
D03*
Y44133D02*
D03*
X1257303Y30000D02*
D03*
Y15000D02*
D03*
X1229750Y278676D02*
D03*
X1229381Y246133D02*
D03*
X1216883Y108750D02*
D03*
X446825Y475126D02*
D03*
X361931Y473852D02*
D03*
X347286Y473826D02*
D03*
X446825Y435849D02*
D03*
X84170Y531782D02*
D03*
X1315250Y144733D02*
D03*
X1229750Y293676D02*
D03*
X1315250Y159733D02*
D03*
X1229381Y231133D02*
D03*
X1281172Y74029D02*
D03*
Y59029D02*
D03*
X803789Y217935D02*
D03*
Y202935D02*
D03*
X839644Y218200D02*
D03*
Y203200D02*
D03*
X877723Y218200D02*
D03*
Y203200D02*
D03*
X915931Y218200D02*
D03*
Y203200D02*
D03*
X84170Y516782D02*
D03*
X446825Y450849D02*
D03*
X446825Y460126D02*
D03*
X347286Y488826D02*
D03*
X361931Y488852D02*
D03*
G54D182*
X1145491Y515574D02*
D03*
X1143656Y442716D02*
D03*
X1104256D02*
D03*
X1104257Y447716D02*
D03*
X1104256Y437716D02*
D03*
Y432715D02*
D03*
Y427716D02*
D03*
Y422716D02*
D03*
X1143656D02*
D03*
Y427716D02*
D03*
Y432715D02*
D03*
Y437716D02*
D03*
Y447716D02*
D03*
X1106092Y520574D02*
D03*
X1106091Y515574D02*
D03*
Y510574D02*
D03*
Y505574D02*
D03*
Y500574D02*
D03*
Y495574D02*
D03*
X1145491D02*
D03*
Y500574D02*
D03*
Y505574D02*
D03*
Y510574D02*
D03*
Y520574D02*
D03*
G54D183*
X1370000Y513000D02*
D03*
Y503000D02*
D03*
Y493000D02*
D03*
X30000Y333027D02*
D03*
Y343027D02*
D03*
Y323027D02*
D03*
Y353027D02*
D03*
Y363027D02*
D03*
Y373027D02*
D03*
Y383027D02*
D03*
Y413027D02*
D03*
Y423027D02*
D03*
Y433027D02*
D03*
Y443027D02*
D03*
Y453027D02*
D03*
Y463027D02*
D03*
Y473027D02*
D03*
Y483027D02*
D03*
Y493027D02*
D03*
Y503027D02*
D03*
Y513027D02*
D03*
X1370000Y483000D02*
D03*
Y473000D02*
D03*
Y463000D02*
D03*
Y453000D02*
D03*
Y423000D02*
D03*
Y413000D02*
D03*
Y403000D02*
D03*
Y393000D02*
D03*
Y373000D02*
D03*
Y363000D02*
D03*
Y353000D02*
D03*
Y343000D02*
D03*
Y333000D02*
D03*
Y323000D02*
D03*
Y383000D02*
D03*
G54D187*
X485750Y641843D02*
D03*
X469750Y619843D02*
D03*
X485750D02*
D03*
X469750Y641843D02*
D03*
G54D190*
X1140349Y886000D02*
D03*
X1148349D02*
D03*
X1108349D02*
D03*
X1132349D02*
D03*
X1060349D02*
D03*
X1076349D02*
D03*
X1100349D02*
D03*
X1068349D02*
D03*
X1152349Y804000D02*
D03*
X1128349Y804000D02*
D03*
X1064349Y804000D02*
D03*
X1020349Y886000D02*
D03*
X996349D02*
D03*
X976349Y804000D02*
D03*
X422500Y804000D02*
D03*
X394500Y886000D02*
D03*
X370500Y886000D02*
D03*
X362500Y886000D02*
D03*
X338500D02*
D03*
X330500Y886000D02*
D03*
X382500Y804000D02*
D03*
X358500Y804000D02*
D03*
X326500Y804000D02*
D03*
X342500D02*
D03*
X1116349Y886000D02*
D03*
X234500Y886000D02*
D03*
X242500D02*
D03*
X1192349Y804000D02*
D03*
X1164349Y886000D02*
D03*
X314500Y886000D02*
D03*
X322500Y886000D02*
D03*
X1200349Y804000D02*
D03*
X1184349D02*
D03*
X1176349D02*
D03*
X1168349D02*
D03*
X1160349D02*
D03*
X1144349D02*
D03*
X1136349D02*
D03*
X1120349D02*
D03*
X1112349D02*
D03*
X1104349D02*
D03*
X1096349D02*
D03*
X1088349D02*
D03*
X1072349Y804000D02*
D03*
X1196349Y886000D02*
D03*
X1188349D02*
D03*
X1180349D02*
D03*
X1172349D02*
D03*
X1156349D02*
D03*
X1124349D02*
D03*
X1092349D02*
D03*
X1084349D02*
D03*
X1024349Y804000D02*
D03*
X1016349D02*
D03*
X1008349D02*
D03*
X1000349D02*
D03*
X992349D02*
D03*
X984349D02*
D03*
X968349D02*
D03*
X1012349Y886000D02*
D03*
X1004349D02*
D03*
X988349D02*
D03*
X980349Y886000D02*
D03*
X972349Y886000D02*
D03*
X964349D02*
D03*
X1080349Y804000D02*
D03*
X430500Y804000D02*
D03*
X414500Y804000D02*
D03*
X406500D02*
D03*
X398500Y804000D02*
D03*
X390500D02*
D03*
X374500D02*
D03*
X366500D02*
D03*
X350500D02*
D03*
X334500Y804000D02*
D03*
X318500Y804000D02*
D03*
X302500Y804000D02*
D03*
X294500Y804000D02*
D03*
X426500Y886000D02*
D03*
X418500D02*
D03*
X410500D02*
D03*
X402500D02*
D03*
X386500D02*
D03*
X378500Y886000D02*
D03*
X354500Y886000D02*
D03*
X346500D02*
D03*
X306500D02*
D03*
X298500D02*
D03*
X290500D02*
D03*
X254500Y804000D02*
D03*
X246500Y804000D02*
D03*
X238500D02*
D03*
X230500Y804000D02*
D03*
X222500D02*
D03*
X214500D02*
D03*
X206500Y804000D02*
D03*
X198500D02*
D03*
X250500Y886000D02*
D03*
X226500D02*
D03*
X218500D02*
D03*
X210500D02*
D03*
X202500D02*
D03*
X194500D02*
D03*
X310500Y804000D02*
D03*
G54D192*
X1228849Y880000D02*
D03*
X935849D02*
D03*
X459000Y880000D02*
D03*
X166000D02*
D03*
G54D194*
X991750Y267000D02*
D03*
X957349Y845000D02*
D03*
X150401Y267000D02*
D03*
X187500Y845000D02*
D03*
G54D197*
X595000Y122436D02*
D03*
X606001Y122433D02*
D03*
X616999Y122431D02*
D03*
X573000Y122582D02*
D03*
X551000Y122436D02*
D03*
X540000Y122582D02*
D03*
X529001D02*
D03*
X616999Y130431D02*
D03*
X606001Y130433D02*
D03*
X595000Y130436D02*
D03*
X573000Y130582D02*
D03*
X551000Y130436D02*
D03*
X540000Y130582D02*
D03*
X529001D02*
D03*
G54D198*
X401114Y72719D02*
D03*
Y91719D02*
D03*
X427114Y72719D02*
D03*
Y91719D02*
D03*
X401114Y82219D02*
D03*
G54D200*
X747632Y757000D02*
D03*
X765943Y710882D02*
D03*
X775443Y687882D02*
D03*
X756443D02*
D03*
X532750Y422000D02*
D03*
X542250Y399000D02*
D03*
X523250D02*
D03*
X261030Y543012D02*
D03*
X270530Y566012D02*
D03*
X280030Y543012D02*
D03*
X234168Y542271D02*
D03*
X224668Y565271D02*
D03*
X243668D02*
D03*
X164536Y576224D02*
D03*
X155036Y599224D02*
D03*
X174036D02*
D03*
X894750Y842750D02*
D03*
X904250Y819750D02*
D03*
X885250D02*
D03*
X886914Y880055D02*
D03*
X1245250Y593500D02*
D03*
X1235750Y616500D02*
D03*
X1226250Y593500D02*
D03*
X1257738Y616563D02*
D03*
X757132Y780000D02*
D03*
X568645Y488985D02*
D03*
X1276738Y616563D02*
D03*
X578145Y511985D02*
D03*
X587645Y488985D02*
D03*
X1267238Y593563D02*
D03*
X932854Y255150D02*
D03*
X951854D02*
D03*
X942354Y232150D02*
D03*
X905914Y880055D02*
D03*
X896414Y857055D02*
D03*
X738132Y780000D02*
D03*
G54D213*
X859907Y301301D02*
D03*
X837907Y317301D02*
D03*
Y301301D02*
D03*
X859907Y317301D02*
D03*
G54D218*
X182489Y223950D02*
D03*
X166489D02*
D03*
G54D220*
X617320Y783785D02*
D03*
Y745785D02*
D03*
X660279Y783890D02*
D03*
Y745890D02*
D03*
X24064Y70341D02*
D03*
Y108341D02*
D03*
X445371Y52565D02*
D03*
Y14565D02*
D03*
X1018462Y19000D02*
D03*
Y57000D02*
D03*
G54D224*
X1257303Y89963D02*
D03*
Y73963D02*
D03*
X1257245Y58705D02*
D03*
Y42705D02*
D03*
X1242381Y232109D02*
D03*
Y248109D02*
D03*
X877630Y178120D02*
D03*
X915735Y194120D02*
D03*
Y178120D02*
D03*
X801387Y194120D02*
D03*
Y178120D02*
D03*
X877630Y194120D02*
D03*
X839600D02*
D03*
Y178120D02*
D03*
X801500Y267750D02*
D03*
Y283750D02*
D03*
X839600Y267750D02*
D03*
Y283750D02*
D03*
X877700Y267750D02*
D03*
Y283750D02*
D03*
X915782Y267733D02*
D03*
Y283732D02*
D03*
G54D227*
X239416Y738562D02*
D03*
Y711562D02*
D03*
G54D228*
X209539Y222962D02*
D03*
X236539D02*
D03*
X79500Y104593D02*
D03*
X52500D02*
D03*
X931217Y631566D02*
D03*
X904217D02*
D03*
X1253622Y780921D02*
D03*
X882705Y157123D02*
D03*
X807250Y157000D02*
D03*
X834250D02*
D03*
X909705Y157123D02*
D03*
X1226622Y780921D02*
D03*
G54D241*
X1126457Y415516D02*
D03*
X1136457Y454915D02*
D03*
X1131457D02*
D03*
X1126457D02*
D03*
X1121456D02*
D03*
X1116456D02*
D03*
X1111456D02*
D03*
Y415516D02*
D03*
X1116456D02*
D03*
X1121456D02*
D03*
X1131457D02*
D03*
X1136457D02*
D03*
X1138291Y527774D02*
D03*
X1133291D02*
D03*
X1128291D02*
D03*
X1123291D02*
D03*
X1118291D02*
D03*
X1113291D02*
D03*
Y488375D02*
D03*
X1118291D02*
D03*
X1123291D02*
D03*
X1128291D02*
D03*
X1133291D02*
D03*
X1138291D02*
D03*
G54D242*
X1241750Y267000D02*
D03*
X1207349Y845000D02*
D03*
X400401Y267000D02*
D03*
X437500Y845000D02*
D03*
G54D248*
X921250Y832250D02*
D03*
Y800750D02*
D03*
G54D258*
X252200Y165660D02*
D03*
X265200D02*
D03*
X258700D02*
D03*
X271700D02*
D03*
G54D259*
X247800Y179660D02*
D03*
X276100D02*
D03*
G54D260*
X261950Y183260D02*
D03*
G54D261*
X252200Y194660D02*
D03*
X258700D02*
D03*
X271700D02*
D03*
X265200D02*
D03*
G54D265*
X473911Y425622D02*
D03*
X457911D02*
D03*
X1151667Y346253D02*
D03*
X1167667D02*
D03*
X1119547Y346559D02*
D03*
X1103547D02*
D03*
X1367150Y186993D02*
D03*
X1351150D02*
D03*
X1318369Y186773D02*
D03*
X1334369D02*
D03*
X1229557Y305980D02*
D03*
X1245557D02*
D03*
G54D267*
X777250Y330000D02*
D03*
X795250D02*
D03*
X417707Y455407D02*
D03*
X435708D02*
D03*
G54D268*
X615786Y547581D02*
D03*
X609786D02*
D03*
X393465Y503447D02*
D03*
X387465D02*
D03*
X314570Y502753D02*
D03*
X320570D02*
D03*
X305696Y476788D02*
D03*
X299696D02*
D03*
X412691Y412309D02*
D03*
X406691D02*
D03*
X406697Y405693D02*
D03*
X400697D02*
D03*
X719771Y580972D02*
D03*
X725891Y573988D02*
D03*
X370041Y513398D02*
D03*
X376041D02*
D03*
X413068Y437218D02*
D03*
X419068D02*
D03*
X719891Y573988D02*
D03*
X713772Y580972D02*
D03*
X728425Y506732D02*
D03*
X734425D02*
D03*
G54D273*
X1362000Y50000D02*
D03*
Y100000D02*
D03*
Y75000D02*
D03*
X83421Y352123D02*
D03*
X921244Y368834D02*
D03*
X948118Y330620D02*
D03*
X197750Y59500D02*
D03*
G54D274*
X1362000Y25000D02*
D03*
G54D276*
X1237748Y744129D02*
D03*
X1203347Y367621D02*
D03*
X154399Y744129D02*
D03*
X191498Y367621D02*
D03*
G54D277*
X932058Y425587D02*
D03*
X431500Y626000D02*
D03*
G54D279*
X467999Y782500D02*
D03*
Y762500D02*
D03*
X348000Y782500D02*
D03*
X268000D02*
D03*
X348000Y762500D02*
D03*
X268000D02*
D03*
X248000Y782500D02*
D03*
X507999D02*
D03*
Y762500D02*
D03*
X487999Y782500D02*
D03*
Y762500D02*
D03*
X447999Y782500D02*
D03*
Y762500D02*
D03*
X427999Y782500D02*
D03*
Y762500D02*
D03*
X407999Y782500D02*
D03*
Y762500D02*
D03*
X388000Y782500D02*
D03*
Y762500D02*
D03*
X368000Y782500D02*
D03*
Y762500D02*
D03*
X328000Y782500D02*
D03*
Y762500D02*
D03*
X308000Y782500D02*
D03*
Y762500D02*
D03*
X288000Y782500D02*
D03*
Y762500D02*
D03*
X248000D02*
D03*
X228000Y782500D02*
D03*
Y762500D02*
D03*
G54D280*
X625000Y20001D02*
D03*
X545000D02*
D03*
G54D281*
X415500Y131750D02*
D03*
X450500Y116750D02*
D03*
X235641Y183500D02*
D03*
X425500Y116750D02*
D03*
X405500D02*
D03*
X435500Y131750D02*
D03*
X395500D02*
D03*
X455500D02*
D03*
X375500D02*
D03*
G54D282*
X311787Y184007D02*
D03*
X391788D02*
D03*
X291788D02*
D03*
X331787D02*
D03*
X351787D02*
D03*
X371787D02*
D03*
G54D283*
X279000Y42750D02*
D03*
X304400D02*
D03*
G54D284*
X64000Y199750D02*
D03*
Y138750D02*
D03*
X57000Y145250D02*
D03*
Y153250D02*
D03*
X64000Y157250D02*
D03*
X57000Y161250D02*
D03*
X64000Y165250D02*
D03*
Y173250D02*
D03*
X57000Y177250D02*
D03*
X64000Y181250D02*
D03*
X57000Y185250D02*
D03*
Y193250D02*
D03*
G54D285*
X66000Y72694D02*
D03*
X40600Y47294D02*
D03*
X66000D02*
D03*
X91400D02*
D03*
G54D286*
X72100Y214250D02*
D03*
X72100Y124250D02*
D03*
X16000Y214250D02*
D03*
X16000Y124250D02*
D03*
G54D287*
X83421Y326723D02*
D03*
G54D288*
X66000Y16306D02*
D03*
G54D289*
X1319000Y772250D02*
D03*
X78642Y776289D02*
D03*
G54D290*
X1298000Y697250D02*
D03*
X99642Y851289D02*
D03*
G54D291*
X1356000Y821750D02*
D03*
X44000Y783650D02*
D03*
G54D292*
X1295544Y140391D02*
D03*
X1296102Y54577D02*
D03*
G54D293*
X215641Y183500D02*
D03*
G54D294*
X946644Y368834D02*
D03*
X922718Y330620D02*
D03*
X162750Y59500D02*
D03*
G54D295*
X1295544Y165391D02*
D03*
X1296102Y79577D02*
D03*
G54D296*
X23100Y275027D02*
D03*
Y561027D02*
D03*
X1376900Y561000D02*
D03*
Y275000D02*
D03*
G54D297*
X904600Y111500D02*
D03*
X930000D02*
D03*
X809400D02*
D03*
X784000D02*
D03*
X872240Y126500D02*
D03*
X851920D02*
D03*
X821440Y137500D02*
D03*
X831600Y126500D02*
D03*
X862080Y137500D02*
D03*
X841760D02*
D03*
X882400D02*
D03*
X892560Y126500D02*
D03*
G54D298*
X937400Y62500D02*
D03*
X776600D02*
D03*
G54D299*
X985962Y86900D02*
D03*
X1130962D02*
D03*
G54D300*
X985962Y27300D02*
D03*
X1130962D02*
D03*
G54D301*
X1167250Y19000D02*
D03*
X1241250D02*
D03*
G54D302*
X1204250Y30000D02*
D03*
G54D303*
X672500Y849750D02*
D03*
X581000D02*
D03*
G54D304*
X380500Y116750D02*
D03*
G54D305*
X481200Y96750D02*
D03*
G54D306*
X349800D02*
D03*
G54D307*
X411787Y184007D02*
D03*
G54D308*
X253600Y42750D02*
D03*
G54D309*
X1356000Y783650D02*
D03*
X44000Y821750D02*
D03*
G54D310*
X57000Y132000D02*
D03*
Y206500D02*
D03*
G54D311*
X723840Y36980D02*
D03*
Y66980D02*
D03*
G54D312*
X1235000Y170000D02*
D03*
Y670000D02*
D03*
X135000Y670000D02*
D03*
Y170000D02*
D03*
G54D509*
X326750Y678500D02*
D03*
X1108374Y706290D02*
D03*
X134522Y797824D02*
D03*
Y841824D02*
D03*
X326750Y722500D02*
D03*
X1012299Y654551D02*
D03*
Y698551D02*
D03*
X1108374Y750290D02*
D03*
G54D510*
X607932Y712066D02*
D03*
X627132D02*
D03*
X607932Y699066D02*
D03*
X627132D02*
D03*
Y705566D02*
D03*
X811555Y690213D02*
D03*
Y696713D02*
D03*
Y683713D02*
D03*
X792355Y696713D02*
D03*
Y683713D02*
D03*
G54D511*
X849948Y703891D02*
D03*
G54D512*
X870498Y785586D02*
D03*
X870498Y763588D02*
D03*
X887997Y785587D02*
D03*
Y763587D02*
D03*
G54D513*
X337253Y398572D02*
D03*
Y404572D02*
D03*
X391837Y428420D02*
D03*
Y422420D02*
D03*
X343537Y502699D02*
D03*
Y508699D02*
D03*
X733655Y557517D02*
D03*
Y551517D02*
D03*
G54D514*
X80414Y296959D02*
D03*
X103415D02*
D03*
X126415D02*
D03*
G54D515*
X103415Y234959D02*
D03*
G54D516*
X171750Y322000D02*
D03*
X203250D02*
D03*
X171750Y302500D02*
D03*
X203250D02*
D03*
X241660Y202432D02*
D03*
X210160D02*
D03*
X906250Y804500D02*
D03*
X874750D02*
D03*
G54D517*
X195843Y281750D02*
D03*
Y288150D02*
D03*
Y243350D02*
D03*
Y249750D02*
D03*
X250158Y288150D02*
D03*
Y281750D02*
D03*
Y275350D02*
D03*
Y268950D02*
D03*
Y262550D02*
D03*
Y249750D02*
D03*
Y243350D02*
D03*
X195843Y275350D02*
D03*
Y268950D02*
D03*
Y262550D02*
D03*
Y256150D02*
D03*
X250158D02*
D03*
G54D518*
X288484Y256920D02*
D03*
X272484Y234920D02*
D03*
Y256920D02*
D03*
X288484Y234920D02*
D03*
G54D519*
X381694Y146624D02*
D03*
X374694D02*
D03*
X389489Y146522D02*
D03*
X396489D02*
D03*
X449584Y147195D02*
D03*
X456584D02*
D03*
X441607Y147325D02*
D03*
X434607D02*
D03*
G54D520*
X1005428Y454389D02*
D03*
X992728D02*
D03*
X980028D02*
D03*
X967328Y532389D02*
D03*
X980028D02*
D03*
X992728D02*
D03*
X1005428D02*
D03*
X967328Y454389D02*
D03*
G54D521*
X986377Y493389D02*
D03*
G54D522*
X1066220Y484198D02*
D03*
X1085220D02*
D03*
X1075720D02*
D03*
G54D523*
X1085220Y461123D02*
D03*
X1066220D02*
D03*
G54D524*
X1190554Y551849D02*
D03*
Y541849D02*
D03*
X1185553Y551849D02*
D03*
Y546847D02*
D03*
Y541849D02*
D03*
X1180554Y551849D02*
D03*
Y546847D02*
D03*
Y541849D02*
D03*
X1175553Y551849D02*
D03*
Y546847D02*
D03*
Y541849D02*
D03*
X1190554Y546847D02*
D03*
G54D525*
X1283598Y415765D02*
D03*
Y420765D02*
D03*
Y425765D02*
D03*
Y430765D02*
D03*
Y435765D02*
D03*
Y440765D02*
D03*
Y445765D02*
D03*
Y450765D02*
D03*
Y455765D02*
D03*
Y460765D02*
D03*
Y465765D02*
D03*
Y470765D02*
D03*
Y475765D02*
D03*
Y480765D02*
D03*
Y485765D02*
D03*
Y490765D02*
D03*
Y495765D02*
D03*
X1249898D02*
D03*
Y490765D02*
D03*
Y485765D02*
D03*
Y480765D02*
D03*
Y475765D02*
D03*
Y470765D02*
D03*
Y465765D02*
D03*
Y460765D02*
D03*
Y455765D02*
D03*
Y450765D02*
D03*
Y445765D02*
D03*
Y440765D02*
D03*
Y435765D02*
D03*
Y430765D02*
D03*
Y425765D02*
D03*
Y420765D02*
D03*
Y415765D02*
D03*
G54D526*
X1259248Y411415D02*
D03*
X1264248D02*
D03*
X1269248D02*
D03*
X1274248D02*
D03*
Y500115D02*
D03*
X1269248D02*
D03*
X1264248D02*
D03*
X1259248D02*
D03*
G54D527*
X1266748Y455765D02*
D03*
G54D528*
X1027001Y292947D02*
D03*
X1020500D02*
D03*
X1014000D02*
D03*
X1007501D02*
D03*
X1033501D02*
D03*
X1040001D02*
D03*
X1046500D02*
D03*
X1053000D02*
D03*
X1027001Y236947D02*
D03*
X1020500D02*
D03*
X1014000D02*
D03*
X1007501D02*
D03*
X1059501Y292947D02*
D03*
X1066001D02*
D03*
X1072501D02*
D03*
X1079000D02*
D03*
X1033501Y236947D02*
D03*
X1053000D02*
D03*
X1059501D02*
D03*
X1066001D02*
D03*
X1072501D02*
D03*
X1085500D02*
D03*
X1046500D02*
D03*
X1092001D02*
D03*
Y292947D02*
D03*
X1040001Y236947D02*
D03*
X1079000D02*
D03*
X1085500Y292947D02*
D03*
G54D529*
X1322250Y241250D02*
D03*
X1263750D02*
D03*
X1266625Y316784D02*
D03*
X1325125D02*
D03*
G54D530*
X1089250Y128000D02*
D03*
Y186500D02*
D03*
X1160472Y186750D02*
D03*
Y128250D02*
D03*
G54D531*
X1262002Y844456D02*
D03*
X1324002D02*
D03*
X1262002Y874456D02*
D03*
X1324002D02*
D03*
G54D532*
X1033492Y766630D02*
D03*
X938250Y766750D02*
D03*
X1097806Y588421D02*
D03*
X982250Y766750D02*
D03*
X1141806Y588421D02*
D03*
X1077492Y766630D02*
D03*
G54D533*
X759000Y885750D02*
D03*
Y813750D02*
D03*
X729000D02*
D03*
X659000Y885750D02*
D03*
X649000Y813750D02*
D03*
X629000Y885750D02*
D03*
X619000Y813750D02*
D03*
X599000Y885750D02*
D03*
X599000Y813750D02*
D03*
X789000Y885750D02*
D03*
X789000Y813750D02*
D03*
X779000Y885750D02*
D03*
Y813750D02*
D03*
X769000Y885750D02*
D03*
Y813750D02*
D03*
X749000Y885750D02*
D03*
Y813750D02*
D03*
X739000Y885750D02*
D03*
Y813750D02*
D03*
X729000Y885750D02*
D03*
X719000D02*
D03*
Y813750D02*
D03*
X709000Y885750D02*
D03*
X709000Y813750D02*
D03*
X699000Y885750D02*
D03*
X699000Y813750D02*
D03*
X689000Y885750D02*
D03*
Y813750D02*
D03*
X659000D02*
D03*
X649000Y885750D02*
D03*
X639000D02*
D03*
Y813750D02*
D03*
X629000D02*
D03*
X619000Y885750D02*
D03*
X609000D02*
D03*
X609000Y813750D02*
D03*
G54D534*
X1125791Y508074D02*
D03*
X1123956Y435216D02*
D03*
G54D535*
X1186881Y303418D02*
D03*
X1212881Y228418D02*
D03*
X1167381Y303418D02*
D03*
X1147881D02*
D03*
X1160881Y228418D02*
D03*
X1134881D02*
D03*
X1128381D02*
D03*
X1121881D02*
D03*
X1173881Y303418D02*
D03*
X1115381D02*
D03*
X1121881D02*
D03*
X1128381D02*
D03*
X1134881D02*
D03*
X1141381D02*
D03*
X1154381D02*
D03*
X1160881D02*
D03*
X1180381D02*
D03*
X1199881D02*
D03*
X1206381D02*
D03*
X1212881D02*
D03*
X1115381Y228418D02*
D03*
X1141381D02*
D03*
X1147881D02*
D03*
X1154381D02*
D03*
X1167381D02*
D03*
X1173881D02*
D03*
X1180381D02*
D03*
X1186881D02*
D03*
X1193381D02*
D03*
X1199881D02*
D03*
X1206381D02*
D03*
X1193381Y303418D02*
D03*
G54D536*
X758552Y189520D02*
D03*
X714552D02*
D03*
G54D537*
X311483Y492621D02*
D03*
Y488821D02*
D03*
G54D538*
X85129Y15811D02*
D03*
X46879D02*
D03*
X85129Y30811D02*
D03*
X46879D02*
D03*
G54D539*
X1073885Y522430D02*
D03*
X1058885D02*
D03*
G54D540*
X1164131Y265918D02*
D03*
G54D541*
X852459Y741640D02*
D03*
X877459D02*
D03*
G54D542*
X802773Y243750D02*
D03*
X840773D02*
D03*
X877000D02*
D03*
X915000D02*
D03*
X715552Y154886D02*
D03*
X753552D02*
D03*
G54D543*
X819000Y849750D02*
D03*
G54D544*
X1237250Y93000D02*
D03*
X1171250Y93000D02*
D03*
G54D545*
X1204250Y71000D02*
D03*
M02*
