G04*
G04 #@! TF.GenerationSoftware,Altium Limited,Altium Designer,26.5.0 (11)*
G04*
G04 Layer_Color=16711935*
G04 Board_Origin=52480313|90551176*
%FSLAX44Y44*%
%MOMM*%
G71*
G04*
G04 #@! TF.SameCoordinates,ECD78B5F-1B61-4D3A-833B-BB89D8050CE2*
G04*
G04*
G04 #@! TF.FilePolarity,Positive*
G04*
G01*
G75*
%ADD17C,0.1000*%
G54D17*
X787000Y102500D02*
G03*
X776000Y91500I0J-11000D01*
G01*
X938000D02*
G03*
X927000Y102500I-11000J0D01*
G01*
Y-0D02*
X927000Y0D01*
X54245Y388527D02*
G03*
X63995Y398277I0J9750D01*
G01*
D02*
G03*
X54745Y407527I-9250J0D01*
G01*
X1345255Y447500D02*
G03*
X1336005Y438250I0J-9250D01*
G01*
D02*
G03*
X1345755Y428500I9750J0D01*
G01*
X927000Y80500D02*
G03*
X938000Y91500I0J11000D01*
G01*
X776000D02*
G03*
X787000Y80500I11000J0D01*
G01*
X1400000Y0D02*
Y217000D01*
X927000Y0D02*
X1400000D01*
X-0Y416527D02*
X0Y619500D01*
X0Y216500D02*
Y379527D01*
X-0Y416527D02*
X9000Y407527D01*
X0Y379527D02*
X9000Y388527D01*
Y407527D02*
X54745D01*
X9000Y388527D02*
X54245D01*
X787000Y102500D02*
X927000D01*
Y0D02*
Y80500D01*
X1400000Y620000D02*
Y900000D01*
X0D02*
X1400000D01*
X1400000Y456500D02*
Y620000D01*
X1391000Y447500D02*
X1400000Y456500D01*
X1345255Y447500D02*
X1391000D01*
X1345755Y428500D02*
X1391000D01*
X1400000Y419500D01*
Y217000D02*
Y419500D01*
X787000Y0D02*
Y80500D01*
X0Y0D02*
X0Y216473D01*
X-0Y619473D02*
X0Y900000D01*
X0Y889000D02*
X0Y889000D01*
X0Y0D02*
X787000D01*
M02*
