G04*
G04 #@! TF.GenerationSoftware,Altium Limited,Altium Designer,26.5.0 (11)*
G04*
G04 Layer_Physical_Order=8*
G04 Layer_Color=16711935*
G04 Board_Origin=52480313|90551176*
%FSLAX44Y44*%
%MOMM*%
G71*
G04*
G04 #@! TF.SameCoordinates,ECD78B5F-1B61-4D3A-833B-BB89D8050CE2*
G04*
G04*
G04 #@! TF.FilePolarity,Positive*
G04*
G01*
G75*
%ADD11C,0.2000*%
%ADD15C,0.3000*%
%ADD17C,0.1000*%
%ADD313C,0.6000*%
%ADD315C,0.5000*%
%ADD392C,1.0000*%
%ADD419C,0.1100*%
%ADD420C,0.0950*%
%ADD421C,0.4000*%
%ADD425C,0.7000*%
%ADD429C,0.6000*%
%ADD435C,1.6000*%
%ADD436C,1.2000*%
%ADD448O,1.4000X3.0000*%
%ADD462C,0.4000*%
%ADD463C,0.0850*%
%ADD464C,0.0900*%
%ADD466C,0.0880*%
%ADD467C,0.0870*%
%ADD470C,0.1000*%
G54D11*
X157744Y458578D02*
Y466748D01*
X657132Y547842D02*
X663481Y554190D01*
X643597Y547842D02*
X657132D01*
X643597Y533810D02*
Y547842D01*
X650089Y525904D02*
Y527318D01*
Y525904D02*
X650100Y525893D01*
Y522094D02*
Y525893D01*
X643597Y533810D02*
X650089Y527318D01*
X650100Y522094D02*
X650492Y521701D01*
X215341Y544009D02*
X220268Y548935D01*
X155836Y544009D02*
X215341D01*
X139161Y560684D02*
X155836Y544009D01*
X114074Y524506D02*
X152856D01*
X157575Y519788D01*
Y466956D02*
Y519788D01*
X157367Y466748D02*
X157575Y466956D01*
X157463Y458297D02*
X157744Y458578D01*
X95428Y543152D02*
X114074Y524506D01*
X95428Y543152D02*
Y556131D01*
X181045Y641748D01*
X228332D01*
X233685Y636395D01*
Y617722D02*
Y636395D01*
Y617722D02*
X237829Y613579D01*
X658561Y837752D02*
Y869977D01*
X646389Y882149D02*
X658561Y869977D01*
X587473Y882149D02*
X646389D01*
X185639Y305602D02*
Y321776D01*
X181636Y301599D02*
X185639Y305602D01*
X132340Y301599D02*
X181636D01*
X123757Y310183D02*
X132340Y301599D01*
X123757Y310183D02*
Y391145D01*
X107834Y407067D02*
X123757Y391145D01*
X107834Y407067D02*
Y443602D01*
X49674Y501763D02*
X107834Y443602D01*
X49674Y501763D02*
Y575951D01*
X43945Y581680D02*
X49674Y575951D01*
X32266Y885194D02*
X458589D01*
X31095Y884022D02*
X32266Y885194D01*
X31095Y770103D02*
Y884022D01*
X458589Y885194D02*
X477616Y866167D01*
X508436D01*
X530306Y844296D01*
X549620D01*
X587473Y882149D01*
X658561Y837752D02*
X666668Y829646D01*
Y809625D02*
Y829646D01*
X670488Y799386D02*
X674414Y803312D01*
X670488Y771465D02*
Y799386D01*
Y771465D02*
X710867Y731086D01*
X724074D01*
X730753Y737766D01*
X743250D01*
G54D15*
X896014Y854956D02*
Y875982D01*
X1045839Y851194D02*
X1052017Y857372D01*
X1024229Y783060D02*
X1045839Y804670D01*
Y851194D01*
X274572Y345841D02*
X392865D01*
X312086Y346587D02*
Y444691D01*
Y346587D02*
X312832Y345841D01*
X294062Y462715D02*
X312086Y444691D01*
X221641Y398772D02*
X274572Y345841D01*
X392865D02*
X460520Y413496D01*
X497350D01*
X501955Y408891D01*
Y397177D02*
Y408891D01*
Y383663D02*
Y397177D01*
Y383663D02*
X506308Y379310D01*
Y365795D02*
Y379310D01*
X51250Y127906D02*
Y315042D01*
X56686Y320479D01*
X51250Y127906D02*
X89146Y90010D01*
X123012D01*
X913014Y876940D02*
X920774D01*
X905634D02*
X913014D01*
X841844Y820329D02*
X849443Y812730D01*
X857534D01*
X874640Y829836D01*
Y837725D01*
X886153Y849238D01*
Y873676D01*
X893971Y881494D01*
X901080D01*
X905634Y876940D01*
X1129089Y872428D02*
X1129331D01*
X1150438Y851322D01*
Y808997D02*
Y851322D01*
X1111766Y770325D02*
X1150438Y808997D01*
X1111766Y685618D02*
Y770325D01*
Y685618D02*
X1138325Y659059D01*
X1183337D01*
X1209896Y632500D01*
X1220593D01*
X1224566Y628526D01*
X1262095D01*
X1269832Y636263D01*
X1281389D01*
X1284025Y633627D01*
Y624347D02*
Y633627D01*
X1283795Y624117D02*
X1284025Y624347D01*
X1283795Y614566D02*
Y624117D01*
X1260154Y561589D02*
X1262790Y558953D01*
X1262776Y552199D02*
X1262790Y552213D01*
Y558953D01*
X1252643Y561589D02*
X1260154D01*
X1241824Y550770D02*
X1252643Y561589D01*
X1235774Y550770D02*
X1241824D01*
X1227512Y542509D02*
X1235774Y550770D01*
X1196416Y542509D02*
X1227512D01*
X1190489Y548435D02*
X1196416Y542509D01*
X1183097Y548435D02*
X1190489D01*
X988676Y437673D02*
X1001856D01*
X1024670Y460487D01*
Y477229D01*
X1048632Y501191D01*
Y589263D01*
X896014Y854956D02*
X898384Y852586D01*
X909686D01*
X1030055Y890202D02*
X1040661Y879596D01*
X1097422D01*
X1111821Y865198D01*
X811843Y819896D02*
X882149Y890202D01*
X1030055D01*
X909686Y852586D02*
X919646Y862546D01*
X1021009D01*
X1029249Y870787D01*
X1047079D01*
X1052017Y865848D01*
Y857372D02*
Y865848D01*
X1024229Y674448D02*
Y783060D01*
X412582Y724276D02*
X419194Y717665D01*
X412391Y730450D02*
X412582Y730259D01*
Y724276D02*
Y730259D01*
X1264876Y616609D02*
X1271032D01*
X1220131D02*
X1264876D01*
X1105880Y816433D02*
Y837602D01*
X1095656Y684146D02*
Y806210D01*
X1105880Y816433D01*
Y837602D02*
X1111821Y843543D01*
Y865198D01*
X1095656Y684146D02*
X1126889Y652913D01*
X1183827D01*
X1220131Y616609D01*
G54D17*
X519176Y501425D02*
Y525762D01*
Y592162D01*
X518447Y592891D02*
X519176Y592162D01*
X518590Y500840D02*
X519176Y501425D01*
X516858Y500840D02*
X518590D01*
X521176Y500554D02*
Y525762D01*
Y592693D01*
X519461Y498840D02*
X521176Y500554D01*
Y592693D02*
X525447Y596964D01*
X523284Y486295D02*
Y525762D01*
Y590830D01*
Y486295D02*
X529875Y479705D01*
X523284Y590830D02*
X530905Y598451D01*
X513636Y497618D02*
X516858Y500840D01*
X513636Y490287D02*
Y497618D01*
X518447Y599863D02*
X529264Y610680D01*
X518447Y592891D02*
Y599863D01*
X515636Y496789D02*
X517686Y498840D01*
X515636Y493890D02*
Y496789D01*
X517686Y498840D02*
X519461D01*
X768433Y326911D02*
X825455D01*
X831308Y321058D01*
X731712Y363632D02*
X768433Y326911D01*
X519766Y439168D02*
Y455700D01*
X513636Y490287D02*
X517281Y486642D01*
Y469732D02*
Y486642D01*
X514073Y466524D02*
X517281Y469732D01*
X514073Y461394D02*
Y466524D01*
X517452Y436853D02*
X519766Y439168D01*
X517452Y434482D02*
Y436853D01*
Y434482D02*
X525875Y426059D01*
X514073Y461394D02*
X519766Y455700D01*
X515636Y493890D02*
X519281Y490245D01*
Y487470D02*
Y490245D01*
Y487470D02*
X527875Y478876D01*
X507538Y441567D02*
Y511338D01*
Y441567D02*
X523875Y425230D01*
X507538Y511338D02*
X515577Y519378D01*
X505538Y440739D02*
X510255Y436022D01*
X505538Y440739D02*
Y512167D01*
X513577Y520206D01*
X529875Y446370D02*
Y479705D01*
Y446370D02*
X536134Y440111D01*
X527875Y387347D02*
Y478876D01*
X530707Y601549D02*
Y604053D01*
X530905Y598451D02*
Y601350D01*
X530707Y604053D02*
X531234Y604580D01*
X530707Y601549D02*
X530905Y601350D01*
X525447Y597130D02*
X527405Y599089D01*
X525447Y596964D02*
Y597130D01*
X527875Y367748D02*
Y387347D01*
X509016Y85222D02*
Y142937D01*
X505807Y82013D02*
X509016Y85222D01*
X669414Y357632D02*
X685753D01*
X699329Y332364D02*
Y344055D01*
X685753Y357632D02*
X699329Y344055D01*
X494118Y157835D02*
X509016Y142937D01*
X494118Y157835D02*
Y187833D01*
X579711Y273426D01*
Y316556D01*
X594278Y331123D01*
X642905D01*
X669414Y357632D01*
X707977Y316844D02*
Y326027D01*
X714393Y332444D02*
Y332444D01*
X707977Y326027D02*
X714393Y332444D01*
X704147Y344517D02*
X707903Y340760D01*
X704147Y344517D02*
Y349466D01*
X707903Y332484D02*
Y340760D01*
X693981Y359632D02*
X704147Y349466D01*
X699481Y361632D02*
X720403Y340709D01*
Y332484D02*
Y340709D01*
X731864Y667114D02*
X731897Y667147D01*
X739992D01*
X1074040Y474500D02*
Y488401D01*
X1071620Y472081D02*
X1074040Y474500D01*
X1071620Y471970D02*
Y472081D01*
X510255Y387347D02*
Y436022D01*
Y359695D02*
Y387347D01*
X450779Y358971D02*
X453218Y356533D01*
X507092D01*
X510255Y359695D01*
X921648Y866328D02*
X929917Y874596D01*
X1061016D01*
X912597Y866328D02*
X921648D01*
X576661Y718727D02*
X589186Y731252D01*
X564708Y650052D02*
X576661Y662005D01*
Y718727D01*
X574661Y719556D02*
X594254Y739149D01*
X574661Y662834D02*
Y719556D01*
X563879Y652052D02*
X574661Y662834D01*
X572661Y663662D02*
Y730032D01*
X563051Y654052D02*
X572661Y663662D01*
Y730032D02*
X583778Y741149D01*
X529264Y610680D02*
X561474D01*
X569046Y618252D01*
Y626053D01*
X564360Y630739D02*
X569046Y626053D01*
X576599Y647147D02*
X579498D01*
X564360Y634908D02*
X576599Y647147D01*
X564360Y630739D02*
Y634908D01*
X579498Y647147D02*
X581549Y645097D01*
X437285Y582933D02*
X482418Y628066D01*
X489378D01*
X491428Y630117D02*
Y637076D01*
X489378Y628066D02*
X491428Y630117D01*
X504404Y650052D02*
X564708D01*
X491428Y637076D02*
X504404Y650052D01*
X205588Y582933D02*
X437285D01*
X434346Y573336D02*
X456186D01*
X423058Y562048D02*
X434346Y573336D01*
X423058Y549760D02*
Y562048D01*
X456186Y573336D02*
X477514Y594665D01*
X510330D01*
X883391Y887202D02*
X1028812D01*
X855670Y817230D02*
Y859481D01*
X883391Y887202D01*
X1061845Y876596D02*
X1070290Y868150D01*
X1028812Y887202D02*
X1039419Y876596D01*
X1061845D01*
X1061016Y874596D02*
X1069462Y866151D01*
X1069673D02*
X1072277Y863547D01*
X1069462Y866151D02*
X1069673D01*
X1072277Y843648D02*
Y863547D01*
Y843648D02*
X1076536Y839388D01*
X1070290Y868150D02*
X1102504D01*
X1030819Y779167D02*
X1070937Y819285D01*
Y835582D01*
X1030819Y666312D02*
Y779167D01*
X1046476Y789026D02*
X1076536Y819087D01*
Y839388D01*
X1046476Y779836D02*
Y789026D01*
X943081Y669260D02*
X945588Y671768D01*
X917438Y656426D02*
X930272Y669260D01*
X943081D01*
X921126Y677716D02*
X925648D01*
X926772Y678839D01*
X932105D01*
X139307Y346211D02*
X150471D01*
X156039Y351779D01*
X169670D01*
X587794Y637912D02*
X587926Y637779D01*
X593015D01*
X584246Y637912D02*
X587794D01*
X593015Y637779D02*
X622796Y667561D01*
X581549Y640609D02*
Y645097D01*
Y640609D02*
X584246Y637912D01*
X406139Y685561D02*
Y685818D01*
X398038Y693919D02*
X406139Y685818D01*
X271142Y702658D02*
X387390D01*
X396130Y693919D01*
X398038D01*
X407991Y676135D02*
X411873Y672253D01*
Y661204D02*
Y672253D01*
X63637Y355354D02*
X71728Y347264D01*
X63637Y355354D02*
Y372239D01*
X71728Y271017D02*
Y347264D01*
X63637Y372239D02*
X70901Y379503D01*
Y410968D01*
X4597Y477273D02*
X70901Y410968D01*
X1191455Y328300D02*
X1241363D01*
X1251874Y212090D02*
Y317788D01*
X1241363Y328300D02*
X1251874Y317788D01*
X1184311Y321156D02*
X1191455Y328300D01*
X1153124Y335013D02*
X1166981Y321156D01*
X1184311D01*
X1239418Y340578D02*
Y374748D01*
X1229140Y330300D02*
X1239418Y340578D01*
X1190627Y330300D02*
X1229140D01*
X1183483Y323156D02*
X1190627Y330300D01*
X1167810Y323156D02*
X1183483D01*
X1160008Y330957D02*
X1160008D01*
X1153953Y337013D02*
X1160008Y330957D01*
X1160008D02*
X1167810Y323156D01*
X1189798Y332300D02*
X1228197D01*
X1237418Y341521D02*
Y375576D01*
X1261917Y400075D01*
X1228197Y332300D02*
X1237418Y341521D01*
X1182654Y325156D02*
X1189798Y332300D01*
X1168638Y325156D02*
X1182654D01*
X1154781Y339013D02*
X1168638Y325156D01*
X1219990Y338743D02*
X1232009Y350761D01*
X1180956Y329256D02*
X1190443Y338743D01*
X1232009Y380308D02*
X1265903Y414203D01*
X1170336Y329256D02*
X1180956D01*
X1265903Y414203D02*
X1341671D01*
X1190443Y338743D02*
X1219990D01*
X1232009Y350761D02*
Y380308D01*
X895210Y300619D02*
X972954D01*
X1006955Y334620D01*
X980323Y310816D02*
X1006216Y336709D01*
X933092Y310816D02*
X980323D01*
X1006955Y334620D02*
X1027588D01*
X1049995Y312212D01*
X1006216Y336709D02*
X1028327D01*
X989120Y322442D02*
X1005780Y339102D01*
X973166Y322442D02*
X989120D01*
X1005780Y339102D02*
X1028763D01*
X1028327Y336709D02*
X1050824Y314212D01*
X965544Y314820D02*
X973166Y322442D01*
X1028763Y339102D02*
X1051652Y316212D01*
X994398Y343202D02*
X1031398D01*
X1054288Y320312D01*
X977739Y326542D02*
X994398Y343202D01*
X969173Y326542D02*
X977739D01*
X961550Y318920D02*
X969173Y326542D01*
X918639Y318920D02*
X961550D01*
X1083877Y312212D02*
X1106678Y335013D01*
X1153124D01*
X1083049Y314212D02*
X1105850Y337013D01*
X1153953D01*
X1105021Y339013D02*
X1154781D01*
X1082221Y316212D02*
X1105021Y339013D01*
X1080522Y320312D02*
X1103526Y343316D01*
X1156276D01*
X1170336Y329256D01*
X1049995Y312212D02*
X1083877D01*
X1050824Y314212D02*
X1083049D01*
X1051652Y316212D02*
X1082221D01*
X1054288Y320312D02*
X1080522D01*
X269715Y634190D02*
X293502Y610403D01*
X333522D01*
X622796Y675779D02*
X625187Y678169D01*
X633981D01*
X640541Y675270D02*
X846430D01*
X483633Y721781D02*
X490799Y714615D01*
X550002D01*
X480497Y721781D02*
X483633D01*
X473294Y674239D02*
X475550Y676495D01*
X464119Y656361D02*
X473294Y665536D01*
Y674239D01*
X416146Y656361D02*
X464119D01*
X475550Y676495D02*
Y716833D01*
X396595Y636810D02*
X416146Y656361D01*
X396595Y604238D02*
Y636810D01*
X333522Y610403D02*
X341738Y602188D01*
X394545D01*
X396595Y604238D01*
X414732Y658361D02*
X455674D01*
X393095Y636773D02*
X402790Y646468D01*
X402839D02*
X414732Y658361D01*
X402790Y646468D02*
X402839D01*
X393095Y605688D02*
Y636773D01*
X435193Y675166D02*
X438693Y678666D01*
X428708Y675166D02*
X435193D01*
X281713Y648468D02*
X402010D01*
X428708Y675166D01*
X411599Y660930D02*
X411873Y661204D01*
X411599Y660886D02*
Y660930D01*
X288962Y650468D02*
X401182D01*
X411599Y660886D01*
X455674Y658361D02*
X468442Y671129D01*
X475550Y716833D02*
X480497Y721781D01*
X550002Y714615D02*
X576971Y741584D01*
Y764349D01*
X594405Y781783D01*
X613427D01*
X629970Y798327D01*
X587225Y749009D02*
Y761193D01*
X482047Y712615D02*
X550830D01*
X587225Y749009D01*
X412694Y691665D02*
X418882Y697853D01*
X439934D01*
X443746Y701665D01*
X465703D01*
X468442Y698926D01*
Y671129D02*
Y698926D01*
X510330Y594665D02*
X513577Y591418D01*
Y520206D02*
Y591418D01*
X410721Y543664D02*
X416962D01*
X423058Y549760D01*
X441087Y354723D02*
X448249Y347562D01*
X500950D02*
X523875Y370487D01*
X448249Y347562D02*
X500950D01*
X587225Y761193D02*
X597604Y771571D01*
X626620D01*
X629833Y768359D01*
X732793Y621904D02*
X738069Y627180D01*
X638433Y621904D02*
X732793D01*
X728912Y628564D02*
X739378Y639030D01*
X743629Y643281D01*
X708858Y628564D02*
X728912D01*
X743629Y643281D02*
X756297D01*
X636256Y619727D02*
X638433Y621904D01*
X636256Y619727D02*
X636256D01*
X614039Y597511D02*
X636256Y619727D01*
X702404Y635018D02*
X708858Y628564D01*
X657047Y635018D02*
X702404D01*
X648033Y626004D02*
X657047Y635018D01*
X631579Y626004D02*
X648033D01*
X604654Y599080D02*
X631579Y626004D01*
X614039Y552697D02*
Y597511D01*
X604654Y502283D02*
Y599080D01*
X614039Y552697D02*
X629905Y536831D01*
X604654Y502283D02*
X626422Y480515D01*
X629905Y534346D02*
Y536831D01*
Y534346D02*
X642030Y522221D01*
Y504950D02*
Y522221D01*
Y504950D02*
X659768Y487212D01*
X668242D01*
X662115Y484473D02*
X664922Y481666D01*
X644016Y484473D02*
X662115D01*
X664922Y441233D02*
Y481666D01*
X616905Y511583D02*
X644016Y484473D01*
X616905Y511583D02*
Y537881D01*
X471763Y375454D02*
X495486Y399177D01*
Y408996D01*
X428489Y375454D02*
X471763D01*
X395876Y342841D02*
X428489Y375454D01*
X178608Y342841D02*
X395876D01*
X169670Y351779D02*
X178608Y342841D01*
X138721Y346796D02*
X139307Y346211D01*
X138721Y346796D02*
Y385373D01*
X114334Y409760D02*
X138721Y385373D01*
X114334Y409760D02*
Y446295D01*
X103159Y457470D02*
X114334Y446295D01*
X103159Y457470D02*
Y481888D01*
X6597Y532819D02*
Y576347D01*
Y532819D02*
X90568Y448848D01*
Y411461D02*
Y448848D01*
X43174Y499070D02*
Y563021D01*
Y499070D02*
X92568Y449676D01*
Y412289D02*
Y449676D01*
X94568Y413118D02*
Y450505D01*
X45174Y499899D02*
X94568Y450505D01*
X562261Y603866D02*
X587391Y628995D01*
X554874Y603866D02*
X562261D01*
X539505Y597258D02*
X541837Y594926D01*
X556709D01*
X539505Y597258D02*
Y601663D01*
X527405Y599089D02*
Y599901D01*
X515577Y519378D02*
Y592247D01*
X509135Y598689D02*
X515577Y592247D01*
X99428Y544809D02*
X116518Y527719D01*
X269384D01*
X208645Y680110D02*
X231193Y702658D01*
X264000Y709800D02*
X271142Y702658D01*
X260273Y709800D02*
X264000D01*
X253131Y702658D02*
X260273Y709800D01*
X231193Y702658D02*
X253131D01*
X208645Y662617D02*
Y680110D01*
X257770Y681553D02*
X390160D01*
X392580Y683973D01*
X247015Y670798D02*
X257770Y681553D01*
X385616Y684764D02*
X389501Y688649D01*
Y688774D01*
X256839Y684764D02*
X385616D01*
X218413Y662818D02*
X221955Y659275D01*
X229878D01*
X245381Y673307D02*
X256839Y684764D01*
X238960Y673307D02*
X245381D01*
X228429Y662775D02*
X238960Y673307D01*
X241080Y670798D02*
X247015D01*
X33112Y713551D02*
X126120D01*
X4597Y685035D02*
X33112Y713551D01*
X233213Y662931D02*
X241080Y670798D01*
X233213Y662609D02*
Y662931D01*
X229878Y659275D02*
X233213Y662609D01*
X250935Y666275D02*
X273155D01*
X247361Y662701D02*
X250935Y666275D01*
X273155D02*
X288962Y650468D01*
X267406Y662775D02*
X281713Y648468D01*
X10176Y598967D02*
Y669616D01*
X46597Y706038D01*
X8176Y598139D02*
Y676472D01*
X40557Y708853D01*
X21091Y588052D02*
X45351D01*
X54174Y579229D01*
Y503627D02*
Y579229D01*
X10176Y598967D02*
X21091Y588052D01*
X8176Y598139D02*
X20263Y586052D01*
X44523D02*
X52174Y578400D01*
X20263Y586052D02*
X44523D01*
X54174Y503627D02*
X112334Y445466D01*
Y408931D02*
Y445466D01*
Y408931D02*
X136721Y384544D01*
X110334Y408103D02*
Y444638D01*
X52174Y502798D02*
X110334Y444638D01*
Y408103D02*
X126257Y392180D01*
X52174Y502798D02*
Y578400D01*
X136721Y345382D02*
Y384544D01*
Y345382D02*
X141262Y340841D01*
X396704D01*
X427818Y371955D01*
X466512D01*
X126257Y353018D02*
Y392180D01*
Y353018D02*
X140434Y338841D01*
X397533D01*
X425191Y366500D01*
X451674D01*
X455823Y362350D01*
X466578D01*
X205234Y639248D02*
X208485Y635997D01*
X196415Y639248D02*
X205234D01*
X194763Y637597D02*
X196415Y639248D01*
X194763Y590928D02*
Y637597D01*
Y590928D02*
X212149Y573543D01*
X232909D01*
X523875Y370487D02*
Y425230D01*
X88529Y287841D02*
Y312253D01*
Y287841D02*
X104127Y272242D01*
Y253650D02*
X123710Y234067D01*
X104127Y253650D02*
Y272242D01*
X81770Y288336D02*
X100597Y269509D01*
Y269195D02*
Y269509D01*
X123710Y234067D02*
X144013D01*
X88529Y312253D02*
X103048Y326772D01*
Y335537D01*
X169689Y281561D02*
X172657Y278593D01*
X116218Y281561D02*
X169689D01*
X92029Y305750D02*
X116218Y281561D01*
X172657Y278593D02*
X220296D01*
X263703Y322000D01*
X81770Y288336D02*
Y309294D01*
X96782Y324306D01*
Y387916D01*
X144013Y234067D02*
X169279Y259333D01*
Y265800D01*
X171531Y255837D02*
X176548Y250820D01*
Y238916D02*
Y250820D01*
X170527Y230067D02*
X178548Y238088D01*
X61047Y258618D02*
X89598Y230067D01*
X170527D01*
X178548Y238088D02*
Y250730D01*
X90427Y232067D02*
X169699D01*
X176548Y238916D01*
X67193Y255301D02*
X90427Y232067D01*
X178608Y250790D02*
Y257006D01*
X178548Y250730D02*
X178608Y250790D01*
X174233Y261381D02*
X178608Y257006D01*
X61047Y258618D02*
Y327710D01*
X67193Y255301D02*
Y327801D01*
X1068363Y494078D02*
X1074040Y488401D01*
X948367Y467626D02*
X972043Y443950D01*
X975113Y436989D02*
Y440879D01*
X972043Y443950D02*
X975113Y440879D01*
X972043Y443950D02*
Y443950D01*
X303748Y176959D02*
X311068Y169639D01*
X303748Y176959D02*
Y257720D01*
X311068Y169639D02*
X367767D01*
X370893Y172765D01*
X303748Y257720D02*
X308540Y262512D01*
Y271561D01*
X367502Y330523D01*
X403145D01*
X305040Y270889D02*
X368173Y334023D01*
X406604D01*
X409763Y330864D01*
X664922Y441233D02*
X669305Y436850D01*
X693156Y412999D01*
X721094D02*
X726189Y407904D01*
X693156Y412999D02*
X721094D01*
X492118Y131721D02*
Y188661D01*
Y131721D02*
X507016Y116823D01*
Y89281D02*
Y116823D01*
X490118Y130893D02*
X505016Y115995D01*
X490118Y130893D02*
Y189489D01*
X505016Y90109D02*
Y115995D01*
X332288Y104993D02*
X350046Y122752D01*
X356568D01*
X405632Y73688D01*
X326737Y124494D02*
X330237Y127993D01*
X326737Y107044D02*
Y124494D01*
Y107044D02*
X328787Y104993D01*
X332288D01*
X330237Y108493D02*
X330904D01*
X347163Y124752D01*
X358377D01*
X407440Y75688D01*
X490595D01*
X405632Y73688D02*
X491423D01*
X507016Y89281D01*
X492118Y188661D02*
X577711Y274255D01*
Y317384D01*
X593449Y333122D01*
X642077D01*
X668586Y359632D01*
X693981D01*
X490595Y75688D02*
X505016Y90109D01*
X490118Y189489D02*
X575711Y275083D01*
Y318213D01*
X592621Y335122D01*
X641058D01*
X667567Y361632D01*
X699481D01*
X193740Y304415D02*
Y322000D01*
X188424Y299099D02*
X193740Y304415D01*
X119257Y308319D02*
X130476Y297099D01*
X197653D01*
X199814Y294938D01*
X209793D01*
X131567Y293180D02*
X196622D01*
X117257Y307490D02*
X131567Y293180D01*
X196622D02*
X196710Y293093D01*
X115257Y306662D02*
X130738Y291180D01*
X183497D01*
X186650Y288027D01*
X212102D01*
X217268Y293193D01*
X217341D01*
X131305Y299099D02*
X188424D01*
X121257Y309147D02*
X131305Y299099D01*
X121257Y309147D02*
Y389257D01*
X96568Y413946D02*
X121257Y389257D01*
X96568Y413946D02*
Y451333D01*
X119257Y308319D02*
Y388429D01*
X94568Y413118D02*
X119257Y388429D01*
X117257Y307490D02*
Y387600D01*
X92568Y412289D02*
X117257Y387600D01*
X115257Y306662D02*
Y386772D01*
X90568Y411461D02*
X115257Y386772D01*
X23689Y582506D02*
X43174Y563021D01*
X45174Y499899D02*
Y567146D01*
X30084Y582236D02*
X45174Y567146D01*
X47174Y500727D02*
Y571509D01*
X36874Y581809D02*
X47174Y571509D01*
Y500727D02*
X96568Y451333D01*
X6597Y576347D02*
X11945Y581695D01*
X4597Y477273D02*
Y685035D01*
X8176Y770631D02*
Y881926D01*
X19944Y893694D01*
X13611Y770724D02*
Y884532D01*
X20772Y891694D01*
X19325Y887418D02*
X21601Y889694D01*
X19325Y770476D02*
Y887418D01*
X25132Y770227D02*
Y887108D01*
X25718Y887694D02*
X459624D01*
X25132Y887108D02*
X25718Y887694D01*
X13486Y770600D02*
X13611Y770724D01*
X459624Y887694D02*
X478419Y868900D01*
X509239D01*
X460453Y889694D02*
X479247Y870900D01*
X21601Y889694D02*
X460453D01*
X479247Y870900D02*
X510067D01*
X20772Y891694D02*
X462124D01*
X480919Y872899D01*
X510896D01*
X19944Y893694D02*
X462953D01*
X481747Y874899D01*
X511724D01*
X533327Y853297D02*
X545892D01*
X511724Y874899D02*
X533327Y853297D01*
X545892D02*
X583745Y891149D01*
X677222D02*
X707379Y860992D01*
X583745Y891149D02*
X677222D01*
X510896Y872899D02*
X532999Y850797D01*
X510067Y870900D02*
X532170Y848796D01*
X509239Y868900D02*
X531342Y846796D01*
X548585D01*
X586437Y884649D01*
X674530D01*
X697090Y862088D01*
Y849515D02*
Y862088D01*
X690653Y843077D02*
X697090Y849515D01*
X683327Y843077D02*
X690653D01*
X679117Y838868D02*
X683327Y843077D01*
X532170Y848796D02*
X547756D01*
X585609Y886649D01*
X675358D01*
X699090Y862917D01*
Y834174D02*
Y862917D01*
X695195Y830279D02*
X699090Y834174D01*
X695195Y796317D02*
Y830279D01*
X532999Y850797D02*
X546928D01*
X584781Y888649D01*
X676187D01*
X701090Y863745D01*
Y831224D02*
Y863745D01*
X707379Y829663D02*
Y860992D01*
X945588Y671768D02*
Y783562D01*
X918266Y654426D02*
X921245Y657404D01*
X928596Y657053D02*
X934404D01*
X926194Y659455D02*
X928596Y657053D01*
X921245Y657404D02*
Y657404D01*
X923295Y659455D02*
X926194D01*
X921245Y657404D02*
X923295Y659455D01*
X934404Y657053D02*
X940899Y663549D01*
X865273Y656426D02*
X917438D01*
X846430Y675270D02*
X865273Y656426D01*
X639783Y677340D02*
X847188D01*
X859778Y664750D02*
X872836D01*
X847188Y677340D02*
X859778Y664750D01*
X640950Y685139D02*
X842217D01*
X860606Y666750D01*
X870088D01*
X556709Y594926D02*
X630673Y668890D01*
X634161D02*
X640541Y675270D01*
X630673Y668890D02*
X634161D01*
X633333Y670890D02*
X639783Y677340D01*
X633981Y678169D02*
X640950Y685139D01*
X745994Y687279D02*
X791662Y732946D01*
X632531Y681669D02*
X638140Y687279D01*
X745994D01*
X597425Y639030D02*
X629445Y671049D01*
X630433Y670890D02*
X633333D01*
X630273Y671049D02*
X630433Y670890D01*
X629445Y671049D02*
X630273D01*
X587391Y628995D02*
X597425Y639030D01*
X835030Y732946D02*
X845280Y743197D01*
X884455D01*
X900293Y727358D01*
Y709990D02*
Y727358D01*
X791662Y732946D02*
X835030D01*
X542141Y857352D02*
X578439Y893649D01*
X1030851D01*
X573538Y895649D02*
X1098295D01*
X535494Y857605D02*
X573538Y895649D01*
X1030851Y893649D02*
X1041904Y882596D01*
X1108520D01*
X1119438Y871678D01*
Y818629D02*
Y871678D01*
X1098295Y895649D02*
X1121438Y872507D01*
Y834729D02*
Y872507D01*
X1123905Y789184D02*
Y832262D01*
X1121438Y834729D02*
X1123905Y832262D01*
X1111302Y810493D02*
X1119438Y818629D01*
X1111302Y791278D02*
Y810493D01*
X722916Y321933D02*
X813404D01*
X722501Y321518D02*
X722916Y321933D01*
X8463Y476235D02*
Y503331D01*
Y476235D02*
X96782Y387916D01*
X1218689Y209314D02*
X1249098D01*
X1192794Y147370D02*
Y183419D01*
X1218689Y209314D01*
X1182359Y136936D02*
X1192794Y147370D01*
X1249098Y209314D02*
X1251874Y212090D01*
X885254Y310575D02*
X895210Y300619D01*
X714246Y310575D02*
X885254D01*
X707977Y316844D02*
X714246Y310575D01*
X639614Y739164D02*
X662511Y762061D01*
X594254Y739149D02*
X635741D01*
X635756Y739164D01*
X639614D01*
X583778Y741149D02*
X634912D01*
X661160Y767396D01*
X666212D01*
X223649Y631536D02*
X228268Y636155D01*
X223649Y589627D02*
Y631536D01*
Y589627D02*
X226343Y586933D01*
X435517D01*
X502635Y654052D01*
X563051D01*
X218253Y587648D02*
Y636198D01*
Y587648D02*
X220968Y584933D01*
X436345D01*
X198263Y590257D02*
X205588Y582933D01*
X198263Y590257D02*
Y635748D01*
X436345Y584933D02*
X503464Y652052D01*
X563879D01*
X662511Y762061D02*
X670106D01*
X589186Y731252D02*
X641966D01*
X666836Y756122D01*
X580471Y757267D02*
X596775Y773571D01*
X666381D01*
X972734Y451171D02*
X972976D01*
X970684Y453221D02*
X972734Y451171D01*
X952521Y471626D02*
X970684Y453463D01*
X912047Y471626D02*
X952521D01*
X970684Y453221D02*
Y453463D01*
X972976Y451171D02*
X978385Y445762D01*
X974043Y444778D02*
X981553Y437268D01*
X982019D01*
X974043Y444778D02*
Y444778D01*
X949195Y469626D02*
X974043Y444778D01*
X912876Y469626D02*
X949195D01*
X873046Y426967D02*
X913704Y467626D01*
X948367D01*
X970043Y422180D02*
X972942Y419281D01*
X973073D01*
X970043Y422180D02*
Y443121D01*
X948031Y465134D02*
X970043Y443121D01*
X968043Y416023D02*
X970164Y413902D01*
X947202Y463134D02*
X968043Y442293D01*
Y416023D02*
Y442293D01*
X968818Y408492D02*
X968944D01*
X966043Y411268D02*
X968818Y408492D01*
X966043Y411268D02*
Y441465D01*
X946374Y461133D02*
X966043Y441465D01*
X873719Y424798D02*
X914055Y465134D01*
X948031D01*
X914883Y463134D02*
X947202D01*
X915711Y461133D02*
X946374D01*
X961943Y406633D02*
Y439766D01*
Y406633D02*
X967248Y401328D01*
X995137D01*
X1003091Y409281D01*
X1039039D01*
X514650Y358433D02*
X525875Y369659D01*
Y426059D01*
X514650Y302974D02*
Y358433D01*
X521947Y358991D02*
X529875Y366919D01*
X521947Y345128D02*
Y358991D01*
X518183Y351678D02*
Y358055D01*
X527875Y367748D01*
X960651Y608501D02*
X982528D01*
X940014Y633826D02*
X960398Y613442D01*
X978833D01*
X937452Y631700D02*
X960651Y608501D01*
X622796Y667561D02*
Y675779D01*
X343984Y173139D02*
X352289D01*
X363747Y184597D01*
Y196082D01*
X379673Y212007D01*
X423683D01*
X514650Y302974D01*
X870088Y666750D02*
X887804Y684466D01*
X914376D01*
X921126Y677716D01*
X872836Y664750D02*
X889052Y680966D01*
X760029Y613706D02*
X782199Y635876D01*
X788035D01*
X1028056Y663549D02*
X1030819Y666312D01*
X940899Y663549D02*
X1028056D01*
X946876Y635732D02*
X951224D01*
X954312Y638820D01*
X979795Y630213D02*
Y638608D01*
X911366Y646176D02*
X972226D01*
X979795Y638608D01*
X911366Y644076D02*
X960899D01*
X966416Y638559D01*
X790948Y650326D02*
X933475D01*
X942598Y659449D01*
X755816Y623706D02*
X778287Y646176D01*
X807598D01*
X942598Y659449D02*
X1026357D01*
X792646Y654426D02*
X918266D01*
X787956Y659116D02*
X792646Y654426D01*
X1026357Y659449D02*
X1052121Y633685D01*
X786258Y655016D02*
X790948Y650326D01*
X770094Y645958D02*
X779153Y655016D01*
X786258D01*
X756645Y621706D02*
X779015Y644076D01*
X807598D01*
X746273Y621706D02*
X756645D01*
X741953Y617386D02*
X746273Y621706D01*
X631623Y599428D02*
X649581Y617386D01*
X741953D01*
X766666Y645958D02*
X766904Y645720D01*
X766520Y645958D02*
X766666D01*
X769803Y645720D02*
X770041Y645958D01*
X766904Y645720D02*
X769803D01*
X764197Y648281D02*
X766520Y645958D01*
X770041D02*
X770094D01*
X616905Y597281D02*
X639185Y619560D01*
X741299D01*
X745445Y623706D01*
X755816D01*
X757473Y619706D02*
X772384Y634617D01*
X747102Y619706D02*
X757473D01*
X742782Y615386D02*
X747102Y619706D01*
X772384Y634617D02*
X773720Y635952D01*
X773720Y635952D02*
X773720D01*
X773720Y635952D01*
X779625Y639030D02*
X780622Y640026D01*
X758301Y617706D02*
X779625Y639030D01*
X743610Y613386D02*
X747930Y617706D01*
X758301D01*
X739376Y606323D02*
X748758Y615706D01*
X759130D01*
X781450Y638026D01*
X749587Y613706D02*
X760029D01*
X733173Y597291D02*
X749587Y613706D01*
X749924Y611215D02*
X761054D01*
X783665Y633826D01*
X735173Y596463D02*
X749924Y611215D01*
X650409Y615386D02*
X742782D01*
X651313Y613386D02*
X743610D01*
X722036Y606323D02*
X739376D01*
X714980Y595241D02*
X731138D01*
X733173Y597276D01*
X713531Y596690D02*
X714980Y595241D01*
X707531Y596690D02*
X713531D01*
X733173Y597276D02*
Y597291D01*
X717563Y564937D02*
X735173Y582546D01*
Y596463D01*
X717563Y551020D02*
Y564937D01*
Y551020D02*
X721387Y547197D01*
X719563Y563135D02*
X788129Y631700D01*
X937452D01*
X719563Y551849D02*
Y563135D01*
X748024Y659116D02*
X787956D01*
X739992Y667147D02*
X748024Y659116D01*
X646418Y608491D02*
X651313Y613386D01*
X717216Y611143D02*
X722036Y606323D01*
X676485Y611143D02*
X717216D01*
X616905Y579148D02*
Y597281D01*
X631623Y588596D02*
Y599428D01*
X644418Y609395D02*
X650409Y615386D01*
X672981Y607639D02*
X676485Y611143D01*
X616905Y579148D02*
X619556Y576498D01*
X871389Y430967D02*
X912047Y471626D01*
X847257Y430967D02*
X871389D01*
X839086Y422796D02*
X847257Y430967D01*
X773726Y422796D02*
X839086D01*
X761098Y435424D02*
X773726Y422796D01*
X761098Y435424D02*
Y446690D01*
X739866Y467922D02*
X761098Y446690D01*
X739866Y467922D02*
X739866D01*
X739280Y468507D02*
X739866Y467922D01*
X739280Y468507D02*
Y474774D01*
X733556Y480498D02*
X739280Y474774D01*
X737045Y467915D02*
Y471283D01*
X733556Y474498D02*
X733829D01*
X737045Y471283D01*
Y467915D02*
X759098Y445861D01*
Y434596D02*
Y445861D01*
X872217Y428967D02*
X912876Y469626D01*
X848085Y428967D02*
X872217D01*
X848914Y426967D02*
X873046D01*
X849573Y424798D02*
X873719D01*
X839914Y420796D02*
X848085Y428967D01*
X772898Y420796D02*
X839914D01*
X751550Y414796D02*
X843183D01*
X851184Y422798D01*
X759098Y434596D02*
X772898Y420796D01*
X874547Y422798D02*
X914883Y463134D01*
X851184Y422798D02*
X874547D01*
X875376Y420798D02*
X915711Y461133D01*
X843219Y412004D02*
X852013Y420798D01*
X875376D01*
X840743Y418796D02*
X848914Y426967D01*
X841571Y416796D02*
X849573Y424798D01*
X748564Y412004D02*
X843219D01*
X745005Y415563D02*
X745005D01*
X722063Y433949D02*
X737686Y418325D01*
X722063Y475888D02*
X727539Y481364D01*
X722063Y433949D02*
Y475888D01*
X737686Y418325D02*
X742243D01*
X745005Y415563D02*
X748564Y412004D01*
X742243Y418325D02*
X745005Y415563D01*
X724062Y434778D02*
X738388Y420453D01*
X745893D01*
X751550Y414796D01*
X752378Y416796D02*
X841571D01*
X741722Y427453D02*
X752378Y416796D01*
X735080Y427453D02*
X741722D01*
X724062Y434778D02*
Y471888D01*
X727539Y475364D01*
X761222Y418796D02*
X840743D01*
X726189Y407904D02*
X844917D01*
X853711Y416698D01*
X850361Y400204D02*
X850652Y399913D01*
X718612Y402470D02*
X718630D01*
X722999Y400204D02*
X850361D01*
X718630Y402470D02*
X720896Y400204D01*
X722999D01*
X722999Y400204D01*
X747374Y436850D02*
Y454660D01*
X733544Y468490D02*
X747374Y454660D01*
X761172Y418846D02*
X761222Y418796D01*
X893504Y433128D02*
X917410Y457034D01*
X853711Y416698D02*
X877074D01*
X917410Y457034D02*
X944676D01*
X893504Y433128D02*
Y433128D01*
X877074Y416698D02*
X893504Y433128D01*
X727562Y434970D02*
X735080Y427453D01*
X727562Y434970D02*
Y469369D01*
X720980Y512980D02*
X721387Y513386D01*
X720980Y493411D02*
Y512980D01*
X723387Y492989D02*
Y548026D01*
X715557Y487988D02*
X720980Y493411D01*
X711012Y487988D02*
X715557D01*
X710533Y544397D02*
X716942D01*
X712368Y504342D02*
Y510093D01*
X717326Y512154D02*
X719387Y514215D01*
X714429Y512154D02*
X717326D01*
X716942Y544397D02*
X719387Y541952D01*
Y514215D02*
Y541952D01*
X712368Y510093D02*
X714429Y512154D01*
X712368Y504342D02*
X718980Y497730D01*
X710325Y544189D02*
X710533Y544397D01*
X701031Y544189D02*
X710325D01*
X693377Y551843D02*
X701031Y544189D01*
X719563Y489166D02*
X723387Y492989D01*
X721387Y513386D02*
Y547197D01*
X718980Y494240D02*
Y497730D01*
X716930Y492190D02*
X718980Y494240D01*
X719563Y551849D02*
X723387Y548026D01*
X716792Y479378D02*
X719563Y482150D01*
Y489166D01*
X713232Y479378D02*
X716792D01*
X783665Y633826D02*
X940014D01*
X704405Y481381D02*
X711012Y487988D01*
X695039Y488814D02*
X698415Y492190D01*
X716930D01*
X781450Y638026D02*
X787985D01*
X788035Y637976D01*
X698971Y588130D02*
X707531Y596690D01*
X698971Y584596D02*
Y588130D01*
X693377Y579002D02*
X698971Y584596D01*
X693377Y551843D02*
Y579002D01*
X695039Y485915D02*
Y488814D01*
X693081Y483956D02*
X695039Y485915D01*
X693081Y480320D02*
Y483956D01*
X688862Y477868D02*
Y485092D01*
Y477868D02*
X693494Y473236D01*
X672981Y598240D02*
Y607639D01*
Y598240D02*
X685559Y585662D01*
Y579490D02*
Y585662D01*
X683258Y577189D02*
X685559Y579490D01*
X681531Y577189D02*
X683258D01*
X672981Y568639D02*
X681531Y577189D01*
X672981Y565344D02*
Y568639D01*
Y565344D02*
X679481Y558844D01*
Y526740D02*
Y558844D01*
Y526740D02*
X685431Y520790D01*
X698299D01*
X707994Y511095D01*
Y506379D02*
Y511095D01*
X703451Y501836D02*
X707994Y506379D01*
X690677Y501836D02*
X703451D01*
X685981Y497139D02*
X690677Y501836D01*
X685981Y487973D02*
Y497139D01*
Y487973D02*
X688862Y485092D01*
X1252616Y387946D02*
X1283960D01*
X1239418Y374748D02*
X1252616Y387946D01*
X926395Y304119D02*
X933092Y310816D01*
X813404Y321933D02*
X822762Y312575D01*
X844252D01*
X848635Y316958D01*
X865613D01*
X869459Y313112D01*
X891503D01*
X896503Y318112D01*
X913244D01*
X916536Y314820D01*
X965544D01*
X1261917Y400075D02*
X1296681D01*
X1300041Y403434D01*
X1349160D01*
X1353688Y407963D01*
Y418470D01*
X1232050Y440978D02*
X1256825Y416203D01*
X1333732D01*
X1335424Y417896D02*
X1335818D01*
X1333732Y416203D02*
X1335424Y417896D01*
X1348485Y423673D02*
X1353688Y418470D01*
X1339472Y423673D02*
X1348485D01*
X1331364Y431780D02*
X1339472Y423673D01*
X1331364Y431780D02*
Y451139D01*
X1336704Y456479D01*
X1392263D01*
X1392323Y456419D01*
X1341671Y414203D02*
X1346840Y409034D01*
X1277674Y546871D02*
Y573928D01*
X1232050Y501247D02*
X1277674Y546871D01*
X1250573Y581924D02*
X1268298D01*
X1198811Y633685D02*
X1250573Y581924D01*
X1232050Y440978D02*
Y501247D01*
X575395Y338635D02*
X641742D01*
X666739Y363632D01*
X731712D01*
X831308Y321058D02*
X870676D01*
X871829Y322212D01*
X915348D01*
X918639Y318920D01*
X263703Y322000D02*
X273495D01*
X1039039Y409281D02*
X1043316Y405004D01*
X1075045D01*
X889052Y680966D02*
X889254D01*
X779794Y642026D02*
X945531D01*
X773720Y635952D02*
X779794Y642026D01*
X780622Y640026D02*
X942582D01*
X946876Y635732D01*
X945531Y642026D02*
X948326Y639232D01*
X623106Y567881D02*
X637610D01*
X646418Y576689D01*
Y608491D01*
X574405Y390976D02*
X574423Y390957D01*
X669574D01*
X676173Y384358D01*
X1212261Y413779D02*
Y501466D01*
X1166179Y362113D02*
Y367696D01*
X1212261Y413779D01*
X1161145Y357079D02*
X1166179Y362113D01*
X904095Y372548D02*
X919564Y357079D01*
X1161145D01*
X1208173Y505554D02*
X1212261Y501466D01*
X1202164Y505070D02*
X1254183Y557089D01*
X1202164Y490837D02*
Y505070D01*
X1198435Y487108D02*
X1202164Y490837D01*
X1254183Y557089D02*
X1258290D01*
X885017Y372548D02*
X904095D01*
X880995Y368526D02*
X885017Y372548D01*
X766383Y368526D02*
X880995D01*
X750551Y384358D02*
X766383Y368526D01*
X676173Y384358D02*
X750551D01*
X616039Y560814D02*
X623106Y567881D01*
X616039Y556875D02*
Y560814D01*
Y556875D02*
X620218Y552696D01*
X644418Y577518D02*
Y609395D01*
X638281Y571381D02*
X644418Y577518D01*
X632405Y571381D02*
X638281D01*
X1052121Y633685D02*
X1198811D01*
X761297Y648281D02*
X764197D01*
X756297Y643281D02*
X761297Y648281D01*
X632405Y487381D02*
Y492124D01*
X1182331Y487108D02*
X1198435D01*
X1179187Y483964D02*
X1182331Y487108D01*
X1179187Y422095D02*
Y483964D01*
X1171125Y414033D02*
X1179187Y422095D01*
X1171125Y410330D02*
Y414033D01*
Y410330D02*
X1172661Y408793D01*
Y405237D02*
Y408793D01*
X1169955Y402532D02*
X1172661Y405237D01*
X1077517Y402532D02*
X1169955D01*
X1075045Y405004D02*
X1077517Y402532D01*
X944676Y457034D02*
X961943Y439766D01*
X616905Y537881D02*
X620405Y541381D01*
X655784Y438270D02*
X656572Y437482D01*
X654193Y438270D02*
X655784D01*
X653568Y437645D02*
X654193Y438270D01*
X651977Y437645D02*
X653568D01*
X650386Y439236D02*
X651977Y437645D01*
X650386Y439236D02*
Y440827D01*
X653022Y443462D01*
Y445053D01*
X651431Y446644D02*
X653022Y445053D01*
X649840Y446644D02*
X651431D01*
X644470Y441275D02*
X649840Y446644D01*
X642879Y441275D02*
X644470D01*
X641288Y442866D02*
X642879Y441275D01*
X641288Y442866D02*
Y444457D01*
X646658Y449826D01*
Y451417D01*
X645067Y453008D02*
X646658Y451417D01*
X643476Y453008D02*
X645067D01*
X638106Y447639D02*
X643476Y453008D01*
X636516Y447639D02*
X638106D01*
X634925Y449230D02*
X636516Y447639D01*
X634925Y449230D02*
Y450821D01*
X640294Y456190D01*
Y457781D01*
X638703Y459372D02*
X640294Y457781D01*
X637112Y459372D02*
X638703D01*
X631743Y454003D02*
X637112Y459372D01*
X630152Y454003D02*
X631743D01*
X628560Y455594D02*
X630152Y454003D01*
X628560Y455594D02*
Y457185D01*
X631919Y460544D01*
Y462135D01*
X628384Y465670D02*
X631919Y462135D01*
X656572Y437482D02*
X657205Y436850D01*
X625556Y468498D02*
X628384Y465670D01*
X631539Y469364D02*
X664054Y436850D01*
X518149Y341331D02*
X521947Y345128D01*
X529875Y430952D02*
X536134Y437211D01*
X529875Y366919D02*
Y430952D01*
X536134Y437211D02*
Y440111D01*
X786726Y583467D02*
Y585307D01*
X785601Y582342D02*
X786726Y583467D01*
X780851Y582342D02*
X785601D01*
X779726Y581217D02*
X780851Y582342D01*
X779726Y578967D02*
Y581217D01*
Y578967D02*
X780851Y577842D01*
X785601D01*
X786726Y576717D01*
Y576217D02*
Y576717D01*
X767672Y561902D02*
X768441Y561133D01*
X770032D01*
X772953Y564053D01*
X774544D01*
X776135Y562462D01*
Y560871D02*
Y562462D01*
X769482Y554218D02*
X776135Y560871D01*
X769482Y552627D02*
Y554218D01*
Y552627D02*
X771073Y551036D01*
X773625D01*
X774750Y549911D01*
Y548574D02*
Y549911D01*
X783799Y532160D02*
X785288Y533650D01*
X783799Y530569D02*
Y532160D01*
Y530569D02*
X786061Y528307D01*
Y526716D02*
Y528307D01*
X784470Y525125D02*
X786061Y526716D01*
X782879Y525125D02*
X784470D01*
X780617Y527388D02*
X782879Y525125D01*
X779026Y527388D02*
X780617D01*
X778296Y526657D02*
X779026Y527388D01*
X778296Y524769D02*
Y526657D01*
X776434Y522908D02*
X778296Y524769D01*
X783866Y506392D02*
X785896D01*
X782741Y507517D02*
X783866Y506392D01*
X782741Y507517D02*
Y517246D01*
X781616Y518371D02*
X782741Y517246D01*
X779366Y518371D02*
X781616D01*
X778241Y517246D02*
X779366Y518371D01*
X778241Y507517D02*
Y517246D01*
X777116Y506392D02*
X778241Y507517D01*
X767616Y506392D02*
X777116D01*
X784856Y493442D02*
X785757Y494343D01*
X784856Y490694D02*
Y493442D01*
X783731Y489569D02*
X784856Y490694D01*
X781481Y489569D02*
X783731D01*
X780356Y490694D02*
X781481Y489569D01*
X780356Y490694D02*
Y501349D01*
X779231Y502474D02*
X780356Y501349D01*
X776981Y502474D02*
X779231D01*
X775856Y501349D02*
X776981Y502474D01*
X775856Y490694D02*
Y501349D01*
X774731Y489569D02*
X775856Y490694D01*
X772481Y489569D02*
X774731D01*
X771356Y490694D02*
X772481Y489569D01*
X771356Y490694D02*
Y491715D01*
X770231Y492840D02*
X771356Y491715D01*
X765231Y492840D02*
X770231D01*
X742282Y566903D02*
Y576902D01*
X735896Y560516D02*
X742282Y566903D01*
X735896Y548825D02*
Y560516D01*
X742282Y576902D02*
X788035Y622655D01*
X762726Y557703D02*
X765998Y554430D01*
X762726Y557703D02*
Y572710D01*
X765998Y549479D02*
Y554430D01*
X762726Y572710D02*
X788035Y598019D01*
X758946Y574162D02*
X788035Y603251D01*
X758946Y553925D02*
Y574162D01*
X740284Y535263D02*
X758946Y553925D01*
X767524Y562050D02*
X767672Y561902D01*
X774750Y543641D02*
Y548574D01*
X786726Y585307D02*
Y587000D01*
Y569879D02*
Y576217D01*
X785597Y568750D02*
X786726Y569879D01*
X780396Y568750D02*
X785597D01*
X778317Y570830D02*
X780396Y568750D01*
X786726Y587000D02*
X788035Y588309D01*
X753765Y580014D02*
X788035Y614284D01*
X750042Y580014D02*
X753765D01*
X777707Y549733D02*
X788035Y560061D01*
X733396Y546325D02*
X735896Y548825D01*
X747942Y577914D02*
X750042Y580014D01*
X747942Y571503D02*
Y577914D01*
X785288Y533650D02*
X787304Y535666D01*
X776245Y522719D02*
X776434Y522908D01*
X771296Y524769D02*
Y527669D01*
X773346Y522719D02*
X776245D01*
X769959Y529005D02*
X771296Y527669D01*
Y524769D02*
X773346Y522719D01*
X763047Y529005D02*
X769959D01*
X760081Y526039D02*
X763047Y529005D01*
X748889Y526039D02*
X760081D01*
X745570Y529359D02*
X748889Y526039D01*
X747942Y571503D02*
X749005Y570440D01*
Y564029D02*
Y570440D01*
X745396Y560420D02*
X749005Y564029D01*
X745396Y552325D02*
Y560420D01*
X774898Y595348D02*
X788035Y608484D01*
X774898Y594971D02*
Y595348D01*
X751396Y571469D02*
X774898Y594971D01*
X751396Y558325D02*
Y571469D01*
X764590Y548070D02*
X765998Y549479D01*
X764590Y542069D02*
Y548070D01*
X777113Y570830D02*
X778317D01*
X773471Y574472D02*
X777113Y570830D01*
X772474Y574472D02*
X773471D01*
X767524Y562050D02*
Y569522D01*
X771383Y540274D02*
X774750Y543641D01*
X777707Y539847D02*
Y549733D01*
X739401Y522361D02*
X746603D01*
X751134Y517830D02*
X751247D01*
X746603Y522361D02*
X751134Y517830D01*
X751247D02*
X756142Y512935D01*
X787304Y535666D02*
X788035D01*
X779658Y522330D02*
X785646D01*
X788035Y524719D01*
X772201Y514873D02*
X779658Y522330D01*
X772201Y512046D02*
Y514873D01*
X770225Y510071D02*
X772201Y512046D01*
X770225Y509960D02*
Y510071D01*
X740282Y516531D02*
X740452Y516361D01*
X785757Y494343D02*
X788035Y496621D01*
X763990Y492840D02*
X765231D01*
X767556Y506392D02*
X767616D01*
X766689Y507259D02*
X767556Y506392D01*
X785896D02*
X788035Y508531D01*
X761939Y471419D02*
X788035D01*
X748340Y485019D02*
X761939Y471419D01*
X747902Y485019D02*
X748340D01*
X759210Y476977D02*
X788035D01*
X744836Y491352D02*
Y500085D01*
Y491352D02*
X759210Y476977D01*
X758429Y480962D02*
X788035D01*
X747902Y491489D02*
X758429Y480962D01*
X762860Y487569D02*
X788035D01*
X756142Y494287D02*
X762860Y487569D01*
X758315Y498516D02*
X763990Y492840D01*
X762915Y512063D02*
X763103D01*
X766689Y508477D01*
Y507259D02*
Y508477D01*
X734559Y498361D02*
X747902Y485019D01*
X758315Y498516D02*
Y515668D01*
X747902Y491489D02*
Y506861D01*
X740452Y516361D02*
X740559D01*
X733401Y511519D02*
X744836Y500085D01*
X751512Y522472D02*
X758315Y515668D01*
X756142Y494287D02*
Y512935D01*
X747902Y506861D02*
X752560Y511519D01*
G54D313*
X102500Y516440D02*
D03*
X124594Y774976D02*
D03*
X132533Y783176D02*
D03*
X969343Y100895D02*
D03*
Y89162D02*
D03*
X969181Y111216D02*
D03*
X583372Y8844D02*
D03*
X559355D02*
D03*
X572733Y8955D02*
D03*
X193380Y410452D02*
D03*
Y418952D02*
D03*
X1005672Y325714D02*
D03*
X1015280D02*
D03*
X1024211Y325750D02*
D03*
X232367Y204964D02*
D03*
X1115170Y323983D02*
D03*
X220427Y204964D02*
D03*
X193380Y427057D02*
D03*
X811843Y819896D02*
D03*
X342401Y42331D02*
D03*
X353301Y42396D02*
D03*
X649512Y42058D02*
D03*
X663990D02*
D03*
X676812D02*
D03*
X65517Y523676D02*
D03*
X157367Y466748D02*
D03*
X157463Y458297D02*
D03*
X248547Y596154D02*
D03*
X237950Y596101D02*
D03*
X228149Y596207D02*
D03*
X220268Y548935D02*
D03*
X277281Y804795D02*
D03*
X1121248Y329975D02*
D03*
X1131592D02*
D03*
X1221163Y322010D02*
D03*
X1229348D02*
D03*
X1213267D02*
D03*
X896249Y875994D02*
D03*
X896299Y866525D02*
D03*
X164598Y586765D02*
D03*
X161009Y407361D02*
D03*
X161126Y415780D02*
D03*
X269384Y527719D02*
D03*
X237380Y502467D02*
D03*
X226951Y502386D02*
D03*
G54D315*
X786669Y206436D02*
X916602D01*
X969181Y153857D01*
X910164Y200436D02*
X951272Y159328D01*
X789154Y200436D02*
X910164D01*
X758818Y156509D02*
X773975Y171667D01*
X758818Y89611D02*
X776600Y71829D01*
X758818Y89611D02*
Y156509D01*
X773975Y185257D02*
X789154Y200436D01*
X752818Y172585D02*
X786669Y206436D01*
X773975Y171667D02*
Y185257D01*
X752818Y22377D02*
Y172585D01*
X776600Y62500D02*
Y71829D01*
X951272Y84372D02*
Y159328D01*
X937400Y70500D02*
X951272Y84372D01*
X937400Y62500D02*
Y70500D01*
X559355Y8844D02*
X583372D01*
X419194Y714094D02*
Y717665D01*
X416178Y711079D02*
X419194Y714094D01*
X412694Y711079D02*
X416178D01*
X124594Y774976D02*
X132794Y783176D01*
X412694Y711079D02*
Y711165D01*
Y701486D02*
Y711079D01*
X409127Y697919D02*
X412694Y701486D01*
X362738Y706658D02*
X389963D01*
X323457Y745939D02*
X362738Y706658D01*
X389963D02*
X398702Y697919D01*
X409127D01*
X219568Y745939D02*
X323457D01*
X203748Y761759D02*
X219568Y745939D01*
X183463Y761759D02*
X203748D01*
X162046Y783176D02*
X183463Y761759D01*
X132794Y783176D02*
X162046D01*
X969262Y89243D02*
Y111135D01*
Y89243D02*
X969343Y89162D01*
X969181Y111216D02*
X969262Y111135D01*
X969181Y111216D02*
Y153857D01*
X752660Y19342D02*
Y22218D01*
X752818Y22377D01*
X742161Y8844D02*
X752660Y19342D01*
X583372Y8844D02*
X742161D01*
G54D392*
X134309Y828464D02*
D03*
X134256Y815369D02*
D03*
X841844Y820329D02*
D03*
X1048632Y589263D02*
D03*
X1024229Y674448D02*
D03*
G54D419*
X723412Y325627D02*
X724696Y324343D01*
X711477Y318293D02*
X718810Y325627D01*
X723412D01*
X814247Y324343D02*
X823965Y314625D01*
X724696Y324343D02*
X814247D01*
X1160535Y467250D02*
Y483709D01*
X1172570Y495744D01*
X1160535Y467250D02*
X1166852Y460932D01*
X1067821Y844446D02*
X1074486Y837781D01*
Y819936D02*
Y837781D01*
X1032869Y778318D02*
X1074486Y819936D01*
X1032869Y665463D02*
Y778318D01*
X1181805Y327206D02*
X1190839Y336239D01*
X1229237D01*
X1235368Y342370D01*
X1169487Y327206D02*
X1181805D01*
X991263Y334688D02*
X997727Y341152D01*
X991263Y329669D02*
Y334688D01*
X986087Y324492D02*
X991263Y329669D01*
X997727Y341152D02*
X1030549D01*
X970115Y324492D02*
X986087D01*
X1030549Y341152D02*
X1053439Y318262D01*
X1104172Y341063D02*
X1155630D01*
X1169487Y327206D01*
X1081372Y318262D02*
X1104172Y341063D01*
X1053439Y318262D02*
X1081372D01*
X727898Y624023D02*
X742905Y639030D01*
X648950Y624023D02*
X727898D01*
X731009Y646857D02*
Y649212D01*
X736591Y654794D01*
X730706Y646553D02*
X731009Y646857D01*
X742905Y639030D02*
X745106Y641231D01*
X768399D01*
X648882Y623954D02*
X648950Y624023D01*
X608023Y597129D02*
X634848Y623954D01*
X648882D01*
X608023Y516506D02*
Y597129D01*
Y516506D02*
X632405Y492124D01*
X658754Y491125D02*
X661695D01*
X663354Y492784D02*
X673432D01*
X661695Y491125D02*
X663354Y492784D01*
X673432D02*
X681204Y485011D01*
X656675Y493205D02*
X658754Y491125D01*
X668287Y507758D02*
X682670D01*
X685362Y505065D01*
X656675Y496146D02*
X668287Y507758D01*
X732770Y415284D02*
X733762Y416275D01*
X694241Y415284D02*
X732770D01*
X676676Y432849D02*
X694241Y415284D01*
X1236434Y225480D02*
X1248374Y213539D01*
X948866Y225480D02*
X1236434D01*
X963993Y407482D02*
Y440615D01*
X891454Y433978D02*
X916561Y459084D01*
X945525D02*
X963993Y440615D01*
X916561Y459084D02*
X945525D01*
X993191Y403378D02*
X1007418Y417605D01*
X1053589D01*
X968097Y403378D02*
X993191D01*
X963993Y407482D02*
X968097Y403378D01*
X676676Y432849D02*
Y474197D01*
X958832Y617907D02*
X981614D01*
X940863Y635876D02*
X958832Y617907D01*
X956657Y623052D02*
X979726D01*
X941733Y637976D02*
X956657Y623052D01*
X1063465Y844446D02*
X1067821D01*
X788035Y635876D02*
X940863D01*
X788035Y637976D02*
X941733D01*
X1028905Y661499D02*
X1032869Y665463D01*
X941749Y661499D02*
X1028905D01*
X1063442Y844469D02*
X1063465Y844446D01*
X1060501Y844469D02*
X1063442D01*
X1055938Y839906D02*
X1060501Y844469D01*
X1055938Y835582D02*
Y839906D01*
X791797Y652376D02*
X932626D01*
X941749Y661499D01*
X790099Y648276D02*
X934324D01*
X943447Y657399D01*
X807598Y646176D02*
X911366D01*
X943447Y657399D02*
X1025508D01*
X787107Y657066D02*
X791797Y652376D01*
X1025508Y657399D02*
X1051641Y631266D01*
X768399Y641231D02*
X780134Y652966D01*
X785409D02*
X790099Y648276D01*
X780134Y652966D02*
X785409D01*
X748026Y657066D02*
X787107D01*
X745754Y654794D02*
X748026Y657066D01*
X807598Y644076D02*
X911366D01*
X736591Y654794D02*
X745754D01*
X747374Y424784D02*
Y436850D01*
X753312Y418846D02*
X761172D01*
X747374Y424784D02*
X753312Y418846D01*
X747715Y409954D02*
X844068D01*
X741394Y416275D02*
X747715Y409954D01*
X733762Y416275D02*
X741394D01*
X844068Y409954D02*
X852862Y418748D01*
X876225D02*
X879787Y422310D01*
X852862Y418748D02*
X876225D01*
X879787Y422310D02*
X879787D01*
X891454Y433977D01*
Y433978D01*
X823965Y314625D02*
X843403D01*
X847786Y319008D01*
X866462D01*
X870309Y315162D01*
X890653D01*
X895653Y320162D01*
X914499D01*
X917790Y316870D01*
X962399D01*
X963676Y318147D01*
X963769D01*
X970115Y324492D01*
X1235368Y342370D02*
Y376425D01*
X1261068Y402125D01*
X1295832D01*
X1299192Y405484D01*
X1348311D01*
X1351638Y408812D01*
Y417621D01*
X1347636Y421623D02*
X1351638Y417621D01*
X1338623Y421623D02*
X1347636D01*
X1335869Y424377D02*
X1338623Y421623D01*
X1335791Y424377D02*
X1335869D01*
X1329315Y430853D02*
X1335791Y424377D01*
X1329315Y430853D02*
Y456610D01*
X1347059Y474355D01*
X1364017D01*
X1374787Y463585D01*
X1392530D01*
X1267398Y557089D02*
Y562200D01*
X1198332Y631266D02*
X1267398Y562200D01*
X1053589Y417605D02*
X1060197Y410998D01*
X1084283D02*
X1089617Y405663D01*
X1060197Y410998D02*
X1084283D01*
X1153605Y631266D02*
X1198332D01*
X1148085Y625746D02*
X1153605Y631266D01*
X1051641D02*
X1139624D01*
X1145144Y625746D02*
X1148085D01*
X1139624Y631266D02*
X1145144Y625746D01*
X631539Y559364D02*
X635089Y562914D01*
X639010D01*
X641089Y560835D01*
Y551877D02*
Y560835D01*
X640047Y550834D02*
X641089Y551877D01*
X640047Y527104D02*
Y550834D01*
Y527104D02*
X649010Y518140D01*
X658452D01*
X659052Y518740D01*
X697450D01*
X705944Y510246D01*
Y507228D02*
Y510246D01*
X703781Y505065D02*
X705944Y507228D01*
X685362Y505065D02*
X703781D01*
X656675Y493205D02*
Y496146D01*
X681204Y478725D02*
Y485011D01*
X676676Y474197D02*
X681204Y478725D01*
X1089617Y405663D02*
X1132847D01*
X1137700Y410516D01*
X1151056D01*
X1166852Y426312D01*
Y460932D01*
X1172570Y495744D02*
X1182036D01*
X1186953Y490827D01*
X1197204D01*
G54D420*
X406055Y678072D02*
X407991Y676135D01*
X406055Y678072D02*
Y678091D01*
X406336Y671735D02*
Y671876D01*
Y671735D02*
X409781Y668291D01*
Y661860D02*
Y668291D01*
X232012Y700683D02*
X386572D01*
X399694Y687562D01*
Y678666D02*
Y687562D01*
X385070Y698733D02*
X396219Y687585D01*
Y675655D02*
Y687585D01*
X241351Y698733D02*
X385070D01*
X400364Y652443D02*
X409781Y661860D01*
X305463Y652443D02*
X400364D01*
X232054Y689437D02*
X241351Y698733D01*
X212482Y681154D02*
X232012Y700683D01*
X396219Y675655D02*
X399694Y672180D01*
X212482Y661540D02*
Y681154D01*
X210085Y659142D02*
X212482Y661540D01*
X203433Y659142D02*
X210085D01*
X198596Y663979D02*
X203433Y659142D01*
X243482Y668250D02*
X289656D01*
X237997Y662765D02*
X243482Y668250D01*
X289656D02*
X305463Y652443D01*
G54D421*
X584100Y135889D02*
Y158109D01*
X582483Y697867D02*
X588158D01*
X582483D02*
Y712758D01*
Y667827D02*
Y697867D01*
X563612Y639315D02*
X582483Y658187D01*
Y667827D01*
X557749Y639315D02*
X563612D01*
X557749Y632440D02*
Y639315D01*
X532004D02*
X557749D01*
X517863Y625174D02*
X532004Y639315D01*
X582483Y667827D02*
X589250D01*
X582483Y712758D02*
X591672Y721946D01*
X498004Y631644D02*
X501670Y635310D01*
X536252Y614814D02*
X542736Y621297D01*
X522254Y614814D02*
X536252D01*
X542736Y621297D02*
Y627214D01*
X517096Y625174D02*
X517863D01*
X516982Y625288D02*
X519911Y622359D01*
X509135Y621583D02*
X512840Y625288D01*
X505890Y621583D02*
X509135D01*
X519911Y617157D02*
X522254Y614814D01*
X505890Y621583D02*
X508283D01*
X519911Y617157D02*
Y622359D01*
X495743Y621583D02*
X505890D01*
X511988Y625288D02*
X516982D01*
X516982D02*
X517096Y625174D01*
X508283Y621583D02*
X511988Y625288D01*
X495743Y621583D02*
Y629384D01*
X498004Y631644D01*
X501670Y635310D02*
X509290D01*
X512342Y632258D01*
X481592Y621583D02*
X495743D01*
X438942Y578933D02*
X481592Y621583D01*
X294873Y578933D02*
X438942D01*
X265498Y549558D02*
X294873Y578933D01*
X228955Y549558D02*
X265498D01*
X191747Y586765D02*
X228955Y549558D01*
X164598Y586765D02*
X191747D01*
X353301Y42396D02*
X353639Y42058D01*
X353104Y42593D02*
X353301Y42396D01*
X342401Y42331D02*
X353235D01*
X353301Y42396D01*
X353639Y42058D02*
X584832D01*
X583999Y42891D02*
Y135889D01*
Y42891D02*
X584832Y42058D01*
X663990D02*
X676812D01*
X649512D02*
X663990D01*
X584832D02*
X649512D01*
G54D425*
X65196Y523354D02*
X79524Y509026D01*
X226951Y502386D02*
X237380D01*
X161126Y407361D02*
Y415780D01*
X79524Y509026D02*
X102500D01*
Y516440D01*
X147641Y425850D02*
X181789D01*
X102500Y491740D02*
Y509026D01*
Y491740D02*
X120918Y473321D01*
Y452573D02*
Y473321D01*
Y452573D02*
X147641Y425850D01*
X161126Y415780D02*
Y422921D01*
X198691Y397168D02*
X201620Y400097D01*
Y490828D01*
X213178Y502386D01*
X187647Y397168D02*
X198691D01*
X184718Y400097D02*
X187647Y397168D01*
X184718Y400097D02*
Y422921D01*
X181789Y425850D02*
X184718Y422921D01*
X213178Y502386D02*
X226951D01*
G54D429*
X796187Y225630D02*
X921318D01*
X746318Y175761D02*
X796187Y225630D01*
X921318D02*
X924833Y229145D01*
Y278795D01*
X746318Y25069D02*
Y175761D01*
X208549Y873527D02*
X277281Y804795D01*
X204373Y877884D02*
X208549Y873708D01*
Y873527D02*
Y873708D01*
X146185Y877884D02*
X204373D01*
X175263Y652951D02*
X240530D01*
X175263Y643037D02*
Y652951D01*
Y686864D01*
X240530Y652951D02*
X274324Y619157D01*
X141900Y720227D02*
X175263Y686864D01*
X90428Y558202D02*
X175263Y643037D01*
X102080Y720227D02*
X141900D01*
X96190Y726117D02*
X102080Y720227D01*
X96190Y726117D02*
Y777303D01*
X134256Y815369D01*
Y865955D01*
X692152Y17098D02*
X738347D01*
X675313Y33937D02*
X692152Y17098D01*
X738347D02*
X746318Y25069D01*
X228149Y596207D02*
X248467D01*
X251924Y592750D01*
X193380Y427057D02*
Y431582D01*
Y418952D02*
Y427057D01*
Y410452D02*
Y418952D01*
X1015280Y325714D02*
X1024175D01*
X1005672D02*
X1015280D01*
X1004413D02*
X1005672D01*
X973794Y295095D02*
X1004413Y325714D01*
X1024175D02*
X1024211Y325750D01*
X1029294D01*
X1048452Y306593D01*
X232367Y204964D02*
X319919Y117412D01*
Y37452D02*
Y117412D01*
X323433Y33937D02*
X675313D01*
X319919Y37452D02*
X323433Y33937D01*
X1221163Y322010D02*
X1229348D01*
X1213267D02*
X1221163D01*
X1196638D02*
X1213267D01*
X1190829Y316200D02*
X1196638Y322010D01*
X1162455Y316200D02*
X1190829D01*
X1115170Y323983D02*
X1121162Y329975D01*
X1097779Y306593D02*
X1115170Y323983D01*
X1148680Y329975D02*
X1162455Y316200D01*
X1048452Y306593D02*
X1097779D01*
X1131592Y329975D02*
X1148680D01*
X1121248D02*
X1131592D01*
X941132Y295095D02*
X973794D01*
X924833Y278795D02*
X941132Y295095D01*
X220427Y204964D02*
X232367D01*
X149000Y435097D02*
X189865D01*
X193380Y431582D01*
X128418Y455679D02*
X149000Y435097D01*
X128418Y455679D02*
Y479263D01*
X139990Y490835D01*
Y515992D01*
X136475Y519507D02*
X139990Y515992D01*
X112002Y519507D02*
X136475D01*
X90428Y541081D02*
X112002Y519507D01*
X90428Y541081D02*
Y558202D01*
X274324Y595983D02*
Y619157D01*
X251924Y592750D02*
X271091D01*
X274324Y595983D01*
X134256Y865955D02*
X146185Y877884D01*
G54D435*
X487999Y782500D02*
D03*
Y762500D02*
D03*
X368000Y782500D02*
D03*
Y762500D02*
D03*
G54D436*
X872240Y126500D02*
D03*
X851920D02*
D03*
X821440Y137500D02*
D03*
X831600Y126500D02*
D03*
X862080Y137500D02*
D03*
X841760D02*
D03*
X882400D02*
D03*
X892560Y126500D02*
D03*
G54D448*
X937400Y62500D02*
D03*
X776600D02*
D03*
G54D462*
X663481Y554190D02*
D03*
X643597Y547842D02*
D03*
X649706Y527701D02*
D03*
X650481Y521690D02*
D03*
X505807Y82013D02*
D03*
X699329Y332364D02*
D03*
X707903Y332484D02*
D03*
X714393Y332444D02*
D03*
X720403Y332484D02*
D03*
X731864Y667114D02*
D03*
X738566Y651192D02*
D03*
X742641Y647626D02*
D03*
X1071620Y471970D02*
D03*
X221641Y398772D02*
D03*
X56686Y320479D02*
D03*
X920774Y876940D02*
D03*
X913014D02*
D03*
X1129089Y872428D02*
D03*
X1262776Y552199D02*
D03*
X588158Y697867D02*
D03*
X932105Y678839D02*
D03*
X406055Y678091D02*
D03*
X406336Y671876D02*
D03*
X406139Y685561D02*
D03*
X419194Y717665D02*
D03*
X393436Y712077D02*
D03*
X399936D02*
D03*
X269715Y634190D02*
D03*
X1264876Y616609D02*
D03*
X629970Y798327D02*
D03*
X393095Y605688D02*
D03*
X410721Y543664D02*
D03*
X450779Y358971D02*
D03*
X629833Y768359D02*
D03*
X738069Y627180D02*
D03*
X730706Y646553D02*
D03*
X668242Y487212D02*
D03*
X71688Y270977D02*
D03*
X495486Y408996D02*
D03*
X103159Y481888D02*
D03*
X531234Y604580D02*
D03*
X392580Y683973D02*
D03*
X389501Y688774D02*
D03*
X126120Y713551D02*
D03*
X232054Y689437D02*
D03*
X46597Y706038D02*
D03*
X40502Y708798D02*
D03*
X232909Y573543D02*
D03*
X441087Y354723D02*
D03*
X100597Y269195D02*
D03*
X169279Y265800D02*
D03*
X171531Y255837D02*
D03*
X174233Y261381D02*
D03*
X1068307Y494023D02*
D03*
X975113Y436989D02*
D03*
X370893Y172765D02*
D03*
X185584Y321720D02*
D03*
X193685Y321945D02*
D03*
X209793Y294938D02*
D03*
X196710Y293093D02*
D03*
X217341Y293193D02*
D03*
X23689Y582506D02*
D03*
X30084Y582236D02*
D03*
X11945Y581695D02*
D03*
X36874Y581809D02*
D03*
X43945Y581680D02*
D03*
X8176Y770631D02*
D03*
X13486Y770600D02*
D03*
X19325Y770476D02*
D03*
X25132Y770227D02*
D03*
X31095Y770103D02*
D03*
X707379Y829663D02*
D03*
X945588Y783562D02*
D03*
X632531Y681669D02*
D03*
X554874Y603866D02*
D03*
X539505Y601663D02*
D03*
X527405Y599901D02*
D03*
X542086Y857297D02*
D03*
X535438Y857549D02*
D03*
X1123905Y789184D02*
D03*
X1111302Y791278D02*
D03*
X722501Y321518D02*
D03*
X591672Y721946D02*
D03*
X948866Y225480D02*
D03*
X1160292Y827134D02*
D03*
X1160448Y832692D02*
D03*
X1102504Y868150D02*
D03*
X403145Y330523D02*
D03*
X409763Y330864D02*
D03*
X666212Y767396D02*
D03*
X670106Y762061D02*
D03*
X666836Y756122D02*
D03*
X666381Y773571D02*
D03*
X978606Y445858D02*
D03*
X982019Y437268D02*
D03*
X973073Y419281D02*
D03*
X970164Y413902D02*
D03*
X968944Y408492D02*
D03*
X8463Y503331D02*
D03*
X981614Y617907D02*
D03*
X982528Y608501D02*
D03*
X978833Y613442D02*
D03*
X979726Y623052D02*
D03*
X1046476Y779836D02*
D03*
X343984Y173139D02*
D03*
X954312Y638820D02*
D03*
X1045179Y860680D02*
D03*
X1045215Y866286D02*
D03*
X966416Y638559D02*
D03*
X979795Y630213D02*
D03*
X736780Y663300D02*
D03*
X740855Y659734D02*
D03*
X693494Y473236D02*
D03*
X718612Y402470D02*
D03*
X912597Y866328D02*
D03*
X1283960Y387946D02*
D03*
X926395Y304119D02*
D03*
X626422Y480515D02*
D03*
X711477Y318293D02*
D03*
X1335818Y417896D02*
D03*
X1392530Y463585D02*
D03*
X1392323Y456419D02*
D03*
X1277674Y573928D02*
D03*
X1268298Y581924D02*
D03*
X272927Y322000D02*
D03*
X92029Y305750D02*
D03*
X1015630Y823476D02*
D03*
X1015594Y817869D02*
D03*
X1019085Y834770D02*
D03*
X1019049Y829163D02*
D03*
X948326Y639232D02*
D03*
X418974Y736645D02*
D03*
Y730145D02*
D03*
X61047Y327710D02*
D03*
X67193Y327801D02*
D03*
X542736Y627214D02*
D03*
X779475Y171852D02*
D03*
X785559Y171892D02*
D03*
X574405Y390976D02*
D03*
X571305Y395274D02*
D03*
X52403Y470817D02*
D03*
X52450Y465168D02*
D03*
X1271032Y616609D02*
D03*
X584100Y158109D02*
D03*
X583999Y135889D02*
D03*
X237829Y613579D02*
D03*
X399694Y672180D02*
D03*
X182108Y282093D02*
D03*
X182048Y287680D02*
D03*
X182108Y269293D02*
D03*
X182048Y274880D02*
D03*
X182108Y256493D02*
D03*
X182048Y262080D02*
D03*
X466578Y362350D02*
D03*
X466512Y371955D02*
D03*
X506308Y365795D02*
D03*
X501955Y397177D02*
D03*
X518183Y351678D02*
D03*
X518149Y341331D02*
D03*
X103048Y335537D02*
D03*
X123012Y90010D02*
D03*
X330237Y108493D02*
D03*
Y127993D02*
D03*
X1258290Y557089D02*
D03*
X1208173Y505554D02*
D03*
X1283795Y614566D02*
D03*
X1267398Y557089D02*
D03*
X1197204Y454827D02*
D03*
Y490827D02*
D03*
X1197213Y436708D02*
D03*
Y445915D02*
D03*
Y463676D02*
D03*
Y472947D02*
D03*
X1197175Y481856D02*
D03*
X443014Y155134D02*
D03*
X448600Y155195D02*
D03*
X382976Y173139D02*
D03*
X388563Y173199D02*
D03*
X422742Y165581D02*
D03*
X428329Y165641D02*
D03*
X590712Y683840D02*
D03*
X590772Y678253D02*
D03*
X595535Y687330D02*
D03*
Y693306D02*
D03*
X498004Y631644D02*
D03*
X1177513Y332756D02*
D03*
X1171748Y332794D02*
D03*
X1279525Y631763D02*
D03*
X1279487Y625998D02*
D03*
X1292960Y656442D02*
D03*
X1287195Y656481D02*
D03*
X139161Y560684D02*
D03*
X893775Y171852D02*
D03*
X899859Y171892D02*
D03*
X855675Y171852D02*
D03*
X861759Y171892D02*
D03*
X823659Y172018D02*
D03*
X817575Y171978D02*
D03*
X701090Y831224D02*
D03*
X679117Y838868D02*
D03*
X695195Y796317D02*
D03*
X674414Y803312D02*
D03*
X666668Y809625D02*
D03*
X743250Y737766D02*
D03*
X580471Y757267D02*
D03*
X305040Y270889D02*
D03*
X198263Y635748D02*
D03*
X198596Y663979D02*
D03*
X208485Y635997D02*
D03*
X228268Y636155D02*
D03*
X218253Y636198D02*
D03*
X208645Y662617D02*
D03*
X218413Y662818D02*
D03*
X228429Y662775D02*
D03*
X237997Y662765D02*
D03*
X247361Y662701D02*
D03*
X267406Y662775D02*
D03*
X412391Y730450D02*
D03*
X1182359Y136936D02*
D03*
X1346840Y409034D02*
D03*
X693081Y480320D02*
D03*
X850652Y399913D02*
D03*
X589250Y667827D02*
D03*
X412694Y711165D02*
D03*
Y691665D02*
D03*
X399694Y678666D02*
D03*
X438693D02*
D03*
X482047Y712615D02*
D03*
X592188Y702569D02*
D03*
X592128Y708156D02*
D03*
X512342Y632258D02*
D03*
X557749Y632440D02*
D03*
X727752Y663006D02*
D03*
X723678Y666572D02*
D03*
X509135Y598689D02*
D03*
X567151Y406404D02*
D03*
X561757Y403042D02*
D03*
X567126Y398832D02*
D03*
X575395Y338635D02*
D03*
X1183097Y548435D02*
D03*
X988676Y437673D02*
D03*
X1248374Y213539D02*
D03*
X620218Y552696D02*
D03*
X889254Y680966D02*
D03*
X855670Y817230D02*
D03*
X900293Y709990D02*
D03*
X1055938Y835582D02*
D03*
X1070937D02*
D03*
X99428Y544809D02*
D03*
X294062Y462715D02*
D03*
X733556Y474498D02*
D03*
Y480498D02*
D03*
X727539Y475364D02*
D03*
Y481364D02*
D03*
X713232Y479378D02*
D03*
X704405Y481381D02*
D03*
X631539Y469364D02*
D03*
X625556Y468498D02*
D03*
X632405Y487381D02*
D03*
X619556Y576498D02*
D03*
X632405Y571381D02*
D03*
X620405Y541381D02*
D03*
X631539Y559364D02*
D03*
X631623Y588596D02*
D03*
X740284Y535263D02*
D03*
X745570Y529359D02*
D03*
X899764Y560483D02*
D03*
X883698Y560896D02*
D03*
X875698D02*
D03*
X827764Y560483D02*
D03*
X821047Y561884D02*
D03*
X851966Y557496D02*
D03*
X843764Y560483D02*
D03*
X745396Y552325D02*
D03*
X751396Y558325D02*
D03*
X733396Y546325D02*
D03*
X762915Y512063D02*
D03*
X852249Y528783D02*
D03*
X770225Y509960D02*
D03*
X751442Y522472D02*
D03*
X734559Y498361D02*
D03*
X740559Y516361D02*
D03*
X733401Y511519D02*
D03*
X739401Y522361D02*
D03*
X827682Y522528D02*
D03*
X835618Y522789D02*
D03*
X843578Y522291D02*
D03*
X835798Y528388D02*
D03*
X819794Y523144D02*
D03*
X875798Y514991D02*
D03*
X883798D02*
D03*
X891798D02*
D03*
X752560Y511519D02*
D03*
X777707Y539847D02*
D03*
X771383Y540274D02*
D03*
X764590Y542069D02*
D03*
X727562Y469369D02*
D03*
X733544Y468490D02*
D03*
G54D463*
X376124Y752358D02*
Y754943D01*
X371944Y748178D02*
X376124Y752358D01*
X369115Y748178D02*
X371944D01*
X368055Y747117D02*
X369115Y748178D01*
X368055Y744289D02*
Y747117D01*
X366994Y743228D02*
X368055Y744289D01*
X364166Y743228D02*
X366994D01*
X363105Y742167D02*
X364166Y743228D01*
X363105Y739339D02*
Y742167D01*
X361691Y737925D02*
X363105Y739339D01*
X361691Y729418D02*
Y737925D01*
Y729418D02*
X366757Y724352D01*
X370806D01*
X372806Y722353D01*
X374306D01*
X376306Y724352D01*
X377806D01*
X379806Y722353D01*
X381306D01*
X383306Y724352D01*
X384806D01*
X386806Y722353D01*
X388306D01*
X390306Y724352D01*
X392306D01*
X395561Y721098D01*
X395561Y713880D02*
X395561Y721098D01*
X394013Y712332D02*
X395561Y713880D01*
X376124Y754943D02*
Y757528D01*
X393894Y712213D02*
X394013Y712332D01*
X376124Y757528D02*
Y758212D01*
X393759Y712077D02*
X393894Y712213D01*
X378375Y751426D02*
Y765737D01*
X363941Y736993D02*
X378375Y751426D01*
X363941Y730350D02*
Y736993D01*
Y730350D02*
X367689Y726602D01*
X393238D01*
X397811Y722029D01*
X393436Y712077D02*
X393759D01*
X368000Y762500D02*
X371837D01*
X376124Y758212D01*
X479874Y750350D02*
Y755619D01*
Y750350D02*
X481874Y748350D01*
Y746350D02*
Y748350D01*
X479874Y744350D02*
X481874Y746350D01*
X479874Y742350D02*
Y744350D01*
X478059Y740534D02*
X479874Y742350D01*
X473016Y740534D02*
X478059D01*
X471101Y738618D02*
X473016Y740534D01*
X469100Y738618D02*
X471101D01*
X467100Y740618D02*
X469100Y738618D01*
X465101Y740618D02*
X467100D01*
X463101Y738618D02*
X465101Y740618D01*
X461101Y738618D02*
X463101D01*
X459101Y740618D02*
X461101Y738618D01*
X457101Y740618D02*
X459101D01*
X455101Y738618D02*
X457101Y740618D01*
X453101Y738618D02*
X455101D01*
X451101Y740618D02*
X453101Y738618D01*
X449101Y740618D02*
X451101D01*
X447101Y738618D02*
X449101Y740618D01*
X445101Y738618D02*
X447101D01*
X443185Y740534D02*
X445101Y738618D01*
X441185Y740534D02*
X443185D01*
X441101Y740618D02*
X441185Y740534D01*
X436517Y740618D02*
X441101D01*
X432357Y736457D02*
X436517Y740618D01*
X428170Y732270D02*
X432357Y736457D01*
X435387Y742669D02*
X435586Y742868D01*
X442033D01*
X442117Y742784D01*
X476609D01*
X479874Y755619D02*
Y758212D01*
X427238Y734520D02*
X435387Y742669D01*
X476609Y742784D02*
X476628D01*
X397811Y716830D02*
X397811Y716830D01*
X397811Y713880D02*
X399614Y712077D01*
X397811Y716830D02*
Y722029D01*
X397811Y713880D02*
Y716830D01*
X399614Y712077D02*
X399936D01*
X714854Y713999D02*
X724308D01*
X713767Y712912D02*
X714854Y713999D01*
X713767Y712911D02*
Y712912D01*
X711361Y710506D02*
X713767Y712911D01*
X707322Y710506D02*
X711361D01*
X704917Y712911D02*
X707322Y710506D01*
X704917Y712911D02*
Y719180D01*
X703829Y720268D02*
X704917Y719180D01*
X701654Y720268D02*
X703829D01*
X700567Y719180D02*
X701654Y720268D01*
X700567Y709405D02*
Y719180D01*
X698161Y706999D02*
X700567Y709405D01*
X694122Y706999D02*
X698161D01*
X691717Y709405D02*
X694122Y706999D01*
X691717Y709405D02*
Y719912D01*
X690630Y720999D02*
X691717Y719912D01*
X688454Y720999D02*
X690630D01*
X687367Y719912D02*
X688454Y720999D01*
X687367Y709405D02*
Y719912D01*
X684961Y706999D02*
X687367Y709405D01*
X680922Y706999D02*
X684961D01*
X678517Y709405D02*
X680922Y706999D01*
X678517Y709405D02*
Y719912D01*
X677430Y720999D02*
X678517Y719912D01*
X675255Y720999D02*
X677430D01*
X674167Y719912D02*
X675255Y720999D01*
X674167Y709405D02*
Y719912D01*
X671761Y706999D02*
X674167Y709405D01*
X667722Y706999D02*
X671761D01*
X665317Y709405D02*
X667722Y706999D01*
X665317Y709405D02*
Y719912D01*
X664230Y720999D02*
X665317Y719912D01*
X662055Y720999D02*
X664230D01*
X660967Y719912D02*
X662055Y720999D01*
X660967Y709405D02*
Y719912D01*
X658561Y706999D02*
X660967Y709405D01*
X654523Y706999D02*
X658561D01*
X652117Y709405D02*
X654523Y706999D01*
X652117Y709405D02*
Y719912D01*
X651030Y720999D02*
X652117Y719912D01*
X648855Y720999D02*
X651030D01*
X647767Y719912D02*
X648855Y720999D01*
X647767Y716405D02*
Y719912D01*
X645361Y713999D02*
X647767Y716405D01*
X643345Y713999D02*
X645361D01*
X724308Y716249D02*
Y716249D01*
X713922Y716249D02*
X724308D01*
X711517Y713844D02*
X713922Y716249D01*
X711517Y713843D02*
Y713844D01*
X710429Y712756D02*
X711517Y713843D01*
X708254Y712756D02*
X710429D01*
X707167Y713843D02*
X708254Y712756D01*
X707167Y713843D02*
Y720112D01*
X704761Y722518D02*
X707167Y720112D01*
X700723Y722518D02*
X704761D01*
X698317Y720112D02*
X700723Y722518D01*
X698317Y710337D02*
Y720112D01*
X697230Y709249D02*
X698317Y710337D01*
X695054Y709249D02*
X697230D01*
X693967Y710337D02*
X695054Y709249D01*
X693967Y710337D02*
Y720844D01*
X691561Y723249D02*
X693967Y720844D01*
X687523Y723249D02*
X691561D01*
X685117Y720844D02*
X687523Y723249D01*
X685117Y710337D02*
Y720844D01*
X684029Y709249D02*
X685117Y710337D01*
X681854Y709249D02*
X684029D01*
X680767Y710337D02*
X681854Y709249D01*
X680767Y710337D02*
Y720844D01*
X678361Y723249D02*
X680767Y720844D01*
X674323Y723249D02*
X678361D01*
X671917Y720844D02*
X674323Y723249D01*
X671917Y710337D02*
Y720844D01*
X670829Y709249D02*
X671917Y710337D01*
X668654Y709249D02*
X670829D01*
X667567Y710337D02*
X668654Y709249D01*
X667567Y710337D02*
Y720844D01*
X665162Y723249D02*
X667567Y720844D01*
X661123Y723249D02*
X665162D01*
X658717Y720844D02*
X661123Y723249D01*
X658717Y710337D02*
Y720844D01*
X657629Y709249D02*
X658717Y710337D01*
X655454Y709249D02*
X657629D01*
X654367Y710337D02*
X655454Y709249D01*
X654367Y710337D02*
Y720844D01*
X651962Y723249D02*
X654367Y720844D01*
X647923Y723249D02*
X651962D01*
X645517Y720844D02*
X647923Y723249D01*
X645517Y717337D02*
Y720844D01*
X644430Y716249D02*
X645517Y717337D01*
X643345Y716249D02*
X644430D01*
X643345D02*
Y716249D01*
X724308Y713999D02*
X727983D01*
X634420D02*
X643345D01*
X724308Y716249D02*
X727051D01*
X635352D02*
X643345D01*
X727051D02*
X775441Y764639D01*
X727983Y713999D02*
X776373Y762389D01*
X859400D01*
X775441Y764639D02*
X858468D01*
X986358Y802095D02*
X1003811Y819548D01*
X1002879Y821798D02*
X1013557D01*
X1003811Y819548D02*
X1013521D01*
X985426Y804345D02*
X1002879Y821798D01*
X1013521Y819548D02*
X1015199Y817869D01*
X1013557Y821798D02*
X1015235Y823476D01*
X1015630D01*
X1015199Y817869D02*
X1015594D01*
X898174Y804345D02*
X985426D01*
X899106Y802095D02*
X986358D01*
X858468Y764639D02*
X898174Y804345D01*
X592188Y702569D02*
X592593D01*
X594261Y704237D01*
X602710D01*
X615954Y717481D01*
X630938D01*
X634420Y713999D01*
X859400Y762389D02*
X899106Y802095D01*
X592533Y708156D02*
X594201Y706487D01*
X601778D01*
X615022Y719731D01*
X631870D01*
X635352Y716249D01*
X592128Y708156D02*
X592533D01*
X421099Y734520D02*
X427238D01*
X418974Y736645D02*
X421099Y734520D01*
X418974Y730145D02*
X421099Y732270D01*
X428170D01*
X484162Y762500D02*
Y762500D01*
X908952Y152023D02*
X908952Y152023D01*
X903479Y157497D02*
X908952Y152023D01*
X883570Y135786D02*
X883842Y136058D01*
X908952Y152023D02*
X912136Y148839D01*
Y141165D02*
Y148839D01*
X910136Y139165D02*
X912136Y141165D01*
X910136Y137165D02*
Y139165D01*
Y137165D02*
X912136Y135165D01*
Y133165D02*
Y135165D01*
X908641Y129670D02*
X912136Y133165D01*
X905813Y129670D02*
X908641D01*
X904399Y128256D02*
X905813Y129670D01*
X904399Y125428D02*
Y128256D01*
X902985Y124013D02*
X904399Y125428D01*
X900156Y124013D02*
X902985D01*
X898742Y122599D02*
X900156Y124013D01*
X898742Y119771D02*
Y122599D01*
X896055Y117084D02*
X898742Y119771D01*
X888627Y117084D02*
X896055D01*
X887212D02*
X888627D01*
X867067Y157497D02*
X903479D01*
X857598Y166966D02*
X867067Y157497D01*
X850386Y174849D02*
X852427Y176891D01*
X850386Y171264D02*
Y174849D01*
Y171264D02*
X852386Y169264D01*
Y167264D02*
Y169264D01*
X850386Y165264D02*
X852386Y167264D01*
X850386Y163264D02*
Y165264D01*
Y163264D02*
X852494Y161156D01*
X855322D01*
X856737Y159742D01*
Y156913D02*
Y159742D01*
Y156913D02*
X858151Y155499D01*
X860979D01*
X862393Y154085D01*
Y151257D02*
Y154085D01*
Y151257D02*
X863808Y149842D01*
Y145623D02*
Y149842D01*
Y145623D02*
X864306Y145125D01*
X865238D01*
X872240Y138124D01*
X852427Y176891D02*
X853722Y178186D01*
X856347D01*
X872240Y126500D02*
Y138124D01*
X892073Y178186D02*
X895692Y174567D01*
X888627Y178186D02*
X892073D01*
X893005Y180436D02*
X897942Y175499D01*
X888627Y180436D02*
X893005D01*
X867999Y159747D02*
X904410D01*
X914386Y149771D01*
Y132233D02*
Y149771D01*
X896987Y114834D02*
X914386Y132233D01*
X859848Y167898D02*
X867999Y159747D01*
X875056Y178186D02*
X888627D01*
X873968Y177098D02*
X875056Y178186D01*
X873968Y177098D02*
Y177098D01*
X871563Y174693D02*
X873968Y177098D01*
X867524Y174693D02*
X871563D01*
X865118Y177098D02*
X867524Y174693D01*
X865118Y177098D02*
Y184366D01*
X864031Y185453D02*
X865118Y184366D01*
X861856Y185453D02*
X864031D01*
X860768Y184366D02*
X861856Y185453D01*
X860768Y180591D02*
Y184366D01*
X858363Y178186D02*
X860768Y180591D01*
X856347Y178186D02*
X858363D01*
X888627Y180436D02*
Y180436D01*
X874124Y180436D02*
X888627D01*
X871718Y178030D02*
X874124Y180436D01*
X871718Y178030D02*
Y178030D01*
X870631Y176943D02*
X871718Y178030D01*
X868456Y176943D02*
X870631D01*
X867368Y178030D02*
X868456Y176943D01*
X867368Y178030D02*
Y185298D01*
X864963Y187703D02*
X867368Y185298D01*
X860924Y187703D02*
X864963D01*
X858518Y185298D02*
X860924Y187703D01*
X858518Y181523D02*
Y185298D01*
X857431Y180436D02*
X858518Y181523D01*
X856347Y180436D02*
X857431D01*
X856347D02*
Y180436D01*
X852790D02*
X856347D01*
X848136Y175781D02*
X852790Y180436D01*
X807944Y137079D02*
Y143147D01*
Y137079D02*
X811160Y133862D01*
X813989D01*
X815403Y132448D01*
Y129620D02*
Y132448D01*
Y129620D02*
X816817Y128206D01*
X821134D01*
X822354Y129425D01*
X823574Y130645D01*
X821742Y165831D02*
Y170008D01*
X819167Y163255D02*
X821742Y165831D01*
X819167Y163255D02*
X819167D01*
X815496Y159584D02*
X819167Y163255D01*
X815496Y158046D02*
Y159584D01*
Y158046D02*
X820026Y153516D01*
Y150114D02*
Y153516D01*
X817170Y147258D02*
X820026Y150114D01*
X813768Y147258D02*
X817170D01*
X796030Y164996D02*
X813768Y147258D01*
X794492Y164996D02*
X796030D01*
X792954Y163458D02*
X794492Y164996D01*
X792954Y161920D02*
Y163458D01*
Y161920D02*
X807944Y146930D01*
Y143147D02*
Y146930D01*
X817576Y164846D02*
X817576Y164846D01*
X813245Y160516D02*
X817576Y164846D01*
X813245Y157114D02*
Y160516D01*
Y157114D02*
X817776Y152584D01*
Y151046D02*
Y152584D01*
X816238Y149508D02*
X817776Y151046D01*
X814700Y149508D02*
X816238D01*
X796962Y167246D02*
X814700Y149508D01*
X793560Y167246D02*
X796962D01*
X791181Y164867D02*
X793560Y167246D01*
X790704Y164390D02*
X791181Y164867D01*
X790704Y160988D02*
Y164390D01*
Y160988D02*
X805694Y145998D01*
Y145397D02*
Y145998D01*
X805694Y145397D02*
X805694D01*
X805694Y136147D02*
Y145397D01*
X817576Y164846D02*
X819492Y166763D01*
X844955Y116888D02*
X851185D01*
X842955Y118888D02*
X844955Y116888D01*
X840955Y118888D02*
X842955D01*
X838955Y116888D02*
X840955Y118888D01*
X836955Y116888D02*
X838955D01*
X834955Y118888D02*
X836955Y116888D01*
X832955Y118888D02*
X834955D01*
X830955Y116888D02*
X832955Y118888D01*
X828955Y116888D02*
X830955D01*
X826955Y118888D02*
X828955Y116888D01*
X824955Y118888D02*
X826955D01*
X822955Y116888D02*
X824955Y118888D01*
X820955Y116888D02*
X822955D01*
X851185D02*
X856120D01*
X818455D02*
X820955D01*
X783642Y159700D02*
Y166196D01*
Y159700D02*
X785642Y157701D01*
Y155701D02*
Y157701D01*
X783642Y153701D02*
X785642Y155701D01*
X783642Y151700D02*
Y153701D01*
Y151700D02*
X789262Y146081D01*
X783642Y166196D02*
Y169882D01*
X789262Y146081D02*
X818455Y116888D01*
X848136Y162332D02*
Y175781D01*
Y162332D02*
X861558Y148910D01*
Y145623D02*
Y148910D01*
X849385Y145125D02*
X861060D01*
X857598Y166966D02*
Y169848D01*
X859848Y169876D02*
X861759Y171787D01*
X855675Y171771D02*
X857598Y169848D01*
X859848Y167898D02*
Y169876D01*
X855675Y171771D02*
Y171852D01*
X861759Y171787D02*
Y171892D01*
X857052Y114637D02*
X863247Y120833D01*
X858776Y128634D02*
X860997Y126412D01*
X860288Y130303D02*
X863247Y127344D01*
X860288Y130303D02*
Y135708D01*
X863247Y120833D02*
Y127344D01*
X854053Y128634D02*
X858776D01*
X856120Y116888D02*
X860997Y121765D01*
Y126412D01*
X817523Y114637D02*
X857052D01*
X881217Y119897D02*
X886280Y114834D01*
X885348Y128362D02*
X890698D01*
X884850Y127864D02*
X885348Y128362D01*
X883570Y129766D02*
Y135786D01*
X882600Y128796D02*
X883570Y129766D01*
X881217Y127329D02*
X882600Y128712D01*
X884850Y127780D02*
Y127864D01*
X882600Y128712D02*
Y128796D01*
X883467Y126397D02*
X884850Y127780D01*
X881217Y119897D02*
Y127329D01*
X883467Y120829D02*
Y126397D01*
Y120829D02*
X887212Y117084D01*
X886280Y114834D02*
X896987D01*
X805694Y136147D02*
X815885Y125956D01*
X822066D02*
X824823Y128712D01*
X815885Y125956D02*
X822066D01*
X824823Y128712D02*
X825527D01*
X823574Y130645D02*
Y135367D01*
X825605Y128634D02*
X829467D01*
X825527Y128712D02*
X825605Y128634D01*
X781392Y150768D02*
X817523Y114637D01*
X781392Y150768D02*
Y169842D01*
X819492Y166763D02*
Y169968D01*
X841760Y137500D02*
X849385Y145125D01*
X861060D02*
X861558Y145623D01*
X897942Y173902D02*
X899859Y171985D01*
Y171892D02*
Y171985D01*
X897942Y173902D02*
Y175499D01*
X893775Y171852D02*
Y171945D01*
X895692Y173862D01*
Y174567D01*
X890698Y128362D02*
X892560Y126500D01*
X882400Y137500D02*
X883842Y136058D01*
X829467Y128634D02*
X831600Y126500D01*
X817575Y171885D02*
X819492Y169968D01*
X817575Y171885D02*
Y171978D01*
X821440Y137500D02*
X823574Y135367D01*
X823659Y171925D02*
Y172018D01*
X821742Y170008D02*
X823659Y171925D01*
X860288Y135708D02*
X862080Y137500D01*
X779475Y171759D02*
Y171852D01*
Y171759D02*
X781392Y169842D01*
X851920Y126500D02*
X854053Y128634D01*
X783642Y169882D02*
X785559Y171799D01*
Y171892D01*
X370886Y773225D02*
X378375Y765737D01*
X370886Y773225D02*
Y779613D01*
X368000Y782500D02*
X370886Y779613D01*
X477624Y743780D02*
Y765737D01*
X485112Y773225D01*
X476628Y742784D02*
X477624Y743780D01*
X479874Y758212D02*
X484162Y762500D01*
Y762500D02*
X488000D01*
X485112Y779613D02*
X488000Y782500D01*
X485112Y773225D02*
Y779613D01*
G54D464*
X802158Y532753D02*
X807598Y538194D01*
X810767Y541362D01*
X838531D01*
X802158Y531861D02*
Y532753D01*
X1161427Y373780D02*
X1203605Y415957D01*
X957762Y383455D02*
X967437Y373780D01*
X1161427D01*
X663781Y406180D02*
X719781D01*
X723807Y402154D01*
X720031Y408617D02*
X724594Y404054D01*
X684865Y409189D02*
X685437Y408617D01*
X720031D01*
X692348Y411049D02*
X720286D01*
X692271Y411127D02*
X692348Y411049D01*
X664054Y436850D02*
X689777Y411127D01*
X692271D01*
X720286Y411049D02*
X725381Y405954D01*
X845725D01*
X854519Y414748D01*
X723807Y402154D02*
X847299D01*
X856093Y410948D01*
X858951D01*
X724594Y404054D02*
X846512D01*
X855306Y412848D01*
X880855Y396054D02*
X1007787D01*
X854519Y414748D02*
X862162D01*
X880855Y396054D01*
X618557Y395169D02*
X841802D01*
X617371Y396354D02*
X618557Y395169D01*
X841802D02*
X853335Y383636D01*
X878080D01*
X698680Y398254D02*
X843774D01*
X855880Y386148D01*
X877905D01*
X861259Y412848D02*
X882508Y391598D01*
X855306Y412848D02*
X861259D01*
X860972Y408927D02*
Y408927D01*
X858951Y410948D02*
X860972Y408927D01*
Y408927D02*
X880200Y389698D01*
X693981Y402953D02*
X698680Y398254D01*
X571305Y395274D02*
X571388Y395357D01*
X575816D01*
X578266Y392907D01*
X1102675Y359411D02*
X1105533D01*
X1106950Y360828D02*
X1154840D01*
X971732D02*
X1101258D01*
X1105533Y359411D02*
X1106950Y360828D01*
X1101258D02*
X1102675Y359411D01*
X954041Y378519D02*
X971732Y360828D01*
X1154840D02*
X1209406Y415394D01*
X1080837Y396054D02*
X1091387D01*
X1079737Y394954D02*
X1080837Y396054D01*
X1079737Y393850D02*
Y394954D01*
X1078637Y392750D02*
X1079737Y393850D01*
X1076437Y392750D02*
X1078637D01*
X1075337Y393850D02*
X1076437Y392750D01*
X1075337Y393850D02*
Y401954D01*
X1074237Y403054D02*
X1075337Y401954D01*
X1072037Y403054D02*
X1074237D01*
X1070937Y401954D02*
X1072037Y403054D01*
X1070937Y391201D02*
Y401954D01*
X1069837Y390101D02*
X1070937Y391201D01*
X1067637Y390101D02*
X1069837D01*
X1066537Y391201D02*
X1067637Y390101D01*
X1066537Y391201D02*
Y401954D01*
X1065437Y403054D02*
X1066537Y401954D01*
X1063237Y403054D02*
X1065437D01*
X1062137Y401954D02*
X1063237Y403054D01*
X1062137Y391201D02*
Y401954D01*
X1061037Y390101D02*
X1062137Y391201D01*
X1058837Y390101D02*
X1061037D01*
X1057737Y391201D02*
X1058837Y390101D01*
X1057737Y391201D02*
Y401954D01*
X1056637Y403054D02*
X1057737Y401954D01*
X1054437Y403054D02*
X1056637D01*
X1053337Y401954D02*
X1054437Y403054D01*
X1053337Y391201D02*
Y401954D01*
X1052237Y390101D02*
X1053337Y391201D01*
X1050037Y390101D02*
X1052237D01*
X1048937Y391201D02*
X1050037Y390101D01*
X1048937Y391201D02*
Y401954D01*
X1047837Y403054D02*
X1048937Y401954D01*
X1045637Y403054D02*
X1047837D01*
X1044537Y401954D02*
X1045637Y403054D01*
X1044537Y391201D02*
Y401954D01*
X1043437Y390101D02*
X1044537Y391201D01*
X1041237Y390101D02*
X1043437D01*
X1040137Y391201D02*
X1041237Y390101D01*
X1040137Y391201D02*
Y401954D01*
X1039037Y403054D02*
X1040137Y401954D01*
X1036837Y403054D02*
X1039037D01*
X1035737Y401954D02*
X1036837Y403054D01*
X1035737Y391201D02*
Y401954D01*
X1034637Y390101D02*
X1035737Y391201D01*
X1032437Y390101D02*
X1034637D01*
X1031337Y391201D02*
X1032437Y390101D01*
X1031337Y391201D02*
Y401954D01*
X1030237Y403054D02*
X1031337Y401954D01*
X1028037Y403054D02*
X1030237D01*
X1026937Y401954D02*
X1028037Y403054D01*
X1026937Y391201D02*
Y401954D01*
X1025837Y390101D02*
X1026937Y391201D01*
X1023637Y390101D02*
X1025837D01*
X1022537Y391201D02*
X1023637Y390101D01*
X1022537Y391201D02*
Y401954D01*
X1021437Y403054D02*
X1022537Y401954D01*
X1019237Y403054D02*
X1021437D01*
X1018137Y401954D02*
X1019237Y403054D01*
X1018137Y391201D02*
Y401954D01*
X1017037Y390101D02*
X1018137Y391201D01*
X1014837Y390101D02*
X1017037D01*
X1013737Y391201D02*
X1014837Y390101D01*
X1013737Y391201D02*
Y401954D01*
X1012637Y403054D02*
X1013737Y401954D01*
X1010437Y403054D02*
X1012637D01*
X1009337Y401954D02*
X1010437Y403054D01*
X1009337Y397154D02*
Y401954D01*
X1008237Y396054D02*
X1009337Y397154D01*
X1007787Y396054D02*
X1008237D01*
X1091387D02*
X1170900D01*
X990425Y388201D02*
X996575D01*
X989325Y389301D02*
X990425Y388201D01*
X989325Y389301D02*
Y389301D01*
X988225Y390401D02*
X989325Y389301D01*
X986025Y390401D02*
X988225D01*
X984926Y389301D02*
X986025Y390401D01*
X984926Y383322D02*
Y389301D01*
X983826Y382222D02*
X984926Y383322D01*
X981626Y382222D02*
X983826D01*
X980526Y383322D02*
X981626Y382222D01*
X980526Y383322D02*
Y393054D01*
X979426Y394154D02*
X980526Y393054D01*
X977225Y394154D02*
X979426D01*
X976125Y393054D02*
X977225Y394154D01*
X976125Y389301D02*
Y393054D01*
X975025Y388201D02*
X976125Y389301D01*
X974575Y388201D02*
X975025D01*
X996575D02*
X1167220D01*
X890533D02*
X974575D01*
X684547Y409507D02*
X684865Y409189D01*
X683968Y410086D02*
X684547Y409507D01*
X682413Y410086D02*
X683968D01*
X681185Y408858D02*
X682413Y410086D01*
X679629Y408858D02*
X681185D01*
X678074Y410413D02*
X679629Y408858D01*
X678074Y410413D02*
Y411969D01*
X681383Y415278D01*
Y416834D01*
X679827Y418389D02*
X681383Y416834D01*
X678271Y418389D02*
X679827D01*
X672796Y412914D02*
X678271Y418389D01*
X671240Y412914D02*
X672796D01*
X669685Y414470D02*
X671240Y412914D01*
X669685Y414470D02*
Y416025D01*
X675160Y421501D01*
Y423056D01*
X673605Y424612D02*
X675160Y423056D01*
X672049Y424612D02*
X673605D01*
X666574Y419137D02*
X672049Y424612D01*
X665018Y419137D02*
X666574D01*
X663462Y420692D02*
X665018Y419137D01*
X663462Y420692D02*
Y422248D01*
X668938Y427723D01*
Y429279D01*
X667382Y430834D02*
X668938Y429279D01*
X665826Y430834D02*
X667382D01*
X665301Y430309D02*
X665826Y430834D01*
X663745Y430309D02*
X665301D01*
X657523Y436531D02*
X663745Y430309D01*
X657205Y436850D02*
X657523Y436531D01*
X643372Y406180D02*
X663781D01*
X642271Y407280D02*
X643372Y406180D01*
X642271Y407280D02*
Y408621D01*
X641171Y409721D02*
X642271Y408621D01*
X638971Y409721D02*
X641171D01*
X637872Y408621D02*
X638971Y409721D01*
X637872Y407259D02*
Y408621D01*
X636772Y406159D02*
X637872Y407259D01*
X634571Y406159D02*
X636772D01*
X633471Y407259D02*
X634571Y406159D01*
X633471Y407259D02*
Y412080D01*
X632371Y413180D02*
X633471Y412080D01*
X630172Y413180D02*
X632371D01*
X629072Y412080D02*
X630172Y413180D01*
X629072Y406149D02*
Y412080D01*
X627971Y405049D02*
X629072Y406149D01*
X625771Y405049D02*
X627971D01*
X624672Y406149D02*
X625771Y405049D01*
X624672Y406149D02*
Y412080D01*
X623572Y413180D02*
X624672Y412080D01*
X621372Y413180D02*
X623572D01*
X620272Y412080D02*
X621372Y413180D01*
X620272Y405953D02*
Y412080D01*
X619172Y404853D02*
X620272Y405953D01*
X616972Y404853D02*
X619172D01*
X615872Y405953D02*
X616972Y404853D01*
X615872Y405953D02*
Y412080D01*
X614772Y413180D02*
X615872Y412080D01*
X612572Y413180D02*
X614772D01*
X611472Y412080D02*
X612572Y413180D01*
X611472Y405953D02*
Y412080D01*
X610372Y404853D02*
X611472Y405953D01*
X608172Y404853D02*
X610372D01*
X607072Y405953D02*
X608172Y404853D01*
X607072Y405953D02*
Y412080D01*
X605972Y413180D02*
X607072Y412080D01*
X603772Y413180D02*
X605972D01*
X602672Y412080D02*
X603772Y413180D01*
X602672Y405953D02*
Y412080D01*
X601572Y404853D02*
X602672Y405953D01*
X599372Y404853D02*
X601572D01*
X598272Y405953D02*
X599372Y404853D01*
X598272Y405953D02*
Y412080D01*
X597172Y413180D02*
X598272Y412080D01*
X594972Y413180D02*
X597172D01*
X593872Y412080D02*
X594972Y413180D01*
X593872Y407280D02*
Y412080D01*
X592772Y406180D02*
X593872Y407280D01*
X592322Y406180D02*
X592772D01*
X683789Y402953D02*
X693981D01*
X682689Y401853D02*
X683789Y402953D01*
X682689Y401853D02*
Y401853D01*
X681589Y400753D02*
X682689Y401853D01*
X679389Y400753D02*
X681589D01*
X678289Y401853D02*
X679389Y400753D01*
X678289Y401853D02*
Y402954D01*
X677189Y404054D02*
X678289Y402954D01*
X674989Y404054D02*
X677189D01*
X673889Y402954D02*
X674989Y404054D01*
X673889Y399973D02*
Y402954D01*
X672789Y398873D02*
X673889Y399973D01*
X670589Y398873D02*
X672789D01*
X669489Y399973D02*
X670589Y398873D01*
X669489Y399973D02*
Y403180D01*
X668389Y404280D02*
X669489Y403180D01*
X666189Y404280D02*
X668389D01*
X665089Y403180D02*
X666189Y404280D01*
X665089Y399354D02*
Y403180D01*
X663989Y398254D02*
X665089Y399354D01*
X661789Y398254D02*
X663989D01*
X660689Y399354D02*
X661789Y398254D01*
X660689Y399354D02*
Y403180D01*
X659589Y404280D02*
X660689Y403180D01*
X657389Y404280D02*
X659589D01*
X656289Y403180D02*
X657389Y404280D01*
X656289Y399354D02*
Y403180D01*
X655189Y398254D02*
X656289Y399354D01*
X652989Y398254D02*
X655189D01*
X651889Y399354D02*
X652989Y398254D01*
X651889Y399354D02*
Y403180D01*
X650789Y404280D02*
X651889Y403180D01*
X648589Y404280D02*
X650789D01*
X647489Y403180D02*
X648589Y404280D01*
X647489Y399354D02*
Y403180D01*
X646389Y398254D02*
X647489Y399354D01*
X644189Y398254D02*
X646389D01*
X643089Y399354D02*
X644189Y398254D01*
X643089Y399354D02*
Y403180D01*
X641989Y404280D02*
X643089Y403180D01*
X639789Y404280D02*
X641989D01*
X638689Y403180D02*
X639789Y404280D01*
X638689Y399354D02*
Y403180D01*
X637589Y398254D02*
X638689Y399354D01*
X635389Y398254D02*
X637589D01*
X634289Y399354D02*
X635389Y398254D01*
X634289Y399354D02*
Y403180D01*
X633189Y404280D02*
X634289Y403180D01*
X630989Y404280D02*
X633189D01*
X629889Y403180D02*
X630989Y404280D01*
X629889Y399354D02*
Y403180D01*
X628789Y398254D02*
X629889Y399354D01*
X626589Y398254D02*
X628789D01*
X625489Y399354D02*
X626589Y398254D01*
X625489Y399354D02*
Y401853D01*
X624389Y402953D02*
X625489Y401853D01*
X619539Y402953D02*
X624389D01*
X561845D02*
X619539D01*
X612927Y396354D02*
X617371D01*
X611827Y397454D02*
X612927Y396354D01*
X611827Y397454D02*
Y398284D01*
X610727Y399384D02*
X611827Y398284D01*
X608527Y399384D02*
X610727D01*
X607427Y398284D02*
X608527Y399384D01*
X607427Y395907D02*
Y398284D01*
X606327Y394807D02*
X607427Y395907D01*
X604127Y394807D02*
X606327D01*
X603027Y395907D02*
X604127Y394807D01*
X603027Y395907D02*
Y399953D01*
X601927Y401054D02*
X603027Y399953D01*
X599727Y401054D02*
X601927D01*
X598627Y399953D02*
X599727Y401054D01*
X598627Y395907D02*
Y399953D01*
X597527Y394807D02*
X598627Y395907D01*
X595327Y394807D02*
X597527D01*
X594227Y395907D02*
X595327Y394807D01*
X594227Y395907D02*
Y399953D01*
X593127Y401054D02*
X594227Y399953D01*
X590927Y401054D02*
X593127D01*
X589827Y399953D02*
X590927Y401054D01*
X589827Y397454D02*
Y399953D01*
X588727Y396354D02*
X589827Y397454D01*
X588277Y396354D02*
X588727D01*
X581361D02*
X588277D01*
X578883Y398832D02*
X581361Y396354D01*
X567126Y398832D02*
X578883D01*
X1207506Y417121D02*
Y462654D01*
X1155658Y365273D02*
X1207506Y417121D01*
X1126701Y365273D02*
X1155658D01*
X1209406Y415394D02*
Y465632D01*
X1124474Y367500D02*
X1126701Y365273D01*
X1071619Y364909D02*
X1074211Y367500D01*
X1124474D01*
X887135Y391598D02*
X890533Y388201D01*
X882508Y391598D02*
X887135D01*
X1167220Y388201D02*
X1188635Y409615D01*
X890692Y385354D02*
X958549D01*
X964036Y379868D01*
X886348Y389698D02*
X890692Y385354D01*
X1164498Y379868D02*
X1193171Y408541D01*
X964036Y379868D02*
X1164498D01*
X889905Y383455D02*
X957762D01*
X885561Y387798D02*
X889905Y383455D01*
X973621Y364909D02*
X1071619D01*
X956975Y381554D02*
X973621Y364909D01*
X889118Y381554D02*
X956975D01*
X889467Y378519D02*
X954041D01*
X883987Y383998D02*
X889467Y378519D01*
X1191843Y454827D02*
X1197204D01*
X1184762Y409916D02*
Y447747D01*
X1191843Y454827D01*
X1170900Y396054D02*
X1184762Y409916D01*
X880200Y389698D02*
X886348D01*
X884774Y385898D02*
X889118Y381554D01*
X877905Y386148D02*
X879555Y387798D01*
X885561D01*
X880342Y385898D02*
X884774D01*
X878080Y383636D02*
X880342Y385898D01*
X1188635Y409615D02*
Y445763D01*
X1193242Y450371D01*
X1197627D01*
X1191863Y461909D02*
X1193571Y460202D01*
X1191863Y461909D02*
Y476544D01*
X1193571Y460202D02*
X1196708D01*
X1191863Y476544D02*
X1197175Y481856D01*
X1196708Y460202D02*
X1200654Y456256D01*
Y453398D02*
Y456256D01*
X1197627Y450371D02*
X1200654Y453398D01*
X828943Y380740D02*
X877871D01*
X881129Y383998D02*
X883987D01*
X877871Y380740D02*
X881129Y383998D01*
X828911Y380708D02*
X828943Y380740D01*
X794721Y380708D02*
X828911D01*
X791019Y384410D02*
X794721Y380708D01*
X567375Y406180D02*
X592322D01*
X567151Y406404D02*
X567375Y406180D01*
X1193699Y442549D02*
X1193847D01*
X1197213Y445915D01*
X1193171Y408541D02*
Y442022D01*
X1193699Y442549D01*
X1203605Y415957D02*
Y436427D01*
X1197460Y436954D02*
X1203078D01*
X1203605Y436427D01*
X1197213Y436708D02*
X1197460Y436954D01*
X1197213Y472947D02*
X1207506Y462654D01*
X1198642Y476397D02*
X1209406Y465632D01*
X561757Y403042D02*
X561845Y402953D01*
X578266Y392907D02*
X744759D01*
X753257Y384410D01*
X791019D01*
X1193763Y467126D02*
X1197213Y463676D01*
X1193763Y467126D02*
Y474376D01*
X1195784Y476397D01*
X1198642D01*
X815527Y513692D02*
Y520911D01*
Y513692D02*
X816627Y512592D01*
X821427D01*
X822527Y511492D01*
Y509292D02*
Y511492D01*
X821427Y508192D02*
X822527Y509292D01*
X814229Y508192D02*
X821427D01*
X813129Y507092D02*
X814229Y508192D01*
X813129Y504892D02*
Y507092D01*
Y504892D02*
X814229Y503792D01*
X821427D01*
X822527Y502692D01*
Y500492D02*
Y502692D01*
X821427Y499392D02*
X822527Y500492D01*
X816627Y499392D02*
X821427D01*
X815527Y498292D02*
X816627Y499392D01*
X815527Y493442D02*
Y498292D01*
X799313Y507899D02*
X802921Y511507D01*
X797757Y507899D02*
X799313D01*
X795975Y509682D02*
X797757Y507899D01*
X794419Y509682D02*
X795975D01*
X792863Y508126D02*
X794419Y509682D01*
X792863Y506571D02*
Y508126D01*
Y506571D02*
X797608Y501826D01*
Y500271D02*
Y501826D01*
X796052Y498715D02*
X797608Y500271D01*
X794497Y498715D02*
X796052D01*
X793091Y500121D02*
X794497Y498715D01*
X791535Y500121D02*
X793091D01*
X788105Y496692D02*
X791535Y500121D01*
X794836Y586104D02*
X800690Y591958D01*
X794836Y584548D02*
Y586104D01*
Y584548D02*
X795936Y583448D01*
X806379D01*
X807479Y582348D01*
Y580148D02*
Y582348D01*
X806379Y579048D02*
X807479Y580148D01*
X795002Y579048D02*
X806379D01*
X793902Y577948D02*
X795002Y579048D01*
X793902Y575748D02*
Y577948D01*
Y575748D02*
X795002Y574648D01*
X806330D01*
X807430Y573548D01*
Y571348D02*
Y573548D01*
X806330Y570248D02*
X807430Y571348D01*
X795002Y570248D02*
X806330D01*
X793902Y569148D02*
X795002Y570248D01*
X793902Y565929D02*
Y569148D01*
X790716Y562743D02*
X793902Y565929D01*
X805489Y547405D02*
X806780D01*
X804700Y546616D02*
X805489Y547405D01*
X803144Y546616D02*
X804700D01*
X803106Y546655D02*
X803144Y546616D01*
X801550Y546655D02*
X803106D01*
X799995Y545099D02*
X801550Y546655D01*
X799995Y543543D02*
Y545099D01*
Y543543D02*
X800033Y543505D01*
Y541950D02*
Y543505D01*
X798477Y540394D02*
X800033Y541950D01*
X796922Y540394D02*
X798477D01*
X793642Y543673D02*
X796922Y540394D01*
X792087Y543673D02*
X793642D01*
X790531Y542118D02*
X792087Y543673D01*
X790531Y540562D02*
Y542118D01*
Y540562D02*
X792772Y538322D01*
Y536766D02*
Y538322D01*
X791672Y535666D02*
X792772Y536766D01*
X791035Y535666D02*
X791672D01*
X802158Y525916D02*
Y531861D01*
X801058Y524816D02*
X802158Y525916D01*
X799502Y524816D02*
X801058D01*
X797739Y526579D02*
X799502Y524816D01*
X796184Y526579D02*
X797739D01*
X794628Y525023D02*
X796184Y526579D01*
X794628Y523468D02*
Y525023D01*
Y523468D02*
X801361Y516735D01*
Y515179D02*
Y516735D01*
X799805Y513624D02*
X801361Y515179D01*
X798250Y513624D02*
X799805D01*
X791924Y519949D02*
X798250Y513624D01*
X790368Y519949D02*
X791924D01*
X788813Y518394D02*
X790368Y519949D01*
X788813Y516838D02*
Y518394D01*
Y516838D02*
X791800Y513851D01*
Y512295D02*
Y513851D01*
X791481Y511977D02*
X791800Y512295D01*
X852249Y530258D02*
Y531696D01*
X853349Y532796D01*
X864963D01*
X866063Y533896D01*
Y536096D01*
X864963Y537196D02*
X866063Y536096D01*
X853349Y537196D02*
X864963D01*
X852249Y538296D02*
X853349Y537196D01*
X852249Y538296D02*
Y538746D01*
X803236Y603510D02*
X804700Y604974D01*
X803236Y601955D02*
Y603510D01*
Y601955D02*
X804128Y601063D01*
Y599507D02*
Y601063D01*
X802572Y597952D02*
X804128Y599507D01*
X801017Y597952D02*
X802572D01*
X797886Y601082D02*
X801017Y597952D01*
X796330Y601082D02*
X797886D01*
X794775Y599526D02*
X796330Y601082D01*
X794775Y597971D02*
Y599526D01*
Y597971D02*
X797345Y595401D01*
Y593845D02*
Y595401D01*
X795789Y592290D02*
X797345Y593845D01*
X794233Y592290D02*
X795789D01*
X791924Y594599D02*
X794233Y592290D01*
X790368Y594599D02*
X791924D01*
X788813Y593044D02*
X790368Y594599D01*
X788813Y591488D02*
Y593044D01*
Y591488D02*
X789235Y591065D01*
Y589510D02*
Y591065D01*
X788917Y589191D02*
X789235Y589510D01*
X816000Y574157D02*
Y576317D01*
X817100Y577417D01*
X820148D01*
X821248Y578517D01*
Y580717D01*
X820148Y581817D02*
X821248Y580717D01*
X815479Y581817D02*
X820148D01*
X814379Y582917D02*
X815479Y581817D01*
X814379Y582917D02*
Y585117D01*
X815479Y586217D01*
X820148D01*
X821248Y587317D01*
Y589517D01*
X820148Y590617D02*
X821248Y589517D01*
X813740Y590617D02*
X820148D01*
X813290Y591067D02*
X813740Y590617D01*
X847114Y597821D02*
Y606542D01*
X832792Y608841D02*
X844815D01*
X847114Y606542D01*
X823356Y618276D02*
X832792Y608841D01*
X797827Y618276D02*
X823356D01*
X847114Y597821D02*
X850552Y594383D01*
X852285D01*
X795727Y621976D02*
X846798D01*
X856381Y612393D01*
Y597608D02*
Y612393D01*
X869341Y611506D02*
X873980Y606867D01*
Y588776D02*
Y606867D01*
X791056Y625676D02*
X848584D01*
X862754Y611506D02*
X869341D01*
X848584Y625676D02*
X862754Y611506D01*
X804700Y604974D02*
X805986Y606261D01*
X788035Y588309D02*
X788917Y589191D01*
X825715Y558434D02*
X827764Y560483D01*
X819618Y558434D02*
X825715D01*
X823356Y564193D02*
Y593698D01*
X821047Y561884D02*
X823356Y564193D01*
X788035Y614284D02*
X795727Y621976D01*
X788035Y622655D02*
X791056Y625676D01*
X863538Y583518D02*
Y590451D01*
Y583518D02*
X866104Y580953D01*
X856381Y597608D02*
X863538Y590451D01*
X899764Y560483D02*
Y563945D01*
X885642Y578066D02*
X899764Y563945D01*
X884690Y578066D02*
X885642D01*
X873980Y588776D02*
X884690Y578066D01*
X813947Y603106D02*
X823356Y593698D01*
X816000Y562052D02*
Y574157D01*
Y562052D02*
X819618Y558434D01*
X812382Y591975D02*
X813290Y591067D01*
X788035Y560061D02*
X790716Y562743D01*
X800690Y591958D02*
X800707Y591975D01*
X803472D02*
X803484Y591963D01*
X806354Y591975D02*
X812382D01*
X803484Y591963D02*
X806342D01*
X800707Y591975D02*
X803472D01*
X806342Y591963D02*
X806354Y591975D01*
X803913Y551133D02*
X807091Y554310D01*
X844299D01*
X857420Y541190D01*
X885560Y488862D02*
X887861Y491163D01*
Y511054D01*
X865993Y488862D02*
X885560D01*
X875798Y514991D02*
X879248Y518441D01*
Y529817D01*
X867876Y541190D02*
X879248Y529817D01*
X857420Y541190D02*
X867876D01*
X852249Y528783D02*
Y530258D01*
Y538746D02*
Y540675D01*
X788035Y535666D02*
X791035D01*
X806780Y547405D02*
X807598D01*
X859229Y564065D02*
X862795Y560499D01*
X866474D01*
X859229Y564065D02*
Y587439D01*
X871148Y552205D02*
Y555826D01*
X872406Y550946D02*
X877127D01*
X871148Y552205D02*
X872406Y550946D01*
X840009Y578606D02*
X844735Y573880D01*
X853288D01*
X871489Y565105D02*
X875698Y560896D01*
X871489Y565105D02*
Y577318D01*
X867853Y580953D02*
X871489Y577318D01*
X866104Y580953D02*
X867853D01*
X883577Y560775D02*
X883698Y560896D01*
X883577Y557396D02*
Y560775D01*
X877127Y550946D02*
X883577Y557396D01*
X866474Y560499D02*
X871148Y555826D01*
X852285Y594383D02*
X859229Y587439D01*
X788035Y608484D02*
X797827Y618276D01*
X811408Y610200D02*
X832610Y588998D01*
Y583016D02*
Y588998D01*
X805986Y606261D02*
X810793D01*
X813947Y603107D01*
X800216Y610200D02*
X811408D01*
X788035Y598019D02*
X800216Y610200D01*
X799359Y614576D02*
X816620D01*
X788035Y603251D02*
X799359Y614576D01*
X816620D02*
X826277Y604919D01*
X813947Y603106D02*
Y603107D01*
X835248Y604919D02*
X840009Y600158D01*
X826277Y604919D02*
X835248D01*
X843764Y560483D02*
X850201Y554046D01*
X853395D01*
X855416Y556067D01*
Y571752D01*
X853288Y573880D02*
X855416Y571752D01*
X840009Y578606D02*
Y600158D01*
X847214Y562248D02*
X851966Y557496D01*
X847214Y562248D02*
Y568412D01*
X832610Y583016D02*
X847214Y568412D01*
X788035Y545316D02*
X793852Y551133D01*
X803913D01*
X788035Y524719D02*
X806999Y543683D01*
X815527Y520911D02*
Y523755D01*
Y491474D02*
Y493442D01*
X812688Y488635D02*
X815527Y491474D01*
X802921Y511507D02*
X805908Y514493D01*
X788035Y496621D02*
X788105Y496692D01*
X805908Y514493D02*
Y531150D01*
X808255Y546748D02*
X811764D01*
X815850Y550835D01*
X807598Y547405D02*
X808255Y546748D01*
X788035Y508531D02*
X791481Y511977D01*
X847929Y528224D02*
Y538920D01*
X843143Y543705D02*
X847929Y538920D01*
X807621Y543705D02*
X843143D01*
X847929Y528224D02*
X854253Y521899D01*
X806999Y543683D02*
X807598D01*
X807621Y543705D01*
X852928Y468793D02*
X861947Y477812D01*
X813369Y471419D02*
X815995Y468793D01*
X852928D01*
X852168Y472408D02*
X859220Y479460D01*
X826272Y472408D02*
X852168D01*
X859220Y479460D02*
Y514453D01*
X861947Y477812D02*
Y484816D01*
X788035Y471419D02*
X813369D01*
X821702Y476977D02*
X826272Y472408D01*
X788035Y476977D02*
X821702D01*
X788035Y480962D02*
X821717D01*
X826453Y485699D01*
X788035Y487569D02*
X790448D01*
X792216Y489337D01*
X826453Y485699D02*
X827199D01*
X827229Y485669D02*
X830087D01*
X827199Y485699D02*
X827229Y485669D01*
X831382Y486964D02*
X836086D01*
X830087Y485669D02*
X831382Y486964D01*
X836086D02*
X839799Y483251D01*
X854384Y496517D02*
X856035Y494865D01*
X846296Y496517D02*
X854384D01*
X856035Y483304D02*
Y494865D01*
X854760Y482029D02*
X856035Y483304D01*
X851780Y482029D02*
X854760D01*
X849308Y479557D02*
X851780Y482029D01*
X850430Y514980D02*
X858693D01*
X859220Y514453D01*
X861947Y484816D02*
X865993Y488862D01*
X887861Y511054D02*
X891798Y514991D01*
X871052Y495103D02*
X874233Y491922D01*
X871052Y495103D02*
Y519878D01*
X879248Y494078D02*
Y510461D01*
X881345Y512558D01*
X881365D02*
X883798Y514991D01*
X881345Y512558D02*
X881365D01*
X874233Y491922D02*
X877092D01*
X879248Y494078D01*
X842089Y550835D02*
X852249Y540675D01*
X830292Y550835D02*
X842089D01*
X815850Y550835D02*
X830292D01*
X830292Y550835D01*
X854253Y521899D02*
X869031D01*
X871052Y519878D01*
X843578Y521832D02*
Y522291D01*
Y521832D02*
X850430Y514980D01*
X838531Y541362D02*
X843268Y536626D01*
X827682Y522528D02*
X830871Y519339D01*
X837047D01*
X840128Y522420D01*
Y527953D01*
X843268Y531093D01*
Y536626D01*
X835798Y528388D02*
Y535968D01*
X833119Y538647D02*
X835798Y535968D01*
X813404Y538647D02*
X833119D01*
X805908Y531150D02*
X813404Y538647D01*
X832906Y523014D02*
X835393D01*
X818365Y526594D02*
X829326D01*
X835393Y523014D02*
X835618Y522789D01*
X829326Y526594D02*
X832906Y523014D01*
X815527Y523755D02*
X818365Y526594D01*
X807762Y488635D02*
X812688D01*
X807060Y489337D02*
X807762Y488635D01*
X792216Y489337D02*
X807060D01*
X843848Y498965D02*
X846296Y496517D01*
X843848Y498965D02*
Y505455D01*
X830627Y512312D02*
X836991D01*
X843848Y505455D01*
X842370Y479557D02*
X849308D01*
X819794Y523144D02*
X830627Y512312D01*
X839799Y482128D02*
X842370Y479557D01*
X839799Y482128D02*
Y483251D01*
G54D466*
X416412Y168797D02*
Y172640D01*
Y168797D02*
X418412Y166797D01*
Y164797D02*
Y166797D01*
X416412Y162797D02*
X418412Y164797D01*
X416412Y160797D02*
Y162797D01*
Y160797D02*
X417941Y159268D01*
X420769D01*
X422184Y157854D01*
Y155026D02*
Y157854D01*
Y155026D02*
X423598Y153612D01*
X426426D01*
X427840Y152197D01*
Y149369D02*
Y152197D01*
Y149369D02*
X429255Y147955D01*
X432083D01*
X433497Y146540D01*
Y143712D02*
Y146540D01*
Y143712D02*
X434912Y142298D01*
X440884D01*
X442884Y144298D01*
X444884D01*
X446884Y142298D01*
X448884D01*
X451093D01*
X461660Y152865D01*
X770043Y335451D02*
X813498D01*
X771029Y337831D02*
X812513D01*
X814700Y340018D01*
X735592Y369902D02*
X770043Y335451D01*
X813498D02*
X815686Y337638D01*
X736578Y372282D02*
X771029Y337831D01*
X531730Y492413D02*
X545990Y478153D01*
Y471529D02*
Y478153D01*
X534110Y493399D02*
X548370Y479139D01*
Y470543D02*
Y479139D01*
X534110Y502201D02*
X544110Y512201D01*
X534110Y493399D02*
Y502201D01*
X544110Y512201D02*
Y573296D01*
X531730Y503187D02*
X541730Y513187D01*
X531730Y492413D02*
Y503187D01*
X541730Y513187D02*
Y574281D01*
X642059Y627944D02*
X653145Y639030D01*
X739966Y647366D02*
X742381D01*
X733075Y640475D02*
X739966Y647366D01*
X641280Y629824D02*
X650486Y639030D01*
X650508Y639052D01*
X653145Y639030D02*
X654590Y640475D01*
X650508Y639204D02*
X653767Y642463D01*
X732252D02*
X738306Y648517D01*
X650508Y639052D02*
Y639204D01*
X653767Y642463D02*
X732252D01*
X742381Y647366D02*
X742641Y647626D01*
X738306Y650931D02*
X738566Y651192D01*
X654590Y640475D02*
X733075D01*
X738306Y648517D02*
Y650931D01*
X563653Y447164D02*
Y563463D01*
X628134Y627944D01*
X898200Y333269D02*
X912453Y347522D01*
X1040259D02*
X1050022Y337759D01*
X989807Y345142D02*
X1039273D01*
X985904Y341239D02*
X989807Y345142D01*
X988821Y347522D02*
X1040259D01*
X899186Y330889D02*
X913439Y345142D01*
X984918Y343619D02*
X988821Y347522D01*
X977180Y345142D02*
X981083Y341239D01*
X913439Y345142D02*
X977180D01*
X981083Y341239D02*
X985904D01*
X982068Y343619D02*
X984918D01*
X1039273Y345142D02*
X1049036Y335379D01*
X978166Y347522D02*
X982068Y343619D01*
X912453Y347522D02*
X978166D01*
X1075359Y347636D02*
X1171955D01*
X1175820Y343771D01*
X1065482Y337759D02*
X1075359Y347636D01*
X1170969Y345256D02*
X1173440Y342785D01*
X1076344Y345256D02*
X1170969D01*
X1066468Y335379D02*
X1076344Y345256D01*
X1049036Y335379D02*
X1066468D01*
X1050022Y337759D02*
X1065482D01*
X1173440Y334870D02*
Y342785D01*
X1175820Y334831D02*
Y343771D01*
X1171748Y333177D02*
X1173440Y334870D01*
X1171748Y332794D02*
Y333177D01*
X1175820Y334831D02*
X1177513Y333139D01*
Y332756D02*
Y333139D01*
X295404Y151117D02*
X386655D01*
X296390Y153497D02*
X387640D01*
X188424Y258097D02*
X295404Y151117D01*
X189410Y260477D02*
X296390Y153497D01*
X544110Y573296D02*
X622652Y651838D01*
X541730Y574281D02*
X621666Y654218D01*
X713461D01*
X622652Y651838D02*
X714447D01*
X1160448Y832692D02*
X1160935D01*
X1162524Y831103D01*
X1201264Y829668D02*
Y829668D01*
X1162524Y831103D02*
X1199829D01*
X1201264Y829668D02*
X1282879Y748054D01*
X1199829Y831103D02*
X1201264Y829668D01*
X1282879Y682316D02*
Y748054D01*
Y682316D02*
X1291268Y673927D01*
X1292960Y656442D02*
Y656825D01*
X1291268Y658518D02*
X1292960Y656825D01*
X1291268Y658518D02*
Y673927D01*
X1197202Y827985D02*
X1199582D01*
X1162368Y828723D02*
X1196463D01*
X1160292Y827134D02*
X1160779D01*
X1196463Y828723D02*
X1197202Y827985D01*
X1160779Y827134D02*
X1162368Y828723D01*
X1199582Y827985D02*
X1280499Y747068D01*
Y681330D02*
Y747068D01*
X1288887Y658556D02*
Y672941D01*
X1287195Y656864D02*
X1288887Y658556D01*
X1287195Y656481D02*
Y656864D01*
X1280499Y681330D02*
X1288887Y672941D01*
X646799Y646723D02*
X722340D01*
X736381Y660763D01*
X723326Y644343D02*
X738318Y659335D01*
X647785Y644343D02*
X723326D01*
X736381Y660763D02*
Y662901D01*
X740456Y659335D02*
X740855Y659734D01*
X736381Y662901D02*
X736780Y663300D01*
X738318Y659335D02*
X740456D01*
X1260259Y535670D02*
X1274118Y549529D01*
Y611464D02*
X1276852Y614198D01*
X1271738Y612450D02*
X1274472Y615184D01*
X1259273Y538050D02*
X1271738Y550515D01*
X1271611Y620895D02*
Y628161D01*
X1274472Y615184D02*
Y618033D01*
X1274118Y549529D02*
Y611464D01*
X1273991Y621880D02*
X1276852Y619019D01*
X1271738Y550515D02*
Y612450D01*
X1276852Y614198D02*
Y619019D01*
X1271611Y620895D02*
X1274472Y618033D01*
X1273521Y630071D02*
X1277449D01*
X1271611Y628161D02*
X1273521Y630071D01*
X1273991Y621880D02*
Y627175D01*
X1274506Y627691D02*
X1277411D01*
X1273991Y627175D02*
X1274506Y627691D01*
X388563Y173671D02*
X388563D01*
X51962Y470811D02*
Y470817D01*
X905062Y352879D02*
X1178278D01*
X906048Y350499D02*
X1177292D01*
X1188094Y343063D02*
X1218201D01*
X1178278Y352879D02*
X1188094Y343063D01*
X1187109Y340683D02*
X1219186D01*
X1177292Y350499D02*
X1187109Y340683D01*
X1218201Y343063D02*
X1227689Y352551D01*
X1219186Y340683D02*
X1230069Y351565D01*
X861743Y333269D02*
X898200D01*
X860757Y330889D02*
X899186D01*
X854994Y340018D02*
X861743Y333269D01*
X854008Y337638D02*
X860757Y330889D01*
X815686Y337638D02*
X854008D01*
X667296Y369902D02*
X735592D01*
X666480Y370717D02*
X667296Y369902D01*
X659373Y377824D02*
X666480Y370717D01*
X584664Y377824D02*
X659373D01*
X582145Y380344D02*
X584664Y377824D01*
X578247Y380344D02*
X582145D01*
X578186Y380405D02*
X578247Y380344D01*
X575336Y380405D02*
X578186D01*
X570555Y375625D02*
X575336Y380405D01*
X570555Y277494D02*
Y375625D01*
X483580Y190519D02*
X570555Y277494D01*
X814700Y340018D02*
X854994D01*
X668282Y372282D02*
X736578D01*
X660359Y380204D02*
X668282Y372282D01*
X585650Y380204D02*
X660359D01*
X583131Y382724D02*
X585650Y380204D01*
X579232Y382724D02*
X583131D01*
X579171Y382785D02*
X579232Y382724D01*
X574350Y382785D02*
X579171D01*
X568176Y278480D02*
Y376610D01*
X481200Y191505D02*
X568176Y278480D01*
Y376610D02*
X574350Y382785D01*
X568625Y387528D02*
X665996D01*
X562064Y380968D02*
X568625Y387528D01*
X569610Y385148D02*
X665010D01*
X564444Y288812D02*
Y379982D01*
X562064Y289797D02*
Y380968D01*
X564444Y379982D02*
X569610Y385148D01*
X471465Y199198D02*
X562064Y289797D01*
X473845Y198212D02*
X564444Y288812D01*
X665996Y387528D02*
X673534Y379990D01*
X665010Y385148D02*
X672548Y377610D01*
X481200Y129449D02*
Y191505D01*
X454859Y103107D02*
X481200Y129449D01*
X428621Y103107D02*
X454859D01*
X415320Y116408D02*
X428621Y103107D01*
X415320Y116408D02*
Y120818D01*
X408060Y128078D02*
X415320Y120818D01*
X408060Y128078D02*
Y133078D01*
X387640Y153497D02*
X408060Y133078D01*
X182520Y262080D02*
X184123Y260477D01*
X182048Y262080D02*
X182520D01*
X184123Y260477D02*
X189410D01*
X483580Y128463D02*
Y190519D01*
X455844Y100727D02*
X483580Y128463D01*
X427635Y100727D02*
X455844D01*
X412940Y115422D02*
X427635Y100727D01*
X412940Y115422D02*
Y119832D01*
X405680Y127092D02*
X412940Y119832D01*
X405680Y127092D02*
Y132092D01*
X386655Y151117D02*
X405680Y132092D01*
X184184Y258097D02*
X188424D01*
X182580Y256493D02*
X184184Y258097D01*
X182108Y256493D02*
X182580D01*
X454062Y108336D02*
X471465Y125738D01*
X442022Y105956D02*
X455048D01*
X432940Y115037D02*
X442022Y105956D01*
X443008Y108336D02*
X454062D01*
X435320Y116023D02*
X443008Y108336D01*
X455048Y105956D02*
X473845Y124752D01*
Y198212D01*
X471465Y125738D02*
Y199198D01*
X765836Y361192D02*
X791442D01*
X747038Y379990D02*
X765836Y361192D01*
X764850Y358812D02*
X774898D01*
X673534Y379990D02*
X747038D01*
X746052Y377610D02*
X764850Y358812D01*
X672548Y377610D02*
X746052D01*
X774898Y358812D02*
X774898Y358812D01*
Y358812D02*
X790456D01*
X803431Y361192D02*
X806881Y364641D01*
X821140D01*
X807867Y362261D02*
X820154D01*
X830770Y351646D01*
X804397Y358791D02*
X807867Y362261D01*
X821140Y364641D02*
X831755Y354025D01*
X790477Y358791D02*
X804397D01*
X790456Y358812D02*
X790477Y358791D01*
X794333Y361192D02*
X803431D01*
X791442D02*
X791463Y361171D01*
X794313D01*
X794333Y361192D01*
X1251257Y538050D02*
X1259273D01*
X1252243Y535670D02*
X1260259D01*
X1230069Y513496D02*
X1252243Y535670D01*
X1227689Y514482D02*
X1251257Y538050D01*
X1230069Y351565D02*
Y513496D01*
X1227689Y352551D02*
Y514482D01*
X892766Y337217D02*
X906048Y350499D01*
X891780Y339597D02*
X905062Y352879D01*
X1279142Y631763D02*
X1279525D01*
X1277449Y630071D02*
X1279142Y631763D01*
X876319Y339597D02*
X891780D01*
X861890Y354025D02*
X876319Y339597D01*
X831755Y354025D02*
X861890D01*
X435320Y116023D02*
Y120818D01*
X428060Y128078D02*
X435320Y120818D01*
X428060Y128078D02*
Y133078D01*
X397859Y163278D02*
X428060Y133078D01*
X301231Y163278D02*
X397859D01*
X191233Y273277D02*
X301231Y163278D01*
X182520Y274880D02*
X184123Y273277D01*
X182048Y274880D02*
X182520D01*
X184123Y273277D02*
X191233D01*
X1279103Y625998D02*
X1279487D01*
X1277411Y627691D02*
X1279103Y625998D01*
X875333Y337217D02*
X892766D01*
X860905Y351646D02*
X875333Y337217D01*
X830770Y351646D02*
X860905D01*
X432940Y115037D02*
Y119832D01*
X425680Y127092D02*
X432940Y119832D01*
X425680Y127092D02*
Y132092D01*
X396874Y160898D02*
X425680Y132092D01*
X300245Y160898D02*
X396874D01*
X190247Y270897D02*
X300245Y160898D01*
X184184Y270897D02*
X190247D01*
X182580Y269293D02*
X184184Y270897D01*
X182108Y269293D02*
X182580D01*
X51962Y457510D02*
X54701D01*
X56701Y459510D01*
X58701D01*
X60701Y457510D01*
X62701D01*
X64701Y459510D01*
X66701D01*
X68701Y457510D01*
X70701D01*
X73203Y455007D01*
X76031D01*
X77446Y453593D01*
Y450765D02*
Y453593D01*
Y450765D02*
X78860Y449351D01*
Y447054D02*
Y449351D01*
Y447054D02*
X80860Y445054D01*
Y443054D02*
Y445054D01*
X78860Y441054D02*
X80860Y443054D01*
X78860Y435854D02*
Y441054D01*
Y420425D02*
Y435854D01*
Y420425D02*
X109573Y389712D01*
X45160Y457510D02*
X51962D01*
X44174Y455130D02*
X69715D01*
X76480Y419439D02*
Y448365D01*
X69715Y455130D02*
X76480Y448365D01*
X42992Y459677D02*
X45160Y457510D01*
X40612Y458691D02*
Y466350D01*
X42992Y459677D02*
Y465364D01*
X40612Y458691D02*
X44174Y455130D01*
X40612Y466350D02*
X43438Y469176D01*
X44424Y466796D02*
X50375D01*
X42992Y465364D02*
X44424Y466796D01*
X43438Y469176D02*
X50327D01*
X51962Y470811D01*
X50375Y466796D02*
X52003Y465168D01*
X52450D01*
X51962Y470817D02*
X52403D01*
X109465Y355265D02*
X109573Y355373D01*
Y389712D01*
X109465Y299792D02*
Y355265D01*
Y299792D02*
X123179Y286077D01*
X151439D01*
X181576Y287680D02*
X182048D01*
X151439Y286077D02*
X179972D01*
X151439Y286077D02*
X151439Y286077D01*
X179972D02*
X181576Y287680D01*
X107085Y298806D02*
Y356251D01*
X107193Y356359D01*
Y388727D01*
X76480Y419439D02*
X107193Y388727D01*
X107085Y298806D02*
X122194Y283697D01*
X152424D01*
X181636Y282093D02*
X182108D01*
X180033Y283697D02*
X181636Y282093D01*
X152424Y283697D02*
X152424Y283697D01*
X180033D01*
X584468Y598437D02*
X584468D01*
X576204Y590173D02*
X584468Y598437D01*
X576204Y588624D02*
Y590173D01*
Y588624D02*
X577424Y587404D01*
Y584299D02*
Y587404D01*
X574774Y581649D02*
X577424Y584299D01*
X571668Y581649D02*
X574774D01*
X565499Y587818D02*
X571668Y581649D01*
X563950Y587818D02*
X565499D01*
X562401Y586270D02*
X563950Y587818D01*
X562401Y584721D02*
Y586270D01*
Y584721D02*
X565024Y582099D01*
Y578993D02*
Y582099D01*
X563773Y577742D02*
X565024Y578993D01*
X563773Y577742D02*
X563773D01*
X583139Y599766D02*
X583139D01*
X574324Y590952D02*
X583139Y599766D01*
X574324Y587846D02*
Y590952D01*
Y587846D02*
X575544Y586626D01*
Y585077D02*
Y586626D01*
X573996Y583529D02*
X575544Y585077D01*
X572447Y583529D02*
X573996D01*
X566277Y589698D02*
X572447Y583529D01*
X563171Y589698D02*
X566277D01*
X560521Y587049D02*
X563171Y589698D01*
X560521Y583943D02*
Y587049D01*
Y583943D02*
X563144Y581320D01*
Y579771D02*
Y581320D01*
X562443Y579071D02*
X563144Y579771D01*
X562443Y579071D02*
X562443D01*
X584468Y598437D02*
X625061Y639030D01*
X549532Y563501D02*
X563773Y577742D01*
X583139Y599766D02*
X624770Y641398D01*
X547152Y563780D02*
X562443Y579071D01*
X436377Y146611D02*
X445087D01*
X437363Y148991D02*
X444101D01*
X432959Y150029D02*
X436377Y146611D01*
X432959Y150029D02*
Y189276D01*
X435339Y151014D02*
Y188290D01*
Y151014D02*
X437363Y148991D01*
X444617Y149506D02*
Y153059D01*
X445087Y146611D02*
X446997Y148520D01*
X444101Y148991D02*
X444617Y149506D01*
X446997Y148520D02*
Y153119D01*
X448600Y154722D02*
Y155195D01*
X446997Y153119D02*
X448600Y154722D01*
X432959Y189276D02*
X543594Y299911D01*
X443014Y154662D02*
X444617Y153059D01*
X443014Y154662D02*
Y155134D01*
X435339Y188290D02*
X545974Y298925D01*
X555768Y298646D02*
Y442644D01*
X561273Y448149D01*
X558148Y441658D02*
X563653Y447164D01*
X561273Y448149D02*
Y563742D01*
X627355Y629824D01*
X625061Y639030D02*
X642472D01*
X624770Y641398D02*
X632171D01*
X547152Y512375D02*
Y563780D01*
X641464Y641387D02*
X646799Y646723D01*
X627355Y629824D02*
X641280D01*
X628134Y627944D02*
X642059D01*
X642472Y639030D02*
X647785Y644343D01*
X632182Y641387D02*
X641464D01*
X632171Y641398D02*
X632182Y641387D01*
X549532Y513361D02*
Y563501D01*
X551508Y368797D02*
Y508020D01*
X553888Y367811D02*
Y509006D01*
X549532Y513361D02*
X553888Y509006D01*
X547152Y512375D02*
X551508Y508020D01*
X461660Y204538D02*
X555768Y298646D01*
X464040Y203552D02*
X558148Y297660D01*
Y441658D01*
X545974Y298925D02*
Y359897D01*
X543594Y299911D02*
Y360883D01*
X461660Y152865D02*
Y204538D01*
X464040Y151879D02*
Y203552D01*
X383511Y180501D02*
Y192871D01*
Y180501D02*
X386959Y177053D01*
X381131Y179515D02*
Y193857D01*
X392154Y204880D01*
X383511Y192871D02*
X393140Y202500D01*
X381131Y179515D02*
X384579Y176067D01*
X386959Y175275D02*
Y177053D01*
X382976Y173611D02*
X384579Y175214D01*
X382976Y173139D02*
Y173611D01*
X386959Y175275D02*
X388563Y173671D01*
X384579Y175214D02*
Y176067D01*
X392154Y204880D02*
X432461D01*
X388563Y173199D02*
Y173671D01*
X393140Y202500D02*
X433447D01*
X414032Y159812D02*
Y173626D01*
X416412Y172640D02*
X418606Y174834D01*
X423815D01*
X414032Y173626D02*
X417620Y177214D01*
X424800D01*
X423815Y174834D02*
X424330Y174318D01*
X422742Y165581D02*
Y166068D01*
X424330Y167656D01*
X428329Y165641D02*
Y166098D01*
X424330Y171095D02*
X424330Y171095D01*
X426710Y167717D02*
X428329Y166098D01*
X424330Y171095D02*
Y174318D01*
X424800Y177214D02*
X426710Y175304D01*
X426710Y167717D02*
Y170109D01*
X426710Y170109D01*
Y175304D01*
X424330Y167656D02*
Y171095D01*
X452079Y139918D02*
X464040Y151879D01*
X433926Y139918D02*
X452079D01*
X414032Y159812D02*
X433926Y139918D01*
X543594Y360883D02*
X551508Y368797D01*
X545974Y359897D02*
X553888Y367811D01*
X536762Y462300D02*
X545990Y471529D01*
X536762Y442227D02*
Y462300D01*
Y442227D02*
X539334Y439655D01*
Y311753D02*
Y439655D01*
X432461Y204880D02*
X539334Y311753D01*
X723279Y666173D02*
X723678Y666572D01*
X713461Y654218D02*
X723279Y664036D01*
Y666173D01*
X539142Y461315D02*
X548370Y470543D01*
X539142Y443213D02*
Y461315D01*
Y443213D02*
X541714Y440640D01*
Y310767D02*
Y440640D01*
X433447Y202500D02*
X541714Y310767D01*
X714447Y651838D02*
X725216Y662608D01*
X727354D02*
X727752Y663006D01*
X725216Y662608D02*
X727354D01*
G54D467*
X1016660Y790577D02*
X1035657Y809575D01*
X1017434Y788707D02*
X1037527Y808800D01*
X1035657Y809575D02*
Y860762D01*
X1037527Y808800D02*
Y859987D01*
X1035657Y860762D02*
X1039340Y864444D01*
X1037527Y859987D02*
X1040114Y862574D01*
X621265Y692248D02*
Y692248D01*
X622360Y693344D02*
X742236D01*
X617722Y686061D02*
X623135Y691474D01*
Y691474D01*
X743011D01*
X616948Y687931D02*
X621265Y692248D01*
Y692248D02*
X622360Y693344D01*
X612302Y687931D02*
X616948D01*
X592786Y681981D02*
X606352D01*
X592847Y680111D02*
X607127D01*
X613077Y686061D01*
X606352Y681981D02*
X611207Y686836D01*
X613077Y686061D02*
Y686061D01*
X611207Y686836D02*
Y686836D01*
X613077Y686061D02*
X617722D01*
X611207Y686836D02*
X612302Y687931D01*
X743011Y691474D02*
X786072Y734535D01*
X742236Y693344D02*
X784202Y735309D01*
X945090Y790577D02*
X1016660D01*
X945864Y788707D02*
X1017434D01*
X1039340Y864444D02*
X1043140D01*
X1040114Y862574D02*
X1043120D01*
X1045015Y860680D02*
X1045179D01*
X1043120Y862574D02*
X1045015Y860680D01*
X1043140Y864444D02*
X1044983Y866286D01*
X1045215D01*
X916089Y793348D02*
X916089D01*
X912064Y789323D02*
X916089Y793348D01*
X912064Y787777D02*
Y789323D01*
Y787777D02*
X912064Y787777D01*
Y784683D02*
Y787777D01*
X909423Y782043D02*
X912064Y784683D01*
X906329Y782043D02*
X909423D01*
X905169Y783203D02*
X906329Y782043D01*
X903624Y783203D02*
X905169D01*
X902079Y781658D02*
X903624Y783203D01*
X902079Y780113D02*
Y781658D01*
Y780113D02*
X905317Y776875D01*
Y773781D02*
Y776875D01*
X902676Y771140D02*
X905317Y773781D01*
X899582Y771140D02*
X902676D01*
X892555Y778168D02*
X899582Y771140D01*
X891010Y778168D02*
X892555D01*
X889465Y776623D02*
X891010Y778168D01*
X889465Y775078D02*
Y776623D01*
Y775078D02*
X894489Y770054D01*
Y766960D02*
Y770054D01*
X891849Y764319D02*
X894489Y766960D01*
X888754Y764319D02*
X891849D01*
X883730Y769343D02*
X888754Y764319D01*
X882185Y769343D02*
X883730D01*
X880640Y767798D02*
X882185Y769343D01*
X880640Y766253D02*
Y767798D01*
Y766253D02*
X883270Y763623D01*
Y760529D02*
Y763623D01*
X882028Y759286D02*
X883270Y760529D01*
X882028Y759286D02*
X882028D01*
X910194Y790097D02*
X914767Y794670D01*
X910194Y787003D02*
Y790097D01*
Y787003D02*
X910194Y787003D01*
Y785458D02*
Y787003D01*
X908649Y783913D02*
X910194Y785458D01*
X907104Y783913D02*
X908649D01*
X905944Y785073D02*
X907104Y783913D01*
X902850Y785073D02*
X905944D01*
X900209Y782432D02*
X902850Y785073D01*
X900209Y779338D02*
Y782432D01*
Y779338D02*
X903447Y776100D01*
Y774555D02*
Y776100D01*
X901902Y773010D02*
X903447Y774555D01*
X900357Y773010D02*
X901902D01*
X893329Y780038D02*
X900357Y773010D01*
X890235Y780038D02*
X893329D01*
X887595Y777398D02*
X890235Y780038D01*
X887595Y774303D02*
Y777398D01*
Y774303D02*
X892619Y769279D01*
Y767734D02*
Y769279D01*
X891074Y766189D02*
X892619Y767734D01*
X889529Y766189D02*
X891074D01*
X884505Y771213D02*
X889529Y766189D01*
X881411Y771213D02*
X884505D01*
X878770Y768573D02*
X881411Y771213D01*
X878770Y765479D02*
Y768573D01*
Y765479D02*
X881400Y762849D01*
Y761303D02*
Y762849D01*
X880705Y760609D02*
X881400Y761303D01*
X916089Y793348D02*
X918850Y796109D01*
X876790Y754049D02*
X882028Y759286D01*
X914767Y794670D02*
X918076Y797979D01*
X876016Y755919D02*
X880705Y760609D01*
X918850Y796109D02*
X963850D01*
X918076Y797979D02*
X964624D01*
X1028241Y831032D02*
Y831032D01*
Y831032D02*
X1029244Y830029D01*
X1010801Y796027D02*
X1031114Y816340D01*
X1030566Y831351D02*
X1031114Y830803D01*
X1029015Y832902D02*
X1030566Y831351D01*
Y831351D02*
Y831351D01*
X1029244Y817115D02*
Y830029D01*
X1010027Y797897D02*
X1029244Y817115D01*
X1031114Y816340D02*
Y830803D01*
X790154Y747406D02*
X901918D01*
X784202Y735309D02*
Y741454D01*
X785298Y742550D01*
X785298D01*
X789058Y746310D01*
X790928Y745536D02*
Y745536D01*
X902693D01*
X786072Y734535D02*
Y740680D01*
X786072D02*
X790928Y745536D01*
X789058Y746310D02*
Y746310D01*
X790154Y747406D01*
X786072Y740680D02*
X786072D01*
X590712Y683840D02*
X590928D01*
X592786Y681981D01*
X901918Y747406D02*
X945090Y790577D01*
X590772Y678253D02*
X590988D01*
X592847Y680111D01*
X902693Y745536D02*
X945864Y788707D01*
X596653Y698859D02*
X724233D01*
X593895Y696101D02*
X596653Y698859D01*
X593895Y695380D02*
Y696101D01*
Y695380D02*
X595535Y693740D01*
Y693306D02*
Y693740D01*
X724233Y698859D02*
X753683Y728308D01*
Y728418D01*
X779314Y754049D01*
X876790D01*
X963932Y796027D02*
X1010801D01*
X963850Y796109D02*
X963932Y796027D01*
X1019085Y834770D02*
X1019291D01*
X1021160Y832902D02*
X1029015D01*
X1019291Y834770D02*
X1021160Y832902D01*
X595878Y700729D02*
X723459D01*
X592025Y696876D02*
X595878Y700729D01*
X592025Y690993D02*
Y696876D01*
X595535Y687330D02*
Y687483D01*
X592025Y690993D02*
X595535Y687483D01*
X723459Y700729D02*
X751813Y729083D01*
Y729193D01*
X778539Y755919D01*
X876016D01*
X964624Y797979D02*
X964706Y797897D01*
X1010027D01*
X1019255Y829163D02*
X1021123Y831032D01*
X1028241D01*
X1019049Y829163D02*
X1019255D01*
G54D470*
X769575Y574472D02*
X772474D01*
X767524Y572422D02*
X769575Y574472D01*
X767524Y569522D02*
Y572422D01*
X735902Y524667D02*
X743136Y531902D01*
X743163D01*
X735902Y520911D02*
Y524667D01*
X743163Y531902D02*
X744120Y532859D01*
X747019D01*
X748401Y531477D01*
X768780D01*
X773346Y536043D01*
X785585Y542866D02*
X788035Y545316D01*
X783721Y542866D02*
X785585D01*
X781206Y540351D02*
X783721Y542866D01*
X781206Y538397D02*
Y540351D01*
X778853Y536043D02*
X781206Y538397D01*
X773346Y536043D02*
X778853D01*
X737952Y518861D02*
Y518861D01*
X735902Y520911D02*
X737952Y518861D01*
Y518861D02*
X740282Y516531D01*
M02*
