M48
;Layer_Color=9474304
;FILE_FORMAT=4:4
METRIC,LZ
;TYPE=PLATED
T01F00S00C0.2000
T02F00S00C0.3000
T03F00S00C0.4000
T04F00S00C0.5000
T06F00S00C0.6500
T07F00S00C0.7000
T08F00S00C0.8000
T10F00S00C0.9000
T11F00S00C1.0000
T13F00S00C1.0008
T15F00S00C1.2800
T16F00S00C2.3000
T17F00S00C3.0000
T18F00S00C3.2000
T19F00S00C3.7300
;TYPE=NON_PLATED
T20F00S00C0.6000
T22F00S00C1.1000
T23F00S00C1.1999
T24F00S00C1.2500
T25F00S00C1.6000
T26F00S00C2.0000
T28F00S00C2.4000
%
T01
X01057001Y00030001
X01067001
X01077001
X01087001
X01097001
X01107001
X01117001
X01122001Y00060001
X01132001
X01112001
X01102001
X01092001
X01082001
X01072001
X01062001
X01052001
X01057001Y00070001
X01067001
X01077001
X01087001
X01097001
X01107001
X01117001
X01112001Y00080001
X01167001Y00070001
X01177001
X01172001Y00040001
X01147001Y00010001
X01072001Y00020001
Y00040001
X01232001
X01242001
X01227001Y00070001
X01317001
X01327001
X01337001
X01347001
X01352001Y00060001
X01342001
X01332001
X01322001
X01312001
X01317001Y00050001
X01327001
X01337001
X01347001
X01352001Y00040001
X01342001
X01332001
X01322001
X01312001
X01302001
X01277001Y00030001
X01282001Y00020001
X01267001Y00010001
X01377001
X01387001
X01392001Y00020001
Y00040001
Y00060001
Y00080001
X01377001Y00050001
X01372001Y00040001
X01377001Y00030001
X01342001Y00080001
X01332001
X01322001
X01312001
X01047001Y00070001
X01020848Y00069252
X00997001Y00070001
X01002001Y00040001
X01012001
X01022001
X01037001Y00030001
X01047001
X00967001
X00972001Y00040001
Y00020001
X00952001
X00942001
X00937001Y00030001
X00947001
X00952001Y00040001
X00942001
X00952001Y00060001
X00972001Y00080001
X00957001Y00010001
X00947001
X00937001
X00777001
X00767001
X00757001
X00762001Y00020001
X00772001
X00777001Y00030001
X00697001
X00702001Y00040001
X00692001
X00687001Y00050001
X00697001
X00702001Y00060001
X00677001Y00070001
Y00050001
X00667001
X00657001
X00652001Y00020001
X00642001
X00637001Y00050001
X00647001
X00627001
X00617001
X00607001
X00597001
X00577001
X00567001
X00557001
X00547001
X00527001
X00497001
X00562001Y00020001
X00572001
X00582001
X00592001
X00602001
X00347001Y00050001
X00237001
X00222001Y00040001
X00212001
X00192001
X00182001
X00172001
X00162001
X00152001
X00147001Y00050001
X00142001Y00060001
X00134864Y00055407
X00133753Y00067735
X00147001Y00070001
X00182001Y00080001
X00177001Y00050001
X00102001Y00060001
X00087001Y00070001
X00082001Y00080001
X00052001
X00047001Y00070001
X00052001Y00040001
X00026082Y00039112
X00024966Y00030776
X00032001Y00020001
X00017001Y00010001
X00020643Y00057559
X00099529Y00033965
X00105Y00017095
X00239804Y00024095
X00240624Y00101416
X00250744Y0011562
Y0012862
X00250699Y00134404
X00220976Y00135021
X00205796Y00152033
X00201088Y00147548
X0022567Y00165573
X00204386Y00210893
X00198779Y0021093
X00182108Y00243693
X00182048Y0024928
X00182108Y00256493
X00182048Y0026208
X00182108Y00269293
X00182048Y0027488
X00182108Y00282093
X00182048Y0028768
X0019671Y00293093
X00209793Y00294938
X00217341Y00293193
X00236362Y0028128
X00236423Y00275693
X00232001Y00260002
X00222001
X00212001
X00174233Y00261381
X00171531Y00255837
X00167485Y00247886
X00169279Y002658
X00177001Y00270002
X00185584Y0032172
X00193685Y00321945
X00165016Y00397249
X00157695Y00397534
X00177001Y00410002
X00218043Y00421764
X00221641Y00398772
X0023667Y00439756
X00146057Y00470106
X00134418Y00467703
X00119618Y00433652
X00082805Y00440071
X0008467Y0044547
X0005245Y00465168
X00052403Y00470817
X00055483Y00477534
X00052877Y00412645
X00051051Y00383158
X00051633Y00370831
X00051597Y00365224
X00069174Y0036086
X00069234Y00355273
X00055918Y0034399
X00051807Y00340757
X00051771Y0033515
X00061047Y0032771
X00067193Y00327801
X00056686Y00320479
X00057001Y00310002
Y00290002
Y00270002
X00071688Y00270977
X00077001Y00270002
X00082001Y00260002
X00072001
X00057001Y00250002
X00062001Y00240002
X00057001Y00230002
X00067001
X0003918Y00232919
X00027001Y00230002
X00017001
X00007001
X00012001Y00240002
X00022001
X00017001Y00250002
X00027001
X00007001
X00012001Y00300002
X00022001
X00032001
X00027001Y00310002
X00017001
X00007001
Y00330001
Y00350002
X0000874Y00373357
X00006217Y00418148
X00066163Y00389199
X00103753Y00357784
X00103048Y00335537
X00092029Y0030575
X00100597Y00269195
X00107001Y00210002
X00117001
X00082259Y00202529
X00082219Y00172048
X00082379Y00166315
X00087001Y00150001
X00092001Y00140001
X00087001Y00130001
X00097001
X00107001
X00112001Y00120001
X00107001Y00110001
X00117001
X00127001
X00123012Y0009001
X00112001Y00100001
X00147001Y00130001
X00167001
X00162001Y00120001
X00027001Y00150001
Y00170002
Y00190002
X00007001
Y00170002
Y00150001
X00232001Y00240002
X00262817Y00256734
X00274394Y0026689
X0030504Y00270889
X00313941Y00271032
X00315595Y00259091
X00310008Y0025903
X00310586Y00242108
X00316173Y00242168
X00332001Y00240002
Y00260002
X00340197Y00288141
X00357001Y00290002
X00367001
Y00250002
X00366561Y00240281
X00379297Y00206682
X004015Y00198583
X00401346Y00220445
X00397001Y00170002
X00407001
X00422742Y00165581
X00428329Y00165641
X00443014Y00155134
X004486Y00155195
X00452001Y00160002
X00502001
X00497001Y00150001
X00502001Y00140001
X00528928Y00137581
X00540497Y00135799
X0055091Y00135852
X00562001Y00140001
X00572909Y00135852
X00583999Y00135889
X0059491Y00135852
X00605911
X00616909
X00627001Y00130001
X00637001
X00647001
X00642001Y00120001
X00632001
Y00140001
X00627001Y00150001
X00632001Y00160002
X00642001
X00647001Y00150001
X00616937Y00158246
X00606001Y00158258
X00595Y00158295
X005841Y00158109
X00573Y00158184
X00551Y00158221
X00540087Y00158184
X00533125Y00164922
X00529227Y00180981
X00562001Y00180002
X00572001
X00582001
X00597001Y00190002
X00592001Y00200002
X00617001Y00190002
X00537001Y00210002
Y00270002
X00507001
X00505016Y00307498
X00511056Y00307409
X00519299Y00305425
X00528562Y00305847
X00529006Y00314114
Y00322198
X00529043Y0033345
X00529154Y00342382
X00529189Y00350959
X00529154Y00359789
X00535664Y00368474
X0054591Y00368311
X00550827Y00359886
X0055096Y00351153
X00575812Y00352903
X00576129Y00359999
X00576258Y00367178
X00573996Y00372426
X00576761Y00376965
X00581124Y00370872
X00580676Y00363632
X00580662Y00356527
X00580829Y00349423
X00580768Y00342148
X00580644Y00335122
X00580472Y00327924
X00575618Y00331399
X00575259Y00324388
X00575395Y00338635
X00575519Y00345372
X00574405Y00390976
X00571305Y00395274
X00567126Y00398832
X00567151Y00406404
X00561757Y00403042
X0056252Y00394565
X00563737Y00388063
X00545429Y00390328
X0053586Y00390403
X00533768Y00399015
X00534674Y00412079
X00547722Y00410368
X00547682Y00420324
X00562383Y00437078
X00532634Y00438661
X00524375Y00440694
X00516266Y00440617
X00520604Y00459812
X00517573Y00465074
X00522471Y00474677
X00537088Y00474214
X0054255Y00474572
X00542582Y0045989
X00588534Y00460221
X00590302Y00464921
X00598955Y00451043
X00598993Y00443824
X00597098Y00438219
X00588528Y00426174
X00583561Y00423628
X00518531Y00412225
X00495486Y00408996
X00488344Y0040896
X00466954
Y00399843
X00466614Y00390587
X00466718Y00381751
X00466512Y00371955
X00466578Y0036235
X00466373Y00352583
Y00342679
X00487763
X00487909Y00332047
X00489076Y00323113
X00482238Y00323101
X0047845Y00318237
X00493695Y00317038
X00492845Y00307633
X00498796Y00307722
X00486357Y00307275
X00487001Y00290002
X00430533Y00301692
X00434121Y00272941
X00427001Y00270002
X004379Y0025567
X00447001Y00210002
X00427001Y00190002
X00388563Y00173199
X00382976Y00173139
X00370893Y00172765
X00343984Y00173139
X00350586Y00147677
Y0014178
X00350547Y00135686
X00330237Y00134493
X00330423Y00140764
X00330401Y00147548
X00330237Y00127993
X00332001Y00120001
X00330237Y00114993
Y00108493
X00307001Y00110001
X00297001
X00302001Y00120001
X00292001
X00282001
X00277001Y00110001
X00282001Y00100001
X00292001
X00302001
X00296357Y00090035
X00297001Y00130001
X00282001Y00140001
X00275284Y00134791
X00277001Y00150001
X00305438Y0014742
X00322001Y00200002
X00339169Y00206514
X00283953Y00212261
X00278347Y00212297
X00267001Y00210002
X00288788Y00245226
X0030518Y00294702
X0031329Y00294813
X00272927Y00322
X0025569Y00408557
X00258549Y00453201
X00273785Y00445087
X00295694Y00451022
X00294062Y00462715
X00298767Y00466764
X00306071Y00462825
X00307472Y00427118
X00301585Y00427405
X00295448Y00427515
X00295691Y00433736
X00301744Y00411991
X00328663Y0040989
X00337121Y00409193
X00348358Y0040399
X00365685Y00393233
X00366722Y00386662
X00359871Y0038699
X00371952Y00396307
X00381187Y00398078
X0038624Y00402695
X00391865Y00406064
X00391361Y0041792
X00396312Y00419339
X0039662Y00414298
X0039902Y00423588
X00405238Y0042275
X00409272Y00426526
X00406872Y00434736
X00409705Y00450156
X00408443Y00471291
X00407413Y00476662
X00424863Y00465207
X00417721Y00404779
X00412014Y00404772
X00411055Y0039786
X00437441Y00397488
Y00403781
X00441087Y00354723
X00450779Y00358971
X00443869Y0033858
X00435328Y00346258
X00409763Y00330864
X00403145Y00330523
X00333393Y00374523
X00337313Y0038077
X00488108Y00381751
X00488038Y00362421
X00496489Y00351527
X00518183Y00351678
X00518149Y00341331
X00519725Y00333693
X00518034Y00371585
X00518396Y00380875
X00506755Y00386587
X00501955Y00397177
X00506308Y00365795
X00587001Y00270002
X00567001Y00110001
X00557001
X00547001
X00552001Y00100001
X00562001
X00572001
X00567001Y00090001
X00577001
X00557001
X00547001
X00542001Y00100001
X00527001Y00110001
Y00090001
X00505807Y00082013
X00492001Y00120001
X00482001
X00445978Y00093315
X00422001Y00100001
X00417001Y00090001
X00366157Y00081956
X00619556Y00468498
X00625556
Y00474498
X00620405Y00475381
X00631539Y00469364
X00637556Y00468498
X00638225Y00473662
X0064938Y00474297
X00649556Y00468498
X00656788Y0046823
X00661408Y00470146
X00661153Y00475211
X00655683Y00474632
X00668422Y00474515
Y00468515
X00680226Y00469381
X00686388
X00691545Y0046849
X00693494Y00473236
X00698405Y00475381
Y00469381
X0070443Y0046849
X00709539Y00469364
X00710552Y00474583
X00704579Y00475481
X0071578Y0046915
X00727562Y00469369
X00727539Y00475364
X00733556Y00474498
X00733544Y0046849
X00745674Y00469265
X00745392Y0047555
X00743755Y0045059
X00739478Y00446938
X00736078Y00441966
X00736051Y00436391
X00736149Y00431333
X00739837Y00423953
X00741143Y00411506
X00735232Y00412725
X00718612Y0040247
X00717814Y0038857
X00744925Y00387863
X00766412Y00376182
X0077088Y00380074
X00767363Y00354451
X00766986Y00346738
X00793106Y00346796
X00793181Y00341409
X00792522Y00353944
X00792888Y00364611
X0079245Y00372426
X00795409Y00384899
X00813209Y00384435
X00819823Y00384531
X00812135Y00356431
X00807314Y00352815
X00807608Y00347073
X00786913Y0033102
X00791001Y00317289
X00770137Y00317509
X00749258Y00317364
X00742623Y00330896
X00726613Y00332564
X00720403Y00332484
X00714393Y00332444
X00707903Y00332484
X00699329Y00332364
X00689943Y00332592
X0069027Y00338995
X00698226Y00350307
X00707647Y00346517
X00711477Y00318293
X00722501Y00321518
X00724028Y00297409
X00739658Y00297773
X00758061Y00292677
X00764191Y00292105
X0077123Y00291734
X00767794Y00287019
X00779461Y00289133
X00785432
X00791495Y00288929
X00817529Y0029075
X008235
X00826198Y00318175
X00824206Y0032321
X00834483Y00326735
X0083787Y00330483
X00843078Y00326572
X00847673Y00324558
X00851185Y00329271
X00856964Y00329179
X0087111Y00326353
X00873279Y00318712
X00870976Y00336709
X00882558Y00343037
Y00348547
X00882558Y00355039
Y00360548
X00887774Y00363005
Y00369048
X00882558Y00375039
Y00380548
X00877487Y00372026
X00877698Y00352204
X00895404Y00356291
X0090181Y00356069
X0090985Y00359461
X00933316Y00372646
X00975043Y00368547
X00983493Y00347059
X00983253Y00337148
X0098703Y00330456
X00995121Y00333525
X00974114Y00318441
X00964612Y00288224
X00950088Y00282238
X0094961Y00269216
X00933158Y00278635
X00926395Y00304119
X00907001Y00290002
X008997Y0029075
X00893729
X008616
X00855629
X0090273Y00329495
X00909884Y0040127
X00896087Y0041869
X00890735Y00424401
X00887957Y00463968
X00879909Y00469456
X00867602Y00472949
X00869342Y00462936
X00852043Y00477413
X00843771Y00475858
X00835687Y00476143
X00827771Y00475858
X00831611Y00465086
X0081194Y00467969
X00805699
X00770639Y00462118
X0076424Y00450967
X00755598Y00437396
X00751476Y00433396
X00685334Y00475548
X00693015Y0030344
X00692958Y00297154
X00765825Y00256524
X00746758Y00228031
X00743671Y00222754
X00749782Y00217984
X00759882Y00212904
X00748839Y00187471
X00743326Y00192372
X00728898Y0020257
X00724037Y00197767
X00766383Y00171852
X00779475
X00785559Y00171892
X00817575Y00171978
X00823659Y00172018
X00826512Y00193634
X00816221Y00193576
X00855675Y00171852
X00861759Y00171892
X00887001Y00170002
X00893775Y00171852
X00899859Y00171892
X00902001Y00140001
X00937001Y00130001
X00942001Y00100001
X00917001Y00110001
X00874429Y00111122
X00864256Y00111168
X00853098
X00799474Y001175
X00791382Y00118954
X00802001Y00140001
X00713257Y00134142
X0069115Y00133226
X00677001Y00150001
X00667001
X00657001
X00652001Y00160002
X00725838Y00105429
X00977001Y00110001
X00987001
X01007001
X01012859Y00115376
X01018549Y00116247
X01018466Y00110207
X01027675Y00115429
X01033403Y00115293
X01040554Y00115326
X0104058Y0013426
X01030428Y00134335
X01027001Y00150001
X01027426Y00160493
X01038069Y00160451
X01027387Y00201439
X01030921Y00207659
X01022087Y00209845
X01010853Y002098
X0100452Y00209771
X01012751Y0020315
X01003245Y00186557
X00987001Y00190002
X00982001Y00200002
X00977001Y00210002
X00991263Y00235164
X00991503Y00242147
X00974099Y00257189
X00983574Y00281426
X01014915Y0027818
X01021755Y00277866
X01027654Y00277615
X01034576
X01041209
X01046291Y00273971
X01042369Y00337181
X01040339Y00368834
X01008338Y00369593
X0100917Y00412978
X01009068Y00425236
X00992648Y00415689
X00983525Y00412074
X00976627Y0040956
X00968944Y00408492
X00970164Y00413902
X00973073Y00419281
X00975113Y00436989
X00982019Y00437268
X00982948Y0044242
X00978606Y00445858
X00974184Y0045467
X00986854Y004547
X00988676Y00437673
X01012208Y00454389
X01019604Y00447022
X01047246Y00447073
X01043833Y00452105
X01047553Y00457034
X0104382Y00461765
X01046615Y00467066
X01044939Y00472021
X01047553Y00477034
X01043759Y00441964
X01045703Y00412065
X00960723Y00469396
X00934524Y00475258
X00899826Y00475904
X0089169Y00475858
X00857522Y00407498
X00858464Y00402069
X00862843Y00399173
X00850652Y00399913
X00854468Y00394266
X00942161Y00240886
X00948866Y0022548
X01003065Y00143413
X01007001Y00090001
X01060818Y00133743
X01065387Y00148165
X01071076
X01080598Y00148066
X01086287
X01095272
X01101037
X0112243Y0015106
X01134215Y00141305
X01137001Y00130001
X01127001Y00110001
X01117001
X01112001Y00100001
X01117001Y00090001
X01090921Y00111812
X01056076Y00148165
X01050424Y00148201
X01062001Y00160002
X01065616Y00220766
X01072761Y00217747
X01110549Y00210531
X01115202Y00206613
X01120295Y00209845
X01113309Y00199336
X0111613Y00246416
X0112813
X0114013
X0115213
X01164131Y00246418
X01176131Y00246419
X01188131
X01200131
X01212131
Y00259419
X01200131
X01188131
X01176131
X01164131Y00259418
X0115213Y00259417
X0114013
X0112813
X0111613
Y00272416
X0112813
X0114013
X0115213
X01164131Y00272418
X01176131Y00272419
X01188131
X01200131
X01212131
Y00285419
X01200131
X01188131
X01176131
X01164131Y00285418
X0115213Y00285417
X0114013
X0112813
X0111613
X01072001Y00280002
X01059706Y00273076
X01053254Y00273523
X01051955Y00343955
X01070864Y00369033
X01104104Y00362861
X0112813Y00368723
X01133649Y00384019
X01139893Y00384018
X01162328Y00384162
X01162422Y00363306
X01172001Y00360002
X01177001Y00370002
X01177513Y00332756
X01171748Y00332794
X01229602Y00341625
X01301302Y00338958
X01302012Y00354561
X01319449Y00353942
X0133077Y00357684
Y0035014
Y00343291
Y00366126
Y00374209
Y0038319
X01331105Y00390216
X01331025Y00396702
X01337869Y0039708
X01345385Y00398375
X01344926Y00386987
X0134684Y00409034
Y00417399
X01341095Y00417949
X01335818Y00417896
X01330897Y0042328
X01334865Y0044969
X01348119Y00452979
X01345514Y00460628
X01348359Y00465348
X0134853Y00470805
X01314618Y00476665
X01291125Y00475802
Y00470802
Y00465802
Y00460802
X01274498Y00455765
X01266748
X01258998
Y00444065
X01266748
X01274498
Y00432365
X01266746Y00432431
X01258998Y00432365
X01266748Y00420515
X01277923Y00410475
X012803Y00405675
X0128396Y00387946
X01283795Y00375965
X01276347Y00370412
X01342001Y00360002
X01392001
X01392852Y0036558
X01392891Y00371345
X01392332Y00382824
X01392001Y00400002
Y00420002
X01392323Y00456419
X0139253Y00463585
X01274498Y00467465
X01266748
X01258998
X01235912Y00465603
X01239505Y0046074
X0123555Y00455577
X01237061Y00449943
X01243167Y00445815
X01242012Y00435966
X01218707Y00430604
X01219016Y00421583
X01198618Y00422183
X01197213Y00436708
Y00445915
X01197204Y00454827
X01197213Y00463676
Y00472947
X0117404Y00472108
Y00467108
Y00461965
Y00456899
Y00451797
Y00446737
Y0044172
Y0043666
Y00431558
Y00421898
X01174625Y00412436
X01169161Y00406687
X01144104Y00406966
X01141625Y00414696
X01131376Y00409213
X01125984Y00409281
X01120456Y00409326
X01106626Y00412584
X0109615Y00416873
X01096119Y00422406
X01096219Y00427981
Y00433391
X01096223Y00438583
X01096285Y00447915
X01106151Y00455352
X0111557Y00462121
X01121125Y00461863
X01126457
X01133837Y00461586
X01134455Y0046855
X01133695Y00473733
X01120271Y00468471
X01098039Y0046831
X0107162Y0047197
X0106637Y0047008
X0107195Y0046329
X01078299Y00429543
X0107838Y00424049
X01085949Y00426854
X01085135Y00419281
X01080993Y00414677
X01084228Y00406032
X01056174Y00409485
X01049655Y00408547
X01051073Y00413968
X01057715Y004185
X01062129Y00429128
X0111726Y00424069
X01135422Y00424259
X0115035Y00422345
Y00432345
X0115017Y00447636
X01158967Y00443846
X01160301Y00462463
X01150662Y00462543
X01135105Y00445788
X01118344Y0044597
X01126531Y00435055
X01163302Y00427783
X0117404Y00477108
X01219593Y00470479
X01207733Y00403844
X01277001Y00270002
X01292001Y00280002
X01301765Y00289664
X01313733Y0026588
X01330209Y00267932
X01297001Y00250002
X01287001
X01292001Y00240002
X01302001
Y00220002
X01297001Y00210002
X01307001
X01317001
X01327001
X01302001Y00200002
X01292001
X01282001
X01272001
X01277001Y00190002
X01282001Y00180002
X01277001Y00170002
X01282001Y00160002
X01277001Y00150001
X01282001Y00140001
X01272001
X01267001Y00130001
X01277001
Y00110001
X01287001
X01297001
X01307001
X01317001
X01327001
X01337001
X01347001
X01352001Y00120001
X01362001
X01357001Y00130001
X01367001
X01347001
X01337001
X01342001Y00140001
X01352001
X01357001Y00150001
X01352001Y00160002
X01327001Y00170002
X01317001
X01307001Y00130001
X01322001Y00120001
X01332001
X01342001
Y00100001
X01332001
X01322001
X01312001
X01302001
X01292001
X01282001
X01272001
X01267001Y00110001
X01257001Y00130001
X01247001
X01217001
X01207001
X01197001
X01187001
X01182359Y00136936
X01202001Y00140001
X01187001Y00110001
X0118511Y00176753
X01193624Y00190962
X01180877Y00207686
X01167889Y00159794
X01156596Y00151158
X01248374Y00213539
X01248103Y00222232
X01282001Y00220002
X01287001Y00230002
X01282001Y00240002
X01377001Y00250002
X01387001
X01392001Y00240002
X01377001Y00230002
X01382001Y00300002
X01392001
X01387001Y00310002
X01392001Y00320001
Y00340002
X01372001Y00300002
X01392001Y00120001
Y00100001
X01347001Y00090001
X01337001
X01327001
X01317001
X01291125Y00480802
Y00485802
Y00490802
Y00495802
X01284656Y00500487
X01279746Y00503806
X01266748Y00491015
Y00479165
X01274498
X01258998
X01241653Y00496277
X0124587Y00501909
X0121892Y00496917
X01219087Y00488088
X01219141Y00479603
X01197175Y00481856
X01197204Y00490827
X01197488Y00497315
X01198144Y00505345
X01208173Y00505554
X01210546Y00530491
X01209876Y00547409
X01201674Y00547009
X01203257Y00552344
X01203307Y00557971
X01209402Y00557487
X01191812Y00559385
X01185804Y00558376
X011859Y00564998
X01194328Y00570437
X01200319Y00568656
X01209622Y0059647
X01209771Y00607483
X01219469Y0062726
X01233491Y00589021
X01234137Y0057448
X01233318Y00541951
X01234041Y00531171
X01230951Y00522659
X01260022Y00522232
X01266753Y00520955
X01253667Y0053223
X01262776Y00552199
X0125829Y00557089
X01267398Y00557089
X01268298Y00581924
X01277674Y00573928
X01259708Y00593726
X0125266Y0059368
X01264876Y00616609
X01271032
X01283795Y00614566
X01279487Y00625998
X01279525Y00631763
X01266496Y00639291
X01271896Y00653849
X01287195Y00656481
X0129296Y00656442
X01303391Y00648758
X01303353Y00642993
X01325431Y00626728
X01333215Y00629425
X01292001Y00680002
Y00720002
X01302001
X01302066Y00812418
X01307625Y00812262
X01292626
X01287068Y00812418
X01277625Y00812262
X01272067Y00812418
X01262626Y00812262
X01257068Y00812418
X01247625Y00812262
X01242067Y00812418
X01200463Y00817938
X0119251Y00819225
X01184349Y00818976
X01176349
X01168349Y00819064
X01160349
X01160292Y00827134
X01160448Y00832692
X01145938Y00835582
X01140379Y00835738
X01130936Y00835582
X01125378Y00835738
X01115938Y00835582
X01110379Y00835738
X01100936Y00835582
X01095378Y00835738
X01085938Y00835582
X0108038Y00835738
X01070937Y00835582
X01065378Y00835738
X01061971Y00840919
X01055938Y00835582
X0105038Y00835738
X01056817Y00813057
X01075777Y00845098
X01091327Y00845203
X01091295Y00872451
X01085737Y00872607
X0107959Y00871889
X01071883Y00872
X01102504Y0086815
X01129089Y00872428
X01140285Y0087367
X01148607Y00873755
X01155989Y00871851
X01164666Y00872345
X01172687Y00872632
X01180005Y00872516
X01188391Y0087248
X0119652Y00872
X01252001Y00860002
X01262001
X01282001Y00840002
X01292001
X01302001
X01362001
X01357001Y00850002
X01352001Y00860002
Y00800002
X01362001
X01212001Y00740002
X01187001Y00710002
X01182001Y00700002
X01167001Y00690002
X01175896Y00665588
X01176952Y00638405
X01169078
X01155621Y00648413
X01146615Y00629296
X01142001Y00620002
X01128725Y00626381
X0107449Y00626794
X010812Y00656044
X01091392Y00656168
X01098589Y00654255
X01081881Y00676439
X01075426
X01062141Y00673978
X01087001Y00710002
X01086954Y00722497
X01087581Y00747249
X0107801Y00746024
X01069872Y00748154
X01104948Y00789789
X01111302Y00791278
X01123905Y00789184
X01147001Y00750002
X0116101Y00586604
X01169137
X01164206Y00559819
X01159308Y0056366
X01154119Y00559828
X01144Y00560301
X01134751Y00559817
X01129065Y0055995
X01119197Y00561297
X01113676Y00560474
X01109226Y00565759
X01113901Y0057481
X01094508Y00564146
X01089264Y00537749
X01084189Y00533646
X01072588Y00532498
X01073808Y0053815
X01058849Y005322
X01065826Y00500573
X01068307Y00494023
X01079842Y00494362
X01094018Y00495626
X01098145Y00501009
X01093704Y00506302
X01098511Y00510574
X01099625Y00488674
X01103962Y0048385
X01121702Y00481381
X01135284Y00481457
X01134279Y00497481
X01116116Y00497291
X01125388Y00508277
X011172Y00519192
X01133961Y0051901
X01145634Y00524975
X01149148Y00537828
X01139207Y00537875
X01133155Y00537473
X01123251Y00533658
X01112083Y00537571
X01104468Y00535999
X01105977Y00526232
X01151051Y00511052
X01150806Y00505117
X01175242Y00506503
X01173558Y00511688
X01172158Y00518964
X01174185Y00524399
X01173908Y00532191
X01175335Y0053751
X01180556Y00537648
X01183097Y00548435
X0117404Y00492194
Y00487108
Y00482108
X01165403Y0047837
X01392001Y00480002
X01391693Y00494669
X01391864Y00500127
X01383172Y00519615
X01386583Y00525975
X01382465Y00530744
X01387648Y00534791
X01368263Y00539883
X01362657Y0053992
X01369917Y00521417
X0138824Y00585956
X01009126Y00578424
X0100081Y00575408
X00998593Y00569396
X01000321Y00562747
X00999322Y00555947
X00992396Y00555897
X00983044
X00985108Y00524851
X00992902Y00524544
X00972571Y00532233
X0092654Y00533006
X0090988Y00529998
X00907859Y0052493
X00908493Y00518547
X0090801Y00505836
X00909849Y00492474
X00916771Y00499176
X00917664Y00512099
X00891798Y00514991
Y00508491
X00883687Y00508737
X00883798Y00514991
X00875798
X00875687Y00508737
X00875798Y00501991
X00875663Y00495372
X00883793Y00496007
X00883798Y00501991
X00891835Y00495801
X00891687Y00489236
X00891774Y00482737
X00883774
X00875569Y00482459
X0086762Y0047954
X00867422Y00485412
X00867581Y00492733
X00867592Y00499661
X00867602Y00505449
X00867602Y00511949
Y00518449
X00867798Y00528388
X00875798
X00879818Y00535196
X00887818
X00895818
X00895702Y0054737
X00887768Y00547348
X0087982Y00547178
X00875698Y00554396
Y00560896
X00875687Y00567236
X00875798Y00573491
Y00579991
X00867558Y0057637
X00867602Y00570449
X00867602Y00563949
X00867698Y00554396
X00851966Y00557496
X00851859Y0056393
Y0057043
X00851825Y00577705
X00851859Y0058343
Y0058993
X00851981Y00597833
X00851901Y00602859
X00859831Y00599824
X00867811Y00603009
X00867912Y00608056
X00867711Y00595714
X00867602Y00589949
X00867533Y00584403
X00883698Y00586483
Y00592983
X00884555Y00600618
X00880289Y00614039
X00887861Y00617739
X00907193Y00596454
X0090714Y0059095
X00908493Y00577047
Y00564047
X0090883Y00552472
X00899764Y00560483
X00891698Y00560896
X00891687Y00567143
X00883698Y00560896
X00883687Y00573737
X00843505Y00579989
X00843664Y00586889
X0083606Y00586817
X00835664Y0059299
X00835798Y00599491
X0082788Y00599619
X00827097Y00586806
X0082784Y0058085
X00827687Y00573737
Y00567236
X00827764Y00560483
X00835619Y00560258
X00835687Y00567236
X00843764Y00566983
Y00560483
X00839644Y00547183
X00831721Y00547385
X00823644Y00547183
X00823818Y00535196
X00831741Y00535145
X00839818Y00535196
X00835798Y00528388
X00835618Y00522789
X00827682Y00522528
X00819794Y00523144
X00810862Y00525281
X00810968Y00531332
Y00518332
X00810764Y00512074
X00809679Y00507156
X00811113Y00499225
X00811259Y00492085
X00801894Y00495919
X00801836Y00502474
X00803562Y00485887
X0082759Y00481956
X00828658Y00489119
X00827966Y00497525
X00827725Y00503047
X00827687Y00508737
X00835687Y00508737
X00835663Y00501872
Y00495372
X00835799Y00482372
X00843799Y00483007
X00843785Y00489877
X00851859Y0049243
Y0048593
X00852008Y00499967
X00851859Y0050543
X00851807Y00511099
X00851859Y0051843
X00852249Y00528783
X00843578Y00522291
X00810968Y00550832
X00810937Y00557776
X00810966Y00565877
X0081088Y00571135
X00810968Y00576832
X00810929Y0058337
X00810953Y00588525
X00810583Y0059644
X00810497Y00601678
X00804913Y00595413
X00819698Y00573896
X00819687Y00567236
X00821047Y00561884
X0078043Y00562801
Y00557406
X00776867Y0056733
X00771024Y00570972
X00774543Y00579577
X00751442Y00576464
X00745505Y00565479
X00751396Y00558325
X00745396Y00552325
X00739396
Y00558325
X00733396Y00564325
X00734455Y00571373
X00715335Y00573909
X00714526Y0056785
X0070324Y00568158
X0070248Y00573689
X00696877Y00574086
X0070248Y0058019
X00702471Y00586645
X0070898Y00586689
Y0058019
X00708981Y0059319
Y00606189
X00715481
Y0059969
X00702481Y0059969
Y0060619
X00695981Y00606189
Y0059969
Y0059319
X00689481Y0059319
X00682981Y0059319
Y0059969
Y00606189
X00676481
Y0059969
Y0058019
X00682059Y0058094
X00682981Y00573689
Y00567189
X00689481
X00676481
X00669452Y00574205
X00663481Y0058019
X00656981Y0058019
Y00573689
Y0056069
X00663019Y0056038
X00663097Y00566459
X00663481Y0055419
X00656981Y0055419
Y0054119
X00669981
Y0054769
Y00534689
X00663454Y00534571
X00656981Y0052169
X00663481Y0051519
Y0050869
X00656981
X00660225Y00494675
X00668242Y00487212
X00668772Y0047988
X00675151Y00478885
X00677654Y00483541
X00685362Y00481658
X00693081Y0048032
X00698405Y00481381
X00704405
X00713232Y00479378
X0071411Y00484488
X0071548Y0049569
X0070898
X00708905Y00501808
X0070248Y0049569
X00689481
X00691539Y00487364
X00689481Y00508689
X0069557Y00508615
X00702394Y00508699
X0069598Y00515189
X00689481
X00682954Y00515179
X00676481Y0051519
X00669981
X0066998Y0050219
X00676587Y00503956
X0067648Y0049569
X00661385Y00480254
X0065636Y00480934
X00727539Y00481364
X00733556Y00480498
X00746584Y00481519
X00759992Y00484801
X00751402Y00493543
X0075256Y00504337
Y00511519
X00762915Y00512063
X00763189Y00507027
X00770225Y0050996
X00768334Y0051484
Y00521164
X00764497Y00525505
X00774796Y00526219
Y00532543
X00777707Y00539847
X00771383Y00540274
X0077125Y00546741
X0076459Y00542069
X00762498Y00550929
X00784135Y0054643
X00784971Y00539166
X00751657Y00535253
X00740284Y00535263
X0074557Y00529359
X00733401Y00529459
Y00517519
Y00511519
X00727531Y00511376
X00715868Y00508643
X00715887Y00515664
X00709357Y00515432
X00714786Y00523
X00715481Y00528189
X00708981
X00702481
Y00534689
X00708918Y0053469
X00715481Y00534689
X00715492Y00540897
X00715446Y00548188
X00708945Y0054776
X00708981Y0055419
X00702481
Y0054769
X00689481
X00689351Y00553886
X00682981Y0054769
Y0054119
X00683008Y00534919
X00682981Y0052819
X00689481Y0054119
X00695708Y00535299
X00702045Y00522092
X00739401Y00522361
X00740559Y00516361
X00751442Y00522472
X0077039Y00502874
Y00497204
X00734559Y00498361
X00733396Y00546325
X00727648Y00547286
X0070898Y0056069
X00690216Y0058079
X00669981Y00586689
X00663481Y0058669
X00656981Y00606189
X00700954Y00631518
X00727026Y00632064
X00741779Y00632643
X00738069Y0062718
X00732597Y00609823
X00751366Y00607525
Y00601525
X00745396Y00594325
X00739396
X00742641Y00647626
X00738566Y00651192
X00740855Y00659734
X0073678Y006633
X00731864Y00667114
X00727752Y00663006
X00723678Y00666572
X00738843Y00670778
X00745233Y00669431
X00751569Y0066912
X00760243Y00669282
X00766943Y00669088
X00771776Y00653516
X00768354Y0064922
X00762747Y00644781
X00762238Y00637128
X00730706Y00646553
X00731379Y00681617
X00764396Y00692188
X00780758Y00703887
X0079016Y00714554
X00806403Y00704532
X00818205Y00703877
X00802336Y00691541
X00799841Y00738329
X00806218Y00737747
X00818365Y00738961
X00828574Y00739056
X00834637Y00737504
X0084619Y00724969
X00862804Y007275
X00862744Y00733087
X00860059Y00738848
X0086827Y00739697
X0086952Y00723144
X0086958Y00717557
X00869651Y00712109
X00869711Y00706522
X00869789Y00700746
X0086985Y00695159
X00869759Y00689451
X00869819Y00683864
Y00678291
X0086988Y00672704
X00881166Y00668078
X00890442Y0066812
X00889641Y00674627
X00889254Y00680966
X00906249Y0067741
X00906194Y00669057
X00911394Y0067304
X00916483Y0067741
X00916538Y00668725
X00932411Y00673438
X00932105Y00678839
X00933004Y00664133
X00924744Y00655955
X00948908Y00652541
X00948326Y00639232
X00954312Y0063882
X00966416Y00638559
X00979795Y00630213
X00979726Y00623052
X00981614Y00617907
X00978833Y00613442
X00982528Y00608501
X00993479Y00600756
X00998663Y00615339
X01000877Y00630977
X01009089Y00630169
X01017Y00630977
X01033386Y0063049
X0104488Y00646642
X01037898Y00681019
X01037419Y00694812
X0098797Y00694664
X00983549Y00676614
X0097716Y00668776
X00977987Y00649907
X00965779Y00680999
X00965521Y00686988
X00940731Y00687344
X00938255Y00710565
X00900293Y0070999
X00902439Y00691337
X00898579Y00766192
X00898124Y00785293
X0090742Y00797086
X00918739Y00812418
X00924297Y00812262
X0093374Y00812418
X00939298Y00812262
X00948739Y00812418
X00954297Y00812262
X00951009Y00785196
X00945588Y00783562
X00935041Y00786091
X00935365Y00791767
X00941314Y00792534
X00879305Y00797216
X00860448Y00787497
X0085567Y0081723
X0087914Y00835861
X00903908Y00835499
X00905432Y00870666
X00912597Y00866328
X00881654Y00865352
X00876725Y0087014
X00797001Y00850002
Y00830002
X00797956Y00804364
X00767001Y00830002
X00772001Y00840002
X00762001
X00752001
X00747001Y00850002
X00757001
X00767001
X00732001Y00840002
X00727001Y00830002
X00714754Y00829719
X00707379Y00829663
X0070109Y00831224
X00694436Y0083908
X00684596Y00838601
X00679117Y00838868
X00673054Y00831102
X00657708Y00831052
X00666668Y00809625
X00674414Y00803312
X00681245Y00811156
Y00817433
X00681298Y00823336
X00689638Y00847012
X00689292Y0079618
X00695195Y00796317
X00701191Y0079621
X00684385Y00790886
X0068107Y00771249
X00674488Y00773122
X00666381Y00773571
X00666212Y00767396
X00670106Y00762061
X00666836Y00756122
X00682587Y00728118
X00713774Y00735086
X00713714Y00740673
X0071357Y00746376
X0071351Y00751963
X00713626Y00757358
X00713566Y00762945
X0070371Y00765903
X0070365Y0077149
X00726278Y00797209
X00737Y00798482
X0074325Y00737766
X00767894Y00737772
X0077442Y0073797
X00780767Y00737736
X00758089Y00714054
X00749241Y00715377
X00702001Y00660002
X00831815Y00614696
X00836678Y00612291
X00843869Y00612801
X00843664Y00599888
X00900231Y00486063
X00926661Y00490581
X00952001Y00500002
X00952503Y004816
X01047331Y00493527
X00991474Y00724772
X00981806Y00747291
X00973403Y00747249
X00978702Y00835738
X0098426Y00835582
X01003263Y00833943
X01008821Y00833787
X01019085Y0083477
X01019049Y00829163
X0101563Y00823476
X01015594Y00817869
X0103222Y00812521
X01041061Y00814988
X01040965Y00820696
X01045179Y0086068
X01045215Y00866286
X01019145Y00867046
X01013586Y00867202
X00975409Y00853648
X00969851Y00853804
X01046476Y00779836
X00629833Y00768359
X00608086Y00763487
X00605224Y00756903
X00598186Y00766732
X00581936Y00764364
X00580471Y00757267
X00567939Y00767961
X00556152Y00775251
X00556016Y00798213
X00542001Y00820002
X00537001Y00830002
X00532001Y00840002
X00522001
X00517001Y00850002
X00535438Y00857549
X00542086Y00857297
X00497001Y00830002
X00487001
X00482001Y00840002
X00462001
X00452001
X00447001Y00850002
X00457001
X00467001
Y00810002
X00477001
X00491107Y00805914
X00490989Y00816131
X00513874Y00805776
X00519377Y00755892
X00517551Y00745638
X00523138Y00745698
X00528158Y00741972
X00533745Y00742033
X00537989Y00738953
X00542595Y00741441
X00548182Y00741502
X00557645Y00739482
X00563231Y00739542
X0056843Y0073932
X00584828Y0073725
X00589557Y00726643
X00591672Y00721946
X00595707Y00725305
X00596059Y00717512
X0059612Y00711925
X00592128Y00708156
X00592188Y00702569
X00588158Y00697867
X00595535Y00693306
Y0068733
X00590712Y0068384
X00590772Y00678253
X00593701Y00672193
X0058925Y00667827
X00592162Y00657108
X00596253Y00660701
X00600355Y00657545
X00605942Y00657605
X0059748Y00652438
X00594654Y00647646
X00589068Y00647585
X00578049Y00643647
X00578048Y00638573
X00580757Y00634351
X00586344Y00634412
X00578883Y00627991
X00573297Y00627931
X0056786Y00632321
X00561634Y00628516
X00557749Y0063244
X0055328Y00629924
X00547693Y00629863
X00542736Y00627214
X0053786Y00632749
X00531512Y00630302
X00527135Y00626352
X00526001Y00619814
X00514911Y00620288
X00514756Y0061473
X00506517Y00610082
X00506361Y00604524
X00509135Y00598689
X00503054Y00598849
X00497058Y0059896
X00490842Y00599153
X00485496Y00599302
X0048003Y00599265
X00474472Y00599421
X00477413Y00603933
X00477569Y00609491
X00474164Y00632161
X00487928Y00631566
X00498004Y00631644
X00502616Y00628513
X00508203Y00628573
X00512342Y00632258
X0051796Y00632399
X00514027Y0060217
X00521947Y00598413
X00527405Y00599901
X00531234Y0060458
X00534787Y0059842
X00539505Y00601663
X00542334Y00606586
X00549678Y0060664
X00554874Y00603866
X00550413Y00598997
X00544157Y00598426
X00620405Y00595381
X00626405
X00625623Y00588589
X00631623Y00588596
X00638531Y00588414
X00638429Y00576478
X00632405Y00577381
X00626405
X00625556Y00582498
X00626405Y00571381
X00620405
X00619556Y00576498
X00619539Y00559364
X00625539
Y00553364
X00620218Y00552696
X00620405Y00541381
Y00535381
X00626405
X00625425Y00529545
Y00523545
X00638531Y00511582
X00650481Y0050869
Y0050219
Y0052169
X00649706Y00527701
X00650481Y0053469
Y0054119
X00643597Y00547842
X00637539Y00553347
X00631539Y00553364
Y00559364
X00637539
X00640942Y00566237
X00632405Y00571381
X00632061Y00607029
X00650481Y00606189
Y0059969
Y0059319
X00639194Y00644887
X00633607Y00644827
X00631883Y0067439
X00626296Y00674329
X00623226Y00681697
X00617639Y00681637
X00615525Y00691366
X00609938Y00691306
X006112Y00704164
X00617373Y00714056
X00617328Y00735649
X00630215Y00735382
X00639317Y00735049
X00636771Y00719674
X00636331Y00705422
X00632531Y00681669
X00609337Y00632423
X00599634Y00500592
X00620405Y00493381
X00625721Y0049268
X00626422Y00486498
Y00480515
X00632283Y00480621
X00638099Y0048084
X00643614Y00480973
X00650348Y00480551
X00632405Y00487381
X00620405Y00481381
X0057632Y0049021
X0054755Y00494824
X00542565Y00494417
X0053755Y00494824
X00526859Y00494378
X00519136Y0049534
X00512761Y0050205
X00501888Y00498875
X00496281Y00498912
X00429231Y00504273
X00409852Y00498165
X00391707Y00493115
X00377751Y00491379
X00376992Y00500434
X00382594Y0049987
X00367077Y0050057
X00345055Y00497454
X00336031Y00496876
X00330214Y00497036
X0031457Y00509026
X00303201Y00509494
X00305601Y0048364
X003425Y00515109
X00349326Y00515013
X00376038Y00518062
X00377081Y00547619
X00375502Y00564288
X00369785Y00564201
X00360379Y00564431
X00354663Y00564344
X00355224Y00558245
X00363602Y00556344
X00340379Y00564431
X00334663Y00564344
X00330214Y00568748
X00325379Y00564431
X00319663Y00564344
X00316453Y0056903
X00310291
X00310197Y00592462
X0030448Y00592375
X00294843Y00593877
X00295753Y00601234
Y00606903
X00315268Y00596497
X0031948Y00592375
X00325197Y00592462
X00329679Y00595842
X0033448Y00592375
X00340197Y00592462
X00345102Y0059608
X0035448Y00592375
X00360197Y00592462
X0036948Y00592375
X00375197Y00592462
X00377415Y00619752
Y00625421
X00377379Y00638734
Y00644403
X00377358Y00656965
Y00662634
X00383272Y00676288
X00392632Y00678143
X0039258Y00683973
X00389501Y00688774
X00406139Y00685561
X00412694Y00685166
Y00691665
X00419194
Y00685166
X00425731Y00685292
X00432257Y00685333
X00438693Y00678666
X00444615Y00678582
X00445319Y00672842
X00451546Y00672082
X00452706Y00678165
X00458195Y00678666
X00464695
X00464942Y00672579
X00458631Y00672496
X00451753Y00664719
X00444821Y00665695
X00436036Y00662352
X00430367
X00438693Y00672166
X00425694Y00678666
X00412694
X00406055Y00678091
X00406336Y00671876
X00399694Y0067218
Y00678666
X00393194Y0067218
X00399694Y00665666
X00405874Y00665219
X00406194Y00704665
Y00711165
Y00717665
X00406253Y00724042
X00412391Y0073045
X00418974Y00730145
X00419194Y00724165
Y00717665
X00412694
Y00711165
X00425549Y00710961
X00425539Y0070472
X00431954Y00704557
X00431829Y00710961
X00432007Y00717638
X00438693Y00717665
X00438512Y00730116
X00438551Y00736604
X00432524Y00724368
X00418974Y00736645
X00421528Y00753552
X00399486Y00736692
X00398788Y00731279
X00399936Y00712077
X00393436
X00445196Y00711165
Y00698165
X00451408Y00697926
X00457928Y00697991
X00464428
X00464899Y00691075
X004584
X00451696Y00685166
X00445196
Y00691665
X0047205Y00680072
X00478088Y00674083
X00478148Y00668496
X00478736Y00663178
X00478796Y00657591
X00482369Y00653267
X00482047Y00677615
Y00682615
Y00687615
Y00702615
Y00707615
Y00712615
X00481947Y00718281
X00490026Y00727768
X0049578Y00737261
X00502711Y00746047
X00508298Y00746107
X00542027Y0075866
X00547614Y00758721
X00582001Y00820002
X0062997Y00798327
X00650648Y00830984
X00607701Y00865275
X004357Y00834768
X00429983Y00834681
X00420698Y00834768
X00414982Y00834681
X00412001Y00840002
X00422001
X00402001
X00399983Y00834681
X004057Y00834768
X00390698
X00384982Y00834681
X00382001Y00840002
X00392001
X00372001
X00369983Y00834681
X003757Y00834768
X00360698Y00834768
X00354982Y00834681
X00352001Y00840002
X00362001
X00342001
X00339983Y00834681
X003457Y00834768
X00330698
X00324982Y00834681
X00322001Y00840002
X00332001
X00315649Y00834869
X00309822Y00835028
X00303318Y00835042
X00297001Y00850002
X00315649Y00859915
X00321365Y00860002
X00451113Y00815315
X00447001Y00810002
X00457001
X00442001Y00800002
X00452988Y00649634
X00457387Y0064505
X00406907Y00601563
X00393095Y00605688
X00350277Y00619424
Y00625093
X00351802Y00631778
X00354Y00638614
Y00644283
X00354507Y00656827
Y00662496
X0034337Y00664576
X00337654Y00664489
X00323856Y0066466
X0031814Y00664573
X00303927Y00664697
X0029821Y0066461
X0028546Y00664724
X00279743Y00664637
X00267406Y00662775
X00269715Y0063419
X00264438Y00598945
X0025771Y00599015
X00269923Y00574794
X00285768Y00562039
X00271902Y00542406
X00262606Y00532266
X00270647Y00521458
X00410721Y00543664
X00327001Y00630002
X00257667Y00692005
X00253813Y00686977
X0024595Y0068973
X00232054Y00689437
X00228429Y00662775
X00237997Y00662765
X00247361Y00662701
X002472Y00636081
X00237836Y00636145
X00228268Y00636155
X00218253Y00636198
X00208485Y00635997
X00198263Y00635748
X00198596Y00663979
X00208645Y00662617
X00218413Y00662818
X00237829Y00613579
X00247001Y00610002
X00244923Y00574794
X00239554Y00574794
X00232909Y00573543
X00236621Y00566046
X00236574Y0055561
X00187001Y00570002
X0017344Y00549898
X00166223Y00537938
X00136652Y00538192
X00139161Y00560684
X00119582Y00553242
X00099779Y00554825
X00099428Y00544809
X00072001Y00540002
X00022001
X00012001
X00017001Y00530002
X00008463Y00503331
X00011945Y00581695
X00023689Y00582506
X00030084Y00582236
X00036874Y00581809
X00043945Y0058168
X00047001Y00670002
X00042001Y00680002
X00047001Y00690002
X00046597Y00706038
X00040502Y00708798
X00097001Y00710002
X0012612Y00713551
X00177001Y00730002
X00197901Y00788906
X00239342Y00790839
X00232001Y00840002
X00222001
X00217001Y00850002
X00207001
X00202001Y00860002
X00202549Y00871223
X00194256Y00864381
X00182001Y00860002
X00167001Y00850002
X00157001
X00162001Y00840002
X00172001
X00177001Y00830002
X00182001Y00820002
X00202001Y00840002
X00152001
Y00860002
X00112001
X00077001Y00870002
X00067001
X00057001
X00047001
X00037001
X00042001Y00860002
X00059292Y00826618
X00066916Y00826503
X00072001Y00820002
X00082001
X00077001Y00830002
X00087001
X00092001Y00800002
X00087001Y00790002
X00097001
X00122001Y00820002
X00142001
X00151448Y00796835
X00052001Y00800002
X00042001
X00031095Y00770103
X00025132Y00770227
X00019325Y00770476
X00013486Y007706
X00008176Y00770631
X00102001Y00640002
X00124501Y00607881
X00177001Y00610002
X00148358Y00516593
X00147001Y00510002
X0012425Y00513319
X00126934Y00486264
X00103159Y00481888
X00235649Y00859915
X00241365Y00860002
X00227001Y00870002
X00132001Y00880002
X00122001
X00112001
X00102001
X00092001
X00082001
X00072001
X00062001
X00052001
X00042001
X00007001Y00890002
X00477001
X00487001
X0049235Y00886837
X00492195Y00881278
X00508376Y00881048
X00508531Y00886606
X00913014Y0087694
X00920774
X01044252Y00886591
X01044408Y00892149
X01387001Y00890002
X01392001Y00880002
T02
X0066399Y00042058
X00676812
X00649512
X00583372Y00008844
X00572733Y00008955
X00559355Y00008844
X00353301Y00042396
X00342401Y00042331
X00232367Y00204964
X00220427
X0016681Y0024063
X00150886Y00315231
X00140018
X00132221Y00353418
Y00364692
X00151869Y00354054
X00158001Y00347279
X00161009Y00407361
X00161126Y0041578
X0019338Y00418952
Y00427057
Y00410452
X00217875Y00405909
X00209488Y00439415
X00218728Y004686
X00157367Y00466748
X00157463Y00458297
X00102789Y00425098
Y00416766
X00101823Y00367469
X00092282Y00367638
X00063267Y00343101
X00063332Y00334555
X00096396Y00206999
Y00196141
X00227454Y00302616
X0023775Y00302545
X00237955Y00322
X00227265
X00243024Y00348223
X00274454Y0038822
X00283127
X00291433
X00287363Y00402337
X00287232Y00411574
X00275575
X00275839Y00402415
X00291282Y00456922
X00312197Y00475509
X00341696Y00466199
X00356696
X00371696
Y00451199
Y00436199
X00356696
Y00451199
X00341696
Y00436199
X00344762Y00378655
X00394827Y00389971
X00407005Y00341532
X00414999Y00341431
X00443595Y00362
X00425425Y00286708
X00413504Y00286964
X0035034Y00250836
Y0024132
X00340115
Y00250563
X002905Y00291594
X00281516Y00291997
X00273495Y00285807
X00264861Y00285925
X00400691Y00456371
X00408631Y00456209
X00401301Y00477588
X004615Y0046075
X0047175
X00482
Y00441532
X0047175
X004615Y00441449
X0059132Y00432349
X00646391Y00227051
X00650908Y0017764
X00548222Y00178762
X00454035Y00095275
X00454073Y00085069
X0072471Y000869
X00727134Y00162812
X0070219Y00154886
X00666947Y00162139
X00674885Y00223654
X00718243Y00223225
X00743409Y00204805
X00735503Y00257149
X00652615Y00257099
X00652494Y00292863
X00801518Y00291261
X00839618
X00877718
X00915818
X0100286Y00279298
X01005672Y00325714
X0101528
X01024211Y0032575
X01046029Y00208226
X00915743Y00170898
X00877723Y0017099
X00839491Y00170864
X00801589Y00170693
X00795074Y00214589
X00817525Y00333198
X00830054Y00347206
X00844787
X00858358
Y00362006
X00844787
X00830054
X00830786Y0037629
X00845518
X0085909
X00983181Y00425241
X00969181Y00111216
X00969343Y00100895
Y00089162
X01088589Y00209302
X01087668Y00279165
X0111517Y00323983
X01121248Y00329975
X01131592
X01061915Y00342199
X01213267Y0032201
X01221163
X01229348
X01228581Y00265918
X01228504Y00256117
X01183168Y0019429
X01361327Y00231133
Y00241714
X0135283Y00273448
X01352845Y00283316
X0135283Y00292914
X0135702Y00310638
X01367774Y0031094
X01380857Y00310869
X01214587Y00403294
X01198804Y00429741
X01239546Y0055627
X01239819Y00563744
X01188001Y00603716
Y00612458
Y0062113
X01176972Y00621182
Y0061251
Y00603768
X01166476Y00603716
Y00612458
Y0062113
X01095541Y00638186
X01084016
X0107299Y00705152
Y00713894
Y00722566
X0106196Y00722618
Y00713946
Y00705204
X01051464Y00705152
Y00713894
Y00722566
X01186191Y00748923
X01212644Y00799173
X00976529Y0072229
Y00713618
Y00704876
X009655Y00704928
Y0071367
Y00722342
X00955004Y0072229
Y00713618
Y00704876
X00888291Y00719018
X00841546Y0066
X00825059
X00809751Y00660106
X00796646Y0066
X00798381Y00776879
X0077871Y00788923
X00772427Y00796002
X0078536Y00795865
X00811843Y00819896
X00756883Y00758623
X00896299Y00866525
X00931379Y00853183
X00931845Y0084216
X00934656Y00561138
X00927404Y00554564
X0103954Y00550216
X01039611Y0053864
X01028029Y00595906
Y00604648
Y0061332
X01017Y00613372
Y006047
Y00595958
X01006504Y00595906
Y00604648
Y0061332
X01013349Y00638199
X01024874
X00546149Y00674182
X00542374Y00685327
X00554874
X00545849Y00696956
X00535374Y00692327
Y00704827
X00524453Y00696856
X00528374Y00685327
X00515874
X00525473Y00674482
X00535374Y00678327
Y00665827
X00553972Y00518833
X00572839Y00530425
X00589762Y00505254
X00483567Y00503985
X00483535Y00495671
X00483465Y00487406
X00443925Y00507188
Y00516416
Y00524518
Y00532342
X00427893Y00531097
Y00539384
X00427558Y00551457
X00418411Y00551478
X004101
X00392376Y00548476
X00392521Y00539384
Y00528502
X00427893Y00522786
X00428157Y00513504
X00354902Y00495493
X00347554Y0055623
X00339622Y00555683
X00348427Y00568009
X0030464Y00555644
Y00547661
Y00539273
Y00530834
X00291303Y0053028
Y00538634
X00291433Y00546884
Y00554648
X00261387Y00568042
X00269384Y00527719
X00262136Y007053
X0031114Y00707273
X00352696Y00745749
X00385659Y00716884
X0038065Y00612767
X00277281Y00804795
X00262016Y00804719
X00261826Y00796935
X00184474Y00811223
X00175674Y0081122
X00154347
X00132533Y00783176
X00124594Y00774976
X00197484Y00745849
X0020823Y0074619
X00204545Y00682827
X00224702Y00683192
X00244698Y00682778
X00248547Y00596154
X0023795Y00596101
X00228149Y00596207
X00252453Y0056819
X00253141Y00556058
X00220268Y00548935
X00210625Y00549009
X0019374Y00557711
X0018403Y00557902
X00164598Y00586765
X0016466Y0059525
X00123051Y00559225
X00109393Y00554468
Y00545462
X001025Y0051644
X00065517Y00523676
X00226951Y00502386
X0023738Y00502467
X00896249Y00875994
T03
X00057Y0014525
Y0015325
Y0016125
X00064Y0015725
Y0016525
Y0017325
Y0018125
X00057Y0017725
Y0018525
Y0019325
X00064Y0019975
Y0013875
T04
X00974099Y00057
X0099575
X00494718Y00016012
X0047498Y00016095
X00039814Y00091786
X00024064Y00083952
X00450949Y00287129
X00457073Y00298263
X00444348Y00298183
X00564719Y00247189
X00583201Y00247245
X00599977
X0085192
X00865614Y00247273
X01048632Y00589263
X01048797Y0060154
X01048859Y00613739
X01061775Y00601447
X01120547Y00610734
X01120757Y0058699
X01120738Y00687252
X01103156
X01138513Y0068713
X01145016Y00698114
X01131182
Y00712588
X01145016Y00712747
X01146477Y00738991
X01134631Y00757671
X01119266Y00767219
X01104232Y00762027
X0110527Y00776194
X01054188Y00774762
X01054014Y00760609
X0120567Y00768381
X01214637Y00777467
X01215151Y00789145
X01228849Y00844456
Y00857801
X0124342Y00844456
X0101116Y00744849
Y00730297
Y00715238
X01011614Y00674668
X00998858Y00674611
X01024229Y00674448
X00924349Y00697389
X00924138Y00711844
X00912741Y00704876
X00957845Y00760149
X00957626Y00773228
X00841844Y00820329
X00684686Y00780352
X00932189Y00616934
X00932058Y00604231
X00931925Y00591251
X00584704Y00785793
X00526391Y00799445
Y00812943
X00276876Y00845168
X00256894Y00845057
X00266711Y00856098
X00256894Y00867703
X002765Y00868
X00277705Y0072255
X002915
X003065
X0029275Y00691698
X0028025Y0069175
X0026775Y00691698
Y00675
X0028025Y00675052
X0029275Y00675
X00185695Y00693728
X00174332Y00708894
X00172983Y0078426
X00198326Y00772308
X00134256Y00815369
X00134309Y00828464
X00029015Y00657458
X00028963Y00642802
Y0060925
X00029015Y00595188
T06
X00057Y00132
Y002065
T07
X003805Y0011675
X003755Y0013175
X003955
X004155
X004355
X004555
X004505Y0011675
X004255
X004055
T08
X00215641Y001835
X00235641
X00291788Y00184007
X00311787
X00331787
X00351787
X00371787
X00391788
X00411787
T10
X00784Y001115
X008094
X008316Y001265
X0085192
X0087224
X0089256
X008824Y001375
X0086208
X0084176
X0082144
X009046Y001115
X0093
X01298Y0069725
X01319Y0077225
X00508Y007625
Y007825
X00488
X00468
Y007625
X00488
X00448
X00428
X00408
X00388
X00388Y007825
X00408
X00428
X00448
X00368
X00348
Y007625
X00368
X00328
Y007825
X00308
X00308Y007625
X00288
X00268
X00268Y007825
X00288
X00248
Y007625
X00228
Y007825
X00078642Y00776289
X00099642Y00851289
T11
X01296102Y00054577
Y00079577
X01362Y00075
Y0005
Y00025
X003044Y0004275
X00279
X002536
X0019775Y000595
X0016275
X00083421Y00326723
Y00352123
X00921244Y00368834
X00946644
X00948118Y0033062
X00922718
X01295544Y00165391
Y00140391
X01362Y001
T13
X000406Y00047294
X00066
Y00072694
X000914Y00047294
T15
X01356Y0078365
X01356Y0082175
X00044Y0082175
X00044Y0078365
T16
X003498Y0009675
X004812
T17
X00932058Y00425587
X004315Y00626
T18
X00135Y0017
X01235
Y0067
X00135Y0067
T19
X00191498Y00367621
X01203347Y00367621
X01237748Y00744129
X00154399
T20
X00066004Y00032311
T22
X00400401Y00267
X0124175
X01207349Y00845
X004375Y00845
T23
X00066Y00016306
T24
X006725Y0084975
X00581
T25
X00150401Y00267
X0099175
X00957349Y00845
X001875
T26
X000231Y00275027
X013769Y00275
Y00561
X000231Y00561027
T28
X0120425Y0003
M30
