G04*
G04 #@! TF.GenerationSoftware,Altium Limited,Altium Designer,26.5.0 (11)*
G04*
G04 Layer_Color=8388736*
G04 Board_Origin=52480313|90551176*
%FSLAX44Y44*%
%MOMM*%
G71*
G04*
G04 #@! TF.SameCoordinates,ECD78B5F-1B61-4D3A-833B-BB89D8050CE2*
G04*
G04*
G04 #@! TF.FilePolarity,Negative*
G04*
G01*
G75*
%ADD96C,0.2000*%
%ADD146R,0.8250X0.7000*%
%ADD147R,0.7000X0.8250*%
%ADD148R,9.4150X2.8000*%
%ADD149R,0.8005X5.6852*%
%ADD150R,1.0000X1.1000*%
G04:AMPARAMS|DCode=151|XSize=0.7mm|YSize=0.7mm|CornerRadius=0.125mm|HoleSize=0mm|Usage=FLASHONLY|Rotation=0.000|XOffset=0mm|YOffset=0mm|HoleType=Round|Shape=RoundedRectangle|*
%AMROUNDEDRECTD151*
21,1,0.7000,0.4500,0,0,0.0*
21,1,0.4500,0.7000,0,0,0.0*
1,1,0.2500,0.2250,-0.2250*
1,1,0.2500,-0.2250,-0.2250*
1,1,0.2500,-0.2250,0.2250*
1,1,0.2500,0.2250,0.2250*
%
%ADD151ROUNDEDRECTD151*%
G04:AMPARAMS|DCode=152|XSize=0.7mm|YSize=0.7mm|CornerRadius=0.125mm|HoleSize=0mm|Usage=FLASHONLY|Rotation=90.000|XOffset=0mm|YOffset=0mm|HoleType=Round|Shape=RoundedRectangle|*
%AMROUNDEDRECTD152*
21,1,0.7000,0.4500,0,0,90.0*
21,1,0.4500,0.7000,0,0,90.0*
1,1,0.2500,0.2250,0.2250*
1,1,0.2500,0.2250,-0.2250*
1,1,0.2500,-0.2250,-0.2250*
1,1,0.2500,-0.2250,0.2250*
%
%ADD152ROUNDEDRECTD152*%
G04:AMPARAMS|DCode=153|XSize=2.9mm|YSize=2.3mm|CornerRadius=0.6mm|HoleSize=0mm|Usage=FLASHONLY|Rotation=180.000|XOffset=0mm|YOffset=0mm|HoleType=Round|Shape=RoundedRectangle|*
%AMROUNDEDRECTD153*
21,1,2.9000,1.1000,0,0,180.0*
21,1,1.7000,2.3000,0,0,180.0*
1,1,1.2000,-0.8500,0.5500*
1,1,1.2000,0.8500,0.5500*
1,1,1.2000,0.8500,-0.5500*
1,1,1.2000,-0.8500,-0.5500*
%
%ADD153ROUNDEDRECTD153*%
G04:AMPARAMS|DCode=154|XSize=1.4mm|YSize=1mm|CornerRadius=0.125mm|HoleSize=0mm|Usage=FLASHONLY|Rotation=90.000|XOffset=0mm|YOffset=0mm|HoleType=Round|Shape=RoundedRectangle|*
%AMROUNDEDRECTD154*
21,1,1.4000,0.7500,0,0,90.0*
21,1,1.1500,1.0000,0,0,90.0*
1,1,0.2500,0.3750,0.5750*
1,1,0.2500,0.3750,-0.5750*
1,1,0.2500,-0.3750,-0.5750*
1,1,0.2500,-0.3750,0.5750*
%
%ADD154ROUNDEDRECTD154*%
%ADD155R,0.4556X0.9128*%
G04:AMPARAMS|DCode=156|XSize=1.4mm|YSize=1mm|CornerRadius=0.125mm|HoleSize=0mm|Usage=FLASHONLY|Rotation=180.000|XOffset=0mm|YOffset=0mm|HoleType=Round|Shape=RoundedRectangle|*
%AMROUNDEDRECTD156*
21,1,1.4000,0.7500,0,0,180.0*
21,1,1.1500,1.0000,0,0,180.0*
1,1,0.2500,-0.5750,0.3750*
1,1,0.2500,0.5750,0.3750*
1,1,0.2500,0.5750,-0.3750*
1,1,0.2500,-0.5750,-0.3750*
%
%ADD156ROUNDEDRECTD156*%
%ADD157R,0.7000X1.7000*%
%ADD158R,2.5000X3.3000*%
G04:AMPARAMS|DCode=159|XSize=0.4mm|YSize=0.4mm|CornerRadius=0.125mm|HoleSize=0mm|Usage=FLASHONLY|Rotation=180.000|XOffset=0mm|YOffset=0mm|HoleType=Round|Shape=RoundedRectangle|*
%AMROUNDEDRECTD159*
21,1,0.4000,0.1500,0,0,180.0*
21,1,0.1500,0.4000,0,0,180.0*
1,1,0.2500,-0.0750,0.0750*
1,1,0.2500,0.0750,0.0750*
1,1,0.2500,0.0750,-0.0750*
1,1,0.2500,-0.0750,-0.0750*
%
%ADD159ROUNDEDRECTD159*%
G04:AMPARAMS|DCode=160|XSize=0.4mm|YSize=0.4mm|CornerRadius=0.125mm|HoleSize=0mm|Usage=FLASHONLY|Rotation=270.000|XOffset=0mm|YOffset=0mm|HoleType=Round|Shape=RoundedRectangle|*
%AMROUNDEDRECTD160*
21,1,0.4000,0.1500,0,0,270.0*
21,1,0.1500,0.4000,0,0,270.0*
1,1,0.2500,-0.0750,-0.0750*
1,1,0.2500,-0.0750,0.0750*
1,1,0.2500,0.0750,0.0750*
1,1,0.2500,0.0750,-0.0750*
%
%ADD160ROUNDEDRECTD160*%
%ADD161R,0.4516X0.8516*%
%ADD162R,2.7016X2.3016*%
%ADD163R,0.8516X0.4516*%
G04:AMPARAMS|DCode=164|XSize=1mm|YSize=0.9mm|CornerRadius=0.15mm|HoleSize=0mm|Usage=FLASHONLY|Rotation=180.000|XOffset=0mm|YOffset=0mm|HoleType=Round|Shape=RoundedRectangle|*
%AMROUNDEDRECTD164*
21,1,1.0000,0.6000,0,0,180.0*
21,1,0.7000,0.9000,0,0,180.0*
1,1,0.3000,-0.3500,0.3000*
1,1,0.3000,0.3500,0.3000*
1,1,0.3000,0.3500,-0.3000*
1,1,0.3000,-0.3500,-0.3000*
%
%ADD164ROUNDEDRECTD164*%
%ADD165C,0.3500*%
G04:AMPARAMS|DCode=166|XSize=0.95mm|YSize=0.25mm|CornerRadius=0.0875mm|HoleSize=0mm|Usage=FLASHONLY|Rotation=180.000|XOffset=0mm|YOffset=0mm|HoleType=Round|Shape=RoundedRectangle|*
%AMROUNDEDRECTD166*
21,1,0.9500,0.0750,0,0,180.0*
21,1,0.7750,0.2500,0,0,180.0*
1,1,0.1750,-0.3875,0.0375*
1,1,0.1750,0.3875,0.0375*
1,1,0.1750,0.3875,-0.0375*
1,1,0.1750,-0.3875,-0.0375*
%
%ADD166ROUNDEDRECTD166*%
%ADD167R,2.1000X2.6000*%
%ADD168R,0.4000X1.6000*%
G04:AMPARAMS|DCode=169|XSize=1.8mm|YSize=1.2mm|CornerRadius=0.125mm|HoleSize=0mm|Usage=FLASHONLY|Rotation=180.000|XOffset=0mm|YOffset=0mm|HoleType=Round|Shape=RoundedRectangle|*
%AMROUNDEDRECTD169*
21,1,1.8000,0.9500,0,0,180.0*
21,1,1.5500,1.2000,0,0,180.0*
1,1,0.2500,-0.7750,0.4750*
1,1,0.2500,0.7750,0.4750*
1,1,0.2500,0.7750,-0.4750*
1,1,0.2500,-0.7750,-0.4750*
%
%ADD169ROUNDEDRECTD169*%
G04:AMPARAMS|DCode=170|XSize=2.7mm|YSize=1.2mm|CornerRadius=0.125mm|HoleSize=0mm|Usage=FLASHONLY|Rotation=270.000|XOffset=0mm|YOffset=0mm|HoleType=Round|Shape=RoundedRectangle|*
%AMROUNDEDRECTD170*
21,1,2.7000,0.9500,0,0,270.0*
21,1,2.4500,1.2000,0,0,270.0*
1,1,0.2500,-0.4750,-1.2250*
1,1,0.2500,-0.4750,1.2250*
1,1,0.2500,0.4750,1.2250*
1,1,0.2500,0.4750,-1.2250*
%
%ADD170ROUNDEDRECTD170*%
G04:AMPARAMS|DCode=171|XSize=1.15mm|YSize=2.3mm|CornerRadius=0.1mm|HoleSize=0mm|Usage=FLASHONLY|Rotation=270.000|XOffset=0mm|YOffset=0mm|HoleType=Round|Shape=RoundedRectangle|*
%AMROUNDEDRECTD171*
21,1,1.1500,2.1000,0,0,270.0*
21,1,0.9500,2.3000,0,0,270.0*
1,1,0.2000,-1.0500,-0.4750*
1,1,0.2000,-1.0500,0.4750*
1,1,0.2000,1.0500,0.4750*
1,1,0.2000,1.0500,-0.4750*
%
%ADD171ROUNDEDRECTD171*%
G04:AMPARAMS|DCode=172|XSize=1.7mm|YSize=2.5mm|CornerRadius=0.17mm|HoleSize=0mm|Usage=FLASHONLY|Rotation=180.000|XOffset=0mm|YOffset=0mm|HoleType=Round|Shape=RoundedRectangle|*
%AMROUNDEDRECTD172*
21,1,1.7000,2.1600,0,0,180.0*
21,1,1.3600,2.5000,0,0,180.0*
1,1,0.3400,-0.6800,1.0800*
1,1,0.3400,0.6800,1.0800*
1,1,0.3400,0.6800,-1.0800*
1,1,0.3400,-0.6800,-1.0800*
%
%ADD172ROUNDEDRECTD172*%
%ADD173R,2.9956X2.5892*%
G04:AMPARAMS|DCode=174|XSize=1mm|YSize=0.8mm|CornerRadius=0.125mm|HoleSize=0mm|Usage=FLASHONLY|Rotation=270.000|XOffset=0mm|YOffset=0mm|HoleType=Round|Shape=RoundedRectangle|*
%AMROUNDEDRECTD174*
21,1,1.0000,0.5500,0,0,270.0*
21,1,0.7500,0.8000,0,0,270.0*
1,1,0.2500,-0.2750,-0.3750*
1,1,0.2500,-0.2750,0.3750*
1,1,0.2500,0.2750,0.3750*
1,1,0.2500,0.2750,-0.3750*
%
%ADD174ROUNDEDRECTD174*%
G04:AMPARAMS|DCode=175|XSize=0.7mm|YSize=0.41mm|CornerRadius=0.0888mm|HoleSize=0mm|Usage=FLASHONLY|Rotation=180.000|XOffset=0mm|YOffset=0mm|HoleType=Round|Shape=RoundedRectangle|*
%AMROUNDEDRECTD175*
21,1,0.7000,0.2325,0,0,180.0*
21,1,0.5225,0.4100,0,0,180.0*
1,1,0.1775,-0.2612,0.1163*
1,1,0.1775,0.2612,0.1163*
1,1,0.1775,0.2612,-0.1163*
1,1,0.1775,-0.2612,-0.1163*
%
%ADD175ROUNDEDRECTD175*%
%ADD176R,1.5000X1.7500*%
G04:AMPARAMS|DCode=177|XSize=0.9mm|YSize=1.9mm|CornerRadius=0.054mm|HoleSize=0mm|Usage=FLASHONLY|Rotation=270.000|XOffset=0mm|YOffset=0mm|HoleType=Round|Shape=RoundedRectangle|*
%AMROUNDEDRECTD177*
21,1,0.9000,1.7920,0,0,270.0*
21,1,0.7920,1.9000,0,0,270.0*
1,1,0.1080,-0.8960,-0.3960*
1,1,0.1080,-0.8960,0.3960*
1,1,0.1080,0.8960,0.3960*
1,1,0.1080,0.8960,-0.3960*
%
%ADD177ROUNDEDRECTD177*%
G04:AMPARAMS|DCode=178|XSize=1mm|YSize=0.8mm|CornerRadius=0.125mm|HoleSize=0mm|Usage=FLASHONLY|Rotation=0.000|XOffset=0mm|YOffset=0mm|HoleType=Round|Shape=RoundedRectangle|*
%AMROUNDEDRECTD178*
21,1,1.0000,0.5500,0,0,0.0*
21,1,0.7500,0.8000,0,0,0.0*
1,1,0.2500,0.3750,-0.2750*
1,1,0.2500,-0.3750,-0.2750*
1,1,0.2500,-0.3750,0.2750*
1,1,0.2500,0.3750,0.2750*
%
%ADD178ROUNDEDRECTD178*%
%ADD179R,0.4000X1.7000*%
%ADD180C,0.3800*%
%ADD181R,0.8000X1.2000*%
%ADD182R,0.7666X0.3816*%
%ADD183R,3.7000X0.8000*%
%ADD184O,0.5200X1.3200*%
%ADD185R,1.7000X0.4000*%
%ADD186O,1.3200X0.5200*%
G04:AMPARAMS|DCode=187|XSize=1.5mm|YSize=1.3mm|CornerRadius=0.125mm|HoleSize=0mm|Usage=FLASHONLY|Rotation=270.000|XOffset=0mm|YOffset=0mm|HoleType=Round|Shape=RoundedRectangle|*
%AMROUNDEDRECTD187*
21,1,1.5000,1.0500,0,0,270.0*
21,1,1.2500,1.3000,0,0,270.0*
1,1,0.2500,-0.5250,-0.6250*
1,1,0.2500,-0.5250,0.6250*
1,1,0.2500,0.5250,0.6250*
1,1,0.2500,0.5250,-0.6250*
%
%ADD187ROUNDEDRECTD187*%
%ADD188R,1.2000X0.7000*%
%ADD189R,0.7000X1.3500*%
%ADD190R,0.7000X2.1000*%
%ADD191R,3.1000X2.2000*%
%ADD192R,2.4000X3.3000*%
%ADD193R,1.4000X0.9000*%
%ADD194C,1.6000*%
%ADD195R,0.5000X0.7650*%
%ADD196R,0.4000X2.7000*%
G04:AMPARAMS|DCode=197|XSize=0.6mm|YSize=0.7mm|CornerRadius=0.08mm|HoleSize=0mm|Usage=FLASHONLY|Rotation=90.000|XOffset=0mm|YOffset=0mm|HoleType=Round|Shape=RoundedRectangle|*
%AMROUNDEDRECTD197*
21,1,0.6000,0.5400,0,0,90.0*
21,1,0.4400,0.7000,0,0,90.0*
1,1,0.1600,0.2700,0.2200*
1,1,0.1600,0.2700,-0.2200*
1,1,0.1600,-0.2700,-0.2200*
1,1,0.1600,-0.2700,0.2200*
%
%ADD197ROUNDEDRECTD197*%
G04:AMPARAMS|DCode=198|XSize=1.2mm|YSize=0.7mm|CornerRadius=0.2mm|HoleSize=0mm|Usage=FLASHONLY|Rotation=180.000|XOffset=0mm|YOffset=0mm|HoleType=Round|Shape=RoundedRectangle|*
%AMROUNDEDRECTD198*
21,1,1.2000,0.3000,0,0,180.0*
21,1,0.8000,0.7000,0,0,180.0*
1,1,0.4000,-0.4000,0.1500*
1,1,0.4000,0.4000,0.1500*
1,1,0.4000,0.4000,-0.1500*
1,1,0.4000,-0.4000,-0.1500*
%
%ADD198ROUNDEDRECTD198*%
%ADD199R,3.8000X3.8000*%
G04:AMPARAMS|DCode=200|XSize=1mm|YSize=0.9mm|CornerRadius=0.15mm|HoleSize=0mm|Usage=FLASHONLY|Rotation=90.000|XOffset=0mm|YOffset=0mm|HoleType=Round|Shape=RoundedRectangle|*
%AMROUNDEDRECTD200*
21,1,1.0000,0.6000,0,0,90.0*
21,1,0.7000,0.9000,0,0,90.0*
1,1,0.3000,0.3000,0.3500*
1,1,0.3000,0.3000,-0.3500*
1,1,0.3000,-0.3000,-0.3500*
1,1,0.3000,-0.3000,0.3500*
%
%ADD200ROUNDEDRECTD200*%
%ADD201R,1.8516X1.8516*%
G04:AMPARAMS|DCode=202|XSize=0.4mm|YSize=1.1mm|CornerRadius=0.1mm|HoleSize=0mm|Usage=FLASHONLY|Rotation=180.000|XOffset=0mm|YOffset=0mm|HoleType=Round|Shape=RoundedRectangle|*
%AMROUNDEDRECTD202*
21,1,0.4000,0.9000,0,0,180.0*
21,1,0.2000,1.1000,0,0,180.0*
1,1,0.2000,-0.1000,0.4500*
1,1,0.2000,0.1000,0.4500*
1,1,0.2000,0.1000,-0.4500*
1,1,0.2000,-0.1000,-0.4500*
%
%ADD202ROUNDEDRECTD202*%
%ADD203R,2.1500X2.6000*%
%ADD204R,2.6000X1.6500*%
%ADD205C,0.3516*%
G04:AMPARAMS|DCode=206|XSize=7.6mm|YSize=7.6mm|CornerRadius=0.1mm|HoleSize=0mm|Usage=FLASHONLY|Rotation=0.000|XOffset=0mm|YOffset=0mm|HoleType=Round|Shape=RoundedRectangle|*
%AMROUNDEDRECTD206*
21,1,7.6000,7.4000,0,0,0.0*
21,1,7.4000,7.6000,0,0,0.0*
1,1,0.2000,3.7000,-3.7000*
1,1,0.2000,-3.7000,-3.7000*
1,1,0.2000,-3.7000,3.7000*
1,1,0.2000,3.7000,3.7000*
%
%ADD206ROUNDEDRECTD206*%
%ADD207R,0.3500X1.6500*%
%ADD208R,1.4000X1.6500*%
G04:AMPARAMS|DCode=209|XSize=1.7mm|YSize=2.5mm|CornerRadius=0.17mm|HoleSize=0mm|Usage=FLASHONLY|Rotation=90.000|XOffset=0mm|YOffset=0mm|HoleType=Round|Shape=RoundedRectangle|*
%AMROUNDEDRECTD209*
21,1,1.7000,2.1600,0,0,90.0*
21,1,1.3600,2.5000,0,0,90.0*
1,1,0.3400,1.0800,0.6800*
1,1,0.3400,1.0800,-0.6800*
1,1,0.3400,-1.0800,-0.6800*
1,1,0.3400,-1.0800,0.6800*
%
%ADD209ROUNDEDRECTD209*%
%ADD210R,1.8000X1.6000*%
%ADD211R,1.6011X2.7000*%
%ADD212R,0.3500X1.2000*%
G04:AMPARAMS|DCode=213|XSize=1.5mm|YSize=1.3mm|CornerRadius=0.125mm|HoleSize=0mm|Usage=FLASHONLY|Rotation=0.000|XOffset=0mm|YOffset=0mm|HoleType=Round|Shape=RoundedRectangle|*
%AMROUNDEDRECTD213*
21,1,1.5000,1.0500,0,0,0.0*
21,1,1.2500,1.3000,0,0,0.0*
1,1,0.2500,0.6250,-0.5250*
1,1,0.2500,-0.6250,-0.5250*
1,1,0.2500,-0.6250,0.5250*
1,1,0.2500,0.6250,0.5250*
%
%ADD213ROUNDEDRECTD213*%
%ADD214R,1.5000X1.3000*%
%ADD215R,1.3015X2.3015*%
%ADD216R,1.7016X1.5017*%
%ADD217C,0.3500*%
G04:AMPARAMS|DCode=218|XSize=1.4mm|YSize=1mm|CornerRadius=0.275mm|HoleSize=0mm|Usage=FLASHONLY|Rotation=270.000|XOffset=0mm|YOffset=0mm|HoleType=Round|Shape=RoundedRectangle|*
%AMROUNDEDRECTD218*
21,1,1.4000,0.4500,0,0,270.0*
21,1,0.8500,1.0000,0,0,270.0*
1,1,0.5500,-0.2250,-0.4250*
1,1,0.5500,-0.2250,0.4250*
1,1,0.5500,0.2250,0.4250*
1,1,0.5500,0.2250,-0.4250*
%
%ADD218ROUNDEDRECTD218*%
%ADD219R,0.8016X1.5017*%
G04:AMPARAMS|DCode=220|XSize=3.4mm|YSize=1.5mm|CornerRadius=0.125mm|HoleSize=0mm|Usage=FLASHONLY|Rotation=180.000|XOffset=0mm|YOffset=0mm|HoleType=Round|Shape=RoundedRectangle|*
%AMROUNDEDRECTD220*
21,1,3.4000,1.2500,0,0,180.0*
21,1,3.1500,1.5000,0,0,180.0*
1,1,0.2500,-1.5750,0.6250*
1,1,0.2500,1.5750,0.6250*
1,1,0.2500,1.5750,-0.6250*
1,1,0.2500,-1.5750,-0.6250*
%
%ADD220ROUNDEDRECTD220*%
G04:AMPARAMS|DCode=221|XSize=0.7mm|YSize=0.7mm|CornerRadius=0.2mm|HoleSize=0mm|Usage=FLASHONLY|Rotation=180.000|XOffset=0mm|YOffset=0mm|HoleType=Round|Shape=RoundedRectangle|*
%AMROUNDEDRECTD221*
21,1,0.7000,0.3000,0,0,180.0*
21,1,0.3000,0.7000,0,0,180.0*
1,1,0.4000,-0.1500,0.1500*
1,1,0.4000,0.1500,0.1500*
1,1,0.4000,0.1500,-0.1500*
1,1,0.4000,-0.1500,-0.1500*
%
%ADD221ROUNDEDRECTD221*%
G04:AMPARAMS|DCode=222|XSize=5.65mm|YSize=5.65mm|CornerRadius=0.1333mm|HoleSize=0mm|Usage=FLASHONLY|Rotation=90.000|XOffset=0mm|YOffset=0mm|HoleType=Round|Shape=RoundedRectangle|*
%AMROUNDEDRECTD222*
21,1,5.6500,5.3835,0,0,90.0*
21,1,5.3835,5.6500,0,0,90.0*
1,1,0.2665,2.6918,2.6918*
1,1,0.2665,2.6918,-2.6918*
1,1,0.2665,-2.6918,-2.6918*
1,1,0.2665,-2.6918,2.6918*
%
%ADD222ROUNDEDRECTD222*%
%ADD223R,0.6500X1.1000*%
G04:AMPARAMS|DCode=224|XSize=1mm|YSize=0.9mm|CornerRadius=0.125mm|HoleSize=0mm|Usage=FLASHONLY|Rotation=0.000|XOffset=0mm|YOffset=0mm|HoleType=Round|Shape=RoundedRectangle|*
%AMROUNDEDRECTD224*
21,1,1.0000,0.6500,0,0,0.0*
21,1,0.7500,0.9000,0,0,0.0*
1,1,0.2500,0.3750,-0.3250*
1,1,0.2500,-0.3750,-0.3250*
1,1,0.2500,-0.3750,0.3250*
1,1,0.2500,0.3750,0.3250*
%
%ADD224ROUNDEDRECTD224*%
%ADD225R,1.1000X1.0000*%
%ADD226R,1.1000X0.6500*%
G04:AMPARAMS|DCode=227|XSize=2.7mm|YSize=1.2mm|CornerRadius=0.125mm|HoleSize=0mm|Usage=FLASHONLY|Rotation=180.000|XOffset=0mm|YOffset=0mm|HoleType=Round|Shape=RoundedRectangle|*
%AMROUNDEDRECTD227*
21,1,2.7000,0.9500,0,0,180.0*
21,1,2.4500,1.2000,0,0,180.0*
1,1,0.2500,-1.2250,0.4750*
1,1,0.2500,1.2250,0.4750*
1,1,0.2500,1.2250,-0.4750*
1,1,0.2500,-1.2250,-0.4750*
%
%ADD227ROUNDEDRECTD227*%
G04:AMPARAMS|DCode=228|XSize=1.8mm|YSize=1.2mm|CornerRadius=0.125mm|HoleSize=0mm|Usage=FLASHONLY|Rotation=90.000|XOffset=0mm|YOffset=0mm|HoleType=Round|Shape=RoundedRectangle|*
%AMROUNDEDRECTD228*
21,1,1.8000,0.9500,0,0,90.0*
21,1,1.5500,1.2000,0,0,90.0*
1,1,0.2500,0.4750,0.7750*
1,1,0.2500,0.4750,-0.7750*
1,1,0.2500,-0.4750,-0.7750*
1,1,0.2500,-0.4750,0.7750*
%
%ADD228ROUNDEDRECTD228*%
%ADD229R,0.4500X1.1000*%
G04:AMPARAMS|DCode=230|XSize=2.174mm|YSize=0.804mm|CornerRadius=0.177mm|HoleSize=0mm|Usage=FLASHONLY|Rotation=180.000|XOffset=0mm|YOffset=0mm|HoleType=Round|Shape=RoundedRectangle|*
%AMROUNDEDRECTD230*
21,1,2.1740,0.4500,0,0,180.0*
21,1,1.8200,0.8040,0,0,180.0*
1,1,0.3540,-0.9100,0.2250*
1,1,0.3540,0.9100,0.2250*
1,1,0.3540,0.9100,-0.2250*
1,1,0.3540,-0.9100,-0.2250*
%
%ADD230ROUNDEDRECTD230*%
G04:AMPARAMS|DCode=231|XSize=1.6mm|YSize=0.51mm|CornerRadius=0.1013mm|HoleSize=0mm|Usage=FLASHONLY|Rotation=0.000|XOffset=0mm|YOffset=0mm|HoleType=Round|Shape=RoundedRectangle|*
%AMROUNDEDRECTD231*
21,1,1.6000,0.3075,0,0,0.0*
21,1,1.3975,0.5100,0,0,0.0*
1,1,0.2025,0.6988,-0.1538*
1,1,0.2025,-0.6988,-0.1538*
1,1,0.2025,-0.6988,0.1538*
1,1,0.2025,0.6988,0.1538*
%
%ADD231ROUNDEDRECTD231*%
G04:AMPARAMS|DCode=232|XSize=0.6mm|YSize=0.7mm|CornerRadius=0.08mm|HoleSize=0mm|Usage=FLASHONLY|Rotation=180.000|XOffset=0mm|YOffset=0mm|HoleType=Round|Shape=RoundedRectangle|*
%AMROUNDEDRECTD232*
21,1,0.6000,0.5400,0,0,180.0*
21,1,0.4400,0.7000,0,0,180.0*
1,1,0.1600,-0.2200,0.2700*
1,1,0.1600,0.2200,0.2700*
1,1,0.1600,0.2200,-0.2700*
1,1,0.1600,-0.2200,-0.2700*
%
%ADD232ROUNDEDRECTD232*%
%ADD233R,1.3300X2.1000*%
%ADD234R,0.8000X0.4500*%
%ADD235R,0.4000X0.5000*%
%ADD236R,2.0800X2.5500*%
%ADD237R,0.5300X0.4800*%
G04:AMPARAMS|DCode=238|XSize=1.55mm|YSize=0.69mm|CornerRadius=0.1238mm|HoleSize=0mm|Usage=FLASHONLY|Rotation=90.000|XOffset=0mm|YOffset=0mm|HoleType=Round|Shape=RoundedRectangle|*
%AMROUNDEDRECTD238*
21,1,1.5500,0.4425,0,0,90.0*
21,1,1.3025,0.6900,0,0,90.0*
1,1,0.2475,0.2213,0.6513*
1,1,0.2475,0.2213,-0.6513*
1,1,0.2475,-0.2213,-0.6513*
1,1,0.2475,-0.2213,0.6513*
%
%ADD238ROUNDEDRECTD238*%
%ADD239R,1.9000X0.9000*%
%ADD240R,1.4066X1.0016*%
%ADD241R,0.3816X0.7666*%
%ADD242C,1.1000*%
G04:AMPARAMS|DCode=243|XSize=0.4mm|YSize=1.1mm|CornerRadius=0.1mm|HoleSize=0mm|Usage=FLASHONLY|Rotation=270.000|XOffset=0mm|YOffset=0mm|HoleType=Round|Shape=RoundedRectangle|*
%AMROUNDEDRECTD243*
21,1,0.4000,0.9000,0,0,270.0*
21,1,0.2000,1.1000,0,0,270.0*
1,1,0.2000,-0.4500,-0.1000*
1,1,0.2000,-0.4500,0.1000*
1,1,0.2000,0.4500,0.1000*
1,1,0.2000,0.4500,-0.1000*
%
%ADD243ROUNDEDRECTD243*%
%ADD244R,0.3000X0.7650*%
%ADD245R,0.3000X0.9000*%
%ADD246R,0.9000X0.3000*%
G04:AMPARAMS|DCode=247|XSize=2.1mm|YSize=0.86mm|CornerRadius=0.43mm|HoleSize=0mm|Usage=FLASHONLY|Rotation=270.000|XOffset=0mm|YOffset=0mm|HoleType=Round|Shape=RoundedRectangle|*
%AMROUNDEDRECTD247*
21,1,2.1000,0.0000,0,0,270.0*
21,1,1.2400,0.8600,0,0,270.0*
1,1,0.8600,0.0000,-0.6200*
1,1,0.8600,0.0000,0.6200*
1,1,0.8600,0.0000,0.6200*
1,1,0.8600,0.0000,-0.6200*
%
%ADD247ROUNDEDRECTD247*%
G04:AMPARAMS|DCode=248|XSize=1.05mm|YSize=1mm|CornerRadius=0.275mm|HoleSize=0mm|Usage=FLASHONLY|Rotation=0.000|XOffset=0mm|YOffset=0mm|HoleType=Round|Shape=RoundedRectangle|*
%AMROUNDEDRECTD248*
21,1,1.0500,0.4500,0,0,0.0*
21,1,0.5000,1.0000,0,0,0.0*
1,1,0.5500,0.2500,-0.2250*
1,1,0.5500,-0.2500,-0.2250*
1,1,0.5500,-0.2500,0.2250*
1,1,0.5500,0.2500,0.2250*
%
%ADD248ROUNDEDRECTD248*%
%ADD249R,3.3000X2.5000*%
G04:AMPARAMS|DCode=250|XSize=1.3mm|YSize=1.62mm|CornerRadius=0.17mm|HoleSize=0mm|Usage=FLASHONLY|Rotation=180.000|XOffset=0mm|YOffset=0mm|HoleType=Round|Shape=RoundedRectangle|*
%AMROUNDEDRECTD250*
21,1,1.3000,1.2800,0,0,180.0*
21,1,0.9600,1.6200,0,0,180.0*
1,1,0.3400,-0.4800,0.6400*
1,1,0.3400,0.4800,0.6400*
1,1,0.3400,0.4800,-0.6400*
1,1,0.3400,-0.4800,-0.6400*
%
%ADD250ROUNDEDRECTD250*%
G04:AMPARAMS|DCode=251|XSize=0.68mm|YSize=0.4mm|CornerRadius=0.08mm|HoleSize=0mm|Usage=FLASHONLY|Rotation=270.000|XOffset=0mm|YOffset=0mm|HoleType=Round|Shape=RoundedRectangle|*
%AMROUNDEDRECTD251*
21,1,0.6800,0.2400,0,0,270.0*
21,1,0.5200,0.4000,0,0,270.0*
1,1,0.1600,-0.1200,-0.2600*
1,1,0.1600,-0.1200,0.2600*
1,1,0.1600,0.1200,0.2600*
1,1,0.1600,0.1200,-0.2600*
%
%ADD251ROUNDEDRECTD251*%
G04:AMPARAMS|DCode=252|XSize=0.68mm|YSize=0.4mm|CornerRadius=0.08mm|HoleSize=0mm|Usage=FLASHONLY|Rotation=0.000|XOffset=0mm|YOffset=0mm|HoleType=Round|Shape=RoundedRectangle|*
%AMROUNDEDRECTD252*
21,1,0.6800,0.2400,0,0,0.0*
21,1,0.5200,0.4000,0,0,0.0*
1,1,0.1600,0.2600,-0.1200*
1,1,0.1600,-0.2600,-0.1200*
1,1,0.1600,-0.2600,0.1200*
1,1,0.1600,0.2600,0.1200*
%
%ADD252ROUNDEDRECTD252*%
G04:AMPARAMS|DCode=253|XSize=1.62mm|YSize=1.3mm|CornerRadius=0.17mm|HoleSize=0mm|Usage=FLASHONLY|Rotation=180.000|XOffset=0mm|YOffset=0mm|HoleType=Round|Shape=RoundedRectangle|*
%AMROUNDEDRECTD253*
21,1,1.6200,0.9600,0,0,180.0*
21,1,1.2800,1.3000,0,0,180.0*
1,1,0.3400,-0.6400,0.4800*
1,1,0.3400,0.6400,0.4800*
1,1,0.3400,0.6400,-0.4800*
1,1,0.3400,-0.6400,-0.4800*
%
%ADD253ROUNDEDRECTD253*%
G04:AMPARAMS|DCode=254|XSize=2.66mm|YSize=6.24mm|CornerRadius=0.306mm|HoleSize=0mm|Usage=FLASHONLY|Rotation=180.000|XOffset=0mm|YOffset=0mm|HoleType=Round|Shape=RoundedRectangle|*
%AMROUNDEDRECTD254*
21,1,2.6600,5.6280,0,0,180.0*
21,1,2.0480,6.2400,0,0,180.0*
1,1,0.6120,-1.0240,2.8140*
1,1,0.6120,1.0240,2.8140*
1,1,0.6120,1.0240,-2.8140*
1,1,0.6120,-1.0240,-2.8140*
%
%ADD254ROUNDEDRECTD254*%
G04:AMPARAMS|DCode=255|XSize=0.7mm|YSize=0.8mm|CornerRadius=0.086mm|HoleSize=0mm|Usage=FLASHONLY|Rotation=180.000|XOffset=0mm|YOffset=0mm|HoleType=Round|Shape=RoundedRectangle|*
%AMROUNDEDRECTD255*
21,1,0.7000,0.6280,0,0,180.0*
21,1,0.5280,0.8000,0,0,180.0*
1,1,0.1720,-0.2640,0.3140*
1,1,0.1720,0.2640,0.3140*
1,1,0.1720,0.2640,-0.3140*
1,1,0.1720,-0.2640,-0.3140*
%
%ADD255ROUNDEDRECTD255*%
%ADD256O,0.8600X2.1000*%
%ADD257R,0.6000X0.4500*%
%ADD258R,0.4500X0.6000*%
%ADD259R,0.4800X0.5300*%
%ADD260R,2.5500X2.0800*%
%ADD261R,0.5000X0.4000*%
G04:AMPARAMS|DCode=262|XSize=1.55mm|YSize=0.69mm|CornerRadius=0.1238mm|HoleSize=0mm|Usage=FLASHONLY|Rotation=0.000|XOffset=0mm|YOffset=0mm|HoleType=Round|Shape=RoundedRectangle|*
%AMROUNDEDRECTD262*
21,1,1.5500,0.4425,0,0,0.0*
21,1,1.3025,0.6900,0,0,0.0*
1,1,0.2475,0.6513,-0.2213*
1,1,0.2475,-0.6513,-0.2213*
1,1,0.2475,-0.6513,0.2213*
1,1,0.2475,0.6513,0.2213*
%
%ADD262ROUNDEDRECTD262*%
G04:AMPARAMS|DCode=263|XSize=1.6mm|YSize=2.6mm|CornerRadius=0.14mm|HoleSize=0mm|Usage=FLASHONLY|Rotation=0.000|XOffset=0mm|YOffset=0mm|HoleType=Round|Shape=RoundedRectangle|*
%AMROUNDEDRECTD263*
21,1,1.6000,2.3200,0,0,0.0*
21,1,1.3200,2.6000,0,0,0.0*
1,1,0.2800,0.6600,-1.1600*
1,1,0.2800,-0.6600,-1.1600*
1,1,0.2800,-0.6600,1.1600*
1,1,0.2800,0.6600,1.1600*
%
%ADD263ROUNDEDRECTD263*%
G04:AMPARAMS|DCode=264|XSize=1.6mm|YSize=2.6mm|CornerRadius=0.14mm|HoleSize=0mm|Usage=FLASHONLY|Rotation=270.000|XOffset=0mm|YOffset=0mm|HoleType=Round|Shape=RoundedRectangle|*
%AMROUNDEDRECTD264*
21,1,1.6000,2.3200,0,0,270.0*
21,1,1.3200,2.6000,0,0,270.0*
1,1,0.2800,-1.1600,-0.6600*
1,1,0.2800,-1.1600,0.6600*
1,1,0.2800,1.1600,0.6600*
1,1,0.2800,1.1600,-0.6600*
%
%ADD264ROUNDEDRECTD264*%
G04:AMPARAMS|DCode=265|XSize=1mm|YSize=0.9mm|CornerRadius=0.125mm|HoleSize=0mm|Usage=FLASHONLY|Rotation=270.000|XOffset=0mm|YOffset=0mm|HoleType=Round|Shape=RoundedRectangle|*
%AMROUNDEDRECTD265*
21,1,1.0000,0.6500,0,0,270.0*
21,1,0.7500,0.9000,0,0,270.0*
1,1,0.2500,-0.3250,-0.3750*
1,1,0.2500,-0.3250,0.3750*
1,1,0.2500,0.3250,0.3750*
1,1,0.2500,0.3250,-0.3750*
%
%ADD265ROUNDEDRECTD265*%
G04:AMPARAMS|DCode=266|XSize=0.95mm|YSize=0.25mm|CornerRadius=0.0875mm|HoleSize=0mm|Usage=FLASHONLY|Rotation=270.000|XOffset=0mm|YOffset=0mm|HoleType=Round|Shape=RoundedRectangle|*
%AMROUNDEDRECTD266*
21,1,0.9500,0.0750,0,0,270.0*
21,1,0.7750,0.2500,0,0,270.0*
1,1,0.1750,-0.0375,-0.3875*
1,1,0.1750,-0.0375,0.3875*
1,1,0.1750,0.0375,0.3875*
1,1,0.1750,0.0375,-0.3875*
%
%ADD266ROUNDEDRECTD266*%
%ADD267R,0.9000X1.9000*%
G04:AMPARAMS|DCode=268|XSize=0.45mm|YSize=0.45mm|CornerRadius=0.0938mm|HoleSize=0mm|Usage=FLASHONLY|Rotation=180.000|XOffset=0mm|YOffset=0mm|HoleType=Round|Shape=RoundedRectangle|*
%AMROUNDEDRECTD268*
21,1,0.4500,0.2625,0,0,180.0*
21,1,0.2625,0.4500,0,0,180.0*
1,1,0.1875,-0.1313,0.1313*
1,1,0.1875,0.1313,0.1313*
1,1,0.1875,0.1313,-0.1313*
1,1,0.1875,-0.1313,-0.1313*
%
%ADD268ROUNDEDRECTD268*%
%ADD269R,1.1500X2.4000*%
%ADD270R,0.8000X0.5500*%
%ADD271R,0.9500X1.2000*%
G04:AMPARAMS|DCode=272|XSize=1.1mm|YSize=1.15mm|CornerRadius=0.1mm|HoleSize=0mm|Usage=FLASHONLY|Rotation=270.000|XOffset=0mm|YOffset=0mm|HoleType=Round|Shape=RoundedRectangle|*
%AMROUNDEDRECTD272*
21,1,1.1000,0.9500,0,0,270.0*
21,1,0.9000,1.1500,0,0,270.0*
1,1,0.2000,-0.4750,-0.4500*
1,1,0.2000,-0.4750,0.4500*
1,1,0.2000,0.4750,0.4500*
1,1,0.2000,0.4750,-0.4500*
%
%ADD272ROUNDEDRECTD272*%
%ADD273C,1.8000*%
%ADD274R,1.8000X1.8000*%
%ADD275O,1.7000X3.2000*%
%ADD276C,4.5000*%
%ADD277C,5.7000*%
%ADD278O,3.2000X1.7000*%
%ADD279C,1.8000*%
%ADD280C,1.1016*%
%ADD281C,1.3000*%
%ADD282C,1.5080*%
%ADD283C,2.0000*%
%ADD284C,0.7500*%
%ADD285C,1.7011*%
%ADD286O,1.9000X1.1000*%
G04:AMPARAMS|DCode=287|XSize=1.8mm|YSize=1.8mm|CornerRadius=0.5mm|HoleSize=0mm|Usage=FLASHONLY|Rotation=90.000|XOffset=0mm|YOffset=0mm|HoleType=Round|Shape=RoundedRectangle|*
%AMROUNDEDRECTD287*
21,1,1.8000,0.8000,0,0,90.0*
21,1,0.8000,1.8000,0,0,90.0*
1,1,1.0000,0.4000,0.4000*
1,1,1.0000,0.4000,-0.4000*
1,1,1.0000,-0.4000,-0.4000*
1,1,1.0000,-0.4000,0.4000*
%
%ADD287ROUNDEDRECTD287*%
%ADD288C,0.7001*%
%ADD289R,1.7000X1.7000*%
%ADD290C,1.7000*%
%ADD291C,2.2000*%
%ADD292C,1.7080*%
G04:AMPARAMS|DCode=293|XSize=1.3mm|YSize=1.3mm|CornerRadius=0.35mm|HoleSize=0mm|Usage=FLASHONLY|Rotation=0.000|XOffset=0mm|YOffset=0mm|HoleType=Round|Shape=RoundedRectangle|*
%AMROUNDEDRECTD293*
21,1,1.3000,0.6000,0,0,0.0*
21,1,0.6000,1.3000,0,0,0.0*
1,1,0.7000,0.3000,-0.3000*
1,1,0.7000,-0.3000,-0.3000*
1,1,0.7000,-0.3000,0.3000*
1,1,0.7000,0.3000,0.3000*
%
%ADD293ROUNDEDRECTD293*%
G04:AMPARAMS|DCode=294|XSize=1.8mm|YSize=1.8mm|CornerRadius=0.5mm|HoleSize=0mm|Usage=FLASHONLY|Rotation=180.000|XOffset=0mm|YOffset=0mm|HoleType=Round|Shape=RoundedRectangle|*
%AMROUNDEDRECTD294*
21,1,1.8000,0.8000,0,0,180.0*
21,1,0.8000,1.8000,0,0,180.0*
1,1,1.0000,-0.4000,0.4000*
1,1,1.0000,0.4000,0.4000*
1,1,1.0000,0.4000,-0.4000*
1,1,1.0000,-0.4000,-0.4000*
%
%ADD294ROUNDEDRECTD294*%
%ADD295R,1.7080X1.7080*%
%ADD296C,2.2000*%
%ADD297C,1.4000*%
%ADD298O,1.6000X3.2000*%
%ADD299O,1.7000X3.5000*%
%ADD300O,1.7000X2.3000*%
%ADD301O,1.5500X3.2000*%
%ADD302C,2.6000*%
%ADD303C,1.4500*%
%ADD304R,1.3000X1.3000*%
%ADD305C,3.4160*%
%ADD306C,3.4000*%
%ADD307R,1.5080X1.5080*%
%ADD308R,2.0000X2.0000*%
%ADD309R,2.2000X2.2000*%
%ADD310C,0.1000*%
%ADD311C,2.3000*%
%ADD312C,7.2000*%
%ADD313C,0.6000*%
G36*
X121700Y742469D02*
X131700D01*
X131740Y741792D01*
X131802Y741115D01*
X131884Y740441D01*
X131987Y739770D01*
X132111Y739102D01*
X132256Y738438D01*
X132421Y737780D01*
X132606Y737126D01*
X132811Y736479D01*
X133036Y735838D01*
X133280Y735204D01*
X133545Y734579D01*
X133828Y733961D01*
X134130Y733353D01*
X134451Y732755D01*
X134790Y732166D01*
X135148Y731589D01*
X135523Y731022D01*
X135915Y730468D01*
X136324Y729926D01*
X136749Y729397D01*
X137191Y728881D01*
X137649Y728379D01*
X138122Y727891D01*
X138609Y727419D01*
X139111Y726961D01*
X139627Y726519D01*
X140156Y726094D01*
X140698Y725685D01*
X141252Y725292D01*
X141819Y724918D01*
X142397Y724560D01*
X142985Y724221D01*
X143583Y723900D01*
X144192Y723598D01*
X144809Y723315D01*
X145435Y723050D01*
X146068Y722806D01*
X146709Y722581D01*
X147356Y722375D01*
X148010Y722190D01*
X148669Y722025D01*
X149332Y721881D01*
X150000Y721757D01*
X150671Y721654D01*
X151345Y721572D01*
X152022Y721510D01*
X152700Y721469D01*
Y711469D01*
X151882Y711505D01*
X151065Y711562D01*
X150250Y711639D01*
X149438Y711737D01*
X148628Y711856D01*
X147821Y711996D01*
X147019Y712156D01*
X146220Y712337D01*
X145427Y712538D01*
X144639Y712759D01*
X143857Y713001D01*
X143081Y713262D01*
X142312Y713543D01*
X141551Y713844D01*
X140797Y714164D01*
X140052Y714503D01*
X139317Y714861D01*
X138590Y715238D01*
X137873Y715633D01*
X137167Y716047D01*
X136471Y716478D01*
X135787Y716927D01*
X135114Y717394D01*
X134453Y717877D01*
X133806Y718378D01*
X133171Y718894D01*
X132549Y719427D01*
X131942Y719975D01*
X131348Y720539D01*
X130770Y721118D01*
X130206Y721712D01*
X129657Y722319D01*
X129125Y722941D01*
X128608Y723576D01*
X128108Y724223D01*
X127624Y724884D01*
X127158Y725556D01*
X126708Y726241D01*
X126277Y726936D01*
X125864Y727643D01*
X125468Y728360D01*
X125091Y729086D01*
X124733Y729822D01*
X124394Y730567D01*
X124074Y731321D01*
X123773Y732082D01*
X123492Y732851D01*
X123231Y733626D01*
X122990Y734409D01*
X122768Y735197D01*
X122567Y735990D01*
X122386Y736788D01*
X122226Y737591D01*
X122086Y738398D01*
X121967Y739208D01*
X121869Y740020D01*
X121792Y740835D01*
X121735Y741652D01*
X121700Y742469D01*
D02*
G37*
G36*
X152739Y776828D02*
Y766828D01*
X152061Y766788D01*
X151385Y766726D01*
X150711Y766644D01*
X150039Y766541D01*
X149372Y766417D01*
X148708Y766272D01*
X148049Y766108D01*
X147396Y765922D01*
X146748Y765717D01*
X146108Y765492D01*
X145474Y765247D01*
X144848Y764983D01*
X144231Y764700D01*
X143623Y764398D01*
X143025Y764077D01*
X142436Y763737D01*
X141859Y763380D01*
X141292Y763006D01*
X140738Y762613D01*
X140196Y762204D01*
X139667Y761779D01*
X139151Y761337D01*
X138649Y760879D01*
X138161Y760407D01*
X137688Y759919D01*
X137231Y759417D01*
X136789Y758901D01*
X136364Y758372D01*
X135954Y757830D01*
X135562Y757275D01*
X135187Y756709D01*
X134830Y756132D01*
X134491Y755543D01*
X134170Y754945D01*
X133868Y754336D01*
X133584Y753719D01*
X133320Y753093D01*
X133076Y752460D01*
X132851Y751819D01*
X132645Y751172D01*
X132460Y750518D01*
X132295Y749859D01*
X132151Y749196D01*
X132027Y748528D01*
X131924Y747857D01*
X131842Y747183D01*
X131780Y746506D01*
X131739Y745828D01*
X121739D01*
X121775Y746646D01*
X121832Y747463D01*
X121909Y748278D01*
X122007Y749090D01*
X122126Y749900D01*
X122266Y750707D01*
X122426Y751509D01*
X122607Y752308D01*
X122808Y753101D01*
X123029Y753889D01*
X123271Y754671D01*
X123532Y755447D01*
X123813Y756216D01*
X124114Y756977D01*
X124434Y757731D01*
X124773Y758476D01*
X125131Y759212D01*
X125508Y759938D01*
X125903Y760655D01*
X126317Y761361D01*
X126748Y762057D01*
X127197Y762741D01*
X127664Y763414D01*
X128147Y764075D01*
X128647Y764722D01*
X129164Y765357D01*
X129697Y765979D01*
X130245Y766586D01*
X130809Y767180D01*
X131388Y767759D01*
X131981Y768323D01*
X132589Y768871D01*
X133210Y769404D01*
X133845Y769920D01*
X134493Y770421D01*
X135154Y770904D01*
X135826Y771370D01*
X136511Y771820D01*
X137206Y772251D01*
X137913Y772664D01*
X138630Y773060D01*
X139356Y773437D01*
X140092Y773795D01*
X140837Y774134D01*
X141590Y774454D01*
X142352Y774755D01*
X143120Y775036D01*
X143896Y775297D01*
X144678Y775538D01*
X145466Y775760D01*
X146260Y775961D01*
X147058Y776142D01*
X147861Y776302D01*
X148668Y776442D01*
X149477Y776560D01*
X150290Y776659D01*
X151105Y776736D01*
X151921Y776793D01*
X152739Y776828D01*
D02*
G37*
G36*
X156071Y711457D02*
Y721457D01*
X156749Y721498D01*
X157425Y721560D01*
X158099Y721642D01*
X158771Y721745D01*
X159438Y721869D01*
X160102Y722013D01*
X160760Y722178D01*
X161414Y722363D01*
X162062Y722569D01*
X162702Y722794D01*
X163336Y723038D01*
X163962Y723302D01*
X164579Y723586D01*
X165187Y723888D01*
X165786Y724209D01*
X166374Y724548D01*
X166951Y724905D01*
X167518Y725280D01*
X168072Y725673D01*
X168614Y726082D01*
X169143Y726507D01*
X169659Y726949D01*
X170161Y727406D01*
X170649Y727879D01*
X171122Y728367D01*
X171579Y728869D01*
X172021Y729385D01*
X172446Y729914D01*
X172856Y730456D01*
X173248Y731010D01*
X173623Y731577D01*
X173980Y732154D01*
X174319Y732743D01*
X174640Y733341D01*
X174942Y733949D01*
X175226Y734567D01*
X175490Y735192D01*
X175734Y735826D01*
X175959Y736467D01*
X176165Y737114D01*
X176350Y737768D01*
X176515Y738426D01*
X176659Y739090D01*
X176783Y739758D01*
X176886Y740429D01*
X176968Y741103D01*
X177030Y741779D01*
X177071Y742457D01*
X187071D01*
X187035Y741639D01*
X186978Y740823D01*
X186901Y740008D01*
X186803Y739195D01*
X186684Y738386D01*
X186544Y737579D01*
X186384Y736776D01*
X186203Y735978D01*
X186002Y735184D01*
X185781Y734397D01*
X185539Y733614D01*
X185278Y732839D01*
X184997Y732070D01*
X184696Y731309D01*
X184376Y730555D01*
X184037Y729810D01*
X183679Y729074D01*
X183302Y728348D01*
X182907Y727631D01*
X182493Y726925D01*
X182062Y726229D01*
X181613Y725545D01*
X181146Y724872D01*
X180663Y724211D01*
X180162Y723564D01*
X179646Y722928D01*
X179113Y722307D01*
X178565Y721699D01*
X178001Y721106D01*
X177422Y720527D01*
X176829Y719963D01*
X176221Y719415D01*
X175599Y718882D01*
X174965Y718366D01*
X174317Y717865D01*
X173656Y717382D01*
X172984Y716915D01*
X172299Y716466D01*
X171604Y716035D01*
X170897Y715621D01*
X170180Y715226D01*
X169454Y714849D01*
X168718Y714491D01*
X167973Y714152D01*
X167220Y713832D01*
X166458Y713531D01*
X165690Y713250D01*
X164914Y712989D01*
X164131Y712747D01*
X163344Y712526D01*
X162550Y712325D01*
X161752Y712144D01*
X160949Y711984D01*
X160142Y711844D01*
X159333Y711725D01*
X158520Y711627D01*
X157705Y711550D01*
X156889Y711493D01*
X156071Y711457D01*
D02*
G37*
G36*
X187071Y745801D02*
X177071D01*
X177030Y746479D01*
X176968Y747156D01*
X176886Y747830D01*
X176783Y748501D01*
X176659Y749169D01*
X176515Y749832D01*
X176350Y750491D01*
X176165Y751145D01*
X175959Y751792D01*
X175734Y752433D01*
X175490Y753066D01*
X175226Y753692D01*
X174942Y754309D01*
X174640Y754917D01*
X174319Y755516D01*
X173980Y756104D01*
X173623Y756682D01*
X173248Y757248D01*
X172856Y757803D01*
X172446Y758345D01*
X172021Y758874D01*
X171579Y759390D01*
X171122Y759892D01*
X170649Y760379D01*
X170161Y760852D01*
X169659Y761309D01*
X169143Y761751D01*
X168614Y762177D01*
X168072Y762586D01*
X167518Y762978D01*
X166951Y763353D01*
X166374Y763710D01*
X165786Y764050D01*
X165187Y764370D01*
X164579Y764673D01*
X163962Y764956D01*
X163336Y765220D01*
X162702Y765465D01*
X162062Y765690D01*
X161414Y765895D01*
X160761Y766080D01*
X160102Y766245D01*
X159438Y766389D01*
X158771Y766513D01*
X158099Y766617D01*
X157425Y766699D01*
X156749Y766760D01*
X156071Y766801D01*
Y776801D01*
X156889Y776766D01*
X157705Y776709D01*
X158520Y776631D01*
X159333Y776533D01*
X160142Y776414D01*
X160949Y776275D01*
X161752Y776114D01*
X162550Y775934D01*
X163344Y775732D01*
X164131Y775511D01*
X164914Y775270D01*
X165690Y775008D01*
X166458Y774727D01*
X167220Y774427D01*
X167973Y774107D01*
X168718Y773767D01*
X169454Y773409D01*
X170180Y773033D01*
X170897Y772637D01*
X171604Y772224D01*
X172299Y771792D01*
X172984Y771343D01*
X173656Y770877D01*
X174317Y770393D01*
X174965Y769893D01*
X175599Y769376D01*
X176221Y768844D01*
X176829Y768295D01*
X177422Y767731D01*
X178001Y767152D01*
X178565Y766559D01*
X179113Y765952D01*
X179646Y765330D01*
X180162Y764695D01*
X180663Y764047D01*
X181146Y763387D01*
X181613Y762714D01*
X182062Y762030D01*
X182493Y761334D01*
X182907Y760628D01*
X183302Y759911D01*
X183679Y759184D01*
X184037Y758448D01*
X184376Y757703D01*
X184696Y756950D01*
X184997Y756189D01*
X185278Y755420D01*
X185539Y754644D01*
X185781Y753862D01*
X186002Y753074D01*
X186203Y752281D01*
X186384Y751482D01*
X186544Y750679D01*
X186684Y749873D01*
X186803Y749063D01*
X186901Y748251D01*
X186978Y747435D01*
X187035Y746619D01*
X187071Y745801D01*
D02*
G37*
G36*
X906351Y661968D02*
X903251D01*
Y680868D01*
X906351D01*
Y689118D01*
X910051D01*
Y680868D01*
X912851D01*
Y689118D01*
X916551D01*
Y680868D01*
X919651D01*
Y661968D01*
X916551D01*
Y653718D01*
X912851D01*
Y661968D01*
X910051D01*
Y653718D01*
X906351D01*
Y661968D01*
D02*
G37*
G36*
X1205049Y742469D02*
X1215049D01*
X1215089Y741792D01*
X1215151Y741115D01*
X1215233Y740441D01*
X1215336Y739770D01*
X1215460Y739102D01*
X1215605Y738438D01*
X1215769Y737780D01*
X1215955Y737126D01*
X1216160Y736479D01*
X1216385Y735838D01*
X1216629Y735204D01*
X1216894Y734579D01*
X1217177Y733961D01*
X1217479Y733353D01*
X1217800Y732755D01*
X1218139Y732166D01*
X1218497Y731589D01*
X1218872Y731022D01*
X1219264Y730468D01*
X1219673Y729926D01*
X1220098Y729397D01*
X1220540Y728881D01*
X1220998Y728379D01*
X1221470Y727891D01*
X1221958Y727419D01*
X1222460Y726961D01*
X1222976Y726519D01*
X1223505Y726094D01*
X1224047Y725685D01*
X1224602Y725292D01*
X1225168Y724918D01*
X1225745Y724560D01*
X1226334Y724221D01*
X1226933Y723900D01*
X1227541Y723598D01*
X1228158Y723315D01*
X1228784Y723050D01*
X1229417Y722806D01*
X1230058Y722581D01*
X1230705Y722375D01*
X1231359Y722190D01*
X1232018Y722025D01*
X1232681Y721881D01*
X1233349Y721757D01*
X1234020Y721654D01*
X1234694Y721572D01*
X1235371Y721510D01*
X1236049Y721469D01*
Y711469D01*
X1235231Y711505D01*
X1234414Y711562D01*
X1233599Y711639D01*
X1232787Y711737D01*
X1231977Y711856D01*
X1231170Y711996D01*
X1230368Y712156D01*
X1229569Y712337D01*
X1228776Y712538D01*
X1227988Y712759D01*
X1227206Y713001D01*
X1226430Y713262D01*
X1225661Y713543D01*
X1224900Y713844D01*
X1224146Y714164D01*
X1223401Y714503D01*
X1222665Y714861D01*
X1221939Y715238D01*
X1221222Y715633D01*
X1220516Y716047D01*
X1219820Y716478D01*
X1219136Y716927D01*
X1218463Y717394D01*
X1217802Y717877D01*
X1217155Y718378D01*
X1216520Y718894D01*
X1215898Y719427D01*
X1215291Y719975D01*
X1214697Y720539D01*
X1214118Y721118D01*
X1213555Y721712D01*
X1213006Y722319D01*
X1212474Y722941D01*
X1211957Y723576D01*
X1211457Y724223D01*
X1210973Y724884D01*
X1210507Y725556D01*
X1210058Y726241D01*
X1209626Y726936D01*
X1209213Y727643D01*
X1208817Y728360D01*
X1208440Y729086D01*
X1208082Y729822D01*
X1207743Y730567D01*
X1207423Y731321D01*
X1207122Y732082D01*
X1206841Y732851D01*
X1206580Y733626D01*
X1206339Y734409D01*
X1206117Y735197D01*
X1205916Y735990D01*
X1205735Y736788D01*
X1205575Y737591D01*
X1205435Y738398D01*
X1205316Y739208D01*
X1205218Y740020D01*
X1205141Y740835D01*
X1205084Y741652D01*
X1205049Y742469D01*
D02*
G37*
G36*
X1236088Y776828D02*
Y766828D01*
X1235410Y766788D01*
X1234734Y766726D01*
X1234060Y766644D01*
X1233388Y766541D01*
X1232721Y766417D01*
X1232057Y766272D01*
X1231398Y766108D01*
X1230745Y765922D01*
X1230097Y765717D01*
X1229457Y765492D01*
X1228823Y765247D01*
X1228197Y764983D01*
X1227580Y764700D01*
X1226972Y764398D01*
X1226373Y764077D01*
X1225785Y763737D01*
X1225208Y763380D01*
X1224641Y763006D01*
X1224087Y762613D01*
X1223545Y762204D01*
X1223016Y761779D01*
X1222500Y761337D01*
X1221998Y760879D01*
X1221510Y760407D01*
X1221037Y759919D01*
X1220580Y759417D01*
X1220138Y758901D01*
X1219713Y758372D01*
X1219303Y757830D01*
X1218911Y757275D01*
X1218536Y756709D01*
X1218179Y756132D01*
X1217840Y755543D01*
X1217519Y754945D01*
X1217217Y754336D01*
X1216933Y753719D01*
X1216669Y753093D01*
X1216424Y752460D01*
X1216199Y751819D01*
X1215994Y751172D01*
X1215809Y750518D01*
X1215644Y749859D01*
X1215500Y749196D01*
X1215376Y748528D01*
X1215273Y747857D01*
X1215191Y747183D01*
X1215129Y746506D01*
X1215088Y745828D01*
X1205088D01*
X1205124Y746646D01*
X1205180Y747463D01*
X1205258Y748278D01*
X1205356Y749090D01*
X1205475Y749900D01*
X1205615Y750707D01*
X1205775Y751509D01*
X1205956Y752308D01*
X1206157Y753101D01*
X1206378Y753889D01*
X1206620Y754671D01*
X1206881Y755447D01*
X1207162Y756216D01*
X1207463Y756977D01*
X1207783Y757731D01*
X1208122Y758476D01*
X1208480Y759212D01*
X1208857Y759938D01*
X1209252Y760655D01*
X1209666Y761361D01*
X1210097Y762057D01*
X1210546Y762741D01*
X1211013Y763414D01*
X1211496Y764075D01*
X1211997Y764722D01*
X1212513Y765357D01*
X1213046Y765979D01*
X1213594Y766586D01*
X1214158Y767180D01*
X1214737Y767759D01*
X1215330Y768323D01*
X1215938Y768871D01*
X1216559Y769404D01*
X1217194Y769920D01*
X1217842Y770421D01*
X1218503Y770904D01*
X1219175Y771370D01*
X1219860Y771820D01*
X1220555Y772251D01*
X1221262Y772664D01*
X1221979Y773060D01*
X1222705Y773437D01*
X1223441Y773795D01*
X1224186Y774134D01*
X1224939Y774454D01*
X1225701Y774755D01*
X1226469Y775036D01*
X1227245Y775297D01*
X1228027Y775538D01*
X1228815Y775760D01*
X1229609Y775961D01*
X1230407Y776142D01*
X1231210Y776302D01*
X1232017Y776442D01*
X1232826Y776560D01*
X1233639Y776659D01*
X1234454Y776736D01*
X1235270Y776793D01*
X1236088Y776828D01*
D02*
G37*
G36*
X1239420Y711457D02*
Y721457D01*
X1240098Y721498D01*
X1240774Y721560D01*
X1241448Y721642D01*
X1242120Y721745D01*
X1242787Y721869D01*
X1243451Y722013D01*
X1244109Y722178D01*
X1244763Y722363D01*
X1245411Y722569D01*
X1246051Y722794D01*
X1246685Y723038D01*
X1247310Y723302D01*
X1247928Y723586D01*
X1248536Y723888D01*
X1249134Y724209D01*
X1249723Y724548D01*
X1250300Y724905D01*
X1250867Y725280D01*
X1251421Y725673D01*
X1251963Y726082D01*
X1252492Y726507D01*
X1253008Y726949D01*
X1253510Y727406D01*
X1253998Y727879D01*
X1254471Y728367D01*
X1254928Y728869D01*
X1255370Y729385D01*
X1255795Y729914D01*
X1256205Y730456D01*
X1256597Y731010D01*
X1256972Y731577D01*
X1257329Y732154D01*
X1257668Y732743D01*
X1257989Y733341D01*
X1258291Y733949D01*
X1258575Y734567D01*
X1258839Y735192D01*
X1259083Y735826D01*
X1259308Y736467D01*
X1259514Y737114D01*
X1259699Y737768D01*
X1259864Y738426D01*
X1260008Y739090D01*
X1260132Y739758D01*
X1260235Y740429D01*
X1260317Y741103D01*
X1260379Y741779D01*
X1260420Y742457D01*
X1270420D01*
X1270384Y741639D01*
X1270327Y740823D01*
X1270250Y740008D01*
X1270152Y739195D01*
X1270033Y738386D01*
X1269893Y737579D01*
X1269733Y736776D01*
X1269552Y735978D01*
X1269351Y735184D01*
X1269130Y734397D01*
X1268888Y733614D01*
X1268627Y732839D01*
X1268346Y732070D01*
X1268045Y731309D01*
X1267725Y730555D01*
X1267386Y729810D01*
X1267028Y729074D01*
X1266651Y728348D01*
X1266256Y727631D01*
X1265842Y726925D01*
X1265411Y726229D01*
X1264962Y725545D01*
X1264495Y724872D01*
X1264012Y724211D01*
X1263511Y723564D01*
X1262995Y722928D01*
X1262462Y722307D01*
X1261914Y721699D01*
X1261350Y721106D01*
X1260771Y720527D01*
X1260178Y719963D01*
X1259570Y719415D01*
X1258949Y718882D01*
X1258314Y718366D01*
X1257666Y717865D01*
X1257005Y717382D01*
X1256332Y716915D01*
X1255648Y716466D01*
X1254953Y716035D01*
X1254246Y715621D01*
X1253529Y715226D01*
X1252803Y714849D01*
X1252067Y714491D01*
X1251322Y714152D01*
X1250568Y713832D01*
X1249807Y713531D01*
X1249038Y713250D01*
X1248263Y712989D01*
X1247480Y712747D01*
X1246693Y712526D01*
X1245899Y712325D01*
X1245101Y712144D01*
X1244298Y711984D01*
X1243491Y711844D01*
X1242682Y711725D01*
X1241869Y711627D01*
X1241054Y711550D01*
X1240238Y711493D01*
X1239420Y711457D01*
D02*
G37*
G36*
X1270420Y745801D02*
X1260420D01*
X1260379Y746479D01*
X1260317Y747156D01*
X1260235Y747830D01*
X1260132Y748501D01*
X1260008Y749169D01*
X1259864Y749832D01*
X1259699Y750491D01*
X1259514Y751145D01*
X1259308Y751792D01*
X1259083Y752433D01*
X1258839Y753066D01*
X1258575Y753692D01*
X1258291Y754309D01*
X1257989Y754917D01*
X1257668Y755516D01*
X1257329Y756104D01*
X1256972Y756682D01*
X1256597Y757248D01*
X1256205Y757803D01*
X1255795Y758345D01*
X1255370Y758874D01*
X1254928Y759390D01*
X1254471Y759892D01*
X1253998Y760379D01*
X1253510Y760852D01*
X1253008Y761309D01*
X1252492Y761751D01*
X1251963Y762177D01*
X1251421Y762586D01*
X1250867Y762978D01*
X1250300Y763353D01*
X1249723Y763710D01*
X1249134Y764050D01*
X1248536Y764370D01*
X1247928Y764673D01*
X1247310Y764956D01*
X1246685Y765220D01*
X1246051Y765465D01*
X1245411Y765690D01*
X1244763Y765895D01*
X1244110Y766080D01*
X1243451Y766245D01*
X1242787Y766389D01*
X1242120Y766513D01*
X1241448Y766617D01*
X1240774Y766699D01*
X1240098Y766760D01*
X1239420Y766801D01*
Y776801D01*
X1240238Y776766D01*
X1241054Y776709D01*
X1241869Y776631D01*
X1242682Y776533D01*
X1243491Y776414D01*
X1244298Y776275D01*
X1245101Y776114D01*
X1245899Y775934D01*
X1246693Y775732D01*
X1247480Y775511D01*
X1248263Y775270D01*
X1249038Y775008D01*
X1249807Y774727D01*
X1250568Y774427D01*
X1251322Y774107D01*
X1252067Y773767D01*
X1252803Y773409D01*
X1253529Y773033D01*
X1254246Y772637D01*
X1254953Y772224D01*
X1255648Y771792D01*
X1256332Y771343D01*
X1257005Y770877D01*
X1257666Y770393D01*
X1258314Y769893D01*
X1258949Y769376D01*
X1259570Y768844D01*
X1260178Y768295D01*
X1260771Y767731D01*
X1261350Y767152D01*
X1261914Y766559D01*
X1262462Y765952D01*
X1262995Y765330D01*
X1263511Y764695D01*
X1264012Y764047D01*
X1264495Y763387D01*
X1264962Y762714D01*
X1265411Y762030D01*
X1265842Y761334D01*
X1266256Y760628D01*
X1266651Y759911D01*
X1267028Y759184D01*
X1267386Y758448D01*
X1267725Y757703D01*
X1268045Y756950D01*
X1268346Y756189D01*
X1268627Y755420D01*
X1268888Y754644D01*
X1269130Y753862D01*
X1269351Y753074D01*
X1269552Y752281D01*
X1269733Y751482D01*
X1269893Y750679D01*
X1270033Y749873D01*
X1270152Y749063D01*
X1270250Y748251D01*
X1270327Y747435D01*
X1270384Y746619D01*
X1270420Y745801D01*
D02*
G37*
G36*
X1286127Y645840D02*
X1280128D01*
Y649340D01*
X1286127Y649340D01*
Y645840D01*
D02*
G37*
G36*
X1289878Y644091D02*
X1286378D01*
Y652090D01*
X1289878D01*
Y644091D01*
D02*
G37*
G36*
X1286123Y641838D02*
X1280128D01*
Y645340D01*
X1286123D01*
Y641838D01*
D02*
G37*
G36*
X1286128Y637840D02*
X1280128D01*
Y641340D01*
X1286128Y641340D01*
Y637840D01*
D02*
G37*
G36*
X1289877Y635074D02*
X1286378D01*
Y643590D01*
X1289877D01*
Y635074D01*
D02*
G37*
G36*
X1300140Y645843D02*
X1294128D01*
X1294128Y649340D01*
X1300140D01*
Y645843D01*
D02*
G37*
G36*
X1293882Y644090D02*
X1290378D01*
Y652090D01*
X1293882Y652090D01*
Y644090D01*
D02*
G37*
G36*
X1300132Y641839D02*
X1294128D01*
Y645340D01*
X1300132D01*
Y641839D01*
D02*
G37*
G36*
X1300144Y637831D02*
X1294128D01*
X1294128Y641340D01*
X1300144Y641340D01*
Y637831D01*
D02*
G37*
G36*
X1293885Y635075D02*
X1290378D01*
X1290378Y643090D01*
X1293885D01*
Y635075D01*
D02*
G37*
G54D96*
X66004Y32311D02*
D03*
G54D146*
X147640Y94700D02*
D03*
G54D147*
X19307Y26862D02*
D03*
X112732Y44794D02*
D03*
X1010370Y125836D02*
D03*
X1020448Y125982D02*
D03*
X1030208Y125917D02*
D03*
X1040519Y125916D02*
D03*
G54D148*
X1058537Y94501D02*
D03*
G54D149*
X75101Y169012D02*
D03*
G54D150*
X993745Y170500D02*
D03*
X1012746D02*
D03*
X1003245Y193500D02*
D03*
X1148635Y151203D02*
D03*
X1158135Y128203D02*
D03*
X1167635Y151203D02*
D03*
X1115144D02*
D03*
X1124644Y128203D02*
D03*
X1134144Y151203D02*
D03*
G54D151*
X606000Y720250D02*
D03*
Y730250D02*
D03*
X617318Y720176D02*
D03*
Y730176D02*
D03*
X940000Y278991D02*
D03*
Y268991D02*
D03*
X1040833Y638422D02*
D03*
Y628422D02*
D03*
X1104471Y664116D02*
D03*
X666027Y790564D02*
D03*
Y780564D02*
D03*
X1204531Y564112D02*
D03*
Y574112D02*
D03*
X490840Y561514D02*
D03*
Y571514D02*
D03*
X490692Y552465D02*
D03*
Y542465D02*
D03*
X553908Y564263D02*
D03*
Y574263D02*
D03*
X553898Y553712D02*
D03*
Y543712D02*
D03*
X544075Y554069D02*
D03*
Y564069D02*
D03*
X565596Y553728D02*
D03*
Y563728D02*
D03*
X574406Y553092D02*
D03*
Y543092D02*
D03*
X1277057Y349718D02*
D03*
Y339718D02*
D03*
X1324415Y283659D02*
D03*
Y273659D02*
D03*
X1313706Y283448D02*
D03*
Y273448D02*
D03*
X1302184Y283659D02*
D03*
Y273659D02*
D03*
X58372Y372599D02*
D03*
Y382599D02*
D03*
X230024Y34438D02*
D03*
Y24438D02*
D03*
X1277550Y668428D02*
D03*
X1087410Y676238D02*
D03*
X1069916Y676407D02*
D03*
X1204488Y530581D02*
D03*
X1152830Y368795D02*
D03*
X1144000Y368500D02*
D03*
X1121853Y368693D02*
D03*
X986879Y532196D02*
D03*
X935757Y532674D02*
D03*
X975833Y492197D02*
D03*
X1113131Y368647D02*
D03*
X1094863Y368610D02*
D03*
X1085751D02*
D03*
X1064698Y368681D02*
D03*
X1055525Y368730D02*
D03*
X1034209D02*
D03*
X1024727Y368684D02*
D03*
X1261028Y319855D02*
D03*
X1249715Y319818D02*
D03*
X1191315Y143276D02*
D03*
X1106927Y334670D02*
D03*
X1097576Y334603D02*
D03*
X1083269Y199418D02*
D03*
X999281Y132290D02*
D03*
X947854Y132290D02*
D03*
X756606Y347163D02*
D03*
X664392Y830981D02*
D03*
X203982Y798399D02*
D03*
X214670D02*
D03*
X193333D02*
D03*
X240465Y798042D02*
D03*
X198445Y657460D02*
D03*
X164536Y568192D02*
D03*
X279900Y557027D02*
D03*
X243810Y555648D02*
D03*
X233748Y522425D02*
D03*
X230339Y474579D02*
D03*
X134365Y476264D02*
D03*
X236658Y433092D02*
D03*
X171736Y432220D02*
D03*
X402697Y379665D02*
D03*
X400250Y364752D02*
D03*
X417051Y353076D02*
D03*
X270664Y346430D02*
D03*
X336748Y150147D02*
D03*
X322521Y33299D02*
D03*
X151552Y369366D02*
D03*
X54750Y348721D02*
D03*
X230282Y44612D02*
D03*
X124003Y38423D02*
D03*
X112741Y86203D02*
D03*
X9909Y20088D02*
D03*
X958975Y476760D02*
D03*
X322521Y43299D02*
D03*
X112993Y17188D02*
D03*
X103969Y341003D02*
D03*
Y351003D02*
D03*
Y319269D02*
D03*
Y329269D02*
D03*
X112741Y76203D02*
D03*
X123195Y73753D02*
D03*
Y83753D02*
D03*
X133789Y73753D02*
D03*
Y83753D02*
D03*
X9447Y40141D02*
D03*
Y50141D02*
D03*
X112993Y27188D02*
D03*
X19784Y39500D02*
D03*
Y49500D02*
D03*
X9909Y30088D02*
D03*
X134957Y38422D02*
D03*
Y48422D02*
D03*
X124003Y48423D02*
D03*
X760294Y88878D02*
D03*
Y98878D02*
D03*
X686256Y102719D02*
D03*
Y112719D02*
D03*
X686085Y83827D02*
D03*
Y93827D02*
D03*
X230282Y54612D02*
D03*
X336748Y160147D02*
D03*
X1204488Y540581D02*
D03*
X1332610Y612892D02*
D03*
Y622892D02*
D03*
X420425Y158603D02*
D03*
Y148603D02*
D03*
X430784Y158733D02*
D03*
Y148733D02*
D03*
X54750Y358721D02*
D03*
X1273419Y648853D02*
D03*
Y638853D02*
D03*
X1277550Y658428D02*
D03*
X938250Y704609D02*
D03*
X664392Y820981D02*
D03*
X674718Y790658D02*
D03*
Y780658D02*
D03*
X630234Y720176D02*
D03*
Y730176D02*
D03*
X200988Y557512D02*
D03*
Y567512D02*
D03*
X210826Y555722D02*
D03*
Y565722D02*
D03*
X220468Y555648D02*
D03*
Y565648D02*
D03*
X243810D02*
D03*
X230339Y565648D02*
D03*
Y555648D02*
D03*
X269093Y798101D02*
D03*
X1045986Y368730D02*
D03*
X279900Y567027D02*
D03*
X249871Y798075D02*
D03*
Y808075D02*
D03*
X269093Y808101D02*
D03*
X285750Y798000D02*
D03*
Y808000D02*
D03*
X344811Y657460D02*
D03*
Y647460D02*
D03*
X305801Y657618D02*
D03*
Y647618D02*
D03*
X267210Y657618D02*
D03*
Y647618D02*
D03*
X277593Y657608D02*
D03*
Y647608D02*
D03*
X237800Y657608D02*
D03*
Y647608D02*
D03*
X247164Y657544D02*
D03*
Y647544D02*
D03*
X208449Y657460D02*
D03*
Y647460D02*
D03*
X198445D02*
D03*
X203982Y808399D02*
D03*
X214670D02*
D03*
X193333D02*
D03*
X1191315Y153276D02*
D03*
X1181797Y153202D02*
D03*
Y143202D02*
D03*
X947854Y122290D02*
D03*
X999281Y122290D02*
D03*
X756606Y337163D02*
D03*
X616999Y141539D02*
D03*
Y151539D02*
D03*
X606001Y141613D02*
D03*
Y151613D02*
D03*
X595000Y141650D02*
D03*
Y151650D02*
D03*
X573000Y141539D02*
D03*
Y151539D02*
D03*
X551000Y141576D02*
D03*
Y151576D02*
D03*
X540087Y141539D02*
D03*
Y151539D02*
D03*
X940000Y288418D02*
D03*
Y298418D02*
D03*
X958975Y486760D02*
D03*
X986879Y542196D02*
D03*
X935757Y542674D02*
D03*
X1094863Y378610D02*
D03*
X1104001Y378647D02*
D03*
Y368647D02*
D03*
X1113131Y378647D02*
D03*
X1121853Y378693D02*
D03*
X1133657Y378721D02*
D03*
Y368721D02*
D03*
X1097576Y324603D02*
D03*
X1144000Y378500D02*
D03*
X1152830Y378795D02*
D03*
X1162383Y378912D02*
D03*
Y368912D02*
D03*
X1016750Y484500D02*
D03*
Y494500D02*
D03*
X975833Y502197D02*
D03*
X1092685Y199399D02*
D03*
Y189399D02*
D03*
X1083269Y189418D02*
D03*
X1106927Y324670D02*
D03*
X1261028Y329855D02*
D03*
X1249715Y329818D02*
D03*
X588737Y533822D02*
D03*
Y543822D02*
D03*
X1203448Y607233D02*
D03*
Y617233D02*
D03*
X938250Y694609D02*
D03*
X1104471Y654116D02*
D03*
X1069916Y686407D02*
D03*
X1087410Y686238D02*
D03*
X326071Y647460D02*
D03*
X315989Y647544D02*
D03*
X335504Y647460D02*
D03*
X286809Y647534D02*
D03*
X296060Y647581D02*
D03*
X164536Y578192D02*
D03*
X133359Y578540D02*
D03*
Y568540D02*
D03*
X124272D02*
D03*
Y578540D02*
D03*
X130627Y541938D02*
D03*
Y531938D02*
D03*
X146012Y486264D02*
D03*
Y476264D02*
D03*
X444089Y551236D02*
D03*
Y541236D02*
D03*
X171736Y422220D02*
D03*
X277809Y537758D02*
D03*
Y527758D02*
D03*
X151552Y379366D02*
D03*
X218272Y449435D02*
D03*
Y439435D02*
D03*
X233748Y512425D02*
D03*
X230339Y484579D02*
D03*
X241433Y478126D02*
D03*
X211625Y484227D02*
D03*
Y494227D02*
D03*
X270664Y336430D02*
D03*
X454709Y541236D02*
D03*
Y551236D02*
D03*
X400250Y354752D02*
D03*
X241433Y468126D02*
D03*
X236658Y423092D02*
D03*
X246701Y433092D02*
D03*
Y423092D02*
D03*
X262300Y413027D02*
D03*
Y423027D02*
D03*
X402697Y389665D02*
D03*
X417051Y363076D02*
D03*
X287683Y383885D02*
D03*
Y373885D02*
D03*
X257160Y647618D02*
D03*
Y657618D02*
D03*
X286809Y657534D02*
D03*
X958975Y298262D02*
D03*
Y288262D02*
D03*
X1034209Y378730D02*
D03*
X335504Y657460D02*
D03*
X228232Y647618D02*
D03*
Y657618D02*
D03*
X1085751Y378610D02*
D03*
X134365Y486264D02*
D03*
X296060Y657581D02*
D03*
X958863Y279278D02*
D03*
Y269278D02*
D03*
X315989Y657544D02*
D03*
X1024727Y378684D02*
D03*
X240465Y808042D02*
D03*
X617427Y697937D02*
D03*
Y707937D02*
D03*
X218217Y647660D02*
D03*
Y657660D02*
D03*
X1076559Y368681D02*
D03*
Y378681D02*
D03*
X1064698D02*
D03*
X950004Y298336D02*
D03*
Y288336D02*
D03*
X1027657Y178500D02*
D03*
Y168500D02*
D03*
X1045986Y378730D02*
D03*
X326071Y657460D02*
D03*
X1055525Y378730D02*
D03*
G54D152*
X385588Y386304D02*
D03*
X375588D02*
D03*
X1054214Y684738D02*
D03*
X957500Y681902D02*
D03*
X1183750Y644315D02*
D03*
X872831Y817000D02*
D03*
X862831D02*
D03*
X1180328Y565020D02*
D03*
X1170328D02*
D03*
X843500Y320000D02*
D03*
X853500D02*
D03*
X1190945Y200988D02*
D03*
X1200945D02*
D03*
X1044214Y684738D02*
D03*
X983455Y682109D02*
D03*
X947500Y681902D02*
D03*
X1325816Y644475D02*
D03*
X1193750Y644315D02*
D03*
X1069624Y564362D02*
D03*
X1041464Y564093D02*
D03*
X1033713Y564167D02*
D03*
X994123Y465436D02*
D03*
X994300Y456166D02*
D03*
X994352Y447201D02*
D03*
X967046Y356534D02*
D03*
X1200945Y209736D02*
D03*
X1075549Y208800D02*
D03*
X978451Y152952D02*
D03*
X152223Y568540D02*
D03*
X447123Y403874D02*
D03*
X167974Y549885D02*
D03*
X167558Y486328D02*
D03*
X191238Y468469D02*
D03*
X93157Y445152D02*
D03*
X80827Y433604D02*
D03*
X82691Y398944D02*
D03*
X388824Y330112D02*
D03*
X280147Y81702D02*
D03*
X151022Y326073D02*
D03*
X150985Y336140D02*
D03*
X113044Y374956D02*
D03*
X117282Y292522D02*
D03*
X117630Y281982D02*
D03*
X156019Y110193D02*
D03*
X153293Y83860D02*
D03*
X497570Y816077D02*
D03*
X507570D02*
D03*
X507742Y805805D02*
D03*
X157559Y486328D02*
D03*
X103157Y445152D02*
D03*
X466284Y333886D02*
D03*
X457123Y403874D02*
D03*
X497742Y805805D02*
D03*
X107630Y281982D02*
D03*
X143293Y83860D02*
D03*
X270147Y81702D02*
D03*
X166019Y110193D02*
D03*
X1315816Y644475D02*
D03*
Y634475D02*
D03*
X1325816D02*
D03*
X1342360Y601174D02*
D03*
X1332360D02*
D03*
X160985Y336140D02*
D03*
X161022Y326073D02*
D03*
X270627Y555898D02*
D03*
X1190945Y209736D02*
D03*
X1173600Y194003D02*
D03*
X260627Y555898D02*
D03*
X1163600Y194003D02*
D03*
X1117005Y172598D02*
D03*
X1127005D02*
D03*
X1145296Y163168D02*
D03*
X1135296D02*
D03*
X1117109D02*
D03*
X1127109D02*
D03*
X1145296Y172598D02*
D03*
X988451Y152952D02*
D03*
X968725Y153331D02*
D03*
X958725D02*
D03*
X535280Y359789D02*
D03*
X535133Y322198D02*
D03*
X535169Y333450D02*
D03*
X535206Y305329D02*
D03*
X545280Y359789D02*
D03*
X535316Y350959D02*
D03*
X545316D02*
D03*
X535280Y342382D02*
D03*
X545280D02*
D03*
X545169Y333450D02*
D03*
X545133Y322198D02*
D03*
X535133Y314114D02*
D03*
X545133D02*
D03*
X545206Y305329D02*
D03*
X787249Y373639D02*
D03*
X725332Y404499D02*
D03*
X735332D02*
D03*
X787228Y337115D02*
D03*
X777228D02*
D03*
X777250Y364427D02*
D03*
X787250D02*
D03*
X777249Y373639D02*
D03*
X777164Y355505D02*
D03*
X787164D02*
D03*
X777204Y346712D02*
D03*
X787204D02*
D03*
X735000Y373500D02*
D03*
X735002Y364172D02*
D03*
X735212Y393106D02*
D03*
X735197Y383883D02*
D03*
X787250Y385500D02*
D03*
X777250D02*
D03*
X725212Y393106D02*
D03*
X725002Y364172D02*
D03*
X725000Y373500D02*
D03*
X725197Y383883D02*
D03*
X977046Y356534D02*
D03*
X977083Y346733D02*
D03*
X967083D02*
D03*
Y337226D02*
D03*
X977083D02*
D03*
Y327333D02*
D03*
X967083D02*
D03*
X943189Y310645D02*
D03*
X933189D02*
D03*
X1004446Y438453D02*
D03*
X994446D02*
D03*
X1004352Y447201D02*
D03*
X1004299Y456166D02*
D03*
X1023713Y564167D02*
D03*
X1051464Y564093D02*
D03*
X1059624Y564362D02*
D03*
X1004123Y465436D02*
D03*
X1065549Y208800D02*
D03*
X973455Y682109D02*
D03*
X142223Y568540D02*
D03*
X72691Y388884D02*
D03*
X82691D02*
D03*
X72691Y398944D02*
D03*
X74012Y442146D02*
D03*
X64012D02*
D03*
X74031Y451213D02*
D03*
X64031D02*
D03*
X157974Y549885D02*
D03*
X123044Y374956D02*
D03*
X141552Y398638D02*
D03*
X151552D02*
D03*
X151012Y389235D02*
D03*
X141012D02*
D03*
X201238Y468469D02*
D03*
X230589Y494723D02*
D03*
X220589D02*
D03*
X359456Y330112D02*
D03*
X378824D02*
D03*
X369456D02*
D03*
X350008Y372309D02*
D03*
X340008D02*
D03*
X456284Y333886D02*
D03*
X1135296Y172598D02*
D03*
X70827Y433604D02*
D03*
X107282Y292522D02*
D03*
G54D153*
X325250Y684250D02*
D03*
X1108349Y707240D02*
D03*
X452678Y314052D02*
D03*
X365681Y684250D02*
D03*
Y728250D02*
D03*
X1108349Y751240D02*
D03*
X1012275Y699501D02*
D03*
Y655501D02*
D03*
X452678Y270052D02*
D03*
X325250Y728250D02*
D03*
G54D154*
X1053678Y671751D02*
D03*
Y654614D02*
D03*
X957499Y667967D02*
D03*
X957626Y650001D02*
D03*
X969271Y650001D02*
D03*
Y667454D02*
D03*
X1145500Y656439D02*
D03*
X1145253Y672874D02*
D03*
X1145396Y641225D02*
D03*
X1129500Y656439D02*
D03*
X1129253Y672874D02*
D03*
X1037678Y654614D02*
D03*
Y671751D02*
D03*
X985271Y667454D02*
D03*
X941499Y667967D02*
D03*
X1129396Y641225D02*
D03*
X985271Y650001D02*
D03*
X941626Y650001D02*
D03*
X366449Y156877D02*
D03*
X350449D02*
D03*
X652191Y282185D02*
D03*
X636191D02*
D03*
G54D155*
X1054086Y694900D02*
D03*
X957626Y694620D02*
D03*
X1184846Y631560D02*
D03*
X1024874Y623750D02*
D03*
X1061960Y733000D02*
D03*
X965500Y732720D02*
D03*
X1176972Y593460D02*
D03*
X1017000Y585650D02*
D03*
X957626Y732720D02*
D03*
X1033002Y623750D02*
D03*
X1009126D02*
D03*
X1000998D02*
D03*
Y585650D02*
D03*
X1009126D02*
D03*
X1024874D02*
D03*
X1033002D02*
D03*
X1017000Y623750D02*
D03*
X1192974Y593460D02*
D03*
X1184846D02*
D03*
X1169098D02*
D03*
X1160970D02*
D03*
Y631560D02*
D03*
X1169098D02*
D03*
X1176972D02*
D03*
X1192974D02*
D03*
X949498Y694620D02*
D03*
X965500D02*
D03*
X973374D02*
D03*
X981502D02*
D03*
Y732720D02*
D03*
X973374D02*
D03*
X949498D02*
D03*
X1061960Y694900D02*
D03*
X1045958D02*
D03*
X1069834D02*
D03*
X1077962D02*
D03*
Y733000D02*
D03*
X1069834D02*
D03*
X1054086D02*
D03*
X1045958D02*
D03*
G54D156*
X1070374Y665184D02*
D03*
X1087438Y664864D02*
D03*
Y648864D02*
D03*
X1070374Y649184D02*
D03*
X322589Y71274D02*
D03*
X1161205Y778923D02*
D03*
X322589Y55274D02*
D03*
X721802Y309225D02*
D03*
Y290225D02*
D03*
X739370Y309613D02*
D03*
Y290613D02*
D03*
X1161205Y759923D02*
D03*
G54D157*
X860088Y802304D02*
D03*
X872788D02*
D03*
X885488D02*
D03*
X898188D02*
D03*
X885488Y749304D02*
D03*
X872788D02*
D03*
X860088D02*
D03*
X898188D02*
D03*
G54D158*
X1077178Y777410D02*
D03*
X1017179D02*
D03*
X979749Y777500D02*
D03*
X919751D02*
D03*
X1141769Y598447D02*
D03*
X1081771D02*
D03*
G54D159*
X1178447Y548406D02*
D03*
Y554406D02*
D03*
X222500Y800000D02*
D03*
X291573Y561835D02*
D03*
Y567835D02*
D03*
X222500Y806000D02*
D03*
X1071040Y138349D02*
D03*
Y144349D02*
D03*
X1080561Y138250D02*
D03*
Y144250D02*
D03*
X1086250Y138250D02*
D03*
Y144250D02*
D03*
X1095235Y138250D02*
D03*
X1050351Y138349D02*
D03*
X1101000Y138250D02*
D03*
X1065351Y138349D02*
D03*
X1056040D02*
D03*
X1065351Y144349D02*
D03*
X1056040D02*
D03*
X1050351D02*
D03*
X1095235Y144250D02*
D03*
X1101000D02*
D03*
G54D160*
X491026Y577966D02*
D03*
X497026D02*
D03*
X234000Y797258D02*
D03*
X497236Y880784D02*
D03*
X503236D02*
D03*
X497269Y886749D02*
D03*
X503269D02*
D03*
X1031904Y892253D02*
D03*
X1037904D02*
D03*
X1031904Y886132D02*
D03*
X1037904D02*
D03*
X228000Y797258D02*
D03*
G54D161*
X1245345Y381283D02*
D03*
X1251845Y381283D02*
D03*
X1258345D02*
D03*
X1264845Y381283D02*
D03*
Y349284D02*
D03*
X1258345D02*
D03*
X1251845D02*
D03*
X1245345D02*
D03*
G54D162*
X1255095Y369283D02*
D03*
G54D163*
X1269065Y365285D02*
D03*
X1241125D02*
D03*
G54D164*
X1312456Y339524D02*
D03*
X1289456Y349024D02*
D03*
X1312456Y358524D02*
D03*
X1184950Y183362D02*
D03*
X266625Y498374D02*
D03*
X1184950Y164362D02*
D03*
X1161950Y173862D02*
D03*
X266625Y479374D02*
D03*
X243625Y488874D02*
D03*
G54D165*
X699230Y576940D02*
D03*
Y583440D02*
D03*
X673231D02*
D03*
X660231D02*
D03*
Y576940D02*
D03*
X712231Y518440D02*
D03*
Y570440D02*
D03*
X660231Y550940D02*
D03*
X640981Y573940D02*
D03*
X647231Y544440D02*
D03*
Y531440D02*
D03*
Y524940D02*
D03*
Y518440D02*
D03*
X686231Y589940D02*
D03*
X759981Y620440D02*
D03*
X743481D02*
D03*
X732481Y614940D02*
D03*
X754981Y597940D02*
D03*
X748981D02*
D03*
Y591940D02*
D03*
X742980Y603940D02*
D03*
Y597940D02*
D03*
Y609940D02*
D03*
X736981D02*
D03*
Y597940D02*
D03*
X748981Y585940D02*
D03*
X742980Y579940D02*
D03*
X736981Y585940D02*
D03*
Y579940D02*
D03*
X724980Y609940D02*
D03*
X721481Y620440D02*
D03*
X718731Y609440D02*
D03*
X705731D02*
D03*
X712231D02*
D03*
X699230D02*
D03*
X692731D02*
D03*
X688481Y620440D02*
D03*
Y614940D02*
D03*
X730981Y597940D02*
D03*
X718731Y602940D02*
D03*
X705731D02*
D03*
X712231D02*
D03*
X718731Y596440D02*
D03*
X730981Y591940D02*
D03*
X724980Y579940D02*
D03*
X730981D02*
D03*
X724980Y591940D02*
D03*
X718731Y589940D02*
D03*
Y583440D02*
D03*
X699230Y602940D02*
D03*
Y589940D02*
D03*
X692731Y602940D02*
D03*
Y589940D02*
D03*
X754981Y573940D02*
D03*
X748981Y579940D02*
D03*
Y567940D02*
D03*
Y561940D02*
D03*
X742980Y573940D02*
D03*
X730981D02*
D03*
X742980Y561940D02*
D03*
X736981D02*
D03*
X754981Y549940D02*
D03*
X742980Y555940D02*
D03*
X748981Y549940D02*
D03*
Y543940D02*
D03*
X742980D02*
D03*
X730981Y555940D02*
D03*
X736981Y543940D02*
D03*
Y537940D02*
D03*
X748981D02*
D03*
X724980Y573940D02*
D03*
X718731Y570440D02*
D03*
Y576940D02*
D03*
X724980Y561940D02*
D03*
Y567940D02*
D03*
X718731Y563940D02*
D03*
X699230Y570440D02*
D03*
X692731Y563940D02*
D03*
X705731D02*
D03*
X699230D02*
D03*
X724980Y555940D02*
D03*
X718731Y557440D02*
D03*
X712231D02*
D03*
X724980Y543940D02*
D03*
Y537940D02*
D03*
X718731Y550940D02*
D03*
X692731Y557440D02*
D03*
Y550940D02*
D03*
Y544440D02*
D03*
X705731D02*
D03*
X699230Y537940D02*
D03*
X748981Y531940D02*
D03*
X754981D02*
D03*
X748981Y525940D02*
D03*
X742980D02*
D03*
X736981Y531940D02*
D03*
Y525940D02*
D03*
X742980Y519940D02*
D03*
X736981Y513940D02*
D03*
X748981D02*
D03*
Y507940D02*
D03*
X754981D02*
D03*
X736981D02*
D03*
X742980D02*
D03*
Y501940D02*
D03*
X724980Y531940D02*
D03*
Y525940D02*
D03*
X730981D02*
D03*
X724980Y519940D02*
D03*
X705731Y524940D02*
D03*
X699230Y531440D02*
D03*
X692731D02*
D03*
Y524940D02*
D03*
X718731Y511940D02*
D03*
X724980Y507940D02*
D03*
Y501940D02*
D03*
X718731Y505440D02*
D03*
X705731Y518440D02*
D03*
Y505440D02*
D03*
X699230D02*
D03*
X692731D02*
D03*
X748981Y489940D02*
D03*
X742980D02*
D03*
Y495940D02*
D03*
X730981D02*
D03*
Y489940D02*
D03*
Y483940D02*
D03*
X754981D02*
D03*
X748981Y471940D02*
D03*
X742980Y483940D02*
D03*
X736981Y477940D02*
D03*
X748981D02*
D03*
X718731Y498940D02*
D03*
X724980Y495940D02*
D03*
X705731Y498940D02*
D03*
X724980Y489940D02*
D03*
X706981Y477940D02*
D03*
X700981Y489940D02*
D03*
X759981Y466440D02*
D03*
Y455440D02*
D03*
X748981Y465940D02*
D03*
X742980D02*
D03*
X743481Y455440D02*
D03*
X737980Y460940D02*
D03*
X660231Y609440D02*
D03*
X640981Y609940D02*
D03*
X686231Y609440D02*
D03*
X666731D02*
D03*
X627981Y614940D02*
D03*
X634981Y609940D02*
D03*
X627981Y620440D02*
D03*
X622981Y609940D02*
D03*
X679731Y609440D02*
D03*
X673231D02*
D03*
X686231Y602940D02*
D03*
X679731D02*
D03*
X666731D02*
D03*
X660231D02*
D03*
X653731Y609440D02*
D03*
X647231D02*
D03*
X653731Y602940D02*
D03*
X622981Y603940D02*
D03*
X616981D02*
D03*
X640981D02*
D03*
X605980Y620440D02*
D03*
Y609440D02*
D03*
X686231Y596440D02*
D03*
X679731Y589940D02*
D03*
X673231Y596440D02*
D03*
Y589940D02*
D03*
X686231Y583440D02*
D03*
Y576940D02*
D03*
X673231D02*
D03*
X666731Y589940D02*
D03*
Y583440D02*
D03*
Y576940D02*
D03*
X686231Y570440D02*
D03*
Y563940D02*
D03*
X679731D02*
D03*
X673231D02*
D03*
Y557440D02*
D03*
X666731Y570440D02*
D03*
Y563940D02*
D03*
Y557440D02*
D03*
X653731Y596440D02*
D03*
X640981Y597940D02*
D03*
Y591940D02*
D03*
X660231Y589940D02*
D03*
X647231D02*
D03*
X653731D02*
D03*
X634981Y597940D02*
D03*
X622981Y591940D02*
D03*
X628981D02*
D03*
X616981Y597940D02*
D03*
Y591940D02*
D03*
X634981D02*
D03*
X616981Y585940D02*
D03*
X653731Y570440D02*
D03*
X647231D02*
D03*
X660231D02*
D03*
Y557440D02*
D03*
X647231D02*
D03*
Y583440D02*
D03*
X640981Y579940D02*
D03*
X634981Y585940D02*
D03*
X647231Y576940D02*
D03*
Y563940D02*
D03*
X673231Y550940D02*
D03*
X679731Y537940D02*
D03*
X686231Y531440D02*
D03*
X673231Y524940D02*
D03*
X666731D02*
D03*
X660231Y544440D02*
D03*
X653731Y550940D02*
D03*
X660231Y537940D02*
D03*
Y524940D02*
D03*
X686231D02*
D03*
Y518440D02*
D03*
X666731D02*
D03*
X686231Y511940D02*
D03*
X660231Y518440D02*
D03*
Y511940D02*
D03*
X653731D02*
D03*
X647231Y550940D02*
D03*
X640981Y555940D02*
D03*
Y543940D02*
D03*
Y537940D02*
D03*
X647231D02*
D03*
X634981Y543940D02*
D03*
Y537940D02*
D03*
X611481Y548940D02*
D03*
X616981Y543940D02*
D03*
X628981D02*
D03*
X616981Y537940D02*
D03*
X605980D02*
D03*
X611481D02*
D03*
X640981Y531940D02*
D03*
Y525940D02*
D03*
X634981Y531940D02*
D03*
Y525940D02*
D03*
X647231Y511940D02*
D03*
X640981Y519940D02*
D03*
X634981D02*
D03*
Y513940D02*
D03*
X628981Y531940D02*
D03*
Y525940D02*
D03*
X616981Y531940D02*
D03*
Y525940D02*
D03*
Y519940D02*
D03*
X622981Y513940D02*
D03*
X628981D02*
D03*
X616981D02*
D03*
X679731Y505440D02*
D03*
X686231D02*
D03*
X673231D02*
D03*
X666731D02*
D03*
X640981Y507940D02*
D03*
X653731Y505440D02*
D03*
X647231D02*
D03*
X686231Y498940D02*
D03*
X666731D02*
D03*
X664981Y489940D02*
D03*
X682981D02*
D03*
Y477940D02*
D03*
X664981D02*
D03*
X653731Y498940D02*
D03*
X640981Y501940D02*
D03*
X647231Y498940D02*
D03*
X640981Y495940D02*
D03*
X634981Y507940D02*
D03*
Y501940D02*
D03*
Y495940D02*
D03*
X628981Y501940D02*
D03*
X616981Y507940D02*
D03*
Y501940D02*
D03*
Y495940D02*
D03*
X634981Y477940D02*
D03*
X616981Y489940D02*
D03*
X622981D02*
D03*
X605980Y488440D02*
D03*
Y455440D02*
D03*
X611481Y570940D02*
D03*
X679731Y498940D02*
D03*
X640981Y561940D02*
D03*
X605980Y521440D02*
D03*
X616981Y609940D02*
D03*
X748981D02*
D03*
X754981D02*
D03*
X628981Y603940D02*
D03*
X634981D02*
D03*
X724980D02*
D03*
X730981D02*
D03*
X736981D02*
D03*
X748981D02*
D03*
X754981D02*
D03*
X724980Y597940D02*
D03*
X736981Y591940D02*
D03*
X742980D02*
D03*
X754981D02*
D03*
X622981Y585940D02*
D03*
X640981D02*
D03*
X724980D02*
D03*
X730981D02*
D03*
X742980D02*
D03*
X754981D02*
D03*
X616981Y579940D02*
D03*
X622981D02*
D03*
X628981D02*
D03*
X634981D02*
D03*
X754981D02*
D03*
X616981Y573940D02*
D03*
X622981D02*
D03*
X628981D02*
D03*
X634981D02*
D03*
X736981D02*
D03*
X748981D02*
D03*
X616981Y567940D02*
D03*
X730981D02*
D03*
X736981D02*
D03*
X742980D02*
D03*
X754981D02*
D03*
X616981Y561940D02*
D03*
X622981D02*
D03*
X628981D02*
D03*
X634981D02*
D03*
X730981D02*
D03*
X754981D02*
D03*
X616981Y555940D02*
D03*
X634981D02*
D03*
X736981D02*
D03*
X748981D02*
D03*
X754981D02*
D03*
X616981Y549940D02*
D03*
X724980D02*
D03*
X730981D02*
D03*
X736981D02*
D03*
X742980D02*
D03*
X622981Y543940D02*
D03*
X730981D02*
D03*
X754981D02*
D03*
X622981Y537940D02*
D03*
X628981D02*
D03*
X730981D02*
D03*
X742980D02*
D03*
X754981D02*
D03*
X622981Y531940D02*
D03*
X730981D02*
D03*
X742980D02*
D03*
X622981Y525940D02*
D03*
X754981D02*
D03*
X622981Y519940D02*
D03*
X628981D02*
D03*
X730981D02*
D03*
X736981D02*
D03*
X748981D02*
D03*
X754981D02*
D03*
X640981Y513940D02*
D03*
X724980D02*
D03*
X730981D02*
D03*
X742980D02*
D03*
X754981D02*
D03*
X622981Y507940D02*
D03*
X628981D02*
D03*
X730981D02*
D03*
X647231Y602940D02*
D03*
X673231D02*
D03*
X647231Y596440D02*
D03*
X660231D02*
D03*
X666731D02*
D03*
X679731D02*
D03*
X692731D02*
D03*
X699230D02*
D03*
X705731D02*
D03*
X712231D02*
D03*
X705731Y589940D02*
D03*
X712231D02*
D03*
X653731Y583440D02*
D03*
X692731D02*
D03*
X705731D02*
D03*
X712231D02*
D03*
X653731Y576940D02*
D03*
X679731D02*
D03*
X692731D02*
D03*
X712231D02*
D03*
X673231Y570440D02*
D03*
X679731D02*
D03*
X692731D02*
D03*
X705731D02*
D03*
X653731Y563940D02*
D03*
X660231D02*
D03*
X712231D02*
D03*
X653731Y557440D02*
D03*
X699230D02*
D03*
X705731D02*
D03*
X699230Y550940D02*
D03*
X705731D02*
D03*
X712231D02*
D03*
X653731Y537940D02*
D03*
Y544440D02*
D03*
X699230D02*
D03*
X712231D02*
D03*
X718731D02*
D03*
X705731Y537940D02*
D03*
X712231D02*
D03*
X718731D02*
D03*
X653731Y531440D02*
D03*
X660231D02*
D03*
X705731D02*
D03*
X712231D02*
D03*
X718731D02*
D03*
X653731Y524940D02*
D03*
X699230D02*
D03*
X712231D02*
D03*
X718731D02*
D03*
X653731Y518440D02*
D03*
X673231D02*
D03*
X679731D02*
D03*
X692731D02*
D03*
X699230D02*
D03*
X718731D02*
D03*
X666731Y511940D02*
D03*
X673231D02*
D03*
X679731D02*
D03*
X692731D02*
D03*
X699230D02*
D03*
X705731D02*
D03*
X712231D02*
D03*
X660231Y505440D02*
D03*
X712231D02*
D03*
X660231Y498940D02*
D03*
X673231D02*
D03*
X692731D02*
D03*
X699230D02*
D03*
X712231D02*
D03*
X622981Y501940D02*
D03*
X730981D02*
D03*
X736981D02*
D03*
X748981D02*
D03*
X754981D02*
D03*
X622981Y495940D02*
D03*
X736981D02*
D03*
X748981D02*
D03*
X754981D02*
D03*
X628981Y489940D02*
D03*
X634981D02*
D03*
X646981D02*
D03*
X652981D02*
D03*
X670981D02*
D03*
X688981D02*
D03*
X706981D02*
D03*
X718981D02*
D03*
X736981D02*
D03*
X754981D02*
D03*
X622981Y483940D02*
D03*
X628981D02*
D03*
X634981D02*
D03*
X646981D02*
D03*
X652981D02*
D03*
X664981D02*
D03*
X670981D02*
D03*
X682981D02*
D03*
X688981D02*
D03*
X700981D02*
D03*
X724980D02*
D03*
X736981D02*
D03*
X748981D02*
D03*
X622981Y477940D02*
D03*
X628981D02*
D03*
X646981D02*
D03*
X652981D02*
D03*
X670981D02*
D03*
X688981D02*
D03*
X700981D02*
D03*
X718981D02*
D03*
X724980D02*
D03*
X730981D02*
D03*
X742980D02*
D03*
X754981D02*
D03*
X759981Y521440D02*
D03*
Y526940D02*
D03*
Y537940D02*
D03*
Y543440D02*
D03*
Y554440D02*
D03*
Y559940D02*
D03*
Y570940D02*
D03*
Y576440D02*
D03*
Y587440D02*
D03*
Y592940D02*
D03*
Y603940D02*
D03*
Y609440D02*
D03*
X616981Y614940D02*
D03*
X622481D02*
D03*
X633481D02*
D03*
X638981D02*
D03*
X644481D02*
D03*
X649981D02*
D03*
X655481D02*
D03*
X660981D02*
D03*
X666480D02*
D03*
X671981D02*
D03*
X677480D02*
D03*
X682981D02*
D03*
X693981D02*
D03*
X699481D02*
D03*
X704981D02*
D03*
X710481D02*
D03*
X715981D02*
D03*
X721481D02*
D03*
X726981D02*
D03*
X737980D02*
D03*
X743481D02*
D03*
X748981D02*
D03*
X754481D02*
D03*
X759981D02*
D03*
X622481Y620440D02*
D03*
X633481D02*
D03*
X638981D02*
D03*
X644481D02*
D03*
X649981D02*
D03*
X655481D02*
D03*
X660981D02*
D03*
X666480D02*
D03*
X671981D02*
D03*
X677480D02*
D03*
X682981D02*
D03*
X693981D02*
D03*
X699481D02*
D03*
X704981D02*
D03*
X710481D02*
D03*
X715981D02*
D03*
X726981D02*
D03*
X732481D02*
D03*
X737980D02*
D03*
X748981D02*
D03*
X754481D02*
D03*
X611481D02*
D03*
X605980Y614940D02*
D03*
X611481D02*
D03*
Y609440D02*
D03*
X605980Y581940D02*
D03*
X611481D02*
D03*
Y576440D02*
D03*
X605980Y570940D02*
D03*
Y559940D02*
D03*
X611481D02*
D03*
X605980Y548940D02*
D03*
Y543440D02*
D03*
X611481D02*
D03*
Y532439D02*
D03*
X605980Y526940D02*
D03*
X611481D02*
D03*
Y521440D02*
D03*
X605980Y515940D02*
D03*
X611481D02*
D03*
X605980Y510440D02*
D03*
X611481D02*
D03*
X759981D02*
D03*
X605980Y504940D02*
D03*
X611481D02*
D03*
X759981D02*
D03*
X605980Y499440D02*
D03*
X611481D02*
D03*
X605980Y493940D02*
D03*
X611481D02*
D03*
X759981D02*
D03*
Y488440D02*
D03*
X622981Y471940D02*
D03*
X628981D02*
D03*
X634981D02*
D03*
X646981D02*
D03*
X652981D02*
D03*
X664981D02*
D03*
X670981D02*
D03*
X682981D02*
D03*
X688981D02*
D03*
X718981D02*
D03*
X724980D02*
D03*
X730981D02*
D03*
X742980D02*
D03*
X754981D02*
D03*
X616981Y465940D02*
D03*
X622981D02*
D03*
X628981D02*
D03*
X634981D02*
D03*
X640981D02*
D03*
X646981D02*
D03*
X652981D02*
D03*
X658981D02*
D03*
X664981D02*
D03*
X670981D02*
D03*
X676981D02*
D03*
X682981D02*
D03*
X688981D02*
D03*
X694981D02*
D03*
X700981D02*
D03*
X706981D02*
D03*
X712981D02*
D03*
X724980D02*
D03*
X730981D02*
D03*
X736981D02*
D03*
X754981D02*
D03*
X759981Y477440D02*
D03*
Y471940D02*
D03*
X605980Y466440D02*
D03*
X611481D02*
D03*
X605980Y460940D02*
D03*
X611481D02*
D03*
X616981D02*
D03*
X622481D02*
D03*
X627981D02*
D03*
X633481D02*
D03*
X644481D02*
D03*
X649981D02*
D03*
X655481D02*
D03*
X660981D02*
D03*
X666480D02*
D03*
X671981D02*
D03*
X677480D02*
D03*
X682981D02*
D03*
X688481D02*
D03*
X693981D02*
D03*
X699481D02*
D03*
X704981D02*
D03*
X710481D02*
D03*
X715981D02*
D03*
X721481D02*
D03*
X726981D02*
D03*
X732481D02*
D03*
X743481D02*
D03*
X748981D02*
D03*
X754481D02*
D03*
X759981D02*
D03*
X611481Y455440D02*
D03*
X616981D02*
D03*
X622481D02*
D03*
X627981D02*
D03*
X638981D02*
D03*
X649981D02*
D03*
X660981D02*
D03*
X671981D02*
D03*
X682981D02*
D03*
X693981D02*
D03*
X704981D02*
D03*
X715981D02*
D03*
X726981D02*
D03*
X737980D02*
D03*
X748981D02*
D03*
X754481D02*
D03*
X605980Y532439D02*
D03*
X628981Y585940D02*
D03*
X605980Y592940D02*
D03*
X628981Y597940D02*
D03*
X605980Y603940D02*
D03*
X705731Y576940D02*
D03*
X679731Y583440D02*
D03*
X611481Y587440D02*
D03*
Y598440D02*
D03*
X706981Y471940D02*
D03*
Y483940D02*
D03*
X605980Y587440D02*
D03*
Y598440D02*
D03*
X718981Y483940D02*
D03*
X700981Y471940D02*
D03*
X611481Y592940D02*
D03*
X622981Y597940D02*
D03*
X611481Y603940D02*
D03*
Y565440D02*
D03*
X679731Y524940D02*
D03*
Y531440D02*
D03*
X673231D02*
D03*
X666731D02*
D03*
X673231Y537940D02*
D03*
X666731D02*
D03*
X673231Y544440D02*
D03*
X666731D02*
D03*
Y550940D02*
D03*
X692731Y537940D02*
D03*
X686231D02*
D03*
Y544440D02*
D03*
X679731D02*
D03*
X686231Y550940D02*
D03*
X679731D02*
D03*
X686231Y557440D02*
D03*
X679731D02*
D03*
X611481Y554440D02*
D03*
X622981Y555940D02*
D03*
X628981D02*
D03*
Y495940D02*
D03*
X616981Y483940D02*
D03*
X611481Y482940D02*
D03*
X616981Y471940D02*
D03*
Y477940D02*
D03*
X611481Y471940D02*
D03*
X605980Y477440D02*
D03*
X611481D02*
D03*
Y488440D02*
D03*
X638981Y460940D02*
D03*
X718981Y465940D02*
D03*
G54D166*
X322196Y451199D02*
D03*
X391196Y444199D02*
D03*
X322196Y423199D02*
D03*
Y426699D02*
D03*
Y430199D02*
D03*
Y433699D02*
D03*
Y437199D02*
D03*
Y440699D02*
D03*
Y444199D02*
D03*
Y447699D02*
D03*
Y454699D02*
D03*
Y458199D02*
D03*
Y461699D02*
D03*
Y465199D02*
D03*
Y468699D02*
D03*
Y472199D02*
D03*
Y475699D02*
D03*
Y479199D02*
D03*
X391196D02*
D03*
Y475699D02*
D03*
Y472199D02*
D03*
Y468699D02*
D03*
Y465199D02*
D03*
Y461699D02*
D03*
Y458199D02*
D03*
Y454699D02*
D03*
Y451199D02*
D03*
Y447699D02*
D03*
Y440699D02*
D03*
Y437199D02*
D03*
Y433699D02*
D03*
Y430199D02*
D03*
Y426699D02*
D03*
Y423199D02*
D03*
G54D167*
X1329230Y850751D02*
D03*
X1190430D02*
D03*
X1167578D02*
D03*
X1028777D02*
D03*
X1005900D02*
D03*
X867099D02*
D03*
G54D168*
X1297331Y824000D02*
D03*
X1312329D02*
D03*
X1267331D02*
D03*
X1282329D02*
D03*
X1237331D02*
D03*
X1252329D02*
D03*
X1150676D02*
D03*
X1060677D02*
D03*
X1135678D02*
D03*
X1120676D02*
D03*
X1090677D02*
D03*
X1105678D02*
D03*
X1075678D02*
D03*
X988999Y824000D02*
D03*
X958999Y824000D02*
D03*
X974000D02*
D03*
X944000D02*
D03*
X928999D02*
D03*
X898999D02*
D03*
X914000D02*
D03*
X1145678D02*
D03*
X1140676D02*
D03*
X1130676D02*
D03*
X1125678D02*
D03*
X1115678D02*
D03*
X1110676D02*
D03*
X1100676D02*
D03*
X1095678D02*
D03*
X1085678D02*
D03*
X1080677D02*
D03*
X1070677D02*
D03*
X1065678D02*
D03*
X1055678D02*
D03*
X1050677D02*
D03*
X1045678D02*
D03*
X1207331D02*
D03*
X1212329D02*
D03*
X1217331D02*
D03*
X1222329D02*
D03*
X1227331D02*
D03*
X1232329D02*
D03*
X1242329D02*
D03*
X1247331D02*
D03*
X1257331D02*
D03*
X1262329D02*
D03*
X1272329D02*
D03*
X1277331D02*
D03*
X1287331D02*
D03*
X1292329D02*
D03*
X1302329D02*
D03*
X1307331D02*
D03*
X884000Y824000D02*
D03*
X888999Y824000D02*
D03*
X894000D02*
D03*
X904000D02*
D03*
X908999D02*
D03*
X918999D02*
D03*
X924000D02*
D03*
X934000D02*
D03*
X938999D02*
D03*
X948999D02*
D03*
X954000D02*
D03*
X964000D02*
D03*
X968999D02*
D03*
X978999D02*
D03*
X984000D02*
D03*
G54D169*
X1142141Y806328D02*
D03*
X1120806Y806172D02*
D03*
X1060738Y354559D02*
D03*
X1081535Y354448D02*
D03*
X1039877Y355067D02*
D03*
X1301690Y299949D02*
D03*
X1322869Y299484D02*
D03*
X1280125Y300165D02*
D03*
X296417Y705565D02*
D03*
X275422Y705785D02*
D03*
X246500Y673550D02*
D03*
X224839D02*
D03*
X203982D02*
D03*
X86145Y648292D02*
D03*
X1120806Y779172D02*
D03*
X1142141Y779328D02*
D03*
X1322869Y326484D02*
D03*
X1301690Y326949D02*
D03*
X1039877Y328067D02*
D03*
X1060738Y327559D02*
D03*
X1081535Y327448D02*
D03*
X1280125Y327165D02*
D03*
X576201Y232689D02*
D03*
Y259689D02*
D03*
X599879Y232989D02*
D03*
Y259989D02*
D03*
X619801Y281303D02*
D03*
Y254303D02*
D03*
Y213689D02*
D03*
Y240689D02*
D03*
X640191Y240811D02*
D03*
Y267811D02*
D03*
X246500Y700550D02*
D03*
X224839D02*
D03*
X203982D02*
D03*
X296417Y732565D02*
D03*
X275422Y732785D02*
D03*
X86145Y621292D02*
D03*
G54D170*
X1134250Y739000D02*
D03*
X1161250D02*
D03*
G54D171*
X1380730Y695217D02*
D03*
Y665217D02*
D03*
Y642776D02*
D03*
Y612776D02*
D03*
G54D172*
X1162992Y671038D02*
D03*
X553152Y266836D02*
D03*
Y226836D02*
D03*
X1162992Y711038D02*
D03*
G54D173*
X1061960Y713950D02*
D03*
X965500Y713670D02*
D03*
X1176972Y612510D02*
D03*
X1017000Y604700D02*
D03*
G54D174*
X1035250Y734250D02*
D03*
X939026Y734257D02*
D03*
X1035373Y721663D02*
D03*
X939026Y722297D02*
D03*
X428895Y495531D02*
D03*
X402947Y538495D02*
D03*
X402947Y526553D02*
D03*
X402947Y514250D02*
D03*
X428839Y482833D02*
D03*
X369749Y556563D02*
D03*
Y544619D02*
D03*
Y533002D02*
D03*
X354507Y536326D02*
D03*
Y548141D02*
D03*
X327364Y543134D02*
D03*
Y554648D02*
D03*
X327364Y531097D02*
D03*
X442277Y415150D02*
D03*
X277734Y516172D02*
D03*
X277734Y503691D02*
D03*
X186509Y491754D02*
D03*
X186527Y479342D02*
D03*
X172367Y476044D02*
D03*
X142768Y538421D02*
D03*
X88749Y434092D02*
D03*
X111035Y397988D02*
D03*
X87616Y409724D02*
D03*
Y422381D02*
D03*
X385121Y341430D02*
D03*
X111110Y386044D02*
D03*
X97627Y377746D02*
D03*
X157367Y476044D02*
D03*
X457277Y415150D02*
D03*
X103749Y434092D02*
D03*
X924026Y734257D02*
D03*
Y722297D02*
D03*
X1020250Y734250D02*
D03*
X1020373Y721663D02*
D03*
X82627Y377746D02*
D03*
X72616Y422381D02*
D03*
Y409724D02*
D03*
X157768Y538421D02*
D03*
X126110Y386044D02*
D03*
X126035Y397988D02*
D03*
X201527Y479342D02*
D03*
X201509Y491754D02*
D03*
X400121Y341430D02*
D03*
X384749Y556563D02*
D03*
Y544619D02*
D03*
Y533002D02*
D03*
X292734Y516172D02*
D03*
X292734Y503691D02*
D03*
X417947Y538495D02*
D03*
X417947Y526553D02*
D03*
X417947Y514250D02*
D03*
X312364Y554648D02*
D03*
Y543134D02*
D03*
X312364Y531097D02*
D03*
X443895Y495531D02*
D03*
X443839Y482833D02*
D03*
X339507Y536326D02*
D03*
Y548141D02*
D03*
G54D175*
X925451Y681168D02*
D03*
X897451Y661668D02*
D03*
Y668168D02*
D03*
Y674668D02*
D03*
Y681168D02*
D03*
X925451Y674668D02*
D03*
Y668168D02*
D03*
Y661668D02*
D03*
G54D176*
X911451Y671418D02*
D03*
G54D177*
X1221918Y618526D02*
D03*
X1316918Y552526D02*
D03*
Y530526D02*
D03*
Y618526D02*
D03*
Y607526D02*
D03*
Y596526D02*
D03*
Y585526D02*
D03*
X1316918Y574526D02*
D03*
X1316918Y563526D02*
D03*
Y541526D02*
D03*
X1221918Y530526D02*
D03*
Y541526D02*
D03*
Y552526D02*
D03*
Y563526D02*
D03*
X1221917Y574526D02*
D03*
X1221918Y585526D02*
D03*
Y596526D02*
D03*
Y607526D02*
D03*
G54D178*
X1061775Y628653D02*
D03*
X1061960Y575737D02*
D03*
X154464Y593467D02*
D03*
X143162Y593176D02*
D03*
X451551Y456532D02*
D03*
X439397Y456532D02*
D03*
X222089Y526917D02*
D03*
X119276Y547438D02*
D03*
X275426Y434720D02*
D03*
X287153Y434720D02*
D03*
X262710Y403164D02*
D03*
X217938Y427944D02*
D03*
X161290Y437532D02*
D03*
X414279Y375160D02*
D03*
X312262Y373220D02*
D03*
X300210D02*
D03*
X293500Y351500D02*
D03*
X281492Y351500D02*
D03*
X439397Y441532D02*
D03*
X451551Y441532D02*
D03*
X1061775Y613653D02*
D03*
X1061960Y590737D02*
D03*
X154464Y578467D02*
D03*
X143162Y578176D02*
D03*
X119276Y532438D02*
D03*
X161290Y422532D02*
D03*
X222089Y511917D02*
D03*
X293500Y336500D02*
D03*
X281492Y336500D02*
D03*
X217938Y412944D02*
D03*
X262710Y388164D02*
D03*
X414279Y390160D02*
D03*
X300210Y388220D02*
D03*
X312262D02*
D03*
X287153Y419720D02*
D03*
X275426Y419720D02*
D03*
G54D179*
X1079177Y548772D02*
D03*
Y395272D02*
D03*
X1054177D02*
D03*
X1049177D02*
D03*
X1059177D02*
D03*
X1064177D02*
D03*
X1069177D02*
D03*
X1074177D02*
D03*
X1084177D02*
D03*
X1089177D02*
D03*
X1094177D02*
D03*
X1099177D02*
D03*
X1104177D02*
D03*
X1109177D02*
D03*
X1114177D02*
D03*
X1119177D02*
D03*
X1124177D02*
D03*
X1129177D02*
D03*
X1134177D02*
D03*
X1139177D02*
D03*
X1144177D02*
D03*
X1149177D02*
D03*
X1154177D02*
D03*
X1159177D02*
D03*
X1164177D02*
D03*
X1169177D02*
D03*
Y548772D02*
D03*
X1164177D02*
D03*
X1159177D02*
D03*
X1154177D02*
D03*
X1149177D02*
D03*
X1144177D02*
D03*
X1139177D02*
D03*
X1134177D02*
D03*
X1129177D02*
D03*
X1124177D02*
D03*
X1119177D02*
D03*
X1114177D02*
D03*
X1109177D02*
D03*
X1104177D02*
D03*
X1099177D02*
D03*
X1094177D02*
D03*
X1089177D02*
D03*
X1084177D02*
D03*
X1074177D02*
D03*
X1069177D02*
D03*
X1064177D02*
D03*
X1059177D02*
D03*
X1054177D02*
D03*
X1049177D02*
D03*
G54D180*
X903731Y596439D02*
D03*
X887731Y609440D02*
D03*
X895731Y589939D02*
D03*
X879731D02*
D03*
X871731Y596439D02*
D03*
X847731D02*
D03*
X903731Y583440D02*
D03*
Y570439D02*
D03*
Y557440D02*
D03*
X895731Y550939D02*
D03*
X871731Y570439D02*
D03*
X887731D02*
D03*
X871731Y583440D02*
D03*
X847731D02*
D03*
Y570439D02*
D03*
X887731Y557440D02*
D03*
X879731Y550939D02*
D03*
X831731Y609440D02*
D03*
X815731Y596439D02*
D03*
X839731Y589939D02*
D03*
X823731Y589939D02*
D03*
X815731Y583440D02*
D03*
X815731Y570439D02*
D03*
X831731D02*
D03*
Y557440D02*
D03*
X839731Y550939D02*
D03*
X823731Y550940D02*
D03*
X815731Y557440D02*
D03*
X903731Y524939D02*
D03*
Y511940D02*
D03*
Y498939D02*
D03*
Y485940D02*
D03*
X879731Y531440D02*
D03*
X895731D02*
D03*
X839731D02*
D03*
X823731D02*
D03*
X815731Y524939D02*
D03*
X887731D02*
D03*
X831731Y524939D02*
D03*
X887731Y511940D02*
D03*
X871731Y511940D02*
D03*
X831731D02*
D03*
X847731D02*
D03*
X815731Y511940D02*
D03*
Y498939D02*
D03*
X895731Y492440D02*
D03*
X879731D02*
D03*
X871731Y498939D02*
D03*
X871731Y485940D02*
D03*
X887731Y472939D02*
D03*
X871731Y472939D02*
D03*
X847731Y498939D02*
D03*
X839731Y492440D02*
D03*
X823731Y492440D02*
D03*
X847731Y485940D02*
D03*
Y472939D02*
D03*
X815731Y485940D02*
D03*
X831731Y472939D02*
D03*
X839731Y609440D02*
D03*
X879731Y609440D02*
D03*
X847731Y576940D02*
D03*
X871731D02*
D03*
X823731Y570439D02*
D03*
X815731Y563940D02*
D03*
X847731D02*
D03*
X871731D02*
D03*
X903731D02*
D03*
X815731Y550940D02*
D03*
X831731D02*
D03*
X887731Y550939D02*
D03*
X903731Y550940D02*
D03*
X815731Y531440D02*
D03*
X831731D02*
D03*
X887731D02*
D03*
X903731D02*
D03*
X815731Y518439D02*
D03*
X847731D02*
D03*
X871731D02*
D03*
X903731D02*
D03*
X823731Y511940D02*
D03*
X847731Y505440D02*
D03*
X871731D02*
D03*
X839731Y472939D02*
D03*
X879731Y472939D02*
D03*
X887731Y602940D02*
D03*
X871731D02*
D03*
X903731Y589939D02*
D03*
X871731D02*
D03*
X887731Y576940D02*
D03*
X847731Y602940D02*
D03*
X831731D02*
D03*
X847731Y589939D02*
D03*
X815731D02*
D03*
X831731Y576940D02*
D03*
X887731Y505440D02*
D03*
X871731Y492440D02*
D03*
X831731Y505440D02*
D03*
X815731Y492440D02*
D03*
X847731Y492440D02*
D03*
X903731D02*
D03*
X887731Y479439D02*
D03*
X847731D02*
D03*
X831731D02*
D03*
X871731D02*
D03*
X823731Y596439D02*
D03*
X839731Y498939D02*
D03*
X823731Y485940D02*
D03*
X879731Y505440D02*
D03*
X839731D02*
D03*
X903731Y472939D02*
D03*
X895731D02*
D03*
X823731D02*
D03*
X815731D02*
D03*
X903731Y479439D02*
D03*
X895731D02*
D03*
X879731D02*
D03*
X839731D02*
D03*
X823731D02*
D03*
X815731D02*
D03*
X895731Y485940D02*
D03*
X887731D02*
D03*
X879731D02*
D03*
X839731D02*
D03*
X831731D02*
D03*
X887731Y492440D02*
D03*
X831731Y492440D02*
D03*
X895731Y498939D02*
D03*
X887731D02*
D03*
X879731D02*
D03*
X831731D02*
D03*
X823731D02*
D03*
X903731Y505440D02*
D03*
X895731D02*
D03*
X823731D02*
D03*
X815731D02*
D03*
X895731Y511940D02*
D03*
X879731D02*
D03*
X839731Y511940D02*
D03*
X895731Y518439D02*
D03*
X887731D02*
D03*
X879731D02*
D03*
X839731D02*
D03*
X831731D02*
D03*
X823731D02*
D03*
X895731Y524939D02*
D03*
X879731Y524939D02*
D03*
X871731D02*
D03*
X847731D02*
D03*
X839731D02*
D03*
X823731D02*
D03*
X871731Y531440D02*
D03*
X847731D02*
D03*
X871731Y550939D02*
D03*
X847731D02*
D03*
X895731Y557440D02*
D03*
X879731D02*
D03*
X871731D02*
D03*
X847731D02*
D03*
X839731D02*
D03*
X823731D02*
D03*
X895731Y563940D02*
D03*
X887731D02*
D03*
X879731D02*
D03*
X839731D02*
D03*
X831731D02*
D03*
X823731D02*
D03*
X895731Y570439D02*
D03*
X879731D02*
D03*
X839731D02*
D03*
X903731Y576940D02*
D03*
X895731D02*
D03*
X879731D02*
D03*
X839731D02*
D03*
X823731D02*
D03*
X815731D02*
D03*
X895731Y583440D02*
D03*
X887731D02*
D03*
X879731D02*
D03*
X839731D02*
D03*
X831731D02*
D03*
X823731D02*
D03*
X887731Y589939D02*
D03*
X831731Y589939D02*
D03*
X895731Y596439D02*
D03*
X887731D02*
D03*
X879731D02*
D03*
X839731D02*
D03*
X831731D02*
D03*
X903731Y602940D02*
D03*
X895731D02*
D03*
X879731D02*
D03*
X839731D02*
D03*
X823731D02*
D03*
X815731D02*
D03*
X903731Y609440D02*
D03*
X895731D02*
D03*
X871731D02*
D03*
X847731D02*
D03*
X823731D02*
D03*
X815731D02*
D03*
G54D181*
X755750Y748000D02*
D03*
X567750Y748000D02*
D03*
X630249D02*
D03*
X617749D02*
D03*
X592750D02*
D03*
X605250D02*
D03*
X580250D02*
D03*
X555250D02*
D03*
X818250Y748000D02*
D03*
X805750D02*
D03*
X780750D02*
D03*
X768250D02*
D03*
X743250D02*
D03*
X793250D02*
D03*
G54D182*
X701112Y814810D02*
D03*
Y824810D02*
D03*
X672962Y809810D02*
D03*
Y814810D02*
D03*
Y824810D02*
D03*
X701112Y819810D02*
D03*
Y809810D02*
D03*
X672962Y819810D02*
D03*
G54D183*
X1370000Y513000D02*
D03*
X30000Y323027D02*
D03*
Y363027D02*
D03*
Y373027D02*
D03*
X1370000Y493000D02*
D03*
X30000Y333027D02*
D03*
X1370000Y473000D02*
D03*
X30000Y343027D02*
D03*
X1370000Y463000D02*
D03*
Y503000D02*
D03*
X30000Y353027D02*
D03*
Y383027D02*
D03*
Y423027D02*
D03*
Y433027D02*
D03*
Y443027D02*
D03*
Y453027D02*
D03*
Y463027D02*
D03*
Y473027D02*
D03*
Y483027D02*
D03*
Y493027D02*
D03*
Y503027D02*
D03*
Y513027D02*
D03*
Y413027D02*
D03*
X1370000Y483000D02*
D03*
Y453000D02*
D03*
Y423000D02*
D03*
Y413000D02*
D03*
Y403000D02*
D03*
Y393000D02*
D03*
Y383000D02*
D03*
Y373000D02*
D03*
Y363000D02*
D03*
Y353000D02*
D03*
Y343000D02*
D03*
Y333000D02*
D03*
Y323000D02*
D03*
G54D184*
X1311625Y511740D02*
D03*
X1293625Y511740D02*
D03*
Y397741D02*
D03*
X1311625D02*
D03*
X1239625Y511740D02*
D03*
X1248625Y397741D02*
D03*
X1266625D02*
D03*
X1221625D02*
D03*
X1230625D02*
D03*
X1239625D02*
D03*
X1257625D02*
D03*
X1275625D02*
D03*
X1284625D02*
D03*
X1302625D02*
D03*
X1221625Y511740D02*
D03*
X1230625D02*
D03*
X1248625D02*
D03*
X1257625D02*
D03*
X1266625D02*
D03*
X1275625D02*
D03*
X1284625D02*
D03*
X1302625D02*
D03*
G54D185*
X1185927Y527022D02*
D03*
Y417022D02*
D03*
X1032427Y482022D02*
D03*
Y437022D02*
D03*
Y472022D02*
D03*
Y532022D02*
D03*
Y527022D02*
D03*
Y522022D02*
D03*
Y517022D02*
D03*
Y512022D02*
D03*
Y507022D02*
D03*
Y502022D02*
D03*
Y497022D02*
D03*
Y492022D02*
D03*
Y487022D02*
D03*
Y477022D02*
D03*
Y467022D02*
D03*
Y462022D02*
D03*
Y457022D02*
D03*
Y452022D02*
D03*
Y447022D02*
D03*
Y442022D02*
D03*
Y432022D02*
D03*
Y427022D02*
D03*
Y422022D02*
D03*
Y417022D02*
D03*
Y412022D02*
D03*
X1185927D02*
D03*
Y427022D02*
D03*
Y432022D02*
D03*
Y437022D02*
D03*
Y447022D02*
D03*
Y452022D02*
D03*
Y457022D02*
D03*
Y462022D02*
D03*
Y467022D02*
D03*
Y472022D02*
D03*
Y477022D02*
D03*
Y482022D02*
D03*
Y487022D02*
D03*
Y492022D02*
D03*
Y497022D02*
D03*
Y502022D02*
D03*
Y507022D02*
D03*
Y512022D02*
D03*
Y517022D02*
D03*
Y522022D02*
D03*
Y532022D02*
D03*
Y442022D02*
D03*
Y422022D02*
D03*
G54D186*
X1323625Y427741D02*
D03*
X1209625D02*
D03*
X1323625Y409740D02*
D03*
Y445741D02*
D03*
Y436740D02*
D03*
Y418741D02*
D03*
Y454740D02*
D03*
Y463741D02*
D03*
Y472741D02*
D03*
Y481740D02*
D03*
Y490741D02*
D03*
X1209625Y445741D02*
D03*
Y436740D02*
D03*
Y418741D02*
D03*
Y409740D02*
D03*
Y454740D02*
D03*
Y463741D02*
D03*
Y472741D02*
D03*
Y490741D02*
D03*
Y481740D02*
D03*
X1209625Y499740D02*
D03*
X1323625D02*
D03*
G54D187*
X1004373Y500484D02*
D03*
X988373Y478484D02*
D03*
Y500484D02*
D03*
X1004373Y478484D02*
D03*
G54D188*
X948326Y532924D02*
D03*
X974326Y523424D02*
D03*
Y542424D02*
D03*
X948326D02*
D03*
Y523424D02*
D03*
G54D189*
X935842Y518202D02*
D03*
X936000Y466000D02*
D03*
X926500Y481000D02*
D03*
X945500Y481000D02*
D03*
X926342Y503202D02*
D03*
X945342Y503202D02*
D03*
G54D190*
X1226750Y308000D02*
D03*
X1186750D02*
D03*
X1162750D02*
D03*
X1130750D02*
D03*
X1198750Y226000D02*
D03*
X1174750D02*
D03*
X1142750D02*
D03*
X1166750D02*
D03*
X1134750D02*
D03*
X1098750Y308000D02*
D03*
X1110750Y226000D02*
D03*
X1010750Y308000D02*
D03*
X1054750Y226000D02*
D03*
X1030750D02*
D03*
X385401Y308000D02*
D03*
X345401D02*
D03*
X321401D02*
D03*
X289401D02*
D03*
X333401Y226000D02*
D03*
X357401D02*
D03*
X325401D02*
D03*
X293401D02*
D03*
X301401D02*
D03*
X257401Y308000D02*
D03*
X169401D02*
D03*
X189401Y226000D02*
D03*
X269401D02*
D03*
X213401D02*
D03*
X1234750Y308000D02*
D03*
X1122750D02*
D03*
X1190750Y226000D02*
D03*
X1182750D02*
D03*
X1002750Y308000D02*
D03*
X393401D02*
D03*
X161401D02*
D03*
X281401D02*
D03*
X341401Y226000D02*
D03*
X349401D02*
D03*
X197401D02*
D03*
X205401D02*
D03*
X277401D02*
D03*
X285401D02*
D03*
X377401Y308000D02*
D03*
X297401D02*
D03*
X177401D02*
D03*
X998750Y226000D02*
D03*
X1006750D02*
D03*
X1014750D02*
D03*
X1022750D02*
D03*
X1038750D02*
D03*
X1046750D02*
D03*
X1018750Y308000D02*
D03*
X1034750D02*
D03*
X1042750D02*
D03*
X1050750D02*
D03*
X1094750Y226000D02*
D03*
X1102750D02*
D03*
X1118750D02*
D03*
X1126750D02*
D03*
X1150750D02*
D03*
X1158750D02*
D03*
X1206750D02*
D03*
X1214750D02*
D03*
X1222750D02*
D03*
X1230750D02*
D03*
X1106750Y308000D02*
D03*
X1114750D02*
D03*
X1138750D02*
D03*
X1146750D02*
D03*
X1154750D02*
D03*
X1170750D02*
D03*
X1178750D02*
D03*
X1194750D02*
D03*
X1202750D02*
D03*
X1210750D02*
D03*
X1218750D02*
D03*
X1026750D02*
D03*
X1058750D02*
D03*
X217401D02*
D03*
X369401D02*
D03*
X361401D02*
D03*
X353401D02*
D03*
X337401D02*
D03*
X329401D02*
D03*
X313401D02*
D03*
X305401D02*
D03*
X265401D02*
D03*
X389401Y226000D02*
D03*
X381401D02*
D03*
X373401D02*
D03*
X365401D02*
D03*
X317401D02*
D03*
X309401D02*
D03*
X261401D02*
D03*
X253401D02*
D03*
X209401Y308000D02*
D03*
X201401D02*
D03*
X193401D02*
D03*
X185401D02*
D03*
X181401Y226000D02*
D03*
X173401D02*
D03*
X165401D02*
D03*
X157401D02*
D03*
X273401Y308000D02*
D03*
G54D191*
X1379500Y213000D02*
D03*
Y149500D02*
D03*
G54D192*
X1263250Y232000D02*
D03*
X970250D02*
D03*
X421901D02*
D03*
X128901D02*
D03*
G54D193*
X1352000Y187500D02*
D03*
Y175000D02*
D03*
G54D194*
X1008581Y349040D02*
D03*
X983181Y425241D02*
D03*
X1008581D02*
D03*
X983181Y399841D02*
D03*
X1008888Y399790D02*
D03*
X983181Y374440D02*
D03*
X1008581D02*
D03*
X991750Y267000D02*
D03*
X957349Y845000D02*
D03*
X150401Y267000D02*
D03*
X187500Y845000D02*
D03*
G54D195*
X1090750Y127083D02*
D03*
X1060750Y127325D02*
D03*
X1090750Y118425D02*
D03*
X1060750Y118667D02*
D03*
G54D196*
X1083462Y94500D02*
D03*
X1098462D02*
D03*
X1053462D02*
D03*
X1068462D02*
D03*
X1023462D02*
D03*
X1028462D02*
D03*
X1093462D02*
D03*
X1048462D02*
D03*
X1103462D02*
D03*
X1063462D02*
D03*
X1058462D02*
D03*
X1073462D02*
D03*
X1078462D02*
D03*
X1088462D02*
D03*
X1043462D02*
D03*
X1038462D02*
D03*
X1033462D02*
D03*
X1018462D02*
D03*
X1013462D02*
D03*
G54D197*
X1030207Y129791D02*
D03*
X1020446Y129855D02*
D03*
X1040518Y129790D02*
D03*
X1010369Y129709D02*
D03*
X112730Y40668D02*
D03*
X19306Y22735D02*
D03*
Y30735D02*
D03*
X112730Y48668D02*
D03*
X1020446Y121855D02*
D03*
X1010369Y121709D02*
D03*
X1030207Y121791D02*
D03*
X1040518Y121790D02*
D03*
G54D198*
X985951Y131248D02*
D03*
X959951Y140748D02*
D03*
Y121748D02*
D03*
X985951Y140748D02*
D03*
Y121748D02*
D03*
G54D199*
X844787Y362006D02*
D03*
G54D200*
X764177Y123540D02*
D03*
X732553Y123534D02*
D03*
X700904D02*
D03*
X1202780Y719565D02*
D03*
X1183780D02*
D03*
X1193280Y696565D02*
D03*
X188945Y782341D02*
D03*
X198445Y759341D02*
D03*
X207945Y782341D02*
D03*
X248141Y412406D02*
D03*
X229141D02*
D03*
X238641Y389406D02*
D03*
X691404Y146534D02*
D03*
X681904Y123534D02*
D03*
X723053Y146534D02*
D03*
X713553Y123534D02*
D03*
X754678Y146540D02*
D03*
X745178Y123540D02*
D03*
G54D201*
X687037Y817310D02*
D03*
G54D202*
X552874Y730827D02*
D03*
X502874D02*
D03*
X507874D02*
D03*
X537874D02*
D03*
X572874Y639827D02*
D03*
X517874D02*
D03*
Y730827D02*
D03*
X522874D02*
D03*
X502874Y639827D02*
D03*
X507874D02*
D03*
X547874D02*
D03*
X552874D02*
D03*
X532874D02*
D03*
X537874D02*
D03*
X542874Y730827D02*
D03*
X547874D02*
D03*
X532874D02*
D03*
X567874D02*
D03*
X572874D02*
D03*
X557874D02*
D03*
X562874D02*
D03*
X497874D02*
D03*
X512874D02*
D03*
X527874D02*
D03*
X542874Y639827D02*
D03*
X557874D02*
D03*
X567874D02*
D03*
X562874D02*
D03*
X497874D02*
D03*
X512874D02*
D03*
X522874D02*
D03*
X527874D02*
D03*
G54D203*
X499250Y856001D02*
D03*
X131250Y856001D02*
D03*
G54D204*
X470248Y823251D02*
D03*
X160249D02*
D03*
G54D205*
X467752Y740250D02*
D03*
Y668751D02*
D03*
X461252D02*
D03*
X435250Y720750D02*
D03*
X428750Y727250D02*
D03*
Y720750D02*
D03*
X435250Y714250D02*
D03*
X428750D02*
D03*
X435250Y707750D02*
D03*
X428750D02*
D03*
X422250Y714250D02*
D03*
X415751Y707750D02*
D03*
X422250D02*
D03*
X396251Y740250D02*
D03*
X415751Y727250D02*
D03*
X409251Y720750D02*
D03*
X454752Y694751D02*
D03*
X441750Y701251D02*
D03*
Y688251D02*
D03*
X454752Y681751D02*
D03*
Y675251D02*
D03*
X435250Y681751D02*
D03*
Y701251D02*
D03*
X422250D02*
D03*
X428750D02*
D03*
X415751D02*
D03*
X428750Y694751D02*
D03*
X422250Y681751D02*
D03*
X428750D02*
D03*
X409251Y701251D02*
D03*
X396251Y668751D02*
D03*
X402751Y727250D02*
D03*
X396251Y720750D02*
D03*
X422250Y733750D02*
D03*
X415751D02*
D03*
X428750Y740250D02*
D03*
X402751D02*
D03*
X396251Y727250D02*
D03*
X428750Y733750D02*
D03*
X396251Y701251D02*
D03*
X402751Y707750D02*
D03*
Y733750D02*
D03*
X409251Y740250D02*
D03*
X402751Y714250D02*
D03*
Y720750D02*
D03*
X396251Y714250D02*
D03*
X422250Y740250D02*
D03*
X415751D02*
D03*
X402751Y701251D02*
D03*
X396251Y707750D02*
D03*
X409251Y733750D02*
D03*
X454752Y668751D02*
D03*
X448252D02*
D03*
X441750D02*
D03*
X435250D02*
D03*
X428750D02*
D03*
X422250D02*
D03*
X415751D02*
D03*
X409251D02*
D03*
X402751D02*
D03*
X467752Y675251D02*
D03*
X461252D02*
D03*
X448252D02*
D03*
X441750D02*
D03*
X435250D02*
D03*
X428750D02*
D03*
X422250D02*
D03*
X415751D02*
D03*
X409251D02*
D03*
X402751D02*
D03*
X396251D02*
D03*
X467752Y681751D02*
D03*
X461252D02*
D03*
X448252D02*
D03*
X441750D02*
D03*
X415751D02*
D03*
X409251D02*
D03*
X402751D02*
D03*
X396251D02*
D03*
X467752Y688251D02*
D03*
X461252D02*
D03*
X454752D02*
D03*
X448252D02*
D03*
X435250D02*
D03*
X428750D02*
D03*
X422250D02*
D03*
X415751D02*
D03*
X409251D02*
D03*
X402751D02*
D03*
X396251D02*
D03*
X467752Y694751D02*
D03*
X461252D02*
D03*
X448252D02*
D03*
X441750D02*
D03*
X435250D02*
D03*
X422250D02*
D03*
X415751D02*
D03*
X409251D02*
D03*
X402751D02*
D03*
X396251D02*
D03*
X467752Y701251D02*
D03*
X461252D02*
D03*
X454752D02*
D03*
X448252D02*
D03*
X467752Y707750D02*
D03*
X461252D02*
D03*
X454752D02*
D03*
X448252D02*
D03*
X441750D02*
D03*
X409251D02*
D03*
X467752Y714250D02*
D03*
X461252D02*
D03*
X454752D02*
D03*
X448252D02*
D03*
X441750D02*
D03*
X415751D02*
D03*
X409251D02*
D03*
X467752Y720750D02*
D03*
X461252D02*
D03*
X454752D02*
D03*
X448252D02*
D03*
X441750D02*
D03*
X422250D02*
D03*
X415751D02*
D03*
X467752Y727250D02*
D03*
X461252D02*
D03*
X454752D02*
D03*
X448252D02*
D03*
X441750D02*
D03*
X435250D02*
D03*
X422250D02*
D03*
X409251D02*
D03*
X467752Y733750D02*
D03*
X461252D02*
D03*
X454752D02*
D03*
X448252D02*
D03*
X441750D02*
D03*
X435250D02*
D03*
X396251D02*
D03*
X461252Y740250D02*
D03*
X454752D02*
D03*
X448252D02*
D03*
X441750D02*
D03*
X435250D02*
D03*
G54D206*
X535374Y685327D02*
D03*
G54D207*
X440248Y823251D02*
D03*
X425250Y823251D02*
D03*
X320249Y823251D02*
D03*
X395250Y823251D02*
D03*
X410249D02*
D03*
X380249Y823251D02*
D03*
X365250Y823251D02*
D03*
X335250Y823251D02*
D03*
X350249D02*
D03*
X245250D02*
D03*
X250249D02*
D03*
X235250D02*
D03*
X240249D02*
D03*
X375250Y823251D02*
D03*
X355250Y823251D02*
D03*
X415250D02*
D03*
X435250Y823251D02*
D03*
X390249Y823251D02*
D03*
X370249Y823251D02*
D03*
X430248Y823251D02*
D03*
X325250D02*
D03*
X345250D02*
D03*
X385250D02*
D03*
X405250D02*
D03*
X360249Y823251D02*
D03*
X420249Y823251D02*
D03*
X330249D02*
D03*
X340249D02*
D03*
X400249D02*
D03*
X315250D02*
D03*
X310249Y823251D02*
D03*
X305250Y823251D02*
D03*
X300249D02*
D03*
X295250D02*
D03*
X290249D02*
D03*
X285250D02*
D03*
X280249D02*
D03*
X275250D02*
D03*
X270249D02*
D03*
X265250Y823251D02*
D03*
X260249Y823251D02*
D03*
X255250Y823251D02*
D03*
X230249Y823251D02*
D03*
X225250D02*
D03*
X220249D02*
D03*
X215250Y823251D02*
D03*
X210249Y823251D02*
D03*
X205250Y823251D02*
D03*
X200249Y823251D02*
D03*
X195250Y823251D02*
D03*
X190249D02*
D03*
G54D208*
X440248Y875750D02*
D03*
X390249D02*
D03*
X340249D02*
D03*
X290249D02*
D03*
X240249D02*
D03*
X190249D02*
D03*
G54D209*
X133000Y798000D02*
D03*
X712990Y274702D02*
D03*
X672990D02*
D03*
X173000Y798000D02*
D03*
G54D210*
X391965Y622099D02*
D03*
X362965D02*
D03*
X188465D02*
D03*
G54D211*
X29000Y626458D02*
D03*
X59000D02*
D03*
Y688458D02*
D03*
X29000D02*
D03*
G54D212*
X299965Y583099D02*
D03*
X314965Y583099D02*
D03*
X364965D02*
D03*
X329965D02*
D03*
X344965D02*
D03*
X254965D02*
D03*
X249965D02*
D03*
X274965D02*
D03*
X279965D02*
D03*
X259965D02*
D03*
X264965D02*
D03*
X294965D02*
D03*
X289965D02*
D03*
X284965D02*
D03*
X324965D02*
D03*
X319965D02*
D03*
X309965D02*
D03*
X304965Y583099D02*
D03*
X354965Y583099D02*
D03*
X359965D02*
D03*
X369965Y583099D02*
D03*
X374965Y583099D02*
D03*
X349965D02*
D03*
X339965Y583099D02*
D03*
X334965D02*
D03*
X229965Y583099D02*
D03*
X234965Y583099D02*
D03*
X239965D02*
D03*
X244965Y583099D02*
D03*
X269965D02*
D03*
X204965Y583099D02*
D03*
X209965Y583099D02*
D03*
X214965D02*
D03*
X219965D02*
D03*
X224965D02*
D03*
G54D213*
X530112Y545105D02*
D03*
X252024Y67491D02*
D03*
X230024Y83491D02*
D03*
X252024D02*
D03*
X230024Y67491D02*
D03*
X508112Y561105D02*
D03*
Y545105D02*
D03*
X530112Y561105D02*
D03*
G54D214*
Y545105D02*
D03*
X508112D02*
D03*
Y561105D02*
D03*
X530112D02*
D03*
G54D215*
X672000Y24001D02*
D03*
X516999D02*
D03*
G54D216*
X662998Y120000D02*
D03*
X514500D02*
D03*
G54D217*
X532550Y489698D02*
D03*
X552550Y484698D02*
D03*
X542550Y489698D02*
D03*
X537550Y484698D02*
D03*
Y454698D02*
D03*
X542550Y434698D02*
D03*
X537550Y464698D02*
D03*
X527550Y444698D02*
D03*
X532550Y424698D02*
D03*
X522550Y469698D02*
D03*
X512550Y459698D02*
D03*
X517550Y469698D02*
D03*
X537550Y449698D02*
D03*
X532550Y444698D02*
D03*
X512550Y464698D02*
D03*
X557550Y424698D02*
D03*
X552550D02*
D03*
X547550D02*
D03*
X542550D02*
D03*
X537550D02*
D03*
X527550D02*
D03*
X522550D02*
D03*
X517550D02*
D03*
X512550D02*
D03*
X507550D02*
D03*
X502550D02*
D03*
X497550D02*
D03*
X492550D02*
D03*
X557550Y429698D02*
D03*
X552550D02*
D03*
X547550D02*
D03*
X542550D02*
D03*
X537550D02*
D03*
X532550D02*
D03*
X527550D02*
D03*
X522550D02*
D03*
X517550D02*
D03*
X512550D02*
D03*
X507550D02*
D03*
X502550D02*
D03*
X497550D02*
D03*
X492550D02*
D03*
X557550Y434698D02*
D03*
X552550D02*
D03*
X547550D02*
D03*
X537550D02*
D03*
X532550D02*
D03*
X527550D02*
D03*
X522550D02*
D03*
X517550D02*
D03*
X512550D02*
D03*
X507550D02*
D03*
X502550D02*
D03*
X497550D02*
D03*
X492550D02*
D03*
X557550Y439698D02*
D03*
X552550D02*
D03*
X547550D02*
D03*
X542550D02*
D03*
X502550D02*
D03*
X497550D02*
D03*
X492550D02*
D03*
X557550Y444698D02*
D03*
X552550D02*
D03*
X547550D02*
D03*
X537550D02*
D03*
X522550D02*
D03*
X517550D02*
D03*
X512550D02*
D03*
X502550D02*
D03*
X497550D02*
D03*
X492550D02*
D03*
X557550Y449698D02*
D03*
X552550D02*
D03*
X547550D02*
D03*
X512550D02*
D03*
X502550D02*
D03*
X497550D02*
D03*
X492550D02*
D03*
X557550Y454698D02*
D03*
X552550D02*
D03*
X547550D02*
D03*
X512550D02*
D03*
X502550D02*
D03*
X497550D02*
D03*
X492550D02*
D03*
X557550Y459698D02*
D03*
X552550D02*
D03*
X547550D02*
D03*
X537550D02*
D03*
X502550D02*
D03*
X497550D02*
D03*
X492550D02*
D03*
X557550Y464698D02*
D03*
X552550D02*
D03*
X547550D02*
D03*
X502550D02*
D03*
X497550D02*
D03*
X492550D02*
D03*
X557550Y469698D02*
D03*
X552550D02*
D03*
X547550D02*
D03*
X537550D02*
D03*
X532550D02*
D03*
X527550D02*
D03*
X512550D02*
D03*
X502550D02*
D03*
X497550D02*
D03*
X492550D02*
D03*
X557550Y474698D02*
D03*
X552550D02*
D03*
X547550D02*
D03*
X502550D02*
D03*
X497550D02*
D03*
X492550D02*
D03*
X557550Y479698D02*
D03*
X552550D02*
D03*
X547550D02*
D03*
X542550D02*
D03*
X537550D02*
D03*
X532550D02*
D03*
X527550D02*
D03*
X522550D02*
D03*
X517550D02*
D03*
X512550D02*
D03*
X507550D02*
D03*
X502550D02*
D03*
X497550D02*
D03*
X492550D02*
D03*
X557550Y484698D02*
D03*
X547550D02*
D03*
X542550D02*
D03*
X532550D02*
D03*
X527550D02*
D03*
X522550D02*
D03*
X517550D02*
D03*
X512550D02*
D03*
X507550D02*
D03*
X502550D02*
D03*
X497550D02*
D03*
X492550D02*
D03*
X557550Y489698D02*
D03*
X552550D02*
D03*
X547550D02*
D03*
X537550D02*
D03*
X527550D02*
D03*
X522550D02*
D03*
X517550D02*
D03*
X512550D02*
D03*
X507550D02*
D03*
X502550D02*
D03*
X497550D02*
D03*
X492550D02*
D03*
G54D218*
X560250Y293750D02*
D03*
X576219Y196770D02*
D03*
X560219D02*
D03*
X576250Y293750D02*
D03*
G54D219*
X562000Y126000D02*
D03*
X583999D02*
D03*
X529001D02*
D03*
X539999D02*
D03*
X551000D02*
D03*
X572999D02*
D03*
X595000D02*
D03*
X606001D02*
D03*
X616999D02*
D03*
G54D220*
X521633Y292189D02*
D03*
Y254189D02*
D03*
X521764Y235869D02*
D03*
Y197869D02*
D03*
G54D221*
X433496Y410654D02*
D03*
X1118233Y185024D02*
D03*
X1140233D02*
D03*
X411496Y410654D02*
D03*
G54D222*
X356696Y451199D02*
D03*
G54D223*
X255627Y540988D02*
D03*
X83608Y553508D02*
D03*
X148256Y524395D02*
D03*
X112399Y493080D02*
D03*
X193652Y450743D02*
D03*
X157756Y497395D02*
D03*
X102899Y466080D02*
D03*
X93108Y526508D02*
D03*
X74108Y553508D02*
D03*
X93108D02*
D03*
X74108Y526508D02*
D03*
X121899Y466080D02*
D03*
X102899Y493080D02*
D03*
X121899D02*
D03*
X138756Y497395D02*
D03*
Y524395D02*
D03*
X157756D02*
D03*
X184152Y450743D02*
D03*
X203152Y423743D02*
D03*
Y450743D02*
D03*
X184152Y423743D02*
D03*
X246127Y540988D02*
D03*
X265127D02*
D03*
Y513988D02*
D03*
X246127D02*
D03*
G54D224*
X124272Y506854D02*
D03*
X605415Y197260D02*
D03*
Y181260D02*
D03*
X124272Y522854D02*
D03*
G54D225*
X266125Y465589D02*
D03*
X432169Y336417D02*
D03*
X266125Y446589D02*
D03*
X243125Y456089D02*
D03*
X432169Y355416D02*
D03*
X455169Y345916D02*
D03*
G54D226*
X427881Y381488D02*
D03*
X362350Y363814D02*
D03*
X454881Y390988D02*
D03*
X362350Y354314D02*
D03*
X389350Y373314D02*
D03*
X362350D02*
D03*
X389350Y354314D02*
D03*
X454881Y371988D02*
D03*
X427881D02*
D03*
Y390988D02*
D03*
G54D227*
X487611Y271558D02*
D03*
X485941Y172510D02*
D03*
X455668Y172510D02*
D03*
X485941Y199510D02*
D03*
X455668Y199510D02*
D03*
X487611Y244558D02*
D03*
G54D228*
X495111Y226264D02*
D03*
X194489Y83860D02*
D03*
X167489D02*
D03*
X706125Y297773D02*
D03*
X679125D02*
D03*
X538624Y178936D02*
D03*
X511624D02*
D03*
X468111Y226264D02*
D03*
X603201Y277085D02*
D03*
X576201D02*
D03*
X602878Y214713D02*
D03*
X575878D02*
D03*
G54D229*
X86628Y248793D02*
D03*
X96628Y292793D02*
D03*
Y248793D02*
D03*
X91628D02*
D03*
X81628D02*
D03*
X76627D02*
D03*
Y292793D02*
D03*
X81628D02*
D03*
X86628D02*
D03*
X91628D02*
D03*
G54D230*
X234341Y122390D02*
D03*
Y135090D02*
D03*
X184941D02*
D03*
Y122390D02*
D03*
X234341Y109690D02*
D03*
Y147790D02*
D03*
X184941D02*
D03*
Y109690D02*
D03*
G54D231*
X261406Y95340D02*
D03*
X319106Y147340D02*
D03*
Y140840D02*
D03*
Y134340D02*
D03*
Y127840D02*
D03*
Y121340D02*
D03*
Y114840D02*
D03*
Y108340D02*
D03*
Y101840D02*
D03*
Y95340D02*
D03*
X261406Y101840D02*
D03*
Y108340D02*
D03*
Y114840D02*
D03*
Y121340D02*
D03*
Y127840D02*
D03*
Y134340D02*
D03*
Y140840D02*
D03*
Y147340D02*
D03*
Y153840D02*
D03*
X319106D02*
D03*
G54D232*
X151767Y94698D02*
D03*
X143767D02*
D03*
G54D233*
X95570Y111767D02*
D03*
X139270D02*
D03*
G54D234*
X75100Y141750D02*
D03*
Y146750D02*
D03*
Y151750D02*
D03*
Y156750D02*
D03*
Y161750D02*
D03*
Y166750D02*
D03*
Y171750D02*
D03*
Y176750D02*
D03*
Y181750D02*
D03*
Y186750D02*
D03*
Y191750D02*
D03*
Y196750D02*
D03*
G54D235*
X1177396Y799251D02*
D03*
Y792751D02*
D03*
Y779751D02*
D03*
Y786251D02*
D03*
G54D236*
X1188796Y789501D02*
D03*
G54D237*
X1192396Y803651D02*
D03*
Y775351D02*
D03*
G54D238*
X1176648Y759315D02*
D03*
Y736215D02*
D03*
X1186149D02*
D03*
X1195648D02*
D03*
Y759315D02*
D03*
X1186149D02*
D03*
G54D239*
X423431Y441189D02*
D03*
X345008Y506854D02*
D03*
Y524855D02*
D03*
X304557Y420102D02*
D03*
X423479Y454044D02*
D03*
X318162Y501347D02*
D03*
X423479Y472044D02*
D03*
X318162Y519347D02*
D03*
X423431Y423188D02*
D03*
X298236Y474176D02*
D03*
Y492177D02*
D03*
X304557Y402102D02*
D03*
G54D240*
X708474Y104249D02*
D03*
Y89251D02*
D03*
X737026D02*
D03*
Y104249D02*
D03*
G54D241*
X694537Y803235D02*
D03*
X679537Y831385D02*
D03*
Y803235D02*
D03*
X684537Y831385D02*
D03*
X689537D02*
D03*
X694537D02*
D03*
X689537Y803235D02*
D03*
X684537D02*
D03*
G54D242*
X913497Y696946D02*
D03*
X1017000Y514237D02*
D03*
X1004625Y518538D02*
D03*
X1007410Y530993D02*
D03*
X1017000Y540536D02*
D03*
X1003280Y736994D02*
D03*
X928912Y642915D02*
D03*
X1048141Y574798D02*
D03*
X965366Y511475D02*
D03*
X1241750Y267000D02*
D03*
X1207349Y845000D02*
D03*
X400401Y267000D02*
D03*
X437500Y845000D02*
D03*
G54D243*
X580874Y672827D02*
D03*
X489874Y677827D02*
D03*
Y722827D02*
D03*
Y662827D02*
D03*
Y657827D02*
D03*
X580874Y722827D02*
D03*
Y717827D02*
D03*
X489874Y712827D02*
D03*
X580874D02*
D03*
X489874Y707827D02*
D03*
X580874D02*
D03*
X489874Y702827D02*
D03*
X580874D02*
D03*
Y697827D02*
D03*
X489874D02*
D03*
X580874Y692827D02*
D03*
X489874D02*
D03*
Y687827D02*
D03*
X580874D02*
D03*
Y682827D02*
D03*
X489874D02*
D03*
X580874Y677827D02*
D03*
X489874Y672827D02*
D03*
X580874Y667827D02*
D03*
X489874D02*
D03*
X580874Y662827D02*
D03*
Y657827D02*
D03*
X489874Y652827D02*
D03*
X580874D02*
D03*
X489874Y647827D02*
D03*
X580874D02*
D03*
X489874Y717827D02*
D03*
G54D244*
X1100750Y118425D02*
D03*
X1095750Y118425D02*
D03*
X1085750D02*
D03*
X1080750D02*
D03*
Y127083D02*
D03*
X1085750D02*
D03*
X1095750D02*
D03*
X1100750Y127083D02*
D03*
X1070750Y118667D02*
D03*
X1065750Y118667D02*
D03*
X1055750D02*
D03*
X1050750D02*
D03*
Y127325D02*
D03*
X1055750D02*
D03*
X1065750D02*
D03*
X1070750Y127325D02*
D03*
G54D245*
X826786Y337012D02*
D03*
X862788Y386999D02*
D03*
X858787D02*
D03*
X854787D02*
D03*
X850786D02*
D03*
X846786D02*
D03*
X842788D02*
D03*
X838787D02*
D03*
X834787D02*
D03*
X830786D02*
D03*
X826786D02*
D03*
X830786Y337012D02*
D03*
X834787D02*
D03*
X838787D02*
D03*
X842788D02*
D03*
X846786D02*
D03*
X850786D02*
D03*
X854787D02*
D03*
X858787Y337012D02*
D03*
X862788Y337012D02*
D03*
G54D246*
X819793Y372006D02*
D03*
Y344005D02*
D03*
Y380007D02*
D03*
X869780Y344005D02*
D03*
Y348005D02*
D03*
X869780Y356006D02*
D03*
Y360007D02*
D03*
Y368005D02*
D03*
Y364005D02*
D03*
Y380007D02*
D03*
Y376006D02*
D03*
X819793Y348005D02*
D03*
Y352006D02*
D03*
Y356006D02*
D03*
Y360007D02*
D03*
Y364005D02*
D03*
Y368005D02*
D03*
Y376006D02*
D03*
X869780Y372006D02*
D03*
Y352006D02*
D03*
G54D247*
X788770Y303775D02*
D03*
X814170D02*
D03*
X864970D02*
D03*
X852270D02*
D03*
X890370D02*
D03*
X776070D02*
D03*
X826870Y303775D02*
D03*
X903070Y303775D02*
D03*
X788770Y157725D02*
D03*
X801470Y303775D02*
D03*
X839570D02*
D03*
X877670D02*
D03*
X915770D02*
D03*
X776070Y157725D02*
D03*
G54D248*
X900293Y701948D02*
D03*
Y733448D02*
D03*
G54D249*
X956876Y622929D02*
D03*
Y562931D02*
D03*
G54D250*
X718710Y184715D02*
D03*
X674910Y235515D02*
D03*
Y184715D02*
D03*
X718710Y235515D02*
D03*
G54D251*
X684310Y248715D02*
D03*
X679310D02*
D03*
X709310Y171515D02*
D03*
X714310D02*
D03*
X684310D02*
D03*
X679310D02*
D03*
X714310Y248715D02*
D03*
X709310D02*
D03*
X669310Y171515D02*
D03*
X664310D02*
D03*
X729310D02*
D03*
X724310D02*
D03*
X699310D02*
D03*
X694310D02*
D03*
X664310Y248715D02*
D03*
X669310D02*
D03*
X694310D02*
D03*
X699310D02*
D03*
X724310D02*
D03*
X729310D02*
D03*
G54D252*
X658210Y242615D02*
D03*
X735410Y177615D02*
D03*
X658210D02*
D03*
X735410Y242615D02*
D03*
X658210Y227615D02*
D03*
Y232615D02*
D03*
Y187615D02*
D03*
Y192615D02*
D03*
Y197615D02*
D03*
Y202615D02*
D03*
Y212615D02*
D03*
Y217615D02*
D03*
Y222615D02*
D03*
X735410Y232615D02*
D03*
Y227615D02*
D03*
Y222615D02*
D03*
Y217615D02*
D03*
Y212615D02*
D03*
Y207615D02*
D03*
Y202615D02*
D03*
Y197615D02*
D03*
Y192615D02*
D03*
Y187615D02*
D03*
G54D253*
X671410Y210115D02*
D03*
G54D254*
X696810D02*
D03*
G54D255*
X619296Y198644D02*
D03*
X625796Y177644D02*
D03*
X632296Y198644D02*
D03*
G54D256*
X877670Y157725D02*
D03*
X903070D02*
D03*
X890370D02*
D03*
X864970D02*
D03*
X852270D02*
D03*
X839570D02*
D03*
X826870Y157725D02*
D03*
X814170Y157725D02*
D03*
X801470D02*
D03*
X915770D02*
D03*
G54D257*
X1206396Y786251D02*
D03*
Y792751D02*
D03*
Y779751D02*
D03*
Y799251D02*
D03*
G54D258*
X245000Y711500D02*
D03*
X251500D02*
D03*
X238500D02*
D03*
X258000D02*
D03*
G54D259*
X234100Y725500D02*
D03*
X262400D02*
D03*
G54D260*
X248250Y729100D02*
D03*
G54D261*
X245000Y740500D02*
D03*
X238500D02*
D03*
X251500D02*
D03*
X258000D02*
D03*
G54D262*
X197508Y738202D02*
D03*
X220608D02*
D03*
X197508Y728702D02*
D03*
Y719202D02*
D03*
X220608D02*
D03*
Y728702D02*
D03*
G54D263*
X109982Y585234D02*
D03*
X72982D02*
D03*
X346000Y344750D02*
D03*
X309000D02*
D03*
G54D264*
X73144Y465070D02*
D03*
Y502070D02*
D03*
X132178Y413170D02*
D03*
Y450169D02*
D03*
X192474Y506664D02*
D03*
Y543664D02*
D03*
G54D265*
X147106Y551135D02*
D03*
X131106D02*
D03*
G54D266*
X328696Y485699D02*
D03*
X332196D02*
D03*
X335695D02*
D03*
X339196D02*
D03*
X342696D02*
D03*
X346195D02*
D03*
X349696D02*
D03*
X353196D02*
D03*
X356696D02*
D03*
X360196D02*
D03*
X363696D02*
D03*
X367196D02*
D03*
X370696D02*
D03*
X374196D02*
D03*
X377696D02*
D03*
X381196D02*
D03*
X384696D02*
D03*
Y416699D02*
D03*
X381196D02*
D03*
X377696D02*
D03*
X374196D02*
D03*
X370696D02*
D03*
X367196D02*
D03*
X363696D02*
D03*
X360196D02*
D03*
X356696D02*
D03*
X353196D02*
D03*
X349696D02*
D03*
X346195D02*
D03*
X342696D02*
D03*
X339196D02*
D03*
X335695D02*
D03*
X332196D02*
D03*
X328696D02*
D03*
G54D267*
X341499Y393750D02*
D03*
X400250Y497607D02*
D03*
X418250D02*
D03*
X323498Y393750D02*
D03*
X366850Y516624D02*
D03*
X384850D02*
D03*
G54D268*
X588942Y555150D02*
D03*
X582942D02*
D03*
G54D269*
X657450Y757000D02*
D03*
X657450Y882700D02*
D03*
X525950Y865500D02*
D03*
Y781500D02*
D03*
X845451Y757000D02*
D03*
X845450Y882700D02*
D03*
X713951Y865500D02*
D03*
Y781500D02*
D03*
G54D270*
X541750Y747250D02*
D03*
X641450D02*
D03*
X729751Y747250D02*
D03*
X829450Y747250D02*
D03*
G54D271*
X538950Y888000D02*
D03*
X726951Y888000D02*
D03*
G54D272*
X1365730Y680217D02*
D03*
Y627776D02*
D03*
G54D273*
X1362000Y50000D02*
D03*
Y100000D02*
D03*
Y75000D02*
D03*
X83421Y352123D02*
D03*
X921244Y368834D02*
D03*
X948118Y330620D02*
D03*
X197750Y59500D02*
D03*
G54D274*
X1362000Y25000D02*
D03*
G54D275*
X1237250Y93000D02*
D03*
X1171250Y93000D02*
D03*
G54D276*
X1237748Y744129D02*
D03*
X1203347Y367621D02*
D03*
X154399Y744129D02*
D03*
X191498Y367621D02*
D03*
G54D277*
X932058Y425587D02*
D03*
X431500Y626000D02*
D03*
G54D278*
X1204250Y71000D02*
D03*
G54D279*
X467999Y782500D02*
D03*
Y762500D02*
D03*
X348000Y782500D02*
D03*
X268000D02*
D03*
X348000Y762500D02*
D03*
X268000D02*
D03*
X248000Y782500D02*
D03*
X507999D02*
D03*
Y762500D02*
D03*
X487999Y782500D02*
D03*
Y762500D02*
D03*
X447999Y782500D02*
D03*
Y762500D02*
D03*
X427999Y782500D02*
D03*
Y762500D02*
D03*
X407999Y782500D02*
D03*
Y762500D02*
D03*
X388000Y782500D02*
D03*
Y762500D02*
D03*
X368000Y782500D02*
D03*
Y762500D02*
D03*
X328000Y782500D02*
D03*
Y762500D02*
D03*
X308000Y782500D02*
D03*
Y762500D02*
D03*
X288000Y782500D02*
D03*
Y762500D02*
D03*
X248000D02*
D03*
X228000Y782500D02*
D03*
Y762500D02*
D03*
G54D280*
X625000Y20001D02*
D03*
X545000D02*
D03*
G54D281*
X415500Y131750D02*
D03*
X450500Y116750D02*
D03*
X235641Y183500D02*
D03*
X425500Y116750D02*
D03*
X405500D02*
D03*
X435500Y131750D02*
D03*
X395500D02*
D03*
X455500D02*
D03*
X375500D02*
D03*
G54D282*
X311787Y184007D02*
D03*
X391788D02*
D03*
X291788D02*
D03*
X331787D02*
D03*
X351787D02*
D03*
X371787D02*
D03*
G54D283*
X279000Y42750D02*
D03*
X304400D02*
D03*
G54D284*
X64000Y199750D02*
D03*
Y138750D02*
D03*
X57000Y145250D02*
D03*
Y153250D02*
D03*
X64000Y157250D02*
D03*
X57000Y161250D02*
D03*
X64000Y165250D02*
D03*
Y173250D02*
D03*
X57000Y177250D02*
D03*
X64000Y181250D02*
D03*
X57000Y185250D02*
D03*
Y193250D02*
D03*
G54D285*
X66000Y72694D02*
D03*
X40600Y47294D02*
D03*
X66000D02*
D03*
X91400D02*
D03*
G54D286*
X72100Y214250D02*
D03*
X72100Y124250D02*
D03*
X16000Y214250D02*
D03*
X16000Y124250D02*
D03*
G54D287*
X83421Y326723D02*
D03*
G54D288*
X66000Y16306D02*
D03*
G54D289*
X1319000Y772250D02*
D03*
X78642Y776289D02*
D03*
G54D290*
X1298000Y697250D02*
D03*
X99642Y851289D02*
D03*
G54D291*
X1356000Y821750D02*
D03*
X44000Y783650D02*
D03*
G54D292*
X1295544Y140391D02*
D03*
X1296102Y54577D02*
D03*
G54D293*
X215641Y183500D02*
D03*
G54D294*
X946644Y368834D02*
D03*
X922718Y330620D02*
D03*
X162750Y59500D02*
D03*
G54D295*
X1295544Y165391D02*
D03*
X1296102Y79577D02*
D03*
G54D296*
X23100Y275027D02*
D03*
Y561027D02*
D03*
X1376900Y561000D02*
D03*
Y275000D02*
D03*
G54D297*
X904600Y111500D02*
D03*
X930000D02*
D03*
X809400D02*
D03*
X784000D02*
D03*
X872240Y126500D02*
D03*
X851920D02*
D03*
X821440Y137500D02*
D03*
X831600Y126500D02*
D03*
X862080Y137500D02*
D03*
X841760D02*
D03*
X882400D02*
D03*
X892560Y126500D02*
D03*
G54D298*
X937400Y62500D02*
D03*
X776600D02*
D03*
G54D299*
X985962Y86900D02*
D03*
X1130962D02*
D03*
G54D300*
X985962Y27300D02*
D03*
X1130962D02*
D03*
G54D301*
X1167250Y19000D02*
D03*
X1241250D02*
D03*
G54D302*
X1204250Y30000D02*
D03*
G54D303*
X672500Y849750D02*
D03*
X581000D02*
D03*
G54D304*
X380500Y116750D02*
D03*
G54D305*
X481200Y96750D02*
D03*
G54D306*
X349800D02*
D03*
G54D307*
X411787Y184007D02*
D03*
G54D308*
X253600Y42750D02*
D03*
G54D309*
X1356000Y783650D02*
D03*
X44000Y821750D02*
D03*
G54D310*
X57000Y132000D02*
D03*
Y206500D02*
D03*
G54D311*
X723840Y36980D02*
D03*
Y66980D02*
D03*
G54D312*
X1235000Y170000D02*
D03*
Y670000D02*
D03*
X135000Y670000D02*
D03*
Y170000D02*
D03*
G54D313*
X554874Y685327D02*
D03*
X542374D02*
D03*
X535374Y704827D02*
D03*
Y692327D02*
D03*
X515874Y685327D02*
D03*
X528374D02*
D03*
X535374Y678327D02*
D03*
Y665827D02*
D03*
M02*
